<svg width="63" height="55" viewBox="0 0 63 55" fill="none" xmlns="http://www.w3.org/2000/svg">
<path d="M7.38281 44.3398C7.28516 45.2383 6.96289 45.9258 6.41602 46.4023C5.87305 46.8789 5.14844 47.1172 4.24219 47.1172C3.60938 47.1172 3.04883 46.959 2.56055 46.6426C2.07617 46.3262 1.70117 45.8789 1.43555 45.3008C1.16992 44.7188 1.03516 44.0547 1.03125 43.3086V42.2012C1.03125 41.4434 1.16406 40.7715 1.42969 40.1855C1.69531 39.5996 2.07617 39.1484 2.57227 38.832C3.07227 38.5117 3.64648 38.3516 4.29492 38.3516C5.20898 38.3516 5.92969 38.5996 6.45703 39.0957C6.98828 39.5879 7.29688 40.2695 7.38281 41.1406H6.65625C6.47656 39.6914 5.68945 38.9668 4.29492 38.9668C3.52148 38.9668 2.9043 39.2559 2.44336 39.834C1.98633 40.4121 1.75781 41.2109 1.75781 42.2305V43.2734C1.75781 44.2578 1.98047 45.043 2.42578 45.6289C2.875 46.2148 3.48047 46.5078 4.24219 46.5078C4.99609 46.5078 5.56445 46.3281 5.94727 45.9688C6.33008 45.6055 6.56641 45.0625 6.65625 44.3398H7.38281ZM12.9727 47C12.9023 46.8008 12.8574 46.5059 12.8379 46.1152C12.5918 46.4355 12.2773 46.6836 11.8945 46.8594C11.5156 47.0312 11.1133 47.1172 10.6875 47.1172C10.0781 47.1172 9.58398 46.9473 9.20508 46.6074C8.83008 46.2676 8.64258 45.8379 8.64258 45.3184C8.64258 44.7012 8.89844 44.2129 9.41016 43.8535C9.92578 43.4941 10.6426 43.3145 11.5605 43.3145H12.832V42.5938C12.832 42.1406 12.6914 41.7852 12.4102 41.5273C12.1328 41.2656 11.7266 41.1348 11.1914 41.1348C10.7031 41.1348 10.2988 41.2598 9.97852 41.5098C9.6582 41.7598 9.49805 42.0605 9.49805 42.4121L8.79492 42.4062C8.79492 41.9023 9.0293 41.4668 9.49805 41.0996C9.9668 40.7285 10.543 40.543 11.2266 40.543C11.9336 40.543 12.4902 40.7207 12.8965 41.0762C13.3066 41.4277 13.5176 41.9199 13.5293 42.5527V45.5527C13.5293 46.166 13.5938 46.625 13.7227 46.9297V47H12.9727ZM10.7695 46.4961C11.2383 46.4961 11.6562 46.3828 12.0234 46.1562C12.3945 45.9297 12.6641 45.627 12.832 45.248V43.8535H11.5781C10.8789 43.8613 10.332 43.9902 9.9375 44.2402C9.54297 44.4863 9.3457 44.8262 9.3457 45.2598C9.3457 45.6152 9.47656 45.9102 9.73828 46.1445C10.0039 46.3789 10.3477 46.4961 10.7695 46.4961ZM16.1895 47H15.4863V38H16.1895V47ZM20.4434 46.5254C20.9316 46.5254 21.3398 46.3887 21.668 46.1152C22 45.8379 22.1797 45.4805 22.207 45.043H22.8809C22.8613 45.4297 22.7402 45.7832 22.5176 46.1035C22.2949 46.4199 21.998 46.668 21.627 46.8477C21.2598 47.0273 20.8652 47.1172 20.4434 47.1172C19.6113 47.1172 18.9512 46.8281 18.4629 46.25C17.9785 45.6719 17.7363 44.8945 17.7363 43.918V43.707C17.7363 43.082 17.8457 42.5293 18.0645 42.0488C18.2832 41.5684 18.5957 41.1973 19.002 40.9355C19.4121 40.6738 19.8906 40.543 20.4375 40.543C21.1328 40.543 21.7051 40.75 22.1543 41.1641C22.6074 41.5781 22.8496 42.123 22.8809 42.7988H22.207C22.1758 42.3027 21.9961 41.9023 21.668 41.5977C21.3438 41.293 20.9336 41.1406 20.4375 41.1406C19.8047 41.1406 19.3125 41.3691 18.9609 41.8262C18.6133 42.2832 18.4395 42.9238 18.4395 43.748V43.9531C18.4395 44.7617 18.6133 45.3926 18.9609 45.8457C19.3125 46.2988 19.8066 46.5254 20.4434 46.5254ZM28.3652 46.1973C27.9434 46.8105 27.2695 47.1172 26.3438 47.1172C25.668 47.1172 25.1543 46.9219 24.8027 46.5312C24.4512 46.1367 24.2715 45.5547 24.2637 44.7852V40.6602H24.9609V44.6973C24.9609 45.9043 25.4492 46.5078 26.4258 46.5078C27.4414 46.5078 28.084 46.0879 28.3535 45.248V40.6602H29.0566V47H28.377L28.3652 46.1973ZM31.6699 47H30.9668V38H31.6699V47ZM37.582 47C37.5117 46.8008 37.4668 46.5059 37.4473 46.1152C37.2012 46.4355 36.8867 46.6836 36.5039 46.8594C36.125 47.0312 35.7227 47.1172 35.2969 47.1172C34.6875 47.1172 34.1934 46.9473 33.8145 46.6074C33.4395 46.2676 33.252 45.8379 33.252 45.3184C33.252 44.7012 33.5078 44.2129 34.0195 43.8535C34.5352 43.4941 35.252 43.3145 36.1699 43.3145H37.4414V42.5938C37.4414 42.1406 37.3008 41.7852 37.0195 41.5273C36.7422 41.2656 36.3359 41.1348 35.8008 41.1348C35.3125 41.1348 34.9082 41.2598 34.5879 41.5098C34.2676 41.7598 34.1074 42.0605 34.1074 42.4121L33.4043 42.4062C33.4043 41.9023 33.6387 41.4668 34.1074 41.0996C34.5762 40.7285 35.1523 40.543 35.8359 40.543C36.543 40.543 37.0996 40.7207 37.5059 41.0762C37.916 41.4277 38.127 41.9199 38.1387 42.5527V45.5527C38.1387 46.166 38.2031 46.625 38.332 46.9297V47H37.582ZM35.3789 46.4961C35.8477 46.4961 36.2656 46.3828 36.6328 46.1562C37.0039 45.9297 37.2734 45.627 37.4414 45.248V43.8535H36.1875C35.4883 43.8613 34.9414 43.9902 34.5469 44.2402C34.1523 44.4863 33.9551 44.8262 33.9551 45.2598C33.9551 45.6152 34.0859 45.9102 34.3477 46.1445C34.6133 46.3789 34.957 46.4961 35.3789 46.4961ZM39.7324 43.7715C39.7324 42.7871 39.9512 42.0039 40.3887 41.4219C40.8301 40.8359 41.4277 40.543 42.1816 40.543C43.0371 40.543 43.6895 40.8809 44.1387 41.5566V38H44.8359V47H44.1797L44.1504 46.1562C43.7012 46.7969 43.041 47.1172 42.1699 47.1172C41.4395 47.1172 40.8496 46.8242 40.4004 46.2383C39.9551 45.6484 39.7324 44.8535 39.7324 43.8535V43.7715ZM40.4414 43.8945C40.4414 44.7031 40.6035 45.3418 40.9277 45.8105C41.252 46.2754 41.709 46.5078 42.2988 46.5078C43.1621 46.5078 43.7754 46.127 44.1387 45.3652V42.3887C43.7754 41.5645 43.166 41.1523 42.3105 41.1523C41.7207 41.1523 41.2617 41.3848 40.9336 41.8496C40.6055 42.3105 40.4414 42.9922 40.4414 43.8945ZM46.2949 43.7363C46.2949 43.127 46.4121 42.5781 46.6465 42.0898C46.8848 41.6016 47.2188 41.2227 47.6484 40.9531C48.082 40.6797 48.5723 40.543 49.1191 40.543C49.9629 40.543 50.6465 40.8398 51.1699 41.4336C51.6934 42.0234 51.9551 42.8066 51.9551 43.7832V43.9297C51.9551 44.543 51.8359 45.0957 51.5977 45.5879C51.3633 46.0762 51.0312 46.4531 50.6016 46.7188C50.1719 46.9844 49.6816 47.1172 49.1309 47.1172C48.291 47.1172 47.6074 46.8223 47.0801 46.2324C46.5566 45.6387 46.2949 44.8535 46.2949 43.877V43.7363ZM46.998 43.9297C46.998 44.6875 47.1934 45.3105 47.584 45.7988C47.9785 46.2832 48.4941 46.5254 49.1309 46.5254C49.7637 46.5254 50.2754 46.2832 50.666 45.7988C51.0605 45.3105 51.2578 44.668 51.2578 43.8711V43.7363C51.2578 43.252 51.168 42.8086 50.9883 42.4062C50.8086 42.0039 50.5566 41.6934 50.2324 41.4746C49.9082 41.252 49.5371 41.1406 49.1191 41.1406C48.4941 41.1406 47.9844 41.3867 47.5898 41.8789C47.1953 42.3672 46.998 43.0078 46.998 43.8008V43.9297ZM56.3379 41.2578C56.1895 41.2305 56.0312 41.2168 55.8633 41.2168C55.4258 41.2168 55.0547 41.3398 54.75 41.5859C54.4492 41.8281 54.2344 42.1816 54.1055 42.6465V47H53.4082V40.6602H54.0938L54.1055 41.668C54.4766 40.918 55.0723 40.543 55.8926 40.543C56.0879 40.543 56.2422 40.5684 56.3555 40.6191L56.3379 41.2578ZM61.2188 47C61.1484 46.8008 61.1035 46.5059 61.084 46.1152C60.8379 46.4355 60.5234 46.6836 60.1406 46.8594C59.7617 47.0312 59.3594 47.1172 58.9336 47.1172C58.3242 47.1172 57.8301 46.9473 57.4512 46.6074C57.0762 46.2676 56.8887 45.8379 56.8887 45.3184C56.8887 44.7012 57.1445 44.2129 57.6562 43.8535C58.1719 43.4941 58.8887 43.3145 59.8066 43.3145H61.0781V42.5938C61.0781 42.1406 60.9375 41.7852 60.6562 41.5273C60.3789 41.2656 59.9727 41.1348 59.4375 41.1348C58.9492 41.1348 58.5449 41.2598 58.2246 41.5098C57.9043 41.7598 57.7441 42.0605 57.7441 42.4121L57.041 42.4062C57.041 41.9023 57.2754 41.4668 57.7441 41.0996C58.2129 40.7285 58.7891 40.543 59.4727 40.543C60.1797 40.543 60.7363 40.7207 61.1426 41.0762C61.5527 41.4277 61.7637 41.9199 61.7754 42.5527V45.5527C61.7754 46.166 61.8398 46.625 61.9688 46.9297V47H61.2188ZM59.0156 46.4961C59.4844 46.4961 59.9023 46.3828 60.2695 46.1562C60.6406 45.9297 60.9102 45.627 61.0781 45.248V43.8535H59.8242C59.125 43.8613 58.5781 43.9902 58.1836 44.2402C57.7891 44.4863 57.5918 44.8262 57.5918 45.2598C57.5918 45.6152 57.7227 45.9102 57.9844 46.1445C58.25 46.3789 58.5938 46.4961 59.0156 46.4961Z" fill="#09485F"/>
<path d="M45.2222 14.3333C45.5334 14.3333 45.7778 14.5778 45.7778 14.8889C45.7778 15.2 45.5334 15.4444 45.2222 15.4444H44.6667V14.3333H45.2222Z" fill="#09485F" stroke="#09485F" stroke-width="0.5" stroke-linecap="round" stroke-linejoin="round"/>
<path d="M32.4445 14.3333H44.6667V15.4444H32.4445V14.3333Z" fill="#09485F" stroke="#09485F" stroke-width="0.5" stroke-linecap="round" stroke-linejoin="round"/>
<path d="M42.7685 28.7778H31.3333C31.6704 28.7778 31.9352 28.5333 31.9352 28.2222V27.6667H42.7685C43.7676 27.6667 44.5741 26.9222 44.5741 26V16H45.1759C45.5129 16 45.7778 15.7556 45.7778 15.4445V26C45.7778 27.5333 44.4296 28.7778 42.7685 28.7778Z" fill="#09485F" stroke="#09485F" stroke-width="0.5" stroke-linecap="round" stroke-linejoin="round"/>
<path d="M45.7778 4.00926V15.4444C45.7778 15.1074 45.5129 14.8426 45.1759 14.8426H44.5741V4.00926C44.5741 3.01019 43.7676 2.2037 42.7685 2.2037H31.9352V1.60185C31.9352 1.26481 31.6704 1 31.3333 1H42.7685C44.4296 1 45.7778 2.34815 45.7778 4.00926Z" fill="#09485F" stroke="#09485F" stroke-width="0.5" stroke-linecap="round" stroke-linejoin="round"/>
<path d="M40.7778 7.66669C41.0889 7.66669 41.3333 7.91113 41.3333 8.22224C41.3333 8.53335 41.0889 8.7778 40.7778 8.7778H36.3333C36.0222 8.7778 35.7778 8.53335 35.7778 8.22224C35.7778 7.91113 36.0222 7.66669 36.3333 7.66669H40.7778Z" fill="#09485F" stroke="#09485F" stroke-width="0.5" stroke-linecap="round" stroke-linejoin="round"/>
<path d="M40.7778 19.8889C41.0889 19.8889 41.3333 20.1334 41.3333 20.4445C41.3333 20.7556 41.0889 21 40.7778 21H36.3333C36.0222 21 35.7778 20.7556 35.7778 20.4445C35.7778 20.1334 36.0222 19.8889 36.3333 19.8889H40.7778Z" fill="#09485F" stroke="#09485F" stroke-width="0.5" stroke-linecap="round" stroke-linejoin="round"/>
<path d="M40.7778 23.2222C41.0889 23.2222 41.3333 23.4667 41.3333 23.7778C41.3333 24.0889 41.0889 24.3333 40.7778 24.3333H36.3333C36.0222 24.3333 35.7778 24.0889 35.7778 23.7778C35.7778 23.4667 36.0222 23.2222 36.3333 23.2222H40.7778Z" fill="#09485F" stroke="#09485F" stroke-width="0.5" stroke-linecap="round" stroke-linejoin="round"/>
<path d="M32.4444 27.6667V28.2222C32.4444 28.5334 32.2 28.7778 31.8889 28.7778C31.5778 28.7778 31.3333 28.5334 31.3333 28.2222V27.6667H32.4444Z" fill="#09485F" stroke="#09485F" stroke-width="0.5" stroke-linecap="round" stroke-linejoin="round"/>
<path d="M31.3333 15.4445H32.4444V27.6667H31.3333V15.4445Z" fill="#09485F" stroke="#09485F" stroke-width="0.5" stroke-linecap="round" stroke-linejoin="round"/>
<path d="M31.3333 14.3333H32.4444V15.4444H31.3333V14.3333Z" fill="#09485F" stroke="#09485F" stroke-width="0.5" stroke-linecap="round" stroke-linejoin="round"/>
<path d="M31.3333 2.11108H32.4444V14.3333H31.3333V2.11108Z" fill="#09485F" stroke="#09485F" stroke-width="0.5" stroke-linecap="round" stroke-linejoin="round"/>
<path d="M32.4444 1.55556V2.11111H31.3333V1.55556C31.3333 1.24444 31.5778 1 31.8889 1C32.2 1 32.4444 1.24444 32.4444 1.55556Z" fill="#09485F" stroke="#09485F" stroke-width="0.5" stroke-linecap="round" stroke-linejoin="round"/>
<path d="M19.1111 14.3333H31.3333V15.4444H19.1111V14.3333Z" fill="#09485F" stroke="#09485F" stroke-width="0.5" stroke-linecap="round" stroke-linejoin="round"/>
<path d="M27.4444 7.66669C27.7555 7.66669 28 7.91113 28 8.22224C28 8.53335 27.7555 8.7778 27.4444 8.7778H25.7778V7.66669H27.4444Z" fill="#09485F" stroke="#09485F" stroke-width="0.5" stroke-linecap="round" stroke-linejoin="round"/>
<path d="M26.7222 23.3889C26.9445 23.6 26.9445 23.9555 26.7222 24.1666C26.6222 24.2778 26.4778 24.3333 26.3334 24.3333C26.1889 24.3333 26.0445 24.2778 25.9445 24.1666L24.6667 22.8889L25.4445 22.1111L26.7222 23.3889Z" fill="#09485F" stroke="#09485F" stroke-width="0.5" stroke-linecap="round" stroke-linejoin="round"/>
<path d="M25.9445 20.0556C26.1556 19.8334 26.5111 19.8334 26.7222 20.0556C26.9445 20.2667 26.9445 20.6223 26.7222 20.8334L25.4445 22.1111L24.6667 21.3334L25.9445 20.0556Z" fill="#09485F" stroke="#09485F" stroke-width="0.5" stroke-linecap="round" stroke-linejoin="round"/>
<path d="M24.1309 21.8322L24.9411 21.0219L25.7513 21.8322L24.9411 22.6424L24.1309 21.8322Z" fill="#09485F" stroke="#09485F" stroke-width="0.5" stroke-linecap="round" stroke-linejoin="round"/>
<path d="M25.7778 8.77777V10.4444C25.7778 10.7555 25.5334 11 25.2222 11C24.9111 11 24.6667 10.7555 24.6667 10.4444V8.77777H25.7778Z" fill="#09485F" stroke="#09485F" stroke-width="0.5" stroke-linecap="round" stroke-linejoin="round"/>
<path d="M24.6667 7.66669H25.7778V8.7778H24.6667V7.66669Z" fill="#09485F" stroke="#09485F" stroke-width="0.5" stroke-linecap="round" stroke-linejoin="round"/>
<path d="M25.7778 6.00001V7.66668H24.6667V6.00001C24.6667 5.6889 24.9111 5.44446 25.2222 5.44446C25.5334 5.44446 25.7778 5.6889 25.7778 6.00001Z" fill="#09485F" stroke="#09485F" stroke-width="0.5" stroke-linecap="round" stroke-linejoin="round"/>
<path d="M24.6667 21.3334L23.8889 22.1111L22.6111 20.8334C22.3889 20.6223 22.3889 20.2667 22.6111 20.0556C22.8222 19.8334 23.1778 19.8334 23.3889 20.0556L24.6667 21.3334Z" fill="#09485F" stroke="#09485F" stroke-width="0.5" stroke-linecap="round" stroke-linejoin="round"/>
<path d="M24.6667 7.66669V8.7778H23C22.6889 8.7778 22.4445 8.53335 22.4445 8.22224C22.4445 7.91113 22.6889 7.66669 23 7.66669H24.6667Z" fill="#09485F" stroke="#09485F" stroke-width="0.5" stroke-linecap="round" stroke-linejoin="round"/>
<path d="M23.3889 24.1666C23.2889 24.2778 23.1445 24.3333 23 24.3333C22.8556 24.3333 22.7111 24.2778 22.6111 24.1666C22.3889 23.9555 22.3889 23.6 22.6111 23.3889L23.8889 22.1111L24.6667 22.8889L23.3889 24.1666Z" fill="#09485F" stroke="#09485F" stroke-width="0.5" stroke-linecap="round" stroke-linejoin="round"/>
<path d="M19.1111 14.3333V15.4444H18.5556C18.2444 15.4444 18 15.2 18 14.8889C18 14.5778 18.2444 14.3333 18.5556 14.3333H19.1111Z" fill="#09485F" stroke="#09485F" stroke-width="0.5" stroke-linecap="round" stroke-linejoin="round"/>
<path d="M18 4.00926C18 2.34815 19.2444 1 20.7778 1H31.3333C31.0222 1 30.7778 1.26481 30.7778 1.60185V2.2037H20.7778C19.8556 2.2037 19.1111 3.01019 19.1111 4.00926V14.8426H18.5556C18.2444 14.8426 18 15.1074 18 15.4444V4.00926Z" fill="#09485F" stroke="#09485F" stroke-width="0.5" stroke-linecap="round" stroke-linejoin="round"/>
<path d="M19.1111 26C19.1111 26.9222 19.8556 27.6667 20.7778 27.6667H30.7778V28.2222C30.7778 28.5333 31.0222 28.7778 31.3333 28.7778H20.7778C19.2444 28.7778 18 27.5333 18 26V15.4445C18 15.7556 18.2444 16 18.5556 16H19.1111V26Z" fill="#09485F" stroke="#09485F" stroke-width="0.5" stroke-linecap="round" stroke-linejoin="round"/>
</svg>
