<svg width="52" height="53" viewBox="0 0 52 53" fill="none" xmlns="http://www.w3.org/2000/svg">
<path d="M7.53711 42.3398C7.43945 43.2383 7.11719 43.9258 6.57031 44.4023C6.02734 44.8789 5.30273 45.1172 4.39648 45.1172C3.76367 45.1172 3.20312 44.959 2.71484 44.6426C2.23047 44.3262 1.85547 43.8789 1.58984 43.3008C1.32422 42.7188 1.18945 42.0547 1.18555 41.3086V40.2012C1.18555 39.4434 1.31836 38.7715 1.58398 38.1855C1.84961 37.5996 2.23047 37.1484 2.72656 36.832C3.22656 36.5117 3.80078 36.3516 4.44922 36.3516C5.36328 36.3516 6.08398 36.5996 6.61133 37.0957C7.14258 37.5879 7.45117 38.2695 7.53711 39.1406H6.81055C6.63086 37.6914 5.84375 36.9668 4.44922 36.9668C3.67578 36.9668 3.05859 37.2559 2.59766 37.834C2.14062 38.4121 1.91211 39.2109 1.91211 40.2305V41.2734C1.91211 42.2578 2.13477 43.043 2.58008 43.6289C3.0293 44.2148 3.63477 44.5078 4.39648 44.5078C5.15039 44.5078 5.71875 44.3281 6.10156 43.9688C6.48438 43.6055 6.7207 43.0625 6.81055 42.3398H7.53711ZM8.73828 41.7363C8.73828 41.127 8.85547 40.5781 9.08984 40.0898C9.32812 39.6016 9.66211 39.2227 10.0918 38.9531C10.5254 38.6797 11.0156 38.543 11.5625 38.543C12.4062 38.543 13.0898 38.8398 13.6133 39.4336C14.1367 40.0234 14.3984 40.8066 14.3984 41.7832V41.9297C14.3984 42.543 14.2793 43.0957 14.041 43.5879C13.8066 44.0762 13.4746 44.4531 13.0449 44.7188C12.6152 44.9844 12.125 45.1172 11.5742 45.1172C10.7344 45.1172 10.0508 44.8223 9.52344 44.2324C9 43.6387 8.73828 42.8535 8.73828 41.877V41.7363ZM9.44141 41.9297C9.44141 42.6875 9.63672 43.3105 10.0273 43.7988C10.4219 44.2832 10.9375 44.5254 11.5742 44.5254C12.207 44.5254 12.7188 44.2832 13.1094 43.7988C13.5039 43.3105 13.7012 42.668 13.7012 41.8711V41.7363C13.7012 41.252 13.6113 40.8086 13.4316 40.4062C13.252 40.0039 13 39.6934 12.6758 39.4746C12.3516 39.252 11.9805 39.1406 11.5625 39.1406C10.9375 39.1406 10.4277 39.3867 10.0332 39.8789C9.63867 40.3672 9.44141 41.0078 9.44141 41.8008V41.9297ZM16.5195 38.6602L16.543 39.7441C16.7812 39.3535 17.0781 39.0566 17.4336 38.8535C17.7891 38.6465 18.1816 38.543 18.6113 38.543C19.291 38.543 19.7969 38.7344 20.1289 39.1172C20.4609 39.5 20.6289 40.0742 20.6328 40.8398V45H19.9355V40.834C19.9316 40.2676 19.8105 39.8457 19.5723 39.5684C19.3379 39.291 18.9609 39.1523 18.4414 39.1523C18.0078 39.1523 17.623 39.2891 17.2871 39.5625C16.9551 39.832 16.709 40.1973 16.5488 40.6582V45H15.8516V38.6602H16.5195ZM26.2461 43.3887C26.2461 43.041 26.1055 42.7617 25.8242 42.5508C25.5469 42.3398 25.127 42.1758 24.5645 42.0586C24.002 41.9375 23.5645 41.8008 23.252 41.6484C22.9434 41.4922 22.7129 41.3027 22.5605 41.0801C22.4121 40.8574 22.3379 40.5879 22.3379 40.2715C22.3379 39.7715 22.5469 39.3594 22.9648 39.0352C23.3828 38.707 23.918 38.543 24.5703 38.543C25.2773 38.543 25.8438 38.7188 26.2695 39.0703C26.6992 39.418 26.9141 39.873 26.9141 40.4355H26.2109C26.2109 40.0645 26.0547 39.7559 25.7422 39.5098C25.4336 39.2637 25.043 39.1406 24.5703 39.1406C24.1094 39.1406 23.7383 39.2441 23.457 39.4512C23.1797 39.6543 23.041 39.9199 23.041 40.248C23.041 40.5645 23.1562 40.8105 23.3867 40.9863C23.6211 41.1582 24.0449 41.3164 24.6582 41.4609C25.2754 41.6055 25.7363 41.7598 26.041 41.9238C26.3496 42.0879 26.5781 42.2852 26.7266 42.5156C26.875 42.7461 26.9492 43.0254 26.9492 43.3535C26.9492 43.8887 26.7324 44.3164 26.2988 44.6367C25.8691 44.957 25.3066 45.1172 24.6113 45.1172C23.873 45.1172 23.2734 44.9395 22.8125 44.584C22.3555 44.2246 22.127 43.7715 22.127 43.2246H22.8301C22.8574 43.6348 23.0293 43.9551 23.3457 44.1855C23.666 44.4121 24.0879 44.5254 24.6113 44.5254C25.0996 44.5254 25.4941 44.418 25.7949 44.2031C26.0957 43.9883 26.2461 43.7168 26.2461 43.3887ZM32.6094 44.1973C32.1875 44.8105 31.5137 45.1172 30.5879 45.1172C29.9121 45.1172 29.3984 44.9219 29.0469 44.5312C28.6953 44.1367 28.5156 43.5547 28.5078 42.7852V38.6602H29.2051V42.6973C29.2051 43.9043 29.6934 44.5078 30.6699 44.5078C31.6855 44.5078 32.3281 44.0879 32.5977 43.248V38.6602H33.3008V45H32.6211L32.6094 44.1973ZM35.7676 38.6602L35.791 39.6914C36.0254 39.3086 36.3184 39.0215 36.6699 38.8301C37.0215 38.6387 37.4121 38.543 37.8418 38.543C38.8418 38.543 39.4766 38.9531 39.7461 39.7734C39.9727 39.3789 40.2754 39.0762 40.6543 38.8652C41.0332 38.6504 41.4512 38.543 41.9082 38.543C43.2676 38.543 43.9609 39.2852 43.9883 40.7695V45H43.2852V40.8223C43.2812 40.2559 43.1582 39.8359 42.916 39.5625C42.6777 39.2891 42.2871 39.1523 41.7441 39.1523C41.2402 39.1602 40.8145 39.3242 40.4668 39.6445C40.1191 39.9609 39.9258 40.3477 39.8867 40.8047V45H39.1836V40.7695C39.1797 40.2266 39.0508 39.8223 38.7969 39.5566C38.5469 39.2871 38.1602 39.1523 37.6367 39.1523C37.1953 39.1523 36.8164 39.2793 36.5 39.5332C36.1836 39.7832 35.9492 40.1562 35.7969 40.6523V45H35.0938V38.6602H35.7676ZM45.3828 41.7363C45.3828 41.127 45.5 40.5781 45.7344 40.0898C45.9727 39.6016 46.3066 39.2227 46.7363 38.9531C47.1699 38.6797 47.6602 38.543 48.207 38.543C49.0508 38.543 49.7344 38.8398 50.2578 39.4336C50.7812 40.0234 51.043 40.8066 51.043 41.7832V41.9297C51.043 42.543 50.9238 43.0957 50.6855 43.5879C50.4512 44.0762 50.1191 44.4531 49.6895 44.7188C49.2598 44.9844 48.7695 45.1172 48.2188 45.1172C47.3789 45.1172 46.6953 44.8223 46.168 44.2324C45.6445 43.6387 45.3828 42.8535 45.3828 41.877V41.7363ZM46.0859 41.9297C46.0859 42.6875 46.2812 43.3105 46.6719 43.7988C47.0664 44.2832 47.582 44.5254 48.2188 44.5254C48.8516 44.5254 49.3633 44.2832 49.7539 43.7988C50.1484 43.3105 50.3457 42.668 50.3457 41.8711V41.7363C50.3457 41.252 50.2559 40.8086 50.0762 40.4062C49.8965 40.0039 49.6445 39.6934 49.3203 39.4746C48.9961 39.252 48.625 39.1406 48.207 39.1406C47.582 39.1406 47.0723 39.3867 46.6777 39.8789C46.2832 40.3672 46.0859 41.0078 46.0859 41.8008V41.9297Z" fill="#09485F"/>
<path d="M10.0794 1.53192H14.3968C14.4233 1.53192 14.4434 1.54149 14.458 1.55584C14.4723 1.56994 14.4762 1.58308 14.4762 1.59575V22.8723C14.4762 22.885 14.4723 22.8982 14.458 22.9123C14.4434 22.9266 14.4233 22.9362 14.3968 22.9362H10.0794C10.0529 22.9362 10.0328 22.9266 10.0182 22.9123C10.0039 22.8982 10 22.885 10 22.8723V1.59575C10 1.58308 10.0039 1.56994 10.0182 1.55584C10.0328 1.54149 10.0529 1.53192 10.0794 1.53192Z" stroke="#09485F" stroke-width="2"/>
<path d="M19.7035 8.97876H23.6508V22.9362H19.7035C19.7038 22.9362 19.7036 22.9362 19.7029 22.9361C19.6962 22.9354 19.6453 22.9304 19.5518 22.8967C19.4553 22.862 19.3502 22.81 19.2561 22.7495C19.2245 22.7293 19.1974 22.7101 19.1746 22.6928V9.00049C19.3376 8.98503 19.5231 8.97876 19.7035 8.97876ZM19.0833 22.6116C19.0833 22.6116 19.0836 22.612 19.0843 22.6129L19.0833 22.6116Z" stroke="#09485F" stroke-width="2"/>
<path d="M28.6984 3.12769H32.8254V22.6793C32.8254 22.7537 32.8179 22.8332 32.803 22.9062C32.8008 22.9167 32.7986 22.9267 32.7963 22.9362H28.7191C28.7113 22.9338 28.6961 22.9284 28.6735 22.9174C28.6183 22.8906 28.5498 22.8447 28.4835 22.7826C28.4166 22.7201 28.3723 22.6603 28.3498 22.6199C28.3496 22.6195 28.3494 22.6192 28.3492 22.6188V3.15965C28.3644 3.15663 28.3804 3.15371 28.3974 3.15093C28.4925 3.1354 28.597 3.12769 28.6984 3.12769ZM32.7523 23.0596C32.7523 23.0596 32.7526 23.0591 32.7532 23.0583L32.7523 23.0596ZM28.3381 22.5956C28.3381 22.5956 28.3386 22.5968 28.3393 22.599C28.3384 22.5968 28.338 22.5956 28.3381 22.5956ZM28.1762 3.21296C28.1762 3.21294 28.177 3.21244 28.1787 3.21151C28.1771 3.21251 28.1763 3.21298 28.1762 3.21296Z" stroke="#09485F" stroke-width="2"/>
<path d="M37.873 16.4255H42V22.9361H37.873C37.8408 22.9361 37.7774 22.9292 37.6876 22.9033C37.6325 22.8874 37.5767 22.8671 37.5238 22.8442V16.4188C37.636 16.4224 37.7564 16.4255 37.873 16.4255Z" stroke="#09485F" stroke-width="2"/>
</svg>
