<svg width="143" height="120" viewBox="0 0 143 120" fill="none" xmlns="http://www.w3.org/2000/svg">
<path d="M0 20.5157C0 9.1852 9.1852 0 20.5157 0H122.484C133.815 0 143 9.1852 143 20.5157V99.4843C143 110.815 133.815 120 122.484 120H20.5157C9.18521 120 0 110.815 0 99.4843V20.5157Z" fill="#ECEFF0"/>
<g clip-path="url(#clip0)">
<g clip-path="url(#clip1)">
<rect width="0" height="0" transform="translate(13 -33)" fill="white"/>
</g>
</g>
<path d="M14.644 24.8252V29H13.2378V18.3359H17.1709C18.3379 18.3359 19.251 18.6338 19.9102 19.2295C20.5742 19.8252 20.9062 20.6138 20.9062 21.5952C20.9062 22.6304 20.5815 23.4287 19.9321 23.9902C19.2876 24.5469 18.3623 24.8252 17.1562 24.8252H14.644ZM14.644 23.6753H17.1709C17.9229 23.6753 18.499 23.4995 18.8994 23.1479C19.2998 22.7915 19.5 22.2788 19.5 21.6099C19.5 20.9751 19.2998 20.4673 18.8994 20.0864C18.499 19.7056 17.9497 19.5078 17.2515 19.4932H14.644V23.6753ZM22.0269 24.9644C22.0269 24.188 22.1782 23.4897 22.481 22.8696C22.7886 22.2495 23.2134 21.771 23.7554 21.4341C24.3022 21.0972 24.9248 20.9287 25.623 20.9287C26.7021 20.9287 27.5737 21.3022 28.2378 22.0493C28.9067 22.7964 29.2412 23.79 29.2412 25.0303V25.1255C29.2412 25.897 29.0923 26.5903 28.7944 27.2056C28.5015 27.8159 28.0791 28.292 27.5273 28.6338C26.9805 28.9756 26.3506 29.1465 25.6377 29.1465C24.5635 29.1465 23.6919 28.7729 23.0229 28.0259C22.3589 27.2788 22.0269 26.29 22.0269 25.0596V24.9644ZM23.3892 25.1255C23.3892 26.0044 23.5918 26.71 23.9971 27.2422C24.4072 27.7744 24.9541 28.0405 25.6377 28.0405C26.3262 28.0405 26.873 27.772 27.2783 27.2349C27.6836 26.6929 27.8862 25.936 27.8862 24.9644C27.8862 24.0952 27.6787 23.3921 27.2637 22.855C26.8535 22.313 26.3066 22.042 25.623 22.042C24.9541 22.042 24.4146 22.3081 24.0044 22.8403C23.5942 23.3726 23.3892 24.1343 23.3892 25.1255ZM34.771 22.291C34.5659 22.2568 34.3438 22.2397 34.1045 22.2397C33.2158 22.2397 32.6128 22.6182 32.2954 23.375V29H30.9404V21.0752H32.2588L32.2808 21.9907C32.7251 21.2827 33.355 20.9287 34.1704 20.9287C34.4341 20.9287 34.6343 20.9629 34.771 21.0312V22.291ZM38.228 19.1562V21.0752H39.7075V22.1226H38.228V27.0371C38.228 27.3545 38.2939 27.5938 38.4258 27.7549C38.5576 27.9111 38.7822 27.9893 39.0996 27.9893C39.2559 27.9893 39.4707 27.96 39.7441 27.9014V29C39.3877 29.0977 39.041 29.1465 38.7041 29.1465C38.0986 29.1465 37.6421 28.9634 37.3345 28.5972C37.0269 28.231 36.873 27.7109 36.873 27.0371V22.1226H35.4302V21.0752H36.873V19.1562H38.228ZM46.1895 29C46.1113 28.8438 46.0479 28.5654 45.999 28.165C45.3691 28.8193 44.6172 29.1465 43.7432 29.1465C42.9619 29.1465 42.3198 28.9268 41.8169 28.4873C41.3188 28.043 41.0698 27.4814 41.0698 26.8027C41.0698 25.9775 41.3823 25.3379 42.0073 24.8838C42.6372 24.4248 43.521 24.1953 44.6587 24.1953H45.9771V23.5728C45.9771 23.0991 45.8354 22.7231 45.5522 22.4448C45.269 22.1616 44.8516 22.02 44.2998 22.02C43.8164 22.02 43.4111 22.1421 43.084 22.3862C42.7568 22.6304 42.5933 22.9258 42.5933 23.2725H41.231C41.231 22.877 41.3701 22.4961 41.6484 22.1299C41.9316 21.7588 42.3125 21.4658 42.791 21.251C43.2744 21.0361 43.8042 20.9287 44.3804 20.9287C45.2935 20.9287 46.0088 21.1582 46.5264 21.6172C47.0439 22.0713 47.3125 22.6987 47.332 23.4995V27.147C47.332 27.8745 47.4248 28.4531 47.6104 28.8828V29H46.1895ZM43.9409 27.9673C44.3657 27.9673 44.7686 27.8574 45.1494 27.6377C45.5303 27.418 45.8062 27.1323 45.9771 26.7808V25.1548H44.915C43.2549 25.1548 42.4248 25.6406 42.4248 26.6123C42.4248 27.0371 42.5664 27.3691 42.8496 27.6084C43.1328 27.8477 43.4966 27.9673 43.9409 27.9673ZM59.417 24.0708H54.7954V27.8501H60.1641V29H53.3892V18.3359H60.0908V19.4932H54.7954V22.9209H59.417V24.0708ZM62.9839 21.0752L63.0278 22.0713C63.6333 21.3096 64.4243 20.9287 65.4009 20.9287C67.0757 20.9287 67.9204 21.8735 67.9351 23.7632V29H66.5801V23.7559C66.5752 23.1846 66.4434 22.7622 66.1846 22.4888C65.9307 22.2153 65.5327 22.0786 64.9907 22.0786C64.5513 22.0786 64.1655 22.1958 63.8335 22.4302C63.5015 22.6646 63.2427 22.9722 63.0571 23.353V29H61.7021V21.0752H62.9839ZM71.8169 19.1562V21.0752H73.2964V22.1226H71.8169V27.0371C71.8169 27.3545 71.8828 27.5938 72.0146 27.7549C72.1465 27.9111 72.3711 27.9893 72.6885 27.9893C72.8447 27.9893 73.0596 27.96 73.333 27.9014V29C72.9766 29.0977 72.6299 29.1465 72.293 29.1465C71.6875 29.1465 71.231 28.9634 70.9233 28.5972C70.6157 28.231 70.4619 27.7109 70.4619 27.0371V22.1226H69.019V21.0752H70.4619V19.1562H71.8169ZM78.7163 22.291C78.5112 22.2568 78.2891 22.2397 78.0498 22.2397C77.1611 22.2397 76.5581 22.6182 76.2407 23.375V29H74.8857V21.0752H76.2041L76.2261 21.9907C76.6704 21.2827 77.3003 20.9287 78.1157 20.9287C78.3794 20.9287 78.5796 20.9629 78.7163 21.0312V22.291ZM84.5684 29C84.4902 28.8438 84.4268 28.5654 84.3779 28.165C83.748 28.8193 82.9961 29.1465 82.1221 29.1465C81.3408 29.1465 80.6987 28.9268 80.1958 28.4873C79.6978 28.043 79.4487 27.4814 79.4487 26.8027C79.4487 25.9775 79.7612 25.3379 80.3862 24.8838C81.0161 24.4248 81.8999 24.1953 83.0376 24.1953H84.356V23.5728C84.356 23.0991 84.2144 22.7231 83.9312 22.4448C83.6479 22.1616 83.2305 22.02 82.6787 22.02C82.1953 22.02 81.79 22.1421 81.4629 22.3862C81.1357 22.6304 80.9722 22.9258 80.9722 23.2725H79.6099C79.6099 22.877 79.749 22.4961 80.0273 22.1299C80.3105 21.7588 80.6914 21.4658 81.1699 21.251C81.6533 21.0361 82.1831 20.9287 82.7593 20.9287C83.6724 20.9287 84.3877 21.1582 84.9053 21.6172C85.4229 22.0713 85.6914 22.6987 85.7109 23.4995V27.147C85.7109 27.8745 85.8037 28.4531 85.9893 28.8828V29H84.5684ZM82.3198 27.9673C82.7446 27.9673 83.1475 27.8574 83.5283 27.6377C83.9092 27.418 84.1851 27.1323 84.356 26.7808V25.1548H83.2939C81.6338 25.1548 80.8037 25.6406 80.8037 26.6123C80.8037 27.0371 80.9453 27.3691 81.2285 27.6084C81.5117 27.8477 81.8755 27.9673 82.3198 27.9673ZM87.5054 24.9717C87.5054 23.7559 87.7935 22.7793 88.3696 22.042C88.9458 21.2998 89.7002 20.9287 90.6328 20.9287C91.5605 20.9287 92.2954 21.2461 92.8374 21.8809V17.75H94.1924V29H92.9473L92.8813 28.1504C92.3394 28.8145 91.585 29.1465 90.6182 29.1465C89.7002 29.1465 88.9507 28.7705 88.3696 28.0186C87.7935 27.2666 87.5054 26.2852 87.5054 25.0742V24.9717ZM88.8604 25.1255C88.8604 26.0239 89.0459 26.7271 89.417 27.2349C89.7881 27.7427 90.3008 27.9966 90.9551 27.9966C91.8145 27.9966 92.4419 27.6108 92.8374 26.8394V23.1992C92.4321 22.4521 91.8096 22.0786 90.9697 22.0786C90.3057 22.0786 89.7881 22.335 89.417 22.8477C89.0459 23.3604 88.8604 24.1196 88.8604 25.1255ZM101.194 29C101.116 28.8438 101.053 28.5654 101.004 28.165C100.374 28.8193 99.6221 29.1465 98.748 29.1465C97.9668 29.1465 97.3247 28.9268 96.8218 28.4873C96.3237 28.043 96.0747 27.4814 96.0747 26.8027C96.0747 25.9775 96.3872 25.3379 97.0122 24.8838C97.6421 24.4248 98.5259 24.1953 99.6636 24.1953H100.982V23.5728C100.982 23.0991 100.84 22.7231 100.557 22.4448C100.274 22.1616 99.8564 22.02 99.3047 22.02C98.8213 22.02 98.416 22.1421 98.0889 22.3862C97.7617 22.6304 97.5981 22.9258 97.5981 23.2725H96.2358C96.2358 22.877 96.375 22.4961 96.6533 22.1299C96.9365 21.7588 97.3174 21.4658 97.7959 21.251C98.2793 21.0361 98.8091 20.9287 99.3853 20.9287C100.298 20.9287 101.014 21.1582 101.531 21.6172C102.049 22.0713 102.317 22.6987 102.337 23.4995V27.147C102.337 27.8745 102.43 28.4531 102.615 28.8828V29H101.194ZM98.9458 27.9673C99.3706 27.9673 99.7734 27.8574 100.154 27.6377C100.535 27.418 100.811 27.1323 100.982 26.7808V25.1548H99.9199C98.2598 25.1548 97.4297 25.6406 97.4297 26.6123C97.4297 27.0371 97.5713 27.3691 97.8545 27.6084C98.1377 27.8477 98.5015 27.9673 98.9458 27.9673Z" fill="#09485F"/>
<path d="M13.7988 46.5254V50H13.0781V41.4688H15.9844C16.8711 41.4688 17.5703 41.6953 18.082 42.1484C18.5977 42.6016 18.8555 43.2246 18.8555 44.0176C18.8555 44.8184 18.6074 45.4375 18.1113 45.875C17.6191 46.3086 16.9043 46.5254 15.9668 46.5254H13.7988ZM13.7988 45.916H15.9844C16.6836 45.916 17.2168 45.75 17.584 45.418C17.9512 45.0859 18.1348 44.623 18.1348 44.0293C18.1348 43.4395 17.9512 42.9707 17.584 42.623C17.2207 42.2715 16.7031 42.0918 16.0312 42.084H13.7988V45.916ZM24.2402 50C24.1699 49.8008 24.125 49.5059 24.1055 49.1152C23.8594 49.4355 23.5449 49.6836 23.1621 49.8594C22.7832 50.0312 22.3809 50.1172 21.9551 50.1172C21.3457 50.1172 20.8516 49.9473 20.4727 49.6074C20.0977 49.2676 19.9102 48.8379 19.9102 48.3184C19.9102 47.7012 20.166 47.2129 20.6777 46.8535C21.1934 46.4941 21.9102 46.3145 22.8281 46.3145H24.0996V45.5938C24.0996 45.1406 23.959 44.7852 23.6777 44.5273C23.4004 44.2656 22.9941 44.1348 22.459 44.1348C21.9707 44.1348 21.5664 44.2598 21.2461 44.5098C20.9258 44.7598 20.7656 45.0605 20.7656 45.4121L20.0625 45.4062C20.0625 44.9023 20.2969 44.4668 20.7656 44.0996C21.2344 43.7285 21.8105 43.543 22.4941 43.543C23.2012 43.543 23.7578 43.7207 24.1641 44.0762C24.5742 44.4277 24.7852 44.9199 24.7969 45.5527V48.5527C24.7969 49.166 24.8613 49.625 24.9902 49.9297V50H24.2402ZM22.0371 49.4961C22.5059 49.4961 22.9238 49.3828 23.291 49.1562C23.6621 48.9297 23.9316 48.627 24.0996 48.248V46.8535H22.8457C22.1465 46.8613 21.5996 46.9902 21.2051 47.2402C20.8105 47.4863 20.6133 47.8262 20.6133 48.2598C20.6133 48.6152 20.7441 48.9102 21.0059 49.1445C21.2715 49.3789 21.6152 49.4961 22.0371 49.4961ZM31.7695 46.8945C31.7695 47.8828 31.5508 48.668 31.1133 49.25C30.6758 49.8281 30.0898 50.1172 29.3555 50.1172C28.4883 50.1172 27.8242 49.8125 27.3633 49.2031V52.4375H26.666V43.6602H27.3164L27.3516 44.5566C27.8086 43.8809 28.4707 43.543 29.3379 43.543C30.0957 43.543 30.6895 43.8301 31.1191 44.4043C31.5527 44.9785 31.7695 45.7754 31.7695 46.7949V46.8945ZM31.0664 46.7715C31.0664 45.9629 30.9004 45.3242 30.5684 44.8555C30.2363 44.3867 29.7734 44.1523 29.1797 44.1523C28.75 44.1523 28.3809 44.2559 28.0723 44.4629C27.7637 44.6699 27.5273 44.9707 27.3633 45.3652V48.4062C27.5312 48.7695 27.7715 49.0469 28.084 49.2383C28.3965 49.4297 28.7656 49.5254 29.1914 49.5254C29.7812 49.5254 30.2402 49.291 30.5684 48.8223C30.9004 48.3496 31.0664 47.666 31.0664 46.7715ZM37.3301 50C37.2598 49.8008 37.2148 49.5059 37.1953 49.1152C36.9492 49.4355 36.6348 49.6836 36.252 49.8594C35.873 50.0312 35.4707 50.1172 35.0449 50.1172C34.4355 50.1172 33.9414 49.9473 33.5625 49.6074C33.1875 49.2676 33 48.8379 33 48.3184C33 47.7012 33.2559 47.2129 33.7676 46.8535C34.2832 46.4941 35 46.3145 35.918 46.3145H37.1895V45.5938C37.1895 45.1406 37.0488 44.7852 36.7676 44.5273C36.4902 44.2656 36.084 44.1348 35.5488 44.1348C35.0605 44.1348 34.6562 44.2598 34.3359 44.5098C34.0156 44.7598 33.8555 45.0605 33.8555 45.4121L33.1523 45.4062C33.1523 44.9023 33.3867 44.4668 33.8555 44.0996C34.3242 43.7285 34.9004 43.543 35.584 43.543C36.291 43.543 36.8477 43.7207 37.2539 44.0762C37.6641 44.4277 37.875 44.9199 37.8867 45.5527V48.5527C37.8867 49.166 37.9512 49.625 38.0801 49.9297V50H37.3301ZM35.127 49.4961C35.5957 49.4961 36.0137 49.3828 36.3809 49.1562C36.752 48.9297 37.0215 48.627 37.1895 48.248V46.8535H35.9355C35.2363 46.8613 34.6895 46.9902 34.2949 47.2402C33.9004 47.4863 33.7031 47.8262 33.7031 48.2598C33.7031 48.6152 33.834 48.9102 34.0957 49.1445C34.3613 49.3789 34.7051 49.4961 35.127 49.4961ZM40.5469 50H39.8438V43.6602H40.5469V50ZM39.7207 41.8262C39.7207 41.6934 39.7637 41.582 39.8496 41.4922C39.9355 41.3984 40.0527 41.3516 40.2012 41.3516C40.3496 41.3516 40.4668 41.3984 40.5527 41.4922C40.6426 41.582 40.6875 41.6934 40.6875 41.8262C40.6875 41.959 40.6426 42.0703 40.5527 42.1602C40.4668 42.25 40.3496 42.2949 40.2012 42.2949C40.0527 42.2949 39.9355 42.25 39.8496 42.1602C39.7637 42.0703 39.7207 41.959 39.7207 41.8262ZM42.9199 49.4082H47.0391V50H42.0527V49.4844L45.8965 44.2637H42.1699V43.6602H46.7812V44.1816L42.9199 49.4082ZM56.127 43.666C56.127 44.1074 55.998 44.5039 55.7402 44.8555C55.4824 45.2031 55.1426 45.459 54.7207 45.623C55.2129 45.791 55.6074 46.0625 55.9043 46.4375C56.2012 46.8125 56.3496 47.2461 56.3496 47.7383C56.3496 48.4688 56.1016 49.0488 55.6055 49.4785C55.1094 49.9043 54.4531 50.1172 53.6367 50.1172C52.8125 50.1172 52.1523 49.9043 51.6562 49.4785C51.1641 49.0527 50.918 48.4727 50.918 47.7383C50.918 47.2539 51.0605 46.8223 51.3457 46.4434C51.6309 46.0645 52.0215 45.791 52.5176 45.623C52.0957 45.459 51.7598 45.2031 51.5098 44.8555C51.2598 44.5039 51.1348 44.1074 51.1348 43.666C51.1348 42.959 51.3613 42.3965 51.8145 41.9785C52.2715 41.5605 52.875 41.3516 53.625 41.3516C54.375 41.3516 54.9785 41.5625 55.4355 41.9844C55.8965 42.4062 56.127 42.9668 56.127 43.666ZM55.6465 47.7441C55.6465 47.2129 55.457 46.7773 55.0781 46.4375C54.6992 46.0938 54.2148 45.9219 53.625 45.9219C53.0352 45.9219 52.5527 46.0898 52.1777 46.4258C51.8027 46.7617 51.6152 47.2012 51.6152 47.7441C51.6152 48.2871 51.7969 48.7207 52.1602 49.0449C52.5234 49.3652 53.0156 49.5254 53.6367 49.5254C54.2422 49.5254 54.7285 49.3652 55.0957 49.0449C55.4629 48.7246 55.6465 48.291 55.6465 47.7441ZM55.4238 43.6602C55.4238 43.1719 55.2539 42.7656 54.9141 42.4414C54.5781 42.1133 54.1484 41.9492 53.625 41.9492C53.0938 41.9492 52.6621 42.1074 52.3301 42.4238C52.002 42.7363 51.8379 43.1484 51.8379 43.6602C51.8379 44.1602 52.002 44.5625 52.3301 44.8672C52.6621 45.1719 53.0957 45.3242 53.6309 45.3242C54.1582 45.3242 54.5879 45.1719 54.9199 44.8672C55.2559 44.5586 55.4238 44.1562 55.4238 43.6602ZM61.0195 50H60.3164V42.3125L57.9961 43.1738V42.5176L60.9023 41.4395H61.0195V50ZM69.668 41.873L66.0234 50H65.291L68.9121 42.0664H64.0605V41.4688H69.668V41.873ZM74.332 50H73.6289V42.3125L71.3086 43.1738V42.5176L74.2148 41.4395H74.332V50Z" fill="#09485F"/>
<path d="M83.2129 70.0156H79.2344V74H78.5137V65.4688H83.7988V66.084H79.2344V69.4004H83.2129V70.0156ZM87.4258 74.1172C86.8867 74.1172 86.3984 73.9844 85.9609 73.7188C85.5273 73.4531 85.1895 73.084 84.9473 72.6113C84.7051 72.1348 84.584 71.6016 84.584 71.0117V70.7598C84.584 70.1504 84.7012 69.6016 84.9355 69.1133C85.1738 68.625 85.5039 68.2422 85.9258 67.9648C86.3477 67.6836 86.8047 67.543 87.2969 67.543C88.0664 67.543 88.6758 67.8066 89.125 68.334C89.5781 68.8574 89.8047 69.5742 89.8047 70.4844V70.877H85.2812V71.0117C85.2812 71.7305 85.4863 72.3301 85.8965 72.8105C86.3105 73.2871 86.8301 73.5254 87.4551 73.5254C87.8301 73.5254 88.1602 73.457 88.4453 73.3203C88.7344 73.1836 88.9961 72.9648 89.2305 72.6641L89.6699 72.998C89.1543 73.7441 88.4062 74.1172 87.4258 74.1172ZM87.2969 68.1406C86.7695 68.1406 86.3242 68.334 85.9609 68.7207C85.6016 69.1074 85.3828 69.627 85.3047 70.2793H89.1074V70.2031C89.0879 69.5938 88.9141 69.0977 88.5859 68.7148C88.2578 68.332 87.8281 68.1406 87.2969 68.1406ZM93.5137 73.5254C94.002 73.5254 94.4102 73.3887 94.7383 73.1152C95.0703 72.8379 95.25 72.4805 95.2773 72.043H95.9512C95.9316 72.4297 95.8105 72.7832 95.5879 73.1035C95.3652 73.4199 95.0684 73.668 94.6973 73.8477C94.3301 74.0273 93.9355 74.1172 93.5137 74.1172C92.6816 74.1172 92.0215 73.8281 91.5332 73.25C91.0488 72.6719 90.8066 71.8945 90.8066 70.918V70.707C90.8066 70.082 90.916 69.5293 91.1348 69.0488C91.3535 68.5684 91.666 68.1973 92.0723 67.9355C92.4824 67.6738 92.9609 67.543 93.5078 67.543C94.2031 67.543 94.7754 67.75 95.2246 68.1641C95.6777 68.5781 95.9199 69.123 95.9512 69.7988H95.2773C95.2461 69.3027 95.0664 68.9023 94.7383 68.5977C94.4141 68.293 94.0039 68.1406 93.5078 68.1406C92.875 68.1406 92.3828 68.3691 92.0312 68.8262C91.6836 69.2832 91.5098 69.9238 91.5098 70.748V70.9531C91.5098 71.7617 91.6836 72.3926 92.0312 72.8457C92.3828 73.2988 92.877 73.5254 93.5137 73.5254ZM98.0547 68.7324C98.2852 68.3535 98.5801 68.0605 98.9395 67.8535C99.2988 67.6465 99.6914 67.543 100.117 67.543C100.797 67.543 101.303 67.7344 101.635 68.1172C101.967 68.5 102.135 69.0742 102.139 69.8398V74H101.441V69.834C101.438 69.2676 101.316 68.8457 101.078 68.5684C100.844 68.291 100.467 68.1523 99.9473 68.1523C99.5137 68.1523 99.1289 68.2891 98.793 68.5625C98.4609 68.832 98.2148 69.1973 98.0547 69.6582V74H97.3574V65H98.0547V68.7324ZM107.945 74C107.875 73.8008 107.83 73.5059 107.811 73.1152C107.564 73.4355 107.25 73.6836 106.867 73.8594C106.488 74.0312 106.086 74.1172 105.66 74.1172C105.051 74.1172 104.557 73.9473 104.178 73.6074C103.803 73.2676 103.615 72.8379 103.615 72.3184C103.615 71.7012 103.871 71.2129 104.383 70.8535C104.898 70.4941 105.615 70.3145 106.533 70.3145H107.805V69.5938C107.805 69.1406 107.664 68.7852 107.383 68.5273C107.105 68.2656 106.699 68.1348 106.164 68.1348C105.676 68.1348 105.271 68.2598 104.951 68.5098C104.631 68.7598 104.471 69.0605 104.471 69.4121L103.768 69.4062C103.768 68.9023 104.002 68.4668 104.471 68.0996C104.939 67.7285 105.516 67.543 106.199 67.543C106.906 67.543 107.463 67.7207 107.869 68.0762C108.279 68.4277 108.49 68.9199 108.502 69.5527V72.5527C108.502 73.166 108.566 73.625 108.695 73.9297V74H107.945ZM105.742 73.4961C106.211 73.4961 106.629 73.3828 106.996 73.1562C107.367 72.9297 107.637 72.627 107.805 72.248V70.8535H106.551C105.852 70.8613 105.305 70.9902 104.91 71.2402C104.516 71.4863 104.318 71.8262 104.318 72.2598C104.318 72.6152 104.449 72.9102 104.711 73.1445C104.977 73.3789 105.32 73.4961 105.742 73.4961ZM110.096 70.7715C110.096 69.7871 110.314 69.0039 110.752 68.4219C111.193 67.8359 111.791 67.543 112.545 67.543C113.4 67.543 114.053 67.8809 114.502 68.5566V65H115.199V74H114.543L114.514 73.1562C114.064 73.7969 113.404 74.1172 112.533 74.1172C111.803 74.1172 111.213 73.8242 110.764 73.2383C110.318 72.6484 110.096 71.8535 110.096 70.8535V70.7715ZM110.805 70.8945C110.805 71.7031 110.967 72.3418 111.291 72.8105C111.615 73.2754 112.072 73.5078 112.662 73.5078C113.525 73.5078 114.139 73.127 114.502 72.3652V69.3887C114.139 68.5645 113.529 68.1523 112.674 68.1523C112.084 68.1523 111.625 68.3848 111.297 68.8496C110.969 69.3105 110.805 69.9922 110.805 70.8945ZM121.047 74C120.977 73.8008 120.932 73.5059 120.912 73.1152C120.666 73.4355 120.352 73.6836 119.969 73.8594C119.59 74.0312 119.188 74.1172 118.762 74.1172C118.152 74.1172 117.658 73.9473 117.279 73.6074C116.904 73.2676 116.717 72.8379 116.717 72.3184C116.717 71.7012 116.973 71.2129 117.484 70.8535C118 70.4941 118.717 70.3145 119.635 70.3145H120.906V69.5938C120.906 69.1406 120.766 68.7852 120.484 68.5273C120.207 68.2656 119.801 68.1348 119.266 68.1348C118.777 68.1348 118.373 68.2598 118.053 68.5098C117.732 68.7598 117.572 69.0605 117.572 69.4121L116.869 69.4062C116.869 68.9023 117.104 68.4668 117.572 68.0996C118.041 67.7285 118.617 67.543 119.301 67.543C120.008 67.543 120.564 67.7207 120.971 68.0762C121.381 68.4277 121.592 68.9199 121.604 69.5527V72.5527C121.604 73.166 121.668 73.625 121.797 73.9297V74H121.047ZM118.844 73.4961C119.312 73.4961 119.73 73.3828 120.098 73.1562C120.469 72.9297 120.738 72.627 120.906 72.248V70.8535H119.652C118.953 70.8613 118.406 70.9902 118.012 71.2402C117.617 71.4863 117.42 71.8262 117.42 72.2598C117.42 72.6152 117.551 72.9102 117.812 73.1445C118.078 73.3789 118.422 73.4961 118.844 73.4961Z" fill="#09485F"/>
<path d="M80.5 90C80.5 84.7533 84.7533 80.5 90 80.5H112C117.247 80.5 121.5 84.7533 121.5 90C121.5 95.2467 117.247 99.5 112 99.5H90C84.7533 99.5 80.5 95.2467 80.5 90Z" stroke="#09485F"/>
<path d="M99 90C99 84.4772 103.477 80 109 80H112C117.523 80 122 84.4772 122 90C122 95.5228 117.523 100 112 100H109C103.477 100 99 95.5228 99 90Z" fill="#09485F"/>
<defs>
<clipPath id="clip0">
<rect width="32" height="32" fill="white" transform="translate(17 67)"/>
</clipPath>
<clipPath id="clip1">
<rect width="0" height="0" fill="white" transform="translate(13 -33)"/>
</clipPath>
</defs>
</svg>
