<svg width="321" height="60" viewBox="0 0 321 60" fill="none" xmlns="http://www.w3.org/2000/svg">
<path d="M0 20.5157C0 9.1852 9.1852 0 20.5157 0H300.484C311.815 0 321 9.1852 321 20.5157V39.4843C321 50.8148 311.815 60 300.484 60H20.5157C9.1852 60 0 50.8148 0 39.4843V20.5157Z" fill="#ECEFF0"/>
<path d="M63.6514 24.8501H68.7051V26H62.2378V15.3359H63.6514V24.8501ZM74.9893 26C74.9111 25.8438 74.8477 25.5654 74.7988 25.165C74.1689 25.8193 73.417 26.1465 72.543 26.1465C71.7617 26.1465 71.1196 25.9268 70.6167 25.4873C70.1187 25.043 69.8696 24.4814 69.8696 23.8027C69.8696 22.9775 70.1821 22.3379 70.8071 21.8838C71.437 21.4248 72.3208 21.1953 73.4585 21.1953H74.7769V20.5728C74.7769 20.0991 74.6353 19.7231 74.3521 19.4448C74.0688 19.1616 73.6514 19.02 73.0996 19.02C72.6162 19.02 72.2109 19.1421 71.8838 19.3862C71.5566 19.6304 71.3931 19.9258 71.3931 20.2725H70.0308C70.0308 19.877 70.1699 19.4961 70.4482 19.1299C70.7314 18.7588 71.1123 18.4658 71.5908 18.251C72.0742 18.0361 72.604 17.9287 73.1802 17.9287C74.0933 17.9287 74.8086 18.1582 75.3262 18.6172C75.8438 19.0713 76.1123 19.6987 76.1318 20.4995V24.147C76.1318 24.8745 76.2246 25.4531 76.4102 25.8828V26H74.9893ZM72.7407 24.9673C73.1655 24.9673 73.5684 24.8574 73.9492 24.6377C74.3301 24.418 74.606 24.1323 74.7769 23.7808V22.1548H73.7148C72.0547 22.1548 71.2246 22.6406 71.2246 23.6123C71.2246 24.0371 71.3662 24.3691 71.6494 24.6084C71.9326 24.8477 72.2964 24.9673 72.7407 24.9673ZM75.5459 16.7568V16.8301H74.4253L73.3267 15.585L72.2354 16.8301H71.1147V16.7422L72.9165 14.75H73.7368L75.5459 16.7568ZM79.5303 18.0752L79.5669 18.9541C80.1479 18.2705 80.9316 17.9287 81.918 17.9287C83.0264 17.9287 83.7808 18.3535 84.1812 19.2031C84.4448 18.8223 84.7866 18.5146 85.2065 18.2803C85.6313 18.0459 86.1318 17.9287 86.708 17.9287C88.4463 17.9287 89.3301 18.8491 89.3594 20.6899V26H88.0044V20.7705C88.0044 20.2041 87.875 19.7817 87.6162 19.5034C87.3574 19.2202 86.9229 19.0786 86.3125 19.0786C85.8096 19.0786 85.3921 19.23 85.0601 19.5327C84.728 19.8306 84.5352 20.2334 84.4814 20.7412V26H83.1191V20.8071C83.1191 19.6548 82.5552 19.0786 81.4272 19.0786C80.5386 19.0786 79.9307 19.457 79.6035 20.2139V26H78.2485V18.0752H79.5303ZM98.1045 22.1255C98.1045 23.3315 97.8286 24.3032 97.2769 25.0405C96.7251 25.7778 95.978 26.1465 95.0356 26.1465C94.0737 26.1465 93.3169 25.8413 92.7651 25.231V29.0469H91.4102V18.0752H92.6479L92.7139 18.9541C93.2656 18.2705 94.0322 17.9287 95.0137 17.9287C95.9658 17.9287 96.7178 18.2876 97.2695 19.0054C97.8262 19.7231 98.1045 20.7217 98.1045 22.001V22.1255ZM96.7495 21.9717C96.7495 21.0781 96.5591 20.3726 96.1782 19.855C95.7974 19.3374 95.2749 19.0786 94.6108 19.0786C93.7905 19.0786 93.1753 19.4424 92.7651 20.1699V23.9565C93.1704 24.6792 93.7905 25.0405 94.6255 25.0405C95.2749 25.0405 95.79 24.7842 96.1709 24.2715C96.5566 23.7539 96.7495 22.9873 96.7495 21.9717ZM104.726 26C104.647 25.8438 104.584 25.5654 104.535 25.165C103.905 25.8193 103.153 26.1465 102.279 26.1465C101.498 26.1465 100.856 25.9268 100.353 25.4873C99.855 25.043 99.606 24.4814 99.606 23.8027C99.606 22.9775 99.9185 22.3379 100.543 21.8838C101.173 21.4248 102.057 21.1953 103.195 21.1953H104.513V20.5728C104.513 20.0991 104.372 19.7231 104.088 19.4448C103.805 19.1616 103.388 19.02 102.836 19.02C102.353 19.02 101.947 19.1421 101.62 19.3862C101.293 19.6304 101.129 19.9258 101.129 20.2725H99.7671C99.7671 19.877 99.9062 19.4961 100.185 19.1299C100.468 18.7588 100.849 18.4658 101.327 18.251C101.811 18.0361 102.34 17.9287 102.917 17.9287C103.83 17.9287 104.545 18.1582 105.062 18.6172C105.58 19.0713 105.849 19.6987 105.868 20.4995V24.147C105.868 24.8745 105.961 25.4531 106.146 25.8828V26H104.726ZM102.477 24.9673C102.902 24.9673 103.305 24.8574 103.686 24.6377C104.066 24.418 104.342 24.1323 104.513 23.7808V22.1548H103.451C101.791 22.1548 100.961 22.6406 100.961 23.6123C100.961 24.0371 101.103 24.3691 101.386 24.6084C101.669 24.8477 102.033 24.9673 102.477 24.9673ZM107.663 21.9717C107.663 20.7559 107.951 19.7793 108.527 19.042C109.103 18.2998 109.857 17.9287 110.79 17.9287C111.718 17.9287 112.453 18.2461 112.995 18.8809V14.75H114.35V26H113.104L113.039 25.1504C112.497 25.8145 111.742 26.1465 110.775 26.1465C109.857 26.1465 109.108 25.7705 108.527 25.0186C107.951 24.2666 107.663 23.2852 107.663 22.0742V21.9717ZM109.018 22.1255C109.018 23.0239 109.203 23.7271 109.574 24.2349C109.945 24.7427 110.458 24.9966 111.112 24.9966C111.972 24.9966 112.599 24.6108 112.995 23.8394V20.1992C112.589 19.4521 111.967 19.0786 111.127 19.0786C110.463 19.0786 109.945 19.335 109.574 19.8477C109.203 20.3604 109.018 21.1196 109.018 22.1255ZM121.352 26C121.273 25.8438 121.21 25.5654 121.161 25.165C120.531 25.8193 119.779 26.1465 118.905 26.1465C118.124 26.1465 117.482 25.9268 116.979 25.4873C116.481 25.043 116.232 24.4814 116.232 23.8027C116.232 22.9775 116.544 22.3379 117.169 21.8838C117.799 21.4248 118.683 21.1953 119.821 21.1953H121.139V20.5728C121.139 20.0991 120.998 19.7231 120.714 19.4448C120.431 19.1616 120.014 19.02 119.462 19.02C118.979 19.02 118.573 19.1421 118.246 19.3862C117.919 19.6304 117.755 19.9258 117.755 20.2725H116.393C116.393 19.877 116.532 19.4961 116.811 19.1299C117.094 18.7588 117.475 18.4658 117.953 18.251C118.437 18.0361 118.966 17.9287 119.542 17.9287C120.456 17.9287 121.171 18.1582 121.688 18.6172C122.206 19.0713 122.475 19.6987 122.494 20.4995V24.147C122.494 24.8745 122.587 25.4531 122.772 25.8828V26H121.352ZM119.103 24.9673C119.528 24.9673 119.931 24.8574 120.312 24.6377C120.692 24.418 120.968 24.1323 121.139 23.7808V22.1548H120.077C118.417 22.1548 117.587 22.6406 117.587 23.6123C117.587 24.0371 117.729 24.3691 118.012 24.6084C118.295 24.8477 118.659 24.9673 119.103 24.9673ZM132.653 26H131.291V16.9692L128.559 17.9727V16.7422L132.44 15.2847H132.653V26Z" fill="#09485F"/>
<path d="M66.9062 41.9023C66.9062 41.4297 66.7402 41.0566 66.4082 40.7832C66.0762 40.5059 65.4688 40.2441 64.5859 39.998C63.7031 39.748 63.0586 39.4766 62.6523 39.1836C62.0742 38.7695 61.7852 38.2266 61.7852 37.5547C61.7852 36.9023 62.0527 36.373 62.5879 35.9668C63.127 35.5566 63.8145 35.3516 64.6504 35.3516C65.2168 35.3516 65.7227 35.4609 66.168 35.6797C66.6172 35.8984 66.9648 36.2031 67.2109 36.5938C67.457 36.9844 67.5801 37.4199 67.5801 37.9004H66.8535C66.8535 37.3184 66.6543 36.8516 66.2559 36.5C65.8574 36.1445 65.3223 35.9668 64.6504 35.9668C63.998 35.9668 63.4785 36.1133 63.0918 36.4062C62.7051 36.6953 62.5117 37.0742 62.5117 37.543C62.5117 37.9766 62.6855 38.3301 63.0332 38.6035C63.3809 38.877 63.9375 39.1191 64.7031 39.3301C65.4688 39.5371 66.0488 39.7539 66.4434 39.9805C66.8379 40.2031 67.1348 40.4707 67.334 40.7832C67.5332 41.0957 67.6328 41.4648 67.6328 41.8906C67.6328 42.5625 67.3633 43.1016 66.8242 43.5078C66.2891 43.9141 65.582 44.1172 64.7031 44.1172C64.1016 44.1172 63.5488 44.0098 63.0449 43.7949C62.5449 43.5801 62.1641 43.2793 61.9023 42.8926C61.6445 42.5059 61.5156 42.0625 61.5156 41.5625H62.2363C62.2363 42.1641 62.4609 42.6387 62.9102 42.9863C63.3594 43.334 63.957 43.5078 64.7031 43.5078C65.3672 43.5078 65.9004 43.3613 66.3027 43.0684C66.7051 42.7754 66.9062 42.3867 66.9062 41.9023ZM73.0293 44C72.959 43.8008 72.9141 43.5059 72.8945 43.1152C72.6484 43.4355 72.334 43.6836 71.9512 43.8594C71.5723 44.0312 71.1699 44.1172 70.7441 44.1172C70.1348 44.1172 69.6406 43.9473 69.2617 43.6074C68.8867 43.2676 68.6992 42.8379 68.6992 42.3184C68.6992 41.7012 68.9551 41.2129 69.4668 40.8535C69.9824 40.4941 70.6992 40.3145 71.6172 40.3145H72.8887V39.5938C72.8887 39.1406 72.748 38.7852 72.4668 38.5273C72.1895 38.2656 71.7832 38.1348 71.248 38.1348C70.7598 38.1348 70.3555 38.2598 70.0352 38.5098C69.7148 38.7598 69.5547 39.0605 69.5547 39.4121L68.8516 39.4062C68.8516 38.9023 69.0859 38.4668 69.5547 38.0996C70.0234 37.7285 70.5996 37.543 71.2832 37.543C71.9902 37.543 72.5469 37.7207 72.9531 38.0762C73.3633 38.4277 73.5742 38.9199 73.5859 39.5527V42.5527C73.5859 43.166 73.6504 43.625 73.7793 43.9297V44H73.0293ZM70.8262 43.4961C71.2949 43.4961 71.7129 43.3828 72.0801 43.1562C72.4512 42.9297 72.7207 42.627 72.8887 42.248V40.8535H71.6348C70.9355 40.8613 70.3887 40.9902 69.9941 41.2402C69.5996 41.4863 69.4023 41.8262 69.4023 42.2598C69.4023 42.6152 69.5332 42.9102 69.7949 43.1445C70.0605 43.3789 70.4043 43.4961 70.8262 43.4961ZM76.2461 44H75.543V35H76.2461V44ZM82.1582 44C82.0879 43.8008 82.043 43.5059 82.0234 43.1152C81.7773 43.4355 81.4629 43.6836 81.0801 43.8594C80.7012 44.0312 80.2988 44.1172 79.873 44.1172C79.2637 44.1172 78.7695 43.9473 78.3906 43.6074C78.0156 43.2676 77.8281 42.8379 77.8281 42.3184C77.8281 41.7012 78.084 41.2129 78.5957 40.8535C79.1113 40.4941 79.8281 40.3145 80.7461 40.3145H82.0176V39.5938C82.0176 39.1406 81.877 38.7852 81.5957 38.5273C81.3184 38.2656 80.9121 38.1348 80.377 38.1348C79.8887 38.1348 79.4844 38.2598 79.1641 38.5098C78.8438 38.7598 78.6836 39.0605 78.6836 39.4121L77.9805 39.4062C77.9805 38.9023 78.2148 38.4668 78.6836 38.0996C79.1523 37.7285 79.7285 37.543 80.4121 37.543C81.1191 37.543 81.6758 37.7207 82.082 38.0762C82.4922 38.4277 82.7031 38.9199 82.7148 39.5527V42.5527C82.7148 43.166 82.7793 43.625 82.9082 43.9297V44H82.1582ZM79.9551 43.4961C80.4238 43.4961 80.8418 43.3828 81.209 43.1562C81.5801 42.9297 81.8496 42.627 82.0176 42.248V40.8535H80.7637C80.0645 40.8613 79.5176 40.9902 79.123 41.2402C78.7285 41.4863 78.5312 41.8262 78.5312 42.2598C78.5312 42.6152 78.6621 42.9102 78.9238 43.1445C79.1895 43.3789 79.5332 43.4961 79.9551 43.4961Z" fill="#09485F"/>
<path d="M207.256 34.4688L210.402 41.998L213.561 34.4688H214.521V43H213.801V39.2852L213.859 35.4766L210.684 43H210.127L206.963 35.5059L207.021 39.2617V43H206.301V34.4688H207.256ZM218.975 43.1172C218.436 43.1172 217.947 42.9844 217.51 42.7188C217.076 42.4531 216.738 42.084 216.496 41.6113C216.254 41.1348 216.133 40.6016 216.133 40.0117V39.7598C216.133 39.1504 216.25 38.6016 216.484 38.1133C216.723 37.625 217.053 37.2422 217.475 36.9648C217.896 36.6836 218.354 36.543 218.846 36.543C219.615 36.543 220.225 36.8066 220.674 37.334C221.127 37.8574 221.354 38.5742 221.354 39.4844V39.877H216.83V40.0117C216.83 40.7305 217.035 41.3301 217.445 41.8105C217.859 42.2871 218.379 42.5254 219.004 42.5254C219.379 42.5254 219.709 42.457 219.994 42.3203C220.283 42.1836 220.545 41.9648 220.779 41.6641L221.219 41.998C220.703 42.7441 219.955 43.1172 218.975 43.1172ZM218.846 37.1406C218.318 37.1406 217.873 37.334 217.51 37.7207C217.15 38.1074 216.932 38.627 216.854 39.2793H220.656V39.2031C220.637 38.5938 220.463 38.0977 220.135 37.7148C219.807 37.332 219.377 37.1406 218.846 37.1406ZM219.625 34H220.475L219.121 35.6406H218.506L219.625 34ZM222.438 39.7715C222.438 38.7871 222.656 38.0039 223.094 37.4219C223.535 36.8359 224.133 36.543 224.887 36.543C225.742 36.543 226.395 36.8809 226.844 37.5566V34H227.541V43H226.885L226.855 42.1562C226.406 42.7969 225.746 43.1172 224.875 43.1172C224.145 43.1172 223.555 42.8242 223.105 42.2383C222.66 41.6484 222.438 40.8535 222.438 39.8535V39.7715ZM223.146 39.8945C223.146 40.7031 223.309 41.3418 223.633 41.8105C223.957 42.2754 224.414 42.5078 225.004 42.5078C225.867 42.5078 226.48 42.127 226.844 41.3652V38.3887C226.48 37.5645 225.871 37.1523 225.016 37.1523C224.426 37.1523 223.967 37.3848 223.639 37.8496C223.311 38.3105 223.146 38.9922 223.146 39.8945ZM230.172 43H229.469V36.6602H230.172V43ZM229.346 34.8262C229.346 34.6934 229.389 34.582 229.475 34.4922C229.561 34.3984 229.678 34.3516 229.826 34.3516C229.975 34.3516 230.092 34.3984 230.178 34.4922C230.268 34.582 230.312 34.6934 230.312 34.8262C230.312 34.959 230.268 35.0703 230.178 35.1602C230.092 35.25 229.975 35.2949 229.826 35.2949C229.678 35.2949 229.561 35.25 229.475 35.1602C229.389 35.0703 229.346 34.959 229.346 34.8262ZM236.084 43C236.014 42.8008 235.969 42.5059 235.949 42.1152C235.703 42.4355 235.389 42.6836 235.006 42.8594C234.627 43.0312 234.225 43.1172 233.799 43.1172C233.189 43.1172 232.695 42.9473 232.316 42.6074C231.941 42.2676 231.754 41.8379 231.754 41.3184C231.754 40.7012 232.01 40.2129 232.521 39.8535C233.037 39.4941 233.754 39.3145 234.672 39.3145H235.943V38.5938C235.943 38.1406 235.803 37.7852 235.521 37.5273C235.244 37.2656 234.838 37.1348 234.303 37.1348C233.814 37.1348 233.41 37.2598 233.09 37.5098C232.77 37.7598 232.609 38.0605 232.609 38.4121L231.906 38.4062C231.906 37.9023 232.141 37.4668 232.609 37.0996C233.078 36.7285 233.654 36.543 234.338 36.543C235.045 36.543 235.602 36.7207 236.008 37.0762C236.418 37.4277 236.629 37.9199 236.641 38.5527V41.5527C236.641 42.166 236.705 42.625 236.834 42.9297V43H236.084ZM233.881 42.4961C234.35 42.4961 234.768 42.3828 235.135 42.1562C235.506 41.9297 235.775 41.627 235.943 41.248V39.8535H234.689C233.99 39.8613 233.443 39.9902 233.049 40.2402C232.654 40.4863 232.457 40.8262 232.457 41.2598C232.457 41.6152 232.588 41.9102 232.85 42.1445C233.115 42.3789 233.459 42.4961 233.881 42.4961ZM243.889 43.1172C243.35 43.1172 242.861 42.9844 242.424 42.7188C241.99 42.4531 241.652 42.084 241.41 41.6113C241.168 41.1348 241.047 40.6016 241.047 40.0117V39.7598C241.047 39.1504 241.164 38.6016 241.398 38.1133C241.637 37.625 241.967 37.2422 242.389 36.9648C242.811 36.6836 243.268 36.543 243.76 36.543C244.529 36.543 245.139 36.8066 245.588 37.334C246.041 37.8574 246.268 38.5742 246.268 39.4844V39.877H241.744V40.0117C241.744 40.7305 241.949 41.3301 242.359 41.8105C242.773 42.2871 243.293 42.5254 243.918 42.5254C244.293 42.5254 244.623 42.457 244.908 42.3203C245.197 42.1836 245.459 41.9648 245.693 41.6641L246.133 41.998C245.617 42.7441 244.869 43.1172 243.889 43.1172ZM243.76 37.1406C243.232 37.1406 242.787 37.334 242.424 37.7207C242.064 38.1074 241.846 38.627 241.768 39.2793H245.57V39.2031C245.551 38.5938 245.377 38.0977 245.049 37.7148C244.721 37.332 244.291 37.1406 243.76 37.1406ZM251.43 41.3887C251.43 41.041 251.289 40.7617 251.008 40.5508C250.73 40.3398 250.311 40.1758 249.748 40.0586C249.186 39.9375 248.748 39.8008 248.436 39.6484C248.127 39.4922 247.896 39.3027 247.744 39.0801C247.596 38.8574 247.521 38.5879 247.521 38.2715C247.521 37.7715 247.73 37.3594 248.148 37.0352C248.566 36.707 249.102 36.543 249.754 36.543C250.461 36.543 251.027 36.7188 251.453 37.0703C251.883 37.418 252.098 37.873 252.098 38.4355H251.395C251.395 38.0645 251.238 37.7559 250.926 37.5098C250.617 37.2637 250.227 37.1406 249.754 37.1406C249.293 37.1406 248.922 37.2441 248.641 37.4512C248.363 37.6543 248.225 37.9199 248.225 38.248C248.225 38.5645 248.34 38.8105 248.57 38.9863C248.805 39.1582 249.229 39.3164 249.842 39.4609C250.459 39.6055 250.92 39.7598 251.225 39.9238C251.533 40.0879 251.762 40.2852 251.91 40.5156C252.059 40.7461 252.133 41.0254 252.133 41.3535C252.133 41.8887 251.916 42.3164 251.482 42.6367C251.053 42.957 250.49 43.1172 249.795 43.1172C249.057 43.1172 248.457 42.9395 247.996 42.584C247.539 42.2246 247.311 41.7715 247.311 41.2246H248.014C248.041 41.6348 248.213 41.9551 248.529 42.1855C248.85 42.4121 249.271 42.5254 249.795 42.5254C250.283 42.5254 250.678 42.418 250.979 42.2031C251.279 41.9883 251.43 41.7168 251.43 41.3887ZM258.812 39.8945C258.812 40.8828 258.594 41.668 258.156 42.25C257.719 42.8281 257.133 43.1172 256.398 43.1172C255.531 43.1172 254.867 42.8125 254.406 42.2031V45.4375H253.709V36.6602H254.359L254.395 37.5566C254.852 36.8809 255.514 36.543 256.381 36.543C257.139 36.543 257.732 36.8301 258.162 37.4043C258.596 37.9785 258.812 38.7754 258.812 39.7949V39.8945ZM258.109 39.7715C258.109 38.9629 257.943 38.3242 257.611 37.8555C257.279 37.3867 256.816 37.1523 256.223 37.1523C255.793 37.1523 255.424 37.2559 255.115 37.4629C254.807 37.6699 254.57 37.9707 254.406 38.3652V41.4062C254.574 41.7695 254.814 42.0469 255.127 42.2383C255.439 42.4297 255.809 42.5254 256.234 42.5254C256.824 42.5254 257.283 42.291 257.611 41.8223C257.943 41.3496 258.109 40.666 258.109 39.7715ZM262.826 43.1172C262.287 43.1172 261.799 42.9844 261.361 42.7188C260.928 42.4531 260.59 42.084 260.348 41.6113C260.105 41.1348 259.984 40.6016 259.984 40.0117V39.7598C259.984 39.1504 260.102 38.6016 260.336 38.1133C260.574 37.625 260.904 37.2422 261.326 36.9648C261.748 36.6836 262.205 36.543 262.697 36.543C263.467 36.543 264.076 36.8066 264.525 37.334C264.979 37.8574 265.205 38.5742 265.205 39.4844V39.877H260.682V40.0117C260.682 40.7305 260.887 41.3301 261.297 41.8105C261.711 42.2871 262.23 42.5254 262.855 42.5254C263.23 42.5254 263.561 42.457 263.846 42.3203C264.135 42.1836 264.396 41.9648 264.631 41.6641L265.07 41.998C264.555 42.7441 263.807 43.1172 262.826 43.1172ZM262.697 37.1406C262.17 37.1406 261.725 37.334 261.361 37.7207C261.002 38.1074 260.783 38.627 260.705 39.2793H264.508V39.2031C264.488 38.5938 264.314 38.0977 263.986 37.7148C263.658 37.332 263.229 37.1406 262.697 37.1406ZM269.5 37.2578C269.352 37.2305 269.193 37.2168 269.025 37.2168C268.588 37.2168 268.217 37.3398 267.912 37.5859C267.611 37.8281 267.396 38.1816 267.268 38.6465V43H266.57V36.6602H267.256L267.268 37.668C267.639 36.918 268.234 36.543 269.055 36.543C269.25 36.543 269.404 36.5684 269.518 36.6191L269.5 37.2578ZM274.381 43C274.311 42.8008 274.266 42.5059 274.246 42.1152C274 42.4355 273.686 42.6836 273.303 42.8594C272.924 43.0312 272.521 43.1172 272.096 43.1172C271.486 43.1172 270.992 42.9473 270.613 42.6074C270.238 42.2676 270.051 41.8379 270.051 41.3184C270.051 40.7012 270.307 40.2129 270.818 39.8535C271.334 39.4941 272.051 39.3145 272.969 39.3145H274.24V38.5938C274.24 38.1406 274.1 37.7852 273.818 37.5273C273.541 37.2656 273.135 37.1348 272.6 37.1348C272.111 37.1348 271.707 37.2598 271.387 37.5098C271.066 37.7598 270.906 38.0605 270.906 38.4121L270.203 38.4062C270.203 37.9023 270.438 37.4668 270.906 37.0996C271.375 36.7285 271.951 36.543 272.635 36.543C273.342 36.543 273.898 36.7207 274.305 37.0762C274.715 37.4277 274.926 37.9199 274.938 38.5527V41.5527C274.938 42.166 275.002 42.625 275.131 42.9297V43H274.381ZM272.178 42.4961C272.646 42.4961 273.064 42.3828 273.432 42.1562C273.803 41.9297 274.072 41.627 274.24 41.248V39.8535H272.986C272.287 39.8613 271.74 39.9902 271.346 40.2402C270.951 40.4863 270.754 40.8262 270.754 41.2598C270.754 41.6152 270.885 41.9102 271.146 42.1445C271.412 42.3789 271.756 42.4961 272.178 42.4961ZM276.531 39.7715C276.531 38.7871 276.75 38.0039 277.188 37.4219C277.629 36.8359 278.227 36.543 278.98 36.543C279.836 36.543 280.488 36.8809 280.938 37.5566V34H281.635V43H280.979L280.949 42.1562C280.5 42.7969 279.84 43.1172 278.969 43.1172C278.238 43.1172 277.648 42.8242 277.199 42.2383C276.754 41.6484 276.531 40.8535 276.531 39.8535V39.7715ZM277.24 39.8945C277.24 40.7031 277.402 41.3418 277.727 41.8105C278.051 42.2754 278.508 42.5078 279.098 42.5078C279.961 42.5078 280.574 42.127 280.938 41.3652V38.3887C280.574 37.5645 279.965 37.1523 279.109 37.1523C278.52 37.1523 278.061 37.3848 277.732 37.8496C277.404 38.3105 277.24 38.9922 277.24 39.8945ZM287.482 43C287.412 42.8008 287.367 42.5059 287.348 42.1152C287.102 42.4355 286.787 42.6836 286.404 42.8594C286.025 43.0312 285.623 43.1172 285.197 43.1172C284.588 43.1172 284.094 42.9473 283.715 42.6074C283.34 42.2676 283.152 41.8379 283.152 41.3184C283.152 40.7012 283.408 40.2129 283.92 39.8535C284.436 39.4941 285.152 39.3145 286.07 39.3145H287.342V38.5938C287.342 38.1406 287.201 37.7852 286.92 37.5273C286.643 37.2656 286.236 37.1348 285.701 37.1348C285.213 37.1348 284.809 37.2598 284.488 37.5098C284.168 37.7598 284.008 38.0605 284.008 38.4121L283.305 38.4062C283.305 37.9023 283.539 37.4668 284.008 37.0996C284.477 36.7285 285.053 36.543 285.736 36.543C286.443 36.543 287 36.7207 287.406 37.0762C287.816 37.4277 288.027 37.9199 288.039 38.5527V41.5527C288.039 42.166 288.104 42.625 288.232 42.9297V43H287.482ZM285.279 42.4961C285.748 42.4961 286.166 42.3828 286.533 42.1562C286.904 41.9297 287.174 41.627 287.342 41.248V39.8535H286.088C285.389 39.8613 284.842 39.9902 284.447 40.2402C284.053 40.4863 283.855 40.8262 283.855 41.2598C283.855 41.6152 283.986 41.9102 284.248 42.1445C284.514 42.3789 284.857 42.4961 285.279 42.4961Z" fill="#09485F"/>
<path d="M258.004 25.4185H259.483V26.5244H258.004V29H256.642V26.5244H251.786V25.7261L256.561 18.3359H258.004V25.4185ZM253.324 25.4185H256.642V20.189L256.48 20.4819L253.324 25.4185ZM263.058 25.3306L262.208 26.2168V29H260.853V17.75H262.208V24.5542L262.933 23.6826L265.401 21.0752H267.049L263.966 24.3857L267.408 29H265.819L263.058 25.3306ZM270.96 25.6382L271.166 27.0444L271.466 25.7773L273.575 18.3359H274.762L276.82 25.7773L277.113 27.0664L277.34 25.6309L278.995 18.3359H280.409L277.823 29H276.542L274.344 21.229L274.176 20.416L274.007 21.229L271.729 29H270.448L267.87 18.3359H269.276L270.96 25.6382ZM283.119 22.0347C283.719 21.2974 284.5 20.9287 285.462 20.9287C287.137 20.9287 287.982 21.8735 287.997 23.7632V29H286.642V23.7559C286.637 23.1846 286.505 22.7622 286.246 22.4888C285.992 22.2153 285.594 22.0786 285.052 22.0786C284.613 22.0786 284.227 22.1958 283.895 22.4302C283.563 22.6646 283.304 22.9722 283.119 23.353V29H281.764V17.75H283.119V22.0347Z" fill="#9F9C9C"/>
<circle cx="232" cy="23" r="5" fill="#F7C934"/>
<g clip-path="url(#clip0)">
<g clip-path="url(#clip1)">
<rect width="0" height="0" transform="translate(13.875 8.875)" fill="white"/>
</g>
</g>
<defs>
<clipPath id="clip0">
<rect width="33" height="33" fill="white" transform="translate(18 13)"/>
</clipPath>
<clipPath id="clip1">
<rect width="0" height="0" fill="white" transform="translate(13.875 8.875)"/>
</clipPath>
</defs>
</svg>
