<svg width="321" height="60" viewBox="0 0 321 60" fill="none" xmlns="http://www.w3.org/2000/svg">
<path d="M0 20.5157C0 9.1852 9.1852 0 20.5157 0H300.484C311.815 0 321 9.1852 321 20.5157V39.4843C321 50.8148 311.815 60 300.484 60H20.5157C9.1852 60 0 50.8148 0 39.4843V20.5157Z" fill="#ECEFF0"/>
<path d="M64.0542 15.3359L67.5405 24.0371L71.0269 15.3359H72.8506V26H71.4443V21.8472L71.5762 17.3647L68.0752 26H66.9985L63.5049 17.3867L63.644 21.8472V26H62.2378V15.3359H64.0542ZM80.0137 26C79.9355 25.8438 79.8721 25.5654 79.8232 25.165C79.1934 25.8193 78.4414 26.1465 77.5674 26.1465C76.7861 26.1465 76.144 25.9268 75.6411 25.4873C75.1431 25.043 74.894 24.4814 74.894 23.8027C74.894 22.9775 75.2065 22.3379 75.8315 21.8838C76.4614 21.4248 77.3452 21.1953 78.4829 21.1953H79.8013V20.5728C79.8013 20.0991 79.6597 19.7231 79.3765 19.4448C79.0933 19.1616 78.6758 19.02 78.124 19.02C77.6406 19.02 77.2354 19.1421 76.9082 19.3862C76.5811 19.6304 76.4175 19.9258 76.4175 20.2725H75.0552C75.0552 19.877 75.1943 19.4961 75.4727 19.1299C75.7559 18.7588 76.1367 18.4658 76.6152 18.251C77.0986 18.0361 77.6284 17.9287 78.2046 17.9287C79.1177 17.9287 79.833 18.1582 80.3506 18.6172C80.8682 19.0713 81.1367 19.6987 81.1562 20.4995V24.147C81.1562 24.8745 81.249 25.4531 81.4346 25.8828V26H80.0137ZM77.7651 24.9673C78.1899 24.9673 78.5928 24.8574 78.9736 24.6377C79.3545 24.418 79.6304 24.1323 79.8013 23.7808V22.1548H78.7393C77.0791 22.1548 76.249 22.6406 76.249 23.6123C76.249 24.0371 76.3906 24.3691 76.6738 24.6084C76.957 24.8477 77.3208 24.9673 77.7651 24.9673ZM82.9507 21.9717C82.9507 20.7266 83.2363 19.7427 83.8076 19.02C84.3789 18.2925 85.1455 17.9287 86.1074 17.9287C87.0449 17.9287 87.7847 18.2437 88.3267 18.8735L88.3853 18.0752H89.6304V29.0469H88.2754V25.2676C87.7285 25.8535 87.001 26.1465 86.0928 26.1465C85.1357 26.1465 84.3716 25.7754 83.8003 25.0332C83.2339 24.2861 82.9507 23.2974 82.9507 22.0669V21.9717ZM84.3057 22.1255C84.3057 23.0337 84.4961 23.7466 84.877 24.2642C85.2627 24.7817 85.7803 25.0405 86.4297 25.0405C87.2354 25.0405 87.8506 24.6841 88.2754 23.9712V20.0894C87.8457 19.3911 87.2354 19.042 86.4443 19.042C85.79 19.042 85.27 19.3032 84.8843 19.8257C84.4985 20.3433 84.3057 21.1099 84.3057 22.1255ZM96.6982 25.2163C96.1709 25.8364 95.397 26.1465 94.3765 26.1465C93.5317 26.1465 92.8872 25.9023 92.4429 25.4141C92.0034 24.9209 91.7812 24.1934 91.7764 23.2314V18.0752H93.1313V23.1948C93.1313 24.396 93.6196 24.9966 94.5962 24.9966C95.6313 24.9966 96.3198 24.6108 96.6616 23.8394V18.0752H98.0166V26H96.7275L96.6982 25.2163ZM101.554 26H100.199V18.0752H101.554V26ZM100.089 15.9731C100.089 15.7534 100.155 15.5679 100.287 15.4165C100.424 15.2651 100.624 15.1895 100.888 15.1895C101.151 15.1895 101.352 15.2651 101.488 15.4165C101.625 15.5679 101.693 15.7534 101.693 15.9731C101.693 16.1929 101.625 16.376 101.488 16.5225C101.352 16.6689 101.151 16.7422 100.888 16.7422C100.624 16.7422 100.424 16.6689 100.287 16.5225C100.155 16.376 100.089 16.1929 100.089 15.9731ZM105.011 18.0752L105.055 19.0713C105.661 18.3096 106.452 17.9287 107.428 17.9287C109.103 17.9287 109.948 18.8735 109.962 20.7632V26H108.607V20.7559C108.603 20.1846 108.471 19.7622 108.212 19.4888C107.958 19.2153 107.56 19.0786 107.018 19.0786C106.579 19.0786 106.193 19.1958 105.861 19.4302C105.529 19.6646 105.27 19.9722 105.084 20.353V26H103.729V18.0752H105.011ZM116.898 26C116.82 25.8438 116.757 25.5654 116.708 25.165C116.078 25.8193 115.326 26.1465 114.452 26.1465C113.671 26.1465 113.029 25.9268 112.526 25.4873C112.028 25.043 111.779 24.4814 111.779 23.8027C111.779 22.9775 112.091 22.3379 112.716 21.8838C113.346 21.4248 114.23 21.1953 115.368 21.1953H116.686V20.5728C116.686 20.0991 116.544 19.7231 116.261 19.4448C115.978 19.1616 115.561 19.02 115.009 19.02C114.525 19.02 114.12 19.1421 113.793 19.3862C113.466 19.6304 113.302 19.9258 113.302 20.2725H111.94C111.94 19.877 112.079 19.4961 112.357 19.1299C112.641 18.7588 113.021 18.4658 113.5 18.251C113.983 18.0361 114.513 17.9287 115.089 17.9287C116.002 17.9287 116.718 18.1582 117.235 18.6172C117.753 19.0713 118.021 19.6987 118.041 20.4995V24.147C118.041 24.8745 118.134 25.4531 118.319 25.8828V26H116.898ZM114.65 24.9673C115.075 24.9673 115.478 24.8574 115.858 24.6377C116.239 24.418 116.515 24.1323 116.686 23.7808V22.1548H115.624C113.964 22.1548 113.134 22.6406 113.134 23.6123C113.134 24.0371 113.275 24.3691 113.559 24.6084C113.842 24.8477 114.206 24.9673 114.65 24.9673ZM123.556 21.9717C123.556 20.7559 123.844 19.7793 124.42 19.042C124.997 18.2998 125.751 17.9287 126.684 17.9287C127.611 17.9287 128.346 18.2461 128.888 18.8809V14.75H130.243V26H128.998L128.932 25.1504C128.39 25.8145 127.636 26.1465 126.669 26.1465C125.751 26.1465 125.001 25.7705 124.42 25.0186C123.844 24.2666 123.556 23.2852 123.556 22.0742V21.9717ZM124.911 22.1255C124.911 23.0239 125.097 23.7271 125.468 24.2349C125.839 24.7427 126.352 24.9966 127.006 24.9966C127.865 24.9966 128.493 24.6108 128.888 23.8394V20.1992C128.483 19.4521 127.86 19.0786 127.021 19.0786C126.356 19.0786 125.839 19.335 125.468 19.8477C125.097 20.3604 124.911 21.1196 124.911 22.1255ZM135.641 26.1465C134.567 26.1465 133.693 25.7949 133.019 25.0918C132.345 24.3838 132.008 23.439 132.008 22.2573V22.0083C132.008 21.2222 132.157 20.5215 132.455 19.9062C132.758 19.2861 133.178 18.8027 133.715 18.4561C134.257 18.1045 134.843 17.9287 135.473 17.9287C136.503 17.9287 137.304 18.2681 137.875 18.9468C138.446 19.6255 138.732 20.5972 138.732 21.8618V22.4258H133.363C133.383 23.207 133.61 23.8394 134.044 24.3228C134.484 24.8013 135.041 25.0405 135.714 25.0405C136.193 25.0405 136.598 24.9429 136.93 24.7476C137.262 24.5522 137.553 24.2935 137.802 23.9712L138.629 24.6157C137.965 25.6362 136.969 26.1465 135.641 26.1465ZM135.473 19.042C134.926 19.042 134.467 19.2422 134.096 19.6426C133.725 20.0381 133.495 20.5947 133.407 21.3125H137.377V21.21C137.338 20.5215 137.152 19.9893 136.82 19.6133C136.488 19.2324 136.039 19.042 135.473 19.042ZM145.653 24.8501H150.707V26H144.24V15.3359H145.653V24.8501ZM156.991 26C156.913 25.8438 156.85 25.5654 156.801 25.165C156.171 25.8193 155.419 26.1465 154.545 26.1465C153.764 26.1465 153.122 25.9268 152.619 25.4873C152.121 25.043 151.872 24.4814 151.872 23.8027C151.872 22.9775 152.184 22.3379 152.809 21.8838C153.439 21.4248 154.323 21.1953 155.46 21.1953H156.779V20.5728C156.779 20.0991 156.637 19.7231 156.354 19.4448C156.071 19.1616 155.653 19.02 155.102 19.02C154.618 19.02 154.213 19.1421 153.886 19.3862C153.559 19.6304 153.395 19.9258 153.395 20.2725H152.033C152.033 19.877 152.172 19.4961 152.45 19.1299C152.733 18.7588 153.114 18.4658 153.593 18.251C154.076 18.0361 154.606 17.9287 155.182 17.9287C156.095 17.9287 156.811 18.1582 157.328 18.6172C157.846 19.0713 158.114 19.6987 158.134 20.4995V24.147C158.134 24.8745 158.227 25.4531 158.412 25.8828V26H156.991ZM154.743 24.9673C155.167 24.9673 155.57 24.8574 155.951 24.6377C156.332 24.418 156.608 24.1323 156.779 23.7808V22.1548H155.717C154.057 22.1548 153.227 22.6406 153.227 23.6123C153.227 24.0371 153.368 24.3691 153.651 24.6084C153.935 24.8477 154.298 24.9673 154.743 24.9673ZM162.755 24.1616L164.718 18.0752H166.103L163.261 26H162.228L159.357 18.0752H160.741L162.755 24.1616ZM172.182 26C172.104 25.8438 172.04 25.5654 171.991 25.165C171.361 25.8193 170.609 26.1465 169.735 26.1465C168.954 26.1465 168.312 25.9268 167.809 25.4873C167.311 25.043 167.062 24.4814 167.062 23.8027C167.062 22.9775 167.375 22.3379 168 21.8838C168.629 21.4248 169.513 21.1953 170.651 21.1953H171.969V20.5728C171.969 20.0991 171.828 19.7231 171.544 19.4448C171.261 19.1616 170.844 19.02 170.292 19.02C169.809 19.02 169.403 19.1421 169.076 19.3862C168.749 19.6304 168.585 19.9258 168.585 20.2725H167.223C167.223 19.877 167.362 19.4961 167.641 19.1299C167.924 18.7588 168.305 18.4658 168.783 18.251C169.267 18.0361 169.796 17.9287 170.373 17.9287C171.286 17.9287 172.001 18.1582 172.519 18.6172C173.036 19.0713 173.305 19.6987 173.324 20.4995V24.147C173.324 24.8745 173.417 25.4531 173.603 25.8828V26H172.182ZM169.933 24.9673C170.358 24.9673 170.761 24.8574 171.142 24.6377C171.522 24.418 171.798 24.1323 171.969 23.7808V22.1548H170.907C169.247 22.1548 168.417 22.6406 168.417 23.6123C168.417 24.0371 168.559 24.3691 168.842 24.6084C169.125 24.8477 169.489 24.9673 169.933 24.9673ZM179.279 19.291C179.074 19.2568 178.852 19.2397 178.612 19.2397C177.724 19.2397 177.121 19.6182 176.803 20.375V26H175.448V18.0752H176.767L176.789 18.9907C177.233 18.2827 177.863 17.9287 178.678 17.9287C178.942 17.9287 179.142 17.9629 179.279 18.0312V19.291Z" fill="#09485F"/>
<path d="M62.8047 43.3906H67.0176V44H62.0781V35.4688H62.8047V43.3906ZM72.2441 44C72.1738 43.8008 72.1289 43.5059 72.1094 43.1152C71.8633 43.4355 71.5488 43.6836 71.166 43.8594C70.7871 44.0312 70.3848 44.1172 69.959 44.1172C69.3496 44.1172 68.8555 43.9473 68.4766 43.6074C68.1016 43.2676 67.9141 42.8379 67.9141 42.3184C67.9141 41.7012 68.1699 41.2129 68.6816 40.8535C69.1973 40.4941 69.9141 40.3145 70.832 40.3145H72.1035V39.5938C72.1035 39.1406 71.9629 38.7852 71.6816 38.5273C71.4043 38.2656 70.998 38.1348 70.4629 38.1348C69.9746 38.1348 69.5703 38.2598 69.25 38.5098C68.9297 38.7598 68.7695 39.0605 68.7695 39.4121L68.0664 39.4062C68.0664 38.9023 68.3008 38.4668 68.7695 38.0996C69.2383 37.7285 69.8145 37.543 70.498 37.543C71.2051 37.543 71.7617 37.7207 72.168 38.0762C72.5781 38.4277 72.7891 38.9199 72.8008 39.5527V42.5527C72.8008 43.166 72.8652 43.625 72.9941 43.9297V44H72.2441ZM70.041 43.4961C70.5098 43.4961 70.9277 43.3828 71.2949 43.1562C71.666 42.9297 71.9355 42.627 72.1035 42.248V40.8535H70.8496C70.1504 40.8613 69.6035 40.9902 69.209 41.2402C68.8145 41.4863 68.6172 41.8262 68.6172 42.2598C68.6172 42.6152 68.748 42.9102 69.0098 43.1445C69.2754 43.3789 69.6191 43.4961 70.041 43.4961ZM76.5566 43.0332L78.4844 37.6602H79.2051L76.8379 44H76.2695L73.8906 37.6602H74.6113L76.5566 43.0332ZM84.2676 44C84.1973 43.8008 84.1523 43.5059 84.1328 43.1152C83.8867 43.4355 83.5723 43.6836 83.1895 43.8594C82.8105 44.0312 82.4082 44.1172 81.9824 44.1172C81.373 44.1172 80.8789 43.9473 80.5 43.6074C80.125 43.2676 79.9375 42.8379 79.9375 42.3184C79.9375 41.7012 80.1934 41.2129 80.7051 40.8535C81.2207 40.4941 81.9375 40.3145 82.8555 40.3145H84.127V39.5938C84.127 39.1406 83.9863 38.7852 83.7051 38.5273C83.4277 38.2656 83.0215 38.1348 82.4863 38.1348C81.998 38.1348 81.5938 38.2598 81.2734 38.5098C80.9531 38.7598 80.793 39.0605 80.793 39.4121L80.0898 39.4062C80.0898 38.9023 80.3242 38.4668 80.793 38.0996C81.2617 37.7285 81.8379 37.543 82.5215 37.543C83.2285 37.543 83.7852 37.7207 84.1914 38.0762C84.6016 38.4277 84.8125 38.9199 84.8242 39.5527V42.5527C84.8242 43.166 84.8887 43.625 85.0176 43.9297V44H84.2676ZM82.0645 43.4961C82.5332 43.4961 82.9512 43.3828 83.3184 43.1562C83.6895 42.9297 83.959 42.627 84.127 42.248V40.8535H82.873C82.1738 40.8613 81.627 40.9902 81.2324 41.2402C80.8379 41.4863 80.6406 41.8262 80.6406 42.2598C80.6406 42.6152 80.7715 42.9102 81.0332 43.1445C81.2988 43.3789 81.6426 43.4961 82.0645 43.4961ZM87.3672 37.6602L87.3906 38.7441C87.6289 38.3535 87.9258 38.0566 88.2812 37.8535C88.6367 37.6465 89.0293 37.543 89.459 37.543C90.1387 37.543 90.6445 37.7344 90.9766 38.1172C91.3086 38.5 91.4766 39.0742 91.4805 39.8398V44H90.7832V39.834C90.7793 39.2676 90.6582 38.8457 90.4199 38.5684C90.1855 38.291 89.8086 38.1523 89.2891 38.1523C88.8555 38.1523 88.4707 38.2891 88.1348 38.5625C87.8027 38.832 87.5566 39.1973 87.3965 39.6582V44H86.6992V37.6602H87.3672ZM93.0156 40.7715C93.0156 39.7871 93.2344 39.0039 93.6719 38.4219C94.1133 37.8359 94.7109 37.543 95.4648 37.543C96.3203 37.543 96.9727 37.8809 97.4219 38.5566V35H98.1191V44H97.4629L97.4336 43.1562C96.9844 43.7969 96.3242 44.1172 95.4531 44.1172C94.7227 44.1172 94.1328 43.8242 93.6836 43.2383C93.2383 42.6484 93.0156 41.8535 93.0156 40.8535V40.7715ZM93.7246 40.8945C93.7246 41.7031 93.8867 42.3418 94.2109 42.8105C94.5352 43.2754 94.9922 43.5078 95.582 43.5078C96.4453 43.5078 97.0586 43.127 97.4219 42.3652V39.3887C97.0586 38.5645 96.4492 38.1523 95.5938 38.1523C95.0039 38.1523 94.5449 38.3848 94.2168 38.8496C93.8887 39.3105 93.7246 39.9922 93.7246 40.8945ZM102.42 44.1172C101.881 44.1172 101.393 43.9844 100.955 43.7188C100.521 43.4531 100.184 43.084 99.9414 42.6113C99.6992 42.1348 99.5781 41.6016 99.5781 41.0117V40.7598C99.5781 40.1504 99.6953 39.6016 99.9297 39.1133C100.168 38.625 100.498 38.2422 100.92 37.9648C101.342 37.6836 101.799 37.543 102.291 37.543C103.061 37.543 103.67 37.8066 104.119 38.334C104.572 38.8574 104.799 39.5742 104.799 40.4844V40.877H100.275V41.0117C100.275 41.7305 100.48 42.3301 100.891 42.8105C101.305 43.2871 101.824 43.5254 102.449 43.5254C102.824 43.5254 103.154 43.457 103.439 43.3203C103.729 43.1836 103.99 42.9648 104.225 42.6641L104.664 42.998C104.148 43.7441 103.4 44.1172 102.42 44.1172ZM102.291 38.1406C101.764 38.1406 101.318 38.334 100.955 38.7207C100.596 39.1074 100.377 39.627 100.299 40.2793H104.102V40.2031C104.082 39.5938 103.908 39.0977 103.58 38.7148C103.252 38.332 102.822 38.1406 102.291 38.1406ZM109.094 38.2578C108.945 38.2305 108.787 38.2168 108.619 38.2168C108.182 38.2168 107.811 38.3398 107.506 38.5859C107.205 38.8281 106.99 39.1816 106.861 39.6465V44H106.164V37.6602H106.85L106.861 38.668C107.232 37.918 107.828 37.543 108.648 37.543C108.844 37.543 108.998 37.5684 109.111 37.6191L109.094 38.2578ZM110.992 44H110.289V37.6602H110.992V44ZM110.166 35.8262C110.166 35.6934 110.209 35.582 110.295 35.4922C110.381 35.3984 110.498 35.3516 110.646 35.3516C110.795 35.3516 110.912 35.3984 110.998 35.4922C111.088 35.582 111.133 35.6934 111.133 35.8262C111.133 35.959 111.088 36.0703 110.998 36.1602C110.912 36.25 110.795 36.2949 110.646 36.2949C110.498 36.2949 110.381 36.25 110.295 36.1602C110.209 36.0703 110.166 35.959 110.166 35.8262ZM116.904 44C116.834 43.8008 116.789 43.5059 116.77 43.1152C116.523 43.4355 116.209 43.6836 115.826 43.8594C115.447 44.0312 115.045 44.1172 114.619 44.1172C114.01 44.1172 113.516 43.9473 113.137 43.6074C112.762 43.2676 112.574 42.8379 112.574 42.3184C112.574 41.7012 112.83 41.2129 113.342 40.8535C113.857 40.4941 114.574 40.3145 115.492 40.3145H116.764V39.5938C116.764 39.1406 116.623 38.7852 116.342 38.5273C116.064 38.2656 115.658 38.1348 115.123 38.1348C114.635 38.1348 114.23 38.2598 113.91 38.5098C113.59 38.7598 113.43 39.0605 113.43 39.4121L112.727 39.4062C112.727 38.9023 112.961 38.4668 113.43 38.0996C113.898 37.7285 114.475 37.543 115.158 37.543C115.865 37.543 116.422 37.7207 116.828 38.0762C117.238 38.4277 117.449 38.9199 117.461 39.5527V42.5527C117.461 43.166 117.525 43.625 117.654 43.9297V44H116.904ZM114.701 43.4961C115.17 43.4961 115.588 43.3828 115.955 43.1562C116.326 42.9297 116.596 42.627 116.764 42.248V40.8535H115.51C114.811 40.8613 114.264 40.9902 113.869 41.2402C113.475 41.4863 113.277 41.8262 113.277 42.2598C113.277 42.6152 113.408 42.9102 113.67 43.1445C113.936 43.3789 114.279 43.4961 114.701 43.4961Z" fill="#09485F"/>
<path d="M207.256 34.4688L210.402 41.998L213.561 34.4688H214.521V43H213.801V39.2852L213.859 35.4766L210.684 43H210.127L206.963 35.5059L207.021 39.2617V43H206.301V34.4688H207.256ZM218.975 43.1172C218.436 43.1172 217.947 42.9844 217.51 42.7188C217.076 42.4531 216.738 42.084 216.496 41.6113C216.254 41.1348 216.133 40.6016 216.133 40.0117V39.7598C216.133 39.1504 216.25 38.6016 216.484 38.1133C216.723 37.625 217.053 37.2422 217.475 36.9648C217.896 36.6836 218.354 36.543 218.846 36.543C219.615 36.543 220.225 36.8066 220.674 37.334C221.127 37.8574 221.354 38.5742 221.354 39.4844V39.877H216.83V40.0117C216.83 40.7305 217.035 41.3301 217.445 41.8105C217.859 42.2871 218.379 42.5254 219.004 42.5254C219.379 42.5254 219.709 42.457 219.994 42.3203C220.283 42.1836 220.545 41.9648 220.779 41.6641L221.219 41.998C220.703 42.7441 219.955 43.1172 218.975 43.1172ZM218.846 37.1406C218.318 37.1406 217.873 37.334 217.51 37.7207C217.15 38.1074 216.932 38.627 216.854 39.2793H220.656V39.2031C220.637 38.5938 220.463 38.0977 220.135 37.7148C219.807 37.332 219.377 37.1406 218.846 37.1406ZM219.625 34H220.475L219.121 35.6406H218.506L219.625 34ZM222.438 39.7715C222.438 38.7871 222.656 38.0039 223.094 37.4219C223.535 36.8359 224.133 36.543 224.887 36.543C225.742 36.543 226.395 36.8809 226.844 37.5566V34H227.541V43H226.885L226.855 42.1562C226.406 42.7969 225.746 43.1172 224.875 43.1172C224.145 43.1172 223.555 42.8242 223.105 42.2383C222.66 41.6484 222.438 40.8535 222.438 39.8535V39.7715ZM223.146 39.8945C223.146 40.7031 223.309 41.3418 223.633 41.8105C223.957 42.2754 224.414 42.5078 225.004 42.5078C225.867 42.5078 226.48 42.127 226.844 41.3652V38.3887C226.48 37.5645 225.871 37.1523 225.016 37.1523C224.426 37.1523 223.967 37.3848 223.639 37.8496C223.311 38.3105 223.146 38.9922 223.146 39.8945ZM230.172 43H229.469V36.6602H230.172V43ZM229.346 34.8262C229.346 34.6934 229.389 34.582 229.475 34.4922C229.561 34.3984 229.678 34.3516 229.826 34.3516C229.975 34.3516 230.092 34.3984 230.178 34.4922C230.268 34.582 230.312 34.6934 230.312 34.8262C230.312 34.959 230.268 35.0703 230.178 35.1602C230.092 35.25 229.975 35.2949 229.826 35.2949C229.678 35.2949 229.561 35.25 229.475 35.1602C229.389 35.0703 229.346 34.959 229.346 34.8262ZM236.084 43C236.014 42.8008 235.969 42.5059 235.949 42.1152C235.703 42.4355 235.389 42.6836 235.006 42.8594C234.627 43.0312 234.225 43.1172 233.799 43.1172C233.189 43.1172 232.695 42.9473 232.316 42.6074C231.941 42.2676 231.754 41.8379 231.754 41.3184C231.754 40.7012 232.01 40.2129 232.521 39.8535C233.037 39.4941 233.754 39.3145 234.672 39.3145H235.943V38.5938C235.943 38.1406 235.803 37.7852 235.521 37.5273C235.244 37.2656 234.838 37.1348 234.303 37.1348C233.814 37.1348 233.41 37.2598 233.09 37.5098C232.77 37.7598 232.609 38.0605 232.609 38.4121L231.906 38.4062C231.906 37.9023 232.141 37.4668 232.609 37.0996C233.078 36.7285 233.654 36.543 234.338 36.543C235.045 36.543 235.602 36.7207 236.008 37.0762C236.418 37.4277 236.629 37.9199 236.641 38.5527V41.5527C236.641 42.166 236.705 42.625 236.834 42.9297V43H236.084ZM233.881 42.4961C234.35 42.4961 234.768 42.3828 235.135 42.1562C235.506 41.9297 235.775 41.627 235.943 41.248V39.8535H234.689C233.99 39.8613 233.443 39.9902 233.049 40.2402C232.654 40.4863 232.457 40.8262 232.457 41.2598C232.457 41.6152 232.588 41.9102 232.85 42.1445C233.115 42.3789 233.459 42.4961 233.881 42.4961ZM243.889 43.1172C243.35 43.1172 242.861 42.9844 242.424 42.7188C241.99 42.4531 241.652 42.084 241.41 41.6113C241.168 41.1348 241.047 40.6016 241.047 40.0117V39.7598C241.047 39.1504 241.164 38.6016 241.398 38.1133C241.637 37.625 241.967 37.2422 242.389 36.9648C242.811 36.6836 243.268 36.543 243.76 36.543C244.529 36.543 245.139 36.8066 245.588 37.334C246.041 37.8574 246.268 38.5742 246.268 39.4844V39.877H241.744V40.0117C241.744 40.7305 241.949 41.3301 242.359 41.8105C242.773 42.2871 243.293 42.5254 243.918 42.5254C244.293 42.5254 244.623 42.457 244.908 42.3203C245.197 42.1836 245.459 41.9648 245.693 41.6641L246.133 41.998C245.617 42.7441 244.869 43.1172 243.889 43.1172ZM243.76 37.1406C243.232 37.1406 242.787 37.334 242.424 37.7207C242.064 38.1074 241.846 38.627 241.768 39.2793H245.57V39.2031C245.551 38.5938 245.377 38.0977 245.049 37.7148C244.721 37.332 244.291 37.1406 243.76 37.1406ZM251.43 41.3887C251.43 41.041 251.289 40.7617 251.008 40.5508C250.73 40.3398 250.311 40.1758 249.748 40.0586C249.186 39.9375 248.748 39.8008 248.436 39.6484C248.127 39.4922 247.896 39.3027 247.744 39.0801C247.596 38.8574 247.521 38.5879 247.521 38.2715C247.521 37.7715 247.73 37.3594 248.148 37.0352C248.566 36.707 249.102 36.543 249.754 36.543C250.461 36.543 251.027 36.7188 251.453 37.0703C251.883 37.418 252.098 37.873 252.098 38.4355H251.395C251.395 38.0645 251.238 37.7559 250.926 37.5098C250.617 37.2637 250.227 37.1406 249.754 37.1406C249.293 37.1406 248.922 37.2441 248.641 37.4512C248.363 37.6543 248.225 37.9199 248.225 38.248C248.225 38.5645 248.34 38.8105 248.57 38.9863C248.805 39.1582 249.229 39.3164 249.842 39.4609C250.459 39.6055 250.92 39.7598 251.225 39.9238C251.533 40.0879 251.762 40.2852 251.91 40.5156C252.059 40.7461 252.133 41.0254 252.133 41.3535C252.133 41.8887 251.916 42.3164 251.482 42.6367C251.053 42.957 250.49 43.1172 249.795 43.1172C249.057 43.1172 248.457 42.9395 247.996 42.584C247.539 42.2246 247.311 41.7715 247.311 41.2246H248.014C248.041 41.6348 248.213 41.9551 248.529 42.1855C248.85 42.4121 249.271 42.5254 249.795 42.5254C250.283 42.5254 250.678 42.418 250.979 42.2031C251.279 41.9883 251.43 41.7168 251.43 41.3887ZM258.812 39.8945C258.812 40.8828 258.594 41.668 258.156 42.25C257.719 42.8281 257.133 43.1172 256.398 43.1172C255.531 43.1172 254.867 42.8125 254.406 42.2031V45.4375H253.709V36.6602H254.359L254.395 37.5566C254.852 36.8809 255.514 36.543 256.381 36.543C257.139 36.543 257.732 36.8301 258.162 37.4043C258.596 37.9785 258.812 38.7754 258.812 39.7949V39.8945ZM258.109 39.7715C258.109 38.9629 257.943 38.3242 257.611 37.8555C257.279 37.3867 256.816 37.1523 256.223 37.1523C255.793 37.1523 255.424 37.2559 255.115 37.4629C254.807 37.6699 254.57 37.9707 254.406 38.3652V41.4062C254.574 41.7695 254.814 42.0469 255.127 42.2383C255.439 42.4297 255.809 42.5254 256.234 42.5254C256.824 42.5254 257.283 42.291 257.611 41.8223C257.943 41.3496 258.109 40.666 258.109 39.7715ZM262.826 43.1172C262.287 43.1172 261.799 42.9844 261.361 42.7188C260.928 42.4531 260.59 42.084 260.348 41.6113C260.105 41.1348 259.984 40.6016 259.984 40.0117V39.7598C259.984 39.1504 260.102 38.6016 260.336 38.1133C260.574 37.625 260.904 37.2422 261.326 36.9648C261.748 36.6836 262.205 36.543 262.697 36.543C263.467 36.543 264.076 36.8066 264.525 37.334C264.979 37.8574 265.205 38.5742 265.205 39.4844V39.877H260.682V40.0117C260.682 40.7305 260.887 41.3301 261.297 41.8105C261.711 42.2871 262.23 42.5254 262.855 42.5254C263.23 42.5254 263.561 42.457 263.846 42.3203C264.135 42.1836 264.396 41.9648 264.631 41.6641L265.07 41.998C264.555 42.7441 263.807 43.1172 262.826 43.1172ZM262.697 37.1406C262.17 37.1406 261.725 37.334 261.361 37.7207C261.002 38.1074 260.783 38.627 260.705 39.2793H264.508V39.2031C264.488 38.5938 264.314 38.0977 263.986 37.7148C263.658 37.332 263.229 37.1406 262.697 37.1406ZM269.5 37.2578C269.352 37.2305 269.193 37.2168 269.025 37.2168C268.588 37.2168 268.217 37.3398 267.912 37.5859C267.611 37.8281 267.396 38.1816 267.268 38.6465V43H266.57V36.6602H267.256L267.268 37.668C267.639 36.918 268.234 36.543 269.055 36.543C269.25 36.543 269.404 36.5684 269.518 36.6191L269.5 37.2578ZM274.381 43C274.311 42.8008 274.266 42.5059 274.246 42.1152C274 42.4355 273.686 42.6836 273.303 42.8594C272.924 43.0312 272.521 43.1172 272.096 43.1172C271.486 43.1172 270.992 42.9473 270.613 42.6074C270.238 42.2676 270.051 41.8379 270.051 41.3184C270.051 40.7012 270.307 40.2129 270.818 39.8535C271.334 39.4941 272.051 39.3145 272.969 39.3145H274.24V38.5938C274.24 38.1406 274.1 37.7852 273.818 37.5273C273.541 37.2656 273.135 37.1348 272.6 37.1348C272.111 37.1348 271.707 37.2598 271.387 37.5098C271.066 37.7598 270.906 38.0605 270.906 38.4121L270.203 38.4062C270.203 37.9023 270.438 37.4668 270.906 37.0996C271.375 36.7285 271.951 36.543 272.635 36.543C273.342 36.543 273.898 36.7207 274.305 37.0762C274.715 37.4277 274.926 37.9199 274.938 38.5527V41.5527C274.938 42.166 275.002 42.625 275.131 42.9297V43H274.381ZM272.178 42.4961C272.646 42.4961 273.064 42.3828 273.432 42.1562C273.803 41.9297 274.072 41.627 274.24 41.248V39.8535H272.986C272.287 39.8613 271.74 39.9902 271.346 40.2402C270.951 40.4863 270.754 40.8262 270.754 41.2598C270.754 41.6152 270.885 41.9102 271.146 42.1445C271.412 42.3789 271.756 42.4961 272.178 42.4961ZM276.531 39.7715C276.531 38.7871 276.75 38.0039 277.188 37.4219C277.629 36.8359 278.227 36.543 278.98 36.543C279.836 36.543 280.488 36.8809 280.938 37.5566V34H281.635V43H280.979L280.949 42.1562C280.5 42.7969 279.84 43.1172 278.969 43.1172C278.238 43.1172 277.648 42.8242 277.199 42.2383C276.754 41.6484 276.531 40.8535 276.531 39.8535V39.7715ZM277.24 39.8945C277.24 40.7031 277.402 41.3418 277.727 41.8105C278.051 42.2754 278.508 42.5078 279.098 42.5078C279.961 42.5078 280.574 42.127 280.938 41.3652V38.3887C280.574 37.5645 279.965 37.1523 279.109 37.1523C278.52 37.1523 278.061 37.3848 277.732 37.8496C277.404 38.3105 277.24 38.9922 277.24 39.8945ZM287.482 43C287.412 42.8008 287.367 42.5059 287.348 42.1152C287.102 42.4355 286.787 42.6836 286.404 42.8594C286.025 43.0312 285.623 43.1172 285.197 43.1172C284.588 43.1172 284.094 42.9473 283.715 42.6074C283.34 42.2676 283.152 41.8379 283.152 41.3184C283.152 40.7012 283.408 40.2129 283.92 39.8535C284.436 39.4941 285.152 39.3145 286.07 39.3145H287.342V38.5938C287.342 38.1406 287.201 37.7852 286.92 37.5273C286.643 37.2656 286.236 37.1348 285.701 37.1348C285.213 37.1348 284.809 37.2598 284.488 37.5098C284.168 37.7598 284.008 38.0605 284.008 38.4121L283.305 38.4062C283.305 37.9023 283.539 37.4668 284.008 37.0996C284.477 36.7285 285.053 36.543 285.736 36.543C286.443 36.543 287 36.7207 287.406 37.0762C287.816 37.4277 288.027 37.9199 288.039 38.5527V41.5527C288.039 42.166 288.104 42.625 288.232 42.9297V43H287.482ZM285.279 42.4961C285.748 42.4961 286.166 42.3828 286.533 42.1562C286.904 41.9297 287.174 41.627 287.342 41.248V39.8535H286.088C285.389 39.8613 284.842 39.9902 284.447 40.2402C284.053 40.4863 283.855 40.8262 283.855 41.2598C283.855 41.6152 283.986 41.9102 284.248 42.1445C284.514 42.3789 284.857 42.4961 285.279 42.4961Z" fill="#09485F"/>
<path d="M250.848 29H243.861V28.0259L247.552 23.9243C248.099 23.3042 248.475 22.8013 248.68 22.4155C248.89 22.0249 248.995 21.6221 248.995 21.207C248.995 20.6504 248.827 20.1938 248.49 19.8374C248.153 19.481 247.704 19.3027 247.142 19.3027C246.468 19.3027 245.943 19.4956 245.567 19.8813C245.196 20.2622 245.011 20.7944 245.011 21.478H243.656C243.656 20.4966 243.971 19.7031 244.601 19.0977C245.235 18.4922 246.083 18.1895 247.142 18.1895C248.133 18.1895 248.917 18.4507 249.493 18.9731C250.069 19.4907 250.357 20.1816 250.357 21.0459C250.357 22.0957 249.688 23.3457 248.351 24.7959L245.494 27.894H250.848V29ZM258.971 24.4517C258.971 26.0386 258.7 27.2178 258.158 27.9893C257.616 28.7607 256.769 29.1465 255.616 29.1465C254.479 29.1465 253.636 28.7705 253.089 28.0186C252.542 27.2617 252.259 26.1338 252.24 24.6348V22.8257C252.24 21.2583 252.511 20.0938 253.053 19.332C253.595 18.5703 254.444 18.1895 255.602 18.1895C256.749 18.1895 257.594 18.5581 258.136 19.2954C258.678 20.0278 258.956 21.1606 258.971 22.6938V24.4517ZM257.616 22.5986C257.616 21.4512 257.455 20.6162 257.132 20.0938C256.81 19.5664 256.3 19.3027 255.602 19.3027C254.908 19.3027 254.403 19.564 254.085 20.0864C253.768 20.6089 253.604 21.4121 253.595 22.4961V24.6641C253.595 25.8164 253.761 26.6685 254.093 27.2202C254.43 27.7671 254.938 28.0405 255.616 28.0405C256.285 28.0405 256.781 27.7817 257.103 27.2642C257.43 26.7466 257.601 25.9312 257.616 24.8179V22.5986ZM263.058 25.3306L262.208 26.2168V29H260.853V17.75H262.208V24.5542L262.933 23.6826L265.401 21.0752H267.049L263.966 24.3857L267.408 29H265.819L263.058 25.3306ZM270.96 25.6382L271.166 27.0444L271.466 25.7773L273.575 18.3359H274.762L276.82 25.7773L277.113 27.0664L277.34 25.6309L278.995 18.3359H280.409L277.823 29H276.542L274.344 21.229L274.176 20.416L274.007 21.229L271.729 29H270.448L267.87 18.3359H269.276L270.96 25.6382ZM283.119 22.0347C283.719 21.2974 284.5 20.9287 285.462 20.9287C287.137 20.9287 287.982 21.8735 287.997 23.7632V29H286.642V23.7559C286.637 23.1846 286.505 22.7622 286.246 22.4888C285.992 22.2153 285.594 22.0786 285.052 22.0786C284.613 22.0786 284.227 22.1958 283.895 22.4302C283.563 22.6646 283.304 22.9722 283.119 23.353V29H281.764V17.75H283.119V22.0347Z" fill="#9F9C9C"/>
<path fill-rule="evenodd" clip-rule="evenodd" d="M48.5422 26.3086C46.8778 19.7248 40.9224 15 34 15C25.7157 15 19 21.7157 19 30C19 38.2843 25.7157 45 34 45C40.9163 45 46.8754 40.2822 48.5422 33.6913C49.9848 33.0871 51 31.6614 51 30C51 28.3394 49.9854 26.913 48.5422 26.3086ZM46.3886 33.9535C44.6977 39.2666 39.727 43 34 43C26.8203 43 21 37.1797 21 30C21 22.8203 26.8203 17 34 17C39.7318 17 44.6996 20.7386 46.3887 26.0465C45.6993 26.1525 45.0675 26.4348 44.5411 26.8459C43.1852 22.3079 38.9789 19 34 19C27.9249 19 23 23.9249 23 30C23 36.0751 27.9249 41 34 41C38.9789 41 43.1852 37.6921 44.5411 33.1541C45.0674 33.5652 45.699 33.8475 46.3886 33.9535ZM43.7327 32.3066C42.6913 36.7175 38.729 40 34 40C28.4772 40 24 35.5228 24 30C24 24.4772 28.4772 20 34 20C38.729 20 42.6912 23.2825 43.7327 27.6933C43.2713 28.3453 43 29.1412 43 30C43 30.8586 43.2712 31.6545 43.7327 32.3066ZM45 30C45 28.8968 45.8975 28 47 28C48.1032 28 49 28.8975 49 30C49 31.1032 48.1025 32 47 32C45.8968 32 45 31.1025 45 30ZM34 37.5447C34 38.0447 33.262 38.0225 32.9257 37.9794C29.3215 37.5175 26.4675 34.6572 26.0152 31.0499C25.9838 30.7993 25.9527 30 26.4527 30C26.9527 30 27.036 31.128 27.036 31.128C27.5019 34.1266 29.8709 36.4956 32.8694 36.9614C32.8694 36.9614 34 37.0447 34 37.5447Z" fill="#09485F"/>
<circle cx="232" cy="23" r="5" fill="#F7C934"/>
</svg>
