<svg width="143" height="120" viewBox="0 0 143 120" fill="none" xmlns="http://www.w3.org/2000/svg">
<path d="M0 20.5157C0 9.1852 9.1852 0 20.5157 0H122.484C133.815 0 143 9.1852 143 20.5157V99.4843C143 110.815 133.815 120 122.484 120H20.5157C9.18521 120 0 110.815 0 99.4843V20.5157Z" fill="#ECEFF0"/>
<g clip-path="url(#clip0)">
<g clip-path="url(#clip1)">
<rect width="0" height="0" transform="translate(-85 6)" fill="white"/>
</g>
</g>
<path d="M18.3799 24.2466C17.1738 23.8999 16.2949 23.4751 15.7432 22.9722C15.1963 22.4644 14.9229 21.8394 14.9229 21.0972C14.9229 20.2573 15.2573 19.564 15.9263 19.0171C16.6001 18.4653 17.4741 18.1895 18.5483 18.1895C19.2808 18.1895 19.9326 18.3311 20.5039 18.6143C21.0801 18.8975 21.5244 19.2881 21.8369 19.7861C22.1543 20.2842 22.313 20.8286 22.313 21.4194H20.8994C20.8994 20.7749 20.6943 20.2695 20.2842 19.9033C19.874 19.5322 19.2954 19.3467 18.5483 19.3467C17.855 19.3467 17.313 19.5005 16.9224 19.8081C16.5366 20.1108 16.3438 20.5332 16.3438 21.0752C16.3438 21.5098 16.5269 21.8784 16.8931 22.1812C17.2642 22.479 17.8916 22.7524 18.7754 23.0015C19.6641 23.2505 20.3574 23.5264 20.8555 23.8291C21.3584 24.127 21.7295 24.4761 21.9688 24.8765C22.2129 25.2769 22.335 25.748 22.335 26.29C22.335 27.1543 21.998 27.8477 21.3242 28.3701C20.6504 28.8877 19.7495 29.1465 18.6216 29.1465C17.8892 29.1465 17.2056 29.0073 16.5708 28.729C15.936 28.4458 15.4453 28.0601 15.0986 27.5718C14.7568 27.0835 14.5859 26.5293 14.5859 25.9092H15.9995C15.9995 26.5537 16.2363 27.064 16.71 27.4399C17.1885 27.811 17.8257 27.9966 18.6216 27.9966C19.3638 27.9966 19.9326 27.8452 20.3281 27.5425C20.7236 27.2397 20.9214 26.8271 20.9214 26.3047C20.9214 25.7822 20.7383 25.3794 20.3721 25.0962C20.0059 24.8081 19.3418 24.5249 18.3799 24.2466ZM25.2061 21.0752L25.2427 21.9541C25.8237 21.2705 26.6074 20.9287 27.5938 20.9287C28.7021 20.9287 29.4565 21.3535 29.8569 22.2031C30.1206 21.8223 30.4624 21.5146 30.8823 21.2803C31.3071 21.0459 31.8076 20.9287 32.3838 20.9287C34.1221 20.9287 35.0059 21.8491 35.0352 23.6899V29H33.6802V23.7705C33.6802 23.2041 33.5508 22.7817 33.292 22.5034C33.0332 22.2202 32.5986 22.0786 31.9883 22.0786C31.4854 22.0786 31.0679 22.23 30.7358 22.5327C30.4038 22.8306 30.2109 23.2334 30.1572 23.7412V29H28.7949V23.8071C28.7949 22.6548 28.231 22.0786 27.103 22.0786C26.2144 22.0786 25.6064 22.457 25.2793 23.2139V29H23.9243V21.0752H25.2061ZM41.9785 29C41.9004 28.8438 41.8369 28.5654 41.7881 28.165C41.1582 28.8193 40.4062 29.1465 39.5322 29.1465C38.751 29.1465 38.1089 28.9268 37.606 28.4873C37.1079 28.043 36.8589 27.4814 36.8589 26.8027C36.8589 25.9775 37.1714 25.3379 37.7964 24.8838C38.4263 24.4248 39.3101 24.1953 40.4478 24.1953H41.7661V23.5728C41.7661 23.0991 41.6245 22.7231 41.3413 22.4448C41.0581 22.1616 40.6406 22.02 40.0889 22.02C39.6055 22.02 39.2002 22.1421 38.873 22.3862C38.5459 22.6304 38.3823 22.9258 38.3823 23.2725H37.02C37.02 22.877 37.1592 22.4961 37.4375 22.1299C37.7207 21.7588 38.1016 21.4658 38.5801 21.251C39.0635 21.0361 39.5933 20.9287 40.1694 20.9287C41.0825 20.9287 41.7979 21.1582 42.3154 21.6172C42.833 22.0713 43.1016 22.6987 43.1211 23.4995V27.147C43.1211 27.8745 43.2139 28.4531 43.3994 28.8828V29H41.9785ZM39.73 27.9673C40.1548 27.9673 40.5576 27.8574 40.9385 27.6377C41.3193 27.418 41.5952 27.1323 41.7661 26.7808V25.1548H40.7041C39.0439 25.1548 38.2139 25.6406 38.2139 26.6123C38.2139 27.0371 38.3555 27.3691 38.6387 27.6084C38.9219 27.8477 39.2856 27.9673 39.73 27.9673ZM49.0757 22.291C48.8706 22.2568 48.6484 22.2397 48.4092 22.2397C47.5205 22.2397 46.9175 22.6182 46.6001 23.375V29H45.2451V21.0752H46.5635L46.5854 21.9907C47.0298 21.2827 47.6597 20.9287 48.4751 20.9287C48.7388 20.9287 48.939 20.9629 49.0757 21.0312V22.291ZM52.5327 19.1562V21.0752H54.0122V22.1226H52.5327V27.0371C52.5327 27.3545 52.5986 27.5938 52.7305 27.7549C52.8623 27.9111 53.0869 27.9893 53.4043 27.9893C53.5605 27.9893 53.7754 27.96 54.0488 27.9014V29C53.6924 29.0977 53.3457 29.1465 53.0088 29.1465C52.4033 29.1465 51.9468 28.9634 51.6392 28.5972C51.3315 28.231 51.1777 27.7109 51.1777 27.0371V22.1226H49.7349V21.0752H51.1777V19.1562H52.5327ZM66.6099 19.4932H63.1821V29H61.7832V19.4932H58.3628V18.3359H66.6099V19.4932ZM71.8394 27.1323L74.8862 18.3359H76.4243L72.4692 29H71.2241L67.2764 18.3359H68.8071L71.8394 27.1323Z" fill="#09485F"/>
<path d="M19.9062 48.9023C19.9062 48.4297 19.7402 48.0566 19.4082 47.7832C19.0762 47.5059 18.4688 47.2441 17.5859 46.998C16.7031 46.748 16.0586 46.4766 15.6523 46.1836C15.0742 45.7695 14.7852 45.2266 14.7852 44.5547C14.7852 43.9023 15.0527 43.373 15.5879 42.9668C16.127 42.5566 16.8145 42.3516 17.6504 42.3516C18.2168 42.3516 18.7227 42.4609 19.168 42.6797C19.6172 42.8984 19.9648 43.2031 20.2109 43.5938C20.457 43.9844 20.5801 44.4199 20.5801 44.9004H19.8535C19.8535 44.3184 19.6543 43.8516 19.2559 43.5C18.8574 43.1445 18.3223 42.9668 17.6504 42.9668C16.998 42.9668 16.4785 43.1133 16.0918 43.4062C15.7051 43.6953 15.5117 44.0742 15.5117 44.543C15.5117 44.9766 15.6855 45.3301 16.0332 45.6035C16.3809 45.877 16.9375 46.1191 17.7031 46.3301C18.4688 46.5371 19.0488 46.7539 19.4434 46.9805C19.8379 47.2031 20.1348 47.4707 20.334 47.7832C20.5332 48.0957 20.6328 48.4648 20.6328 48.8906C20.6328 49.5625 20.3633 50.1016 19.8242 50.5078C19.2891 50.9141 18.582 51.1172 17.7031 51.1172C17.1016 51.1172 16.5488 51.0098 16.0449 50.7949C15.5449 50.5801 15.1641 50.2793 14.9023 49.8926C14.6445 49.5059 14.5156 49.0625 14.5156 48.5625H15.2363C15.2363 49.1641 15.4609 49.6387 15.9102 49.9863C16.3594 50.334 16.957 50.5078 17.7031 50.5078C18.3672 50.5078 18.9004 50.3613 19.3027 50.0684C19.7051 49.7754 19.9062 49.3867 19.9062 48.9023ZM26.0293 51C25.959 50.8008 25.9141 50.5059 25.8945 50.1152C25.6484 50.4355 25.334 50.6836 24.9512 50.8594C24.5723 51.0312 24.1699 51.1172 23.7441 51.1172C23.1348 51.1172 22.6406 50.9473 22.2617 50.6074C21.8867 50.2676 21.6992 49.8379 21.6992 49.3184C21.6992 48.7012 21.9551 48.2129 22.4668 47.8535C22.9824 47.4941 23.6992 47.3145 24.6172 47.3145H25.8887V46.5938C25.8887 46.1406 25.748 45.7852 25.4668 45.5273C25.1895 45.2656 24.7832 45.1348 24.248 45.1348C23.7598 45.1348 23.3555 45.2598 23.0352 45.5098C22.7148 45.7598 22.5547 46.0605 22.5547 46.4121L21.8516 46.4062C21.8516 45.9023 22.0859 45.4668 22.5547 45.0996C23.0234 44.7285 23.5996 44.543 24.2832 44.543C24.9902 44.543 25.5469 44.7207 25.9531 45.0762C26.3633 45.4277 26.5742 45.9199 26.5859 46.5527V49.5527C26.5859 50.166 26.6504 50.625 26.7793 50.9297V51H26.0293ZM23.8262 50.4961C24.2949 50.4961 24.7129 50.3828 25.0801 50.1562C25.4512 49.9297 25.7207 49.627 25.8887 49.248V47.8535H24.6348C23.9355 47.8613 23.3887 47.9902 22.9941 48.2402C22.5996 48.4863 22.4023 48.8262 22.4023 49.2598C22.4023 49.6152 22.5332 49.9102 22.7949 50.1445C23.0605 50.3789 23.4043 50.4961 23.8262 50.4961ZM29.1289 44.6602L29.1523 45.7441C29.3906 45.3535 29.6875 45.0566 30.043 44.8535C30.3984 44.6465 30.791 44.543 31.2207 44.543C31.9004 44.543 32.4062 44.7344 32.7383 45.1172C33.0703 45.5 33.2383 46.0742 33.2422 46.8398V51H32.5449V46.834C32.541 46.2676 32.4199 45.8457 32.1816 45.5684C31.9473 45.291 31.5703 45.1523 31.0508 45.1523C30.6172 45.1523 30.2324 45.2891 29.8965 45.5625C29.5645 45.832 29.3184 46.1973 29.1582 46.6582V51H28.4609V44.6602H29.1289ZM38.8555 49.3887C38.8555 49.041 38.7148 48.7617 38.4336 48.5508C38.1562 48.3398 37.7363 48.1758 37.1738 48.0586C36.6113 47.9375 36.1738 47.8008 35.8613 47.6484C35.5527 47.4922 35.3223 47.3027 35.1699 47.0801C35.0215 46.8574 34.9473 46.5879 34.9473 46.2715C34.9473 45.7715 35.1562 45.3594 35.5742 45.0352C35.9922 44.707 36.5273 44.543 37.1797 44.543C37.8867 44.543 38.4531 44.7188 38.8789 45.0703C39.3086 45.418 39.5234 45.873 39.5234 46.4355H38.8203C38.8203 46.0645 38.6641 45.7559 38.3516 45.5098C38.043 45.2637 37.6523 45.1406 37.1797 45.1406C36.7188 45.1406 36.3477 45.2441 36.0664 45.4512C35.7891 45.6543 35.6504 45.9199 35.6504 46.248C35.6504 46.5645 35.7656 46.8105 35.9961 46.9863C36.2305 47.1582 36.6543 47.3164 37.2676 47.4609C37.8848 47.6055 38.3457 47.7598 38.6504 47.9238C38.959 48.0879 39.1875 48.2852 39.3359 48.5156C39.4844 48.7461 39.5586 49.0254 39.5586 49.3535C39.5586 49.8887 39.3418 50.3164 38.9082 50.6367C38.4785 50.957 37.916 51.1172 37.2207 51.1172C36.4824 51.1172 35.8828 50.9395 35.4219 50.584C34.9648 50.2246 34.7363 49.7715 34.7363 49.2246H35.4395C35.4668 49.6348 35.6387 49.9551 35.9551 50.1855C36.2754 50.4121 36.6973 50.5254 37.2207 50.5254C37.709 50.5254 38.1035 50.418 38.4043 50.2031C38.7051 49.9883 38.8555 49.7168 38.8555 49.3887ZM45.2188 50.1973C44.7969 50.8105 44.123 51.1172 43.1973 51.1172C42.5215 51.1172 42.0078 50.9219 41.6562 50.5312C41.3047 50.1367 41.125 49.5547 41.1172 48.7852V44.6602H41.8145V48.6973C41.8145 49.9043 42.3027 50.5078 43.2793 50.5078C44.2949 50.5078 44.9375 50.0879 45.207 49.248V44.6602H45.9102V51H45.2305L45.2188 50.1973ZM48.4062 44.6602L48.4297 45.7441C48.668 45.3535 48.9648 45.0566 49.3203 44.8535C49.6758 44.6465 50.0684 44.543 50.498 44.543C51.1777 44.543 51.6836 44.7344 52.0156 45.1172C52.3477 45.5 52.5156 46.0742 52.5195 46.8398V51H51.8223V46.834C51.8184 46.2676 51.6973 45.8457 51.459 45.5684C51.2246 45.291 50.8477 45.1523 50.3281 45.1523C49.8945 45.1523 49.5098 45.2891 49.1738 45.5625C48.8418 45.832 48.5957 46.1973 48.4355 46.6582V51H47.7383V44.6602H48.4062ZM54.0547 47.7715C54.0547 46.7793 54.2734 45.9941 54.7109 45.416C55.1523 44.834 55.75 44.543 56.5039 44.543C57.3672 44.543 58.0234 44.8867 58.4727 45.5742L58.5078 44.6602H59.1641V50.8711C59.1641 51.6875 58.9355 52.334 58.4785 52.8105C58.0215 53.2871 57.4023 53.5254 56.6211 53.5254C56.1797 53.5254 55.7578 53.4258 55.3555 53.2266C54.957 53.0312 54.6426 52.7695 54.4121 52.4414L54.8047 52.0195C55.3008 52.6289 55.8906 52.9336 56.5742 52.9336C57.1602 52.9336 57.6172 52.7598 57.9453 52.4121C58.2734 52.0684 58.4434 51.5898 58.4551 50.9766V50.1797C58.0059 50.8047 57.3516 51.1172 56.4922 51.1172C55.7578 51.1172 55.168 50.8242 54.7227 50.2383C54.2773 49.6523 54.0547 48.8613 54.0547 47.8652V47.7715ZM54.7637 47.8945C54.7637 48.7031 54.9258 49.3418 55.25 49.8105C55.5742 50.2754 56.0312 50.5078 56.6211 50.5078C57.4844 50.5078 58.0957 50.1211 58.4551 49.3477V46.4004C58.291 45.9941 58.0547 45.6855 57.7461 45.4746C57.4375 45.2598 57.0664 45.1523 56.6328 45.1523C56.043 45.1523 55.584 45.3848 55.2559 45.8496C54.9277 46.3105 54.7637 46.9922 54.7637 47.8945ZM68.7852 46.9102H64.7949V50.3906H69.3828V51H64.0742V42.4688H69.3535V43.084H64.7949V46.3008H68.7852V46.9102ZM73.502 46.0781L75.9043 42.4688H76.7656L73.9414 46.6758L76.8535 51H75.9863L73.502 47.2734L71.0059 51H70.1504L73.0684 46.6758L70.2383 42.4688H71.0996L73.502 46.0781ZM78.4531 46.6289L78.8691 42.4688H83.1348V43.1191H79.4727L79.1738 46.002C79.6309 45.6895 80.166 45.5332 80.7793 45.5332C81.5488 45.5332 82.1621 45.7832 82.6191 46.2832C83.0762 46.7832 83.3047 47.4492 83.3047 48.2812C83.3047 49.1797 83.082 49.877 82.6367 50.373C82.1914 50.8691 81.5645 51.1172 80.7559 51.1172C80.0137 51.1172 79.4121 50.9102 78.9512 50.4961C78.4902 50.082 78.2266 49.502 78.1602 48.7559H78.834C78.9004 49.3379 79.0977 49.7793 79.4258 50.0801C79.7539 50.377 80.1973 50.5254 80.7559 50.5254C81.3652 50.5254 81.8242 50.332 82.1328 49.9453C82.4453 49.5586 82.6016 49.0078 82.6016 48.293C82.6016 47.668 82.4277 47.1582 82.0801 46.7637C81.7324 46.3691 81.2578 46.1719 80.6562 46.1719C80.3242 46.1719 80.0352 46.2148 79.7891 46.3008C79.543 46.3828 79.2832 46.5449 79.0098 46.7871L78.4531 46.6289ZM85.1094 46.6289L85.5254 42.4688H89.791V43.1191H86.1289L85.8301 46.002C86.2871 45.6895 86.8223 45.5332 87.4355 45.5332C88.2051 45.5332 88.8184 45.7832 89.2754 46.2832C89.7324 46.7832 89.9609 47.4492 89.9609 48.2812C89.9609 49.1797 89.7383 49.877 89.293 50.373C88.8477 50.8691 88.2207 51.1172 87.4121 51.1172C86.6699 51.1172 86.0684 50.9102 85.6074 50.4961C85.1465 50.082 84.8828 49.502 84.8164 48.7559H85.4902C85.5566 49.3379 85.7539 49.7793 86.082 50.0801C86.4102 50.377 86.8535 50.5254 87.4121 50.5254C88.0215 50.5254 88.4805 50.332 88.7891 49.9453C89.1016 49.5586 89.2578 49.0078 89.2578 48.293C89.2578 47.668 89.084 47.1582 88.7363 46.7637C88.3887 46.3691 87.9141 46.1719 87.3125 46.1719C86.9805 46.1719 86.6914 46.2148 86.4453 46.3008C86.1992 46.3828 85.9395 46.5449 85.666 46.7871L85.1094 46.6289ZM98.5156 48.252H99.8457V48.8438H98.5156V51H97.8125V48.8438H93.7988V48.4453L97.748 42.4688H98.5156V48.252ZM94.6602 48.252H97.8125V43.377L97.502 43.916L94.6602 48.252ZM102.482 47.8066L101.68 48.5801V51H100.977V42H101.68V47.7598L102.342 47.0449L104.768 44.6602H105.652L102.963 47.332L105.887 51H105.049L102.482 47.8066Z" fill="#09485F"/>
<path d="M103.35 70.1973C103.35 70.9824 103.213 71.6719 102.939 72.2656C102.67 72.8594 102.283 73.3164 101.779 73.6367C101.275 73.957 100.693 74.1172 100.033 74.1172C99.0371 74.1172 98.2324 73.7617 97.6191 73.0508C97.0059 72.3359 96.6992 71.373 96.6992 70.1621V69.2832C96.6992 68.5059 96.8359 67.8184 97.1094 67.2207C97.3867 66.6191 97.7773 66.1582 98.2812 65.8379C98.7852 65.5137 99.3652 65.3516 100.021 65.3516C100.678 65.3516 101.256 65.5098 101.756 65.8262C102.26 66.1426 102.648 66.5898 102.922 67.168C103.195 67.7461 103.338 68.416 103.35 69.1777V70.1973ZM102.629 69.2715C102.629 68.2441 102.396 67.4395 101.932 66.8574C101.467 66.2754 100.83 65.9844 100.021 65.9844C99.2285 65.9844 98.5957 66.2773 98.123 66.8633C97.6543 67.4453 97.4199 68.2598 97.4199 69.3066V70.1973C97.4199 71.209 97.6543 72.0117 98.123 72.6055C98.5918 73.1953 99.2285 73.4902 100.033 73.4902C100.85 73.4902 101.486 73.1992 101.943 72.6172C102.4 72.0312 102.629 71.2168 102.629 70.1738V69.2715ZM105.506 74V68.2344H104.457V67.6602H105.506V66.8926C105.506 66.2441 105.67 65.7461 105.998 65.3984C106.33 65.0508 106.791 64.877 107.381 64.877C107.646 64.877 107.895 64.9102 108.125 64.9766L108.072 65.5625C107.877 65.5156 107.664 65.4922 107.434 65.4922C107.047 65.4922 106.746 65.6133 106.531 65.8555C106.316 66.0938 106.209 66.4336 106.209 66.875V67.6602H107.721V68.2344H106.209V74H105.506ZM109.479 74V68.2344H108.43V67.6602H109.479V66.8926C109.479 66.2441 109.643 65.7461 109.971 65.3984C110.303 65.0508 110.764 64.877 111.354 64.877C111.619 64.877 111.867 64.9102 112.098 64.9766L112.045 65.5625C111.85 65.5156 111.637 65.4922 111.406 65.4922C111.02 65.4922 110.719 65.6133 110.504 65.8555C110.289 66.0938 110.182 66.4336 110.182 66.875V67.6602H111.693V68.2344H110.182V74H109.479Z" fill="#09485F"/>
<path d="M82.5 90C82.5 84.7533 86.7533 80.5 92 80.5H114C119.247 80.5 123.5 84.7533 123.5 90C123.5 95.2467 119.247 99.5 114 99.5H92C86.7533 99.5 82.5 95.2467 82.5 90Z" stroke="#09485F"/>
<path d="M81 90C81 84.4772 85.4772 80 91 80H94C99.5228 80 104 84.4772 104 90C104 95.5228 99.5228 100 94 100H91C85.4772 100 81 95.5228 81 90Z" fill="#09485F"/>
<defs>
<clipPath id="clip0">
<rect width="32" height="32" fill="white" transform="translate(15 74)"/>
</clipPath>
<clipPath id="clip1">
<rect width="0" height="0" fill="white" transform="translate(-85 6)"/>
</clipPath>
</defs>
</svg>
