<svg width="151" height="128" viewBox="0 0 151 128" fill="none" xmlns="http://www.w3.org/2000/svg">
<path d="M5 21.5157C5 10.1852 14.1852 1 25.5157 1H127.484C138.815 1 148 10.1852 148 21.5157V100.484C148 111.815 138.815 121 127.484 121H25.5157C14.1852 121 5 111.815 5 100.484V21.5157Z" fill="#ECEFF0"/>
<g filter="url(#filter0_d)">
<path d="M4 20.5157C4 9.1852 13.1852 0 24.5157 0H126.484C137.815 0 147 9.1852 147 20.5157V99.4843C147 110.815 137.815 120 126.484 120H24.5157C13.1852 120 4 110.815 4 99.4843V20.5157Z" fill="#09485F"/>
</g>
<g clip-path="url(#clip0)">
<g clip-path="url(#clip1)">
<rect width="0" height="0" transform="translate(-110 -29)" fill="white"/>
</g>
</g>
<path d="M25.606 19.4932H22.1782V29H20.7793V19.4932H17.3589V18.3359H25.606V19.4932ZM25.8843 24.9644C25.8843 24.188 26.0356 23.4897 26.3384 22.8696C26.646 22.2495 27.0708 21.771 27.6128 21.4341C28.1597 21.0972 28.7822 20.9287 29.4805 20.9287C30.5596 20.9287 31.4312 21.3022 32.0952 22.0493C32.7642 22.7964 33.0986 23.79 33.0986 25.0303V25.1255C33.0986 25.897 32.9497 26.5903 32.6519 27.2056C32.3589 27.8159 31.9365 28.292 31.3848 28.6338C30.8379 28.9756 30.208 29.1465 29.4951 29.1465C28.4209 29.1465 27.5493 28.7729 26.8804 28.0259C26.2163 27.2788 25.8843 26.29 25.8843 25.0596V24.9644ZM27.2466 25.1255C27.2466 26.0044 27.4492 26.71 27.8545 27.2422C28.2646 27.7744 28.8115 28.0405 29.4951 28.0405C30.1836 28.0405 30.7305 27.772 31.1357 27.2349C31.541 26.6929 31.7437 25.936 31.7437 24.9644C31.7437 24.0952 31.5361 23.3921 31.1211 22.855C30.7109 22.313 30.1641 22.042 29.4805 22.042C28.8115 22.042 28.272 22.3081 27.8618 22.8403C27.4517 23.3726 27.2466 24.1343 27.2466 25.1255ZM36.0723 21.0752L36.1089 21.9541C36.6899 21.2705 37.4736 20.9287 38.46 20.9287C39.5684 20.9287 40.3228 21.3535 40.7231 22.2031C40.9868 21.8223 41.3286 21.5146 41.7485 21.2803C42.1733 21.0459 42.6738 20.9287 43.25 20.9287C44.9883 20.9287 45.8721 21.8491 45.9014 23.6899V29H44.5464V23.7705C44.5464 23.2041 44.417 22.7817 44.1582 22.5034C43.8994 22.2202 43.4648 22.0786 42.8545 22.0786C42.3516 22.0786 41.9341 22.23 41.6021 22.5327C41.27 22.8306 41.0771 23.2334 41.0234 23.7412V29H39.6611V23.8071C39.6611 22.6548 39.0972 22.0786 37.9692 22.0786C37.0806 22.0786 36.4727 22.457 36.1455 23.2139V29H34.7905V21.0752H36.0723ZM52.8447 29C52.7666 28.8438 52.7031 28.5654 52.6543 28.165C52.0244 28.8193 51.2725 29.1465 50.3984 29.1465C49.6172 29.1465 48.9751 28.9268 48.4722 28.4873C47.9741 28.043 47.7251 27.4814 47.7251 26.8027C47.7251 25.9775 48.0376 25.3379 48.6626 24.8838C49.2925 24.4248 50.1763 24.1953 51.314 24.1953H52.6323V23.5728C52.6323 23.0991 52.4907 22.7231 52.2075 22.4448C51.9243 22.1616 51.5068 22.02 50.9551 22.02C50.4717 22.02 50.0664 22.1421 49.7393 22.3862C49.4121 22.6304 49.2485 22.9258 49.2485 23.2725H47.8862C47.8862 22.877 48.0254 22.4961 48.3037 22.1299C48.5869 21.7588 48.9678 21.4658 49.4463 21.251C49.9297 21.0361 50.4595 20.9287 51.0356 20.9287C51.9487 20.9287 52.6641 21.1582 53.1816 21.6172C53.6992 22.0713 53.9678 22.6987 53.9873 23.4995V27.147C53.9873 27.8745 54.0801 28.4531 54.2656 28.8828V29H52.8447ZM50.5962 27.9673C51.021 27.9673 51.4238 27.8574 51.8047 27.6377C52.1855 27.418 52.4614 27.1323 52.6323 26.7808V25.1548H51.5703C49.9102 25.1548 49.0801 25.6406 49.0801 26.6123C49.0801 27.0371 49.2217 27.3691 49.5049 27.6084C49.7881 27.8477 50.1519 27.9673 50.5962 27.9673ZM55.7817 24.9717C55.7817 23.7559 56.0698 22.7793 56.646 22.042C57.2222 21.2998 57.9766 20.9287 58.9092 20.9287C59.8369 20.9287 60.5718 21.2461 61.1138 21.8809V17.75H62.4688V29H61.2236L61.1577 28.1504C60.6157 28.8145 59.8613 29.1465 58.8945 29.1465C57.9766 29.1465 57.2271 28.7705 56.646 28.0186C56.0698 27.2666 55.7817 26.2852 55.7817 25.0742V24.9717ZM57.1367 25.1255C57.1367 26.0239 57.3223 26.7271 57.6934 27.2349C58.0645 27.7427 58.5771 27.9966 59.2314 27.9966C60.0908 27.9966 60.7183 27.6108 61.1138 26.8394V23.1992C60.7085 22.4521 60.0859 22.0786 59.2461 22.0786C58.582 22.0786 58.0645 22.335 57.6934 22.8477C57.3223 23.3604 57.1367 24.1196 57.1367 25.1255ZM69.4707 29C69.3926 28.8438 69.3291 28.5654 69.2803 28.165C68.6504 28.8193 67.8984 29.1465 67.0244 29.1465C66.2432 29.1465 65.6011 28.9268 65.0981 28.4873C64.6001 28.043 64.3511 27.4814 64.3511 26.8027C64.3511 25.9775 64.6636 25.3379 65.2886 24.8838C65.9185 24.4248 66.8022 24.1953 67.9399 24.1953H69.2583V23.5728C69.2583 23.0991 69.1167 22.7231 68.8335 22.4448C68.5503 22.1616 68.1328 22.02 67.5811 22.02C67.0977 22.02 66.6924 22.1421 66.3652 22.3862C66.0381 22.6304 65.8745 22.9258 65.8745 23.2725H64.5122C64.5122 22.877 64.6514 22.4961 64.9297 22.1299C65.2129 21.7588 65.5938 21.4658 66.0723 21.251C66.5557 21.0361 67.0854 20.9287 67.6616 20.9287C68.5747 20.9287 69.29 21.1582 69.8076 21.6172C70.3252 22.0713 70.5938 22.6987 70.6133 23.4995V27.147C70.6133 27.8745 70.7061 28.4531 70.8916 28.8828V29H69.4707ZM67.2222 27.9673C67.647 27.9673 68.0498 27.8574 68.4307 27.6377C68.8115 27.418 69.0874 27.1323 69.2583 26.7808V25.1548H68.1963C66.5361 25.1548 65.7061 25.6406 65.7061 26.6123C65.7061 27.0371 65.8477 27.3691 66.1309 27.6084C66.4141 27.8477 66.7778 27.9673 67.2222 27.9673ZM80.772 29H79.4097V19.9692L76.6777 20.9727V19.7422L80.5596 18.2847H80.772V29Z" fill="#FEFEFE"/>
<path d="M18.7988 46.5254V50H18.0781V41.4688H20.9844C21.8711 41.4688 22.5703 41.6953 23.082 42.1484C23.5977 42.6016 23.8555 43.2246 23.8555 44.0176C23.8555 44.8184 23.6074 45.4375 23.1113 45.875C22.6191 46.3086 21.9043 46.5254 20.9668 46.5254H18.7988ZM18.7988 45.916H20.9844C21.6836 45.916 22.2168 45.75 22.584 45.418C22.9512 45.0859 23.1348 44.623 23.1348 44.0293C23.1348 43.4395 22.9512 42.9707 22.584 42.623C22.2207 42.2715 21.7031 42.0918 21.0312 42.084H18.7988V45.916ZM24.8398 46.7363C24.8398 46.127 24.957 45.5781 25.1914 45.0898C25.4297 44.6016 25.7637 44.2227 26.1934 43.9531C26.627 43.6797 27.1172 43.543 27.6641 43.543C28.5078 43.543 29.1914 43.8398 29.7148 44.4336C30.2383 45.0234 30.5 45.8066 30.5 46.7832V46.9297C30.5 47.543 30.3809 48.0957 30.1426 48.5879C29.9082 49.0762 29.5762 49.4531 29.1465 49.7188C28.7168 49.9844 28.2266 50.1172 27.6758 50.1172C26.8359 50.1172 26.1523 49.8223 25.625 49.2324C25.1016 48.6387 24.8398 47.8535 24.8398 46.877V46.7363ZM25.543 46.9297C25.543 47.6875 25.7383 48.3105 26.1289 48.7988C26.5234 49.2832 27.0391 49.5254 27.6758 49.5254C28.3086 49.5254 28.8203 49.2832 29.2109 48.7988C29.6055 48.3105 29.8027 47.668 29.8027 46.8711V46.7363C29.8027 46.252 29.7129 45.8086 29.5332 45.4062C29.3535 45.0039 29.1016 44.6934 28.7773 44.4746C28.4531 44.252 28.082 44.1406 27.6641 44.1406C27.0391 44.1406 26.5293 44.3867 26.1348 44.8789C25.7402 45.3672 25.543 46.0078 25.543 46.8008V46.9297ZM35.75 48.3887C35.75 48.041 35.6094 47.7617 35.3281 47.5508C35.0508 47.3398 34.6309 47.1758 34.0684 47.0586C33.5059 46.9375 33.0684 46.8008 32.7559 46.6484C32.4473 46.4922 32.2168 46.3027 32.0645 46.0801C31.916 45.8574 31.8418 45.5879 31.8418 45.2715C31.8418 44.7715 32.0508 44.3594 32.4688 44.0352C32.8867 43.707 33.4219 43.543 34.0742 43.543C34.7812 43.543 35.3477 43.7188 35.7734 44.0703C36.2031 44.418 36.418 44.873 36.418 45.4355H35.7148C35.7148 45.0645 35.5586 44.7559 35.2461 44.5098C34.9375 44.2637 34.5469 44.1406 34.0742 44.1406C33.6133 44.1406 33.2422 44.2441 32.9609 44.4512C32.6836 44.6543 32.5449 44.9199 32.5449 45.248C32.5449 45.5645 32.6602 45.8105 32.8906 45.9863C33.125 46.1582 33.5488 46.3164 34.1621 46.4609C34.7793 46.6055 35.2402 46.7598 35.5449 46.9238C35.8535 47.0879 36.082 47.2852 36.2305 47.5156C36.3789 47.7461 36.4531 48.0254 36.4531 48.3535C36.4531 48.8887 36.2363 49.3164 35.8027 49.6367C35.373 49.957 34.8105 50.1172 34.1152 50.1172C33.377 50.1172 32.7773 49.9395 32.3164 49.584C31.8594 49.2246 31.6309 48.7715 31.6309 48.2246H32.334C32.3613 48.6348 32.5332 48.9551 32.8496 49.1855C33.1699 49.4121 33.5918 49.5254 34.1152 49.5254C34.6035 49.5254 34.998 49.418 35.2988 49.2031C35.5996 48.9883 35.75 48.7168 35.75 48.3887ZM38.8203 50H38.1172V43.6602H38.8203V50ZM37.9941 41.8262C37.9941 41.6934 38.0371 41.582 38.123 41.4922C38.209 41.3984 38.3262 41.3516 38.4746 41.3516C38.623 41.3516 38.7402 41.3984 38.8262 41.4922C38.916 41.582 38.9609 41.6934 38.9609 41.8262C38.9609 41.959 38.916 42.0703 38.8262 42.1602C38.7402 42.25 38.623 42.2949 38.4746 42.2949C38.3262 42.2949 38.209 42.25 38.123 42.1602C38.0371 42.0703 37.9941 41.959 37.9941 41.8262ZM41.8203 42.0371V43.6602H43.1328V44.2344H41.8203V48.459C41.8203 48.8105 41.8828 49.0723 42.0078 49.2441C42.1367 49.416 42.3496 49.502 42.6465 49.502C42.7637 49.502 42.9531 49.4824 43.2148 49.4434L43.2441 50.0176C43.0605 50.084 42.8105 50.1172 42.4941 50.1172C42.0137 50.1172 41.6641 49.9785 41.4453 49.7012C41.2266 49.4199 41.1172 49.0078 41.1172 48.4648V44.2344H39.9512V43.6602H41.1172V42.0371H41.8203ZM45.3711 50H44.668V43.6602H45.3711V50ZM44.5449 41.8262C44.5449 41.6934 44.5879 41.582 44.6738 41.4922C44.7598 41.3984 44.877 41.3516 45.0254 41.3516C45.1738 41.3516 45.291 41.3984 45.377 41.4922C45.4668 41.582 45.5117 41.6934 45.5117 41.8262C45.5117 41.959 45.4668 42.0703 45.377 42.1602C45.291 42.25 45.1738 42.2949 45.0254 42.2949C44.877 42.2949 44.7598 42.25 44.6738 42.1602C44.5879 42.0703 44.5449 41.959 44.5449 41.8262ZM49.2559 49.0332L51.1836 43.6602H51.9043L49.5371 50H48.9688L46.5898 43.6602H47.3105L49.2559 49.0332ZM52.5781 46.7363C52.5781 46.127 52.6953 45.5781 52.9297 45.0898C53.168 44.6016 53.502 44.2227 53.9316 43.9531C54.3652 43.6797 54.8555 43.543 55.4023 43.543C56.2461 43.543 56.9297 43.8398 57.4531 44.4336C57.9766 45.0234 58.2383 45.8066 58.2383 46.7832V46.9297C58.2383 47.543 58.1191 48.0957 57.8809 48.5879C57.6465 49.0762 57.3145 49.4531 56.8848 49.7188C56.4551 49.9844 55.9648 50.1172 55.4141 50.1172C54.5742 50.1172 53.8906 49.8223 53.3633 49.2324C52.8398 48.6387 52.5781 47.8535 52.5781 46.877V46.7363ZM53.2812 46.9297C53.2812 47.6875 53.4766 48.3105 53.8672 48.7988C54.2617 49.2832 54.7773 49.5254 55.4141 49.5254C56.0469 49.5254 56.5586 49.2832 56.9492 48.7988C57.3438 48.3105 57.541 47.668 57.541 46.8711V46.7363C57.541 46.252 57.4512 45.8086 57.2715 45.4062C57.0918 45.0039 56.8398 44.6934 56.5156 44.4746C56.1914 44.252 55.8203 44.1406 55.4023 44.1406C54.7773 44.1406 54.2676 44.3867 53.873 44.8789C53.4785 45.3672 53.2812 46.0078 53.2812 46.8008V46.9297Z" fill="#FEFEFE"/>
<path d="M107.023 70.1973C107.023 70.9824 106.887 71.6719 106.613 72.2656C106.344 72.8594 105.957 73.3164 105.453 73.6367C104.949 73.957 104.367 74.1172 103.707 74.1172C102.711 74.1172 101.906 73.7617 101.293 73.0508C100.68 72.3359 100.373 71.373 100.373 70.1621V69.2832C100.373 68.5059 100.51 67.8184 100.783 67.2207C101.061 66.6191 101.451 66.1582 101.955 65.8379C102.459 65.5137 103.039 65.3516 103.695 65.3516C104.352 65.3516 104.93 65.5098 105.43 65.8262C105.934 66.1426 106.322 66.5898 106.596 67.168C106.869 67.7461 107.012 68.416 107.023 69.1777V70.1973ZM106.303 69.2715C106.303 68.2441 106.07 67.4395 105.605 66.8574C105.141 66.2754 104.504 65.9844 103.695 65.9844C102.902 65.9844 102.27 66.2773 101.797 66.8633C101.328 67.4453 101.094 68.2598 101.094 69.3066V70.1973C101.094 71.209 101.328 72.0117 101.797 72.6055C102.266 73.1953 102.902 73.4902 103.707 73.4902C104.523 73.4902 105.16 73.1992 105.617 72.6172C106.074 72.0312 106.303 71.2168 106.303 70.1738V69.2715ZM109.344 67.6602L109.367 68.7441C109.605 68.3535 109.902 68.0566 110.258 67.8535C110.613 67.6465 111.006 67.543 111.436 67.543C112.115 67.543 112.621 67.7344 112.953 68.1172C113.285 68.5 113.453 69.0742 113.457 69.8398V74H112.76V69.834C112.756 69.2676 112.635 68.8457 112.396 68.5684C112.162 68.291 111.785 68.1523 111.266 68.1523C110.832 68.1523 110.447 68.2891 110.111 68.5625C109.779 68.832 109.533 69.1973 109.373 69.6582V74H108.676V67.6602H109.344Z" fill="#FEFEFE"/>
<path d="M85.5 90C85.5 84.7533 89.7533 80.5 95 80.5H117C122.247 80.5 126.5 84.7533 126.5 90C126.5 95.2467 122.247 99.5 117 99.5H95C89.7533 99.5 85.5 95.2467 85.5 90Z" stroke="#FEFEFE"/>
<path d="M104 90C104 84.4772 108.477 80 114 80H117C122.523 80 127 84.4772 127 90C127 95.5228 122.523 100 117 100H114C108.477 100 104 95.5228 104 90Z" fill="white"/>
<defs>
<filter id="filter0_d" x="0" y="0" width="151" height="128" filterUnits="userSpaceOnUse" color-interpolation-filters="sRGB">
<feFlood flood-opacity="0" result="BackgroundImageFix"/>
<feColorMatrix in="SourceAlpha" type="matrix" values="0 0 0 0 0 0 0 0 0 0 0 0 0 0 0 0 0 0 127 0"/>
<feOffset dy="4"/>
<feGaussianBlur stdDeviation="2"/>
<feColorMatrix type="matrix" values="0 0 0 0 0 0 0 0 0 0 0 0 0 0 0 0 0 0 0.25 0"/>
<feBlend mode="normal" in2="BackgroundImageFix" result="effect1_dropShadow"/>
<feBlend mode="normal" in="SourceGraphic" in2="effect1_dropShadow" result="shape"/>
</filter>
<clipPath id="clip0">
<rect width="32" height="32" fill="white" transform="translate(22 71)"/>
</clipPath>
<clipPath id="clip1">
<rect width="0" height="0" fill="white" transform="translate(-110 -29)"/>
</clipPath>
</defs>
</svg>
