<svg width="151" height="128" viewBox="0 0 151 128" fill="none" xmlns="http://www.w3.org/2000/svg">
<g filter="url(#filter0_d)">
<path d="M4 20.5157C4 9.1852 13.1852 0 24.5157 0H126.484C137.815 0 147 9.1852 147 20.5157V99.4843C147 110.815 137.815 120 126.484 120H24.5157C13.1852 120 4 110.815 4 99.4843V20.5157Z" fill="#09485F"/>
</g>
<g clip-path="url(#clip0)">
<g clip-path="url(#clip1)">
<rect width="0" height="0" transform="translate(13.875 62.875)" fill="white"/>
</g>
</g>
<path d="M19.6514 27.8501H24.7051V29H18.2378V18.3359H19.6514V27.8501ZM30.9893 29C30.9111 28.8438 30.8477 28.5654 30.7988 28.165C30.1689 28.8193 29.417 29.1465 28.543 29.1465C27.7617 29.1465 27.1196 28.9268 26.6167 28.4873C26.1187 28.043 25.8696 27.4814 25.8696 26.8027C25.8696 25.9775 26.1821 25.3379 26.8071 24.8838C27.437 24.4248 28.3208 24.1953 29.4585 24.1953H30.7769V23.5728C30.7769 23.0991 30.6353 22.7231 30.3521 22.4448C30.0688 22.1616 29.6514 22.02 29.0996 22.02C28.6162 22.02 28.2109 22.1421 27.8838 22.3862C27.5566 22.6304 27.3931 22.9258 27.3931 23.2725H26.0308C26.0308 22.877 26.1699 22.4961 26.4482 22.1299C26.7314 21.7588 27.1123 21.4658 27.5908 21.251C28.0742 21.0361 28.604 20.9287 29.1802 20.9287C30.0933 20.9287 30.8086 21.1582 31.3262 21.6172C31.8438 22.0713 32.1123 22.6987 32.1318 23.4995V27.147C32.1318 27.8745 32.2246 28.4531 32.4102 28.8828V29H30.9893ZM28.7407 27.9673C29.1655 27.9673 29.5684 27.8574 29.9492 27.6377C30.3301 27.418 30.606 27.1323 30.7769 26.7808V25.1548H29.7148C28.0547 25.1548 27.2246 25.6406 27.2246 26.6123C27.2246 27.0371 27.3662 27.3691 27.6494 27.6084C27.9326 27.8477 28.2964 27.9673 28.7407 27.9673ZM31.5459 19.7568V19.8301H30.4253L29.3267 18.585L28.2354 19.8301H27.1147V19.7422L28.9165 17.75H29.7368L31.5459 19.7568ZM35.5303 21.0752L35.5669 21.9541C36.1479 21.2705 36.9316 20.9287 37.918 20.9287C39.0264 20.9287 39.7808 21.3535 40.1812 22.2031C40.4448 21.8223 40.7866 21.5146 41.2065 21.2803C41.6313 21.0459 42.1318 20.9287 42.708 20.9287C44.4463 20.9287 45.3301 21.8491 45.3594 23.6899V29H44.0044V23.7705C44.0044 23.2041 43.875 22.7817 43.6162 22.5034C43.3574 22.2202 42.9229 22.0786 42.3125 22.0786C41.8096 22.0786 41.3921 22.23 41.0601 22.5327C40.728 22.8306 40.5352 23.2334 40.4814 23.7412V29H39.1191V23.8071C39.1191 22.6548 38.5552 22.0786 37.4272 22.0786C36.5386 22.0786 35.9307 22.457 35.6035 23.2139V29H34.2485V21.0752H35.5303ZM54.1045 25.1255C54.1045 26.3315 53.8286 27.3032 53.2769 28.0405C52.7251 28.7778 51.978 29.1465 51.0356 29.1465C50.0737 29.1465 49.3169 28.8413 48.7651 28.231V32.0469H47.4102V21.0752H48.6479L48.7139 21.9541C49.2656 21.2705 50.0322 20.9287 51.0137 20.9287C51.9658 20.9287 52.7178 21.2876 53.2695 22.0054C53.8262 22.7231 54.1045 23.7217 54.1045 25.001V25.1255ZM52.7495 24.9717C52.7495 24.0781 52.5591 23.3726 52.1782 22.855C51.7974 22.3374 51.2749 22.0786 50.6108 22.0786C49.7905 22.0786 49.1753 22.4424 48.7651 23.1699V26.9565C49.1704 27.6792 49.7905 28.0405 50.6255 28.0405C51.2749 28.0405 51.79 27.7842 52.1709 27.2715C52.5566 26.7539 52.7495 25.9873 52.7495 24.9717ZM60.7256 29C60.6475 28.8438 60.584 28.5654 60.5352 28.165C59.9053 28.8193 59.1533 29.1465 58.2793 29.1465C57.498 29.1465 56.856 28.9268 56.353 28.4873C55.855 28.043 55.606 27.4814 55.606 26.8027C55.606 25.9775 55.9185 25.3379 56.5435 24.8838C57.1733 24.4248 58.0571 24.1953 59.1948 24.1953H60.5132V23.5728C60.5132 23.0991 60.3716 22.7231 60.0884 22.4448C59.8052 22.1616 59.3877 22.02 58.8359 22.02C58.3525 22.02 57.9473 22.1421 57.6201 22.3862C57.293 22.6304 57.1294 22.9258 57.1294 23.2725H55.7671C55.7671 22.877 55.9062 22.4961 56.1846 22.1299C56.4678 21.7588 56.8486 21.4658 57.3271 21.251C57.8105 21.0361 58.3403 20.9287 58.9165 20.9287C59.8296 20.9287 60.5449 21.1582 61.0625 21.6172C61.5801 22.0713 61.8486 22.6987 61.8682 23.4995V27.147C61.8682 27.8745 61.9609 28.4531 62.1465 28.8828V29H60.7256ZM58.4771 27.9673C58.9019 27.9673 59.3047 27.8574 59.6855 27.6377C60.0664 27.418 60.3423 27.1323 60.5132 26.7808V25.1548H59.4512C57.791 25.1548 56.9609 25.6406 56.9609 26.6123C56.9609 27.0371 57.1025 27.3691 57.3857 27.6084C57.6689 27.8477 58.0327 27.9673 58.4771 27.9673ZM63.6626 24.9717C63.6626 23.7559 63.9507 22.7793 64.5269 22.042C65.103 21.2998 65.8574 20.9287 66.79 20.9287C67.7178 20.9287 68.4526 21.2461 68.9946 21.8809V17.75H70.3496V29H69.1045L69.0386 28.1504C68.4966 28.8145 67.7422 29.1465 66.7754 29.1465C65.8574 29.1465 65.1079 28.7705 64.5269 28.0186C63.9507 27.2666 63.6626 26.2852 63.6626 25.0742V24.9717ZM65.0176 25.1255C65.0176 26.0239 65.2031 26.7271 65.5742 27.2349C65.9453 27.7427 66.458 27.9966 67.1123 27.9966C67.9717 27.9966 68.5991 27.6108 68.9946 26.8394V23.1992C68.5894 22.4521 67.9668 22.0786 67.127 22.0786C66.4629 22.0786 65.9453 22.335 65.5742 22.8477C65.2031 23.3604 65.0176 24.1196 65.0176 25.1255ZM77.3516 29C77.2734 28.8438 77.21 28.5654 77.1611 28.165C76.5312 28.8193 75.7793 29.1465 74.9053 29.1465C74.124 29.1465 73.4819 28.9268 72.979 28.4873C72.481 28.043 72.2319 27.4814 72.2319 26.8027C72.2319 25.9775 72.5444 25.3379 73.1694 24.8838C73.7993 24.4248 74.6831 24.1953 75.8208 24.1953H77.1392V23.5728C77.1392 23.0991 76.9976 22.7231 76.7144 22.4448C76.4312 22.1616 76.0137 22.02 75.4619 22.02C74.9785 22.02 74.5732 22.1421 74.2461 22.3862C73.9189 22.6304 73.7554 22.9258 73.7554 23.2725H72.3931C72.3931 22.877 72.5322 22.4961 72.8105 22.1299C73.0938 21.7588 73.4746 21.4658 73.9531 21.251C74.4365 21.0361 74.9663 20.9287 75.5425 20.9287C76.4556 20.9287 77.1709 21.1582 77.6885 21.6172C78.2061 22.0713 78.4746 22.6987 78.4941 23.4995V27.147C78.4941 27.8745 78.5869 28.4531 78.7725 28.8828V29H77.3516ZM75.103 27.9673C75.5278 27.9673 75.9307 27.8574 76.3115 27.6377C76.6924 27.418 76.9683 27.1323 77.1392 26.7808V25.1548H76.0771C74.417 25.1548 73.5869 25.6406 73.5869 26.6123C73.5869 27.0371 73.7285 27.3691 74.0117 27.6084C74.2949 27.8477 74.6587 27.9673 75.103 27.9673ZM88.6528 29H87.2905V19.9692L84.5586 20.9727V19.7422L88.4404 18.2847H88.6528V29Z" fill="#FEFEFE"/>
<path d="M18.7988 46.5254V50H18.0781V41.4688H20.9844C21.8711 41.4688 22.5703 41.6953 23.082 42.1484C23.5977 42.6016 23.8555 43.2246 23.8555 44.0176C23.8555 44.8184 23.6074 45.4375 23.1113 45.875C22.6191 46.3086 21.9043 46.5254 20.9668 46.5254H18.7988ZM18.7988 45.916H20.9844C21.6836 45.916 22.2168 45.75 22.584 45.418C22.9512 45.0859 23.1348 44.623 23.1348 44.0293C23.1348 43.4395 22.9512 42.9707 22.584 42.623C22.2207 42.2715 21.7031 42.0918 21.0312 42.084H18.7988V45.916ZM26.0059 44.7324C26.2363 44.3535 26.5312 44.0605 26.8906 43.8535C27.25 43.6465 27.6426 43.543 28.0684 43.543C28.748 43.543 29.2539 43.7344 29.5859 44.1172C29.918 44.5 30.0859 45.0742 30.0898 45.8398V50H29.3926V45.834C29.3887 45.2676 29.2676 44.8457 29.0293 44.5684C28.7949 44.291 28.418 44.1523 27.8984 44.1523C27.4648 44.1523 27.0801 44.2891 26.7441 44.5625C26.4121 44.832 26.166 45.1973 26.0059 45.6582V50H25.3086V41H26.0059V44.7324ZM32.6797 50H31.9766V43.6602H32.6797V50ZM31.8535 41.8262C31.8535 41.6934 31.8965 41.582 31.9824 41.4922C32.0684 41.3984 32.1855 41.3516 32.334 41.3516C32.4824 41.3516 32.5996 41.3984 32.6855 41.4922C32.7754 41.582 32.8203 41.6934 32.8203 41.8262C32.8203 41.959 32.7754 42.0703 32.6855 42.1602C32.5996 42.25 32.4824 42.2949 32.334 42.2949C32.1855 42.2949 32.0684 42.25 31.9824 42.1602C31.8965 42.0703 31.8535 41.959 31.8535 41.8262ZM35.375 50H34.6719V41H35.375V50ZM38.0703 50H37.3672V41H38.0703V50ZM40.7656 50H40.0625V43.6602H40.7656V50ZM39.9395 41.8262C39.9395 41.6934 39.9824 41.582 40.0684 41.4922C40.1543 41.3984 40.2715 41.3516 40.4199 41.3516C40.5684 41.3516 40.6855 41.3984 40.7715 41.4922C40.8613 41.582 40.9062 41.6934 40.9062 41.8262C40.9062 41.959 40.8613 42.0703 40.7715 42.1602C40.6855 42.25 40.5684 42.2949 40.4199 42.2949C40.2715 42.2949 40.1543 42.25 40.0684 42.1602C39.9824 42.0703 39.9395 41.959 39.9395 41.8262ZM47.7734 46.8945C47.7734 47.8828 47.5547 48.668 47.1172 49.25C46.6797 49.8281 46.0938 50.1172 45.3594 50.1172C44.4922 50.1172 43.8281 49.8125 43.3672 49.2031V52.4375H42.6699V43.6602H43.3203L43.3555 44.5566C43.8125 43.8809 44.4746 43.543 45.3418 43.543C46.0996 43.543 46.6934 43.8301 47.123 44.4043C47.5566 44.9785 47.7734 45.7754 47.7734 46.7949V46.8945ZM47.0703 46.7715C47.0703 45.9629 46.9043 45.3242 46.5723 44.8555C46.2402 44.3867 45.7773 44.1523 45.1836 44.1523C44.7539 44.1523 44.3848 44.2559 44.0762 44.4629C43.7676 44.6699 43.5312 44.9707 43.3672 45.3652V48.4062C43.5352 48.7695 43.7754 49.0469 44.0879 49.2383C44.4004 49.4297 44.7695 49.5254 45.1953 49.5254C45.7852 49.5254 46.2441 49.291 46.5723 48.8223C46.9043 48.3496 47.0703 47.666 47.0703 46.7715ZM53.1289 48.3887C53.1289 48.041 52.9883 47.7617 52.707 47.5508C52.4297 47.3398 52.0098 47.1758 51.4473 47.0586C50.8848 46.9375 50.4473 46.8008 50.1348 46.6484C49.8262 46.4922 49.5957 46.3027 49.4434 46.0801C49.2949 45.8574 49.2207 45.5879 49.2207 45.2715C49.2207 44.7715 49.4297 44.3594 49.8477 44.0352C50.2656 43.707 50.8008 43.543 51.4531 43.543C52.1602 43.543 52.7266 43.7188 53.1523 44.0703C53.582 44.418 53.7969 44.873 53.7969 45.4355H53.0938C53.0938 45.0645 52.9375 44.7559 52.625 44.5098C52.3164 44.2637 51.9258 44.1406 51.4531 44.1406C50.9922 44.1406 50.6211 44.2441 50.3398 44.4512C50.0625 44.6543 49.9238 44.9199 49.9238 45.248C49.9238 45.5645 50.0391 45.8105 50.2695 45.9863C50.5039 46.1582 50.9277 46.3164 51.541 46.4609C52.1582 46.6055 52.6191 46.7598 52.9238 46.9238C53.2324 47.0879 53.4609 47.2852 53.6094 47.5156C53.7578 47.7461 53.832 48.0254 53.832 48.3535C53.832 48.8887 53.6152 49.3164 53.1816 49.6367C52.752 49.957 52.1895 50.1172 51.4941 50.1172C50.7559 50.1172 50.1562 49.9395 49.6953 49.584C49.2383 49.2246 49.0098 48.7715 49.0098 48.2246H49.7129C49.7402 48.6348 49.9121 48.9551 50.2285 49.1855C50.5488 49.4121 50.9707 49.5254 51.4941 49.5254C51.9824 49.5254 52.377 49.418 52.6777 49.2031C52.9785 48.9883 53.1289 48.7168 53.1289 48.3887ZM64.8184 50H64.0918V45.9102H59.2168V50H58.4961V41.4688H59.2168V45.3008H64.0918V41.4688H64.8184V50ZM70.9062 49.1973C70.4844 49.8105 69.8105 50.1172 68.8848 50.1172C68.209 50.1172 67.6953 49.9219 67.3438 49.5312C66.9922 49.1367 66.8125 48.5547 66.8047 47.7852V43.6602H67.502V47.6973C67.502 48.9043 67.9902 49.5078 68.9668 49.5078C69.9824 49.5078 70.625 49.0879 70.8945 48.248V43.6602H71.5977V50H70.918L70.9062 49.1973ZM75.8809 50.1172C75.3418 50.1172 74.8535 49.9844 74.416 49.7188C73.9824 49.4531 73.6445 49.084 73.4023 48.6113C73.1602 48.1348 73.0391 47.6016 73.0391 47.0117V46.7598C73.0391 46.1504 73.1562 45.6016 73.3906 45.1133C73.6289 44.625 73.959 44.2422 74.3809 43.9648C74.8027 43.6836 75.2598 43.543 75.752 43.543C76.5215 43.543 77.1309 43.8066 77.5801 44.334C78.0332 44.8574 78.2598 45.5742 78.2598 46.4844V46.877H73.7363V47.0117C73.7363 47.7305 73.9414 48.3301 74.3516 48.8105C74.7656 49.2871 75.2852 49.5254 75.9102 49.5254C76.2852 49.5254 76.6152 49.457 76.9004 49.3203C77.1895 49.1836 77.4512 48.9648 77.6855 48.6641L78.125 48.998C77.6094 49.7441 76.8613 50.1172 75.8809 50.1172ZM75.752 44.1406C75.2246 44.1406 74.7793 44.334 74.416 44.7207C74.0566 45.1074 73.8379 45.627 73.7598 46.2793H77.5625V46.2031C77.543 45.5938 77.3691 45.0977 77.041 44.7148C76.7129 44.332 76.2832 44.1406 75.752 44.1406ZM87.7754 50H82.4316V49.4609L85.3555 46.1445C85.8398 45.5859 86.1758 45.125 86.3633 44.7617C86.5508 44.3984 86.6445 44.0449 86.6445 43.7012C86.6445 43.1621 86.4863 42.7363 86.1699 42.4238C85.8535 42.1074 85.418 41.9492 84.8633 41.9492C84.2891 41.9492 83.8242 42.1328 83.4688 42.5C83.1172 42.8672 82.9414 43.3438 82.9414 43.9297H82.2441C82.2441 43.4492 82.3516 43.0117 82.5664 42.6172C82.7852 42.2227 83.0938 41.9141 83.4922 41.6914C83.8945 41.4648 84.3516 41.3516 84.8633 41.3516C85.6445 41.3516 86.2539 41.5566 86.6914 41.9668C87.1328 42.377 87.3535 42.9355 87.3535 43.6426C87.3535 44.041 87.2285 44.4766 86.9785 44.9492C86.7324 45.4219 86.2969 46.0117 85.6719 46.7188L83.293 49.4082H87.7754V50Z" fill="#FEFEFE"/>
<path d="M107.023 70.1973C107.023 70.9824 106.887 71.6719 106.613 72.2656C106.344 72.8594 105.957 73.3164 105.453 73.6367C104.949 73.957 104.367 74.1172 103.707 74.1172C102.711 74.1172 101.906 73.7617 101.293 73.0508C100.68 72.3359 100.373 71.373 100.373 70.1621V69.2832C100.373 68.5059 100.51 67.8184 100.783 67.2207C101.061 66.6191 101.451 66.1582 101.955 65.8379C102.459 65.5137 103.039 65.3516 103.695 65.3516C104.352 65.3516 104.93 65.5098 105.43 65.8262C105.934 66.1426 106.322 66.5898 106.596 67.168C106.869 67.7461 107.012 68.416 107.023 69.1777V70.1973ZM106.303 69.2715C106.303 68.2441 106.07 67.4395 105.605 66.8574C105.141 66.2754 104.504 65.9844 103.695 65.9844C102.902 65.9844 102.27 66.2773 101.797 66.8633C101.328 67.4453 101.094 68.2598 101.094 69.3066V70.1973C101.094 71.209 101.328 72.0117 101.797 72.6055C102.266 73.1953 102.902 73.4902 103.707 73.4902C104.523 73.4902 105.16 73.1992 105.617 72.6172C106.074 72.0312 106.303 71.2168 106.303 70.1738V69.2715ZM109.344 67.6602L109.367 68.7441C109.605 68.3535 109.902 68.0566 110.258 67.8535C110.613 67.6465 111.006 67.543 111.436 67.543C112.115 67.543 112.621 67.7344 112.953 68.1172C113.285 68.5 113.453 69.0742 113.457 69.8398V74H112.76V69.834C112.756 69.2676 112.635 68.8457 112.396 68.5684C112.162 68.291 111.785 68.1523 111.266 68.1523C110.832 68.1523 110.447 68.2891 110.111 68.5625C109.779 68.832 109.533 69.1973 109.373 69.6582V74H108.676V67.6602H109.344Z" fill="#FEFEFE"/>
<path d="M85.5 90C85.5 84.7533 89.7533 80.5 95 80.5H117C122.247 80.5 126.5 84.7533 126.5 90C126.5 95.2467 122.247 99.5 117 99.5H95C89.7533 99.5 85.5 95.2467 85.5 90Z" stroke="#FEFEFE"/>
<path d="M104 90C104 84.4772 108.477 80 114 80H117C122.523 80 127 84.4772 127 90C127 95.5228 122.523 100 117 100H114C108.477 100 104 95.5228 104 90Z" fill="white"/>
<defs>
<filter id="filter0_d" x="0" y="0" width="151" height="128" filterUnits="userSpaceOnUse" color-interpolation-filters="sRGB">
<feFlood flood-opacity="0" result="BackgroundImageFix"/>
<feColorMatrix in="SourceAlpha" type="matrix" values="0 0 0 0 0 0 0 0 0 0 0 0 0 0 0 0 0 0 127 0"/>
<feOffset dy="4"/>
<feGaussianBlur stdDeviation="2"/>
<feColorMatrix type="matrix" values="0 0 0 0 0 0 0 0 0 0 0 0 0 0 0 0 0 0 0.25 0"/>
<feBlend mode="normal" in2="BackgroundImageFix" result="effect1_dropShadow"/>
<feBlend mode="normal" in="SourceGraphic" in2="effect1_dropShadow" result="shape"/>
</filter>
<clipPath id="clip0">
<rect width="33" height="33" fill="white" transform="translate(18 67)"/>
</clipPath>
<clipPath id="clip1">
<rect width="0" height="0" fill="white" transform="translate(13.875 62.875)"/>
</clipPath>
</defs>
</svg>
