<svg width="321" height="60" viewBox="0 0 321 60" fill="none" xmlns="http://www.w3.org/2000/svg">
<path d="M0 20.5157C0 9.1852 9.1852 0 20.5157 0H300.484C311.815 0 321 9.1852 321 20.5157V39.4843C321 50.8148 311.815 60 300.484 60H20.5157C9.1852 60 0 50.8148 0 39.4843V20.5157Z" fill="#ECEFF0"/>
<path fill-rule="evenodd" clip-rule="evenodd" d="M45 24V18.9974C45 16.7983 43.2095 15 41.0008 15H28.9992C26.7925 15 25 16.7928 25 19.0043V42.9957C25 45.211 26.7905 47 28.9992 47H41.0008C43.2075 47 45 45.2103 45 43.0026V30H47.9999C49.6608 30 51 28.6583 51 27C51 25.3375 49.6589 24 47.9999 24H45ZM43 30V43.0026C43 44.1047 42.104 45 41.0008 45H28.9992C27.8941 45 27 44.1054 27 42.9957V19.0043C27 17.8976 27.8968 17 28.9992 17H41.0008C42.1015 17 43 17.8994 43 18.9974V24H40.1973C39.1599 22.2066 37.2208 21 35 21C31.6863 21 29 23.6863 29 27C29 30.3137 31.6863 33 35 33C37.2208 33 39.1599 31.7934 40.1973 30H43ZM39.0016 30C38.0788 31.2292 36.6129 32 35 32C32.2386 32 30 29.7614 30 27C30 24.2386 32.2386 22 35 22C36.6133 22 38.079 22.7711 39.0016 24H35.0001C33.3392 24 32 25.3417 32 27C32 28.6625 33.3411 30 35.0001 30H39.0016ZM35 41C33.3431 41 32 39.6569 32 38C32 36.3431 33.3431 35 35 35C36.6569 35 38 36.3431 38 38C38 39.6569 36.6569 41 35 41ZM35 40C36.1046 40 37 39.1046 37 38C37 36.8954 36.1046 36 35 36C33.8954 36 33 36.8954 33 38C33 39.1046 33.8954 40 35 40ZM34 27C34 26.4454 34.4446 26 35.0001 26H47.9999C48.5555 26 49 26.4433 49 27C49 27.5546 48.5554 28 47.9999 28H35.0001C34.4445 28 34 27.5567 34 27Z" fill="#09485F"/>
<path d="M62.644 26.8252V31H61.2378V20.3359H65.1709C66.3379 20.3359 67.251 20.6338 67.9102 21.2295C68.5742 21.8252 68.9062 22.6138 68.9062 23.5952C68.9062 24.6304 68.5815 25.4287 67.9321 25.9902C67.2876 26.5469 66.3623 26.8252 65.1562 26.8252H62.644ZM62.644 25.6753H65.1709C65.9229 25.6753 66.499 25.4995 66.8994 25.1479C67.2998 24.7915 67.5 24.2788 67.5 23.6099C67.5 22.9751 67.2998 22.4673 66.8994 22.0864C66.499 21.7056 65.9497 21.5078 65.2515 21.4932H62.644V25.6753ZM70.0269 26.9644C70.0269 26.188 70.1782 25.4897 70.481 24.8696C70.7886 24.2495 71.2134 23.771 71.7554 23.4341C72.3022 23.0972 72.9248 22.9287 73.623 22.9287C74.7021 22.9287 75.5737 23.3022 76.2378 24.0493C76.9067 24.7964 77.2412 25.79 77.2412 27.0303V27.1255C77.2412 27.897 77.0923 28.5903 76.7944 29.2056C76.5015 29.8159 76.0791 30.292 75.5273 30.6338C74.9805 30.9756 74.3506 31.1465 73.6377 31.1465C72.5635 31.1465 71.6919 30.7729 71.0229 30.0259C70.3589 29.2788 70.0269 28.29 70.0269 27.0596V26.9644ZM71.3892 27.1255C71.3892 28.0044 71.5918 28.71 71.9971 29.2422C72.4072 29.7744 72.9541 30.0405 73.6377 30.0405C74.3262 30.0405 74.873 29.772 75.2783 29.2349C75.6836 28.6929 75.8862 27.936 75.8862 26.9644C75.8862 26.0952 75.6787 25.3921 75.2637 24.855C74.8535 24.313 74.3066 24.042 73.623 24.042C72.9541 24.042 72.4146 24.3081 72.0044 24.8403C71.5942 25.3726 71.3892 26.1343 71.3892 27.1255ZM82.771 24.291C82.5659 24.2568 82.3438 24.2397 82.1045 24.2397C81.2158 24.2397 80.6128 24.6182 80.2954 25.375V31H78.9404V23.0752H80.2588L80.2808 23.9907C80.7251 23.2827 81.355 22.9287 82.1704 22.9287C82.4341 22.9287 82.6343 22.9629 82.771 23.0312V24.291ZM86.228 21.1562V23.0752H87.7075V24.1226H86.228V29.0371C86.228 29.3545 86.2939 29.5938 86.4258 29.7549C86.5576 29.9111 86.7822 29.9893 87.0996 29.9893C87.2559 29.9893 87.4707 29.96 87.7441 29.9014V31C87.3877 31.0977 87.041 31.1465 86.7041 31.1465C86.0986 31.1465 85.6421 30.9634 85.3345 30.5972C85.0269 30.231 84.873 29.7109 84.873 29.0371V24.1226H83.4302V23.0752H84.873V21.1562H86.228ZM94.1895 31C94.1113 30.8438 94.0479 30.5654 93.999 30.165C93.3691 30.8193 92.6172 31.1465 91.7432 31.1465C90.9619 31.1465 90.3198 30.9268 89.8169 30.4873C89.3188 30.043 89.0698 29.4814 89.0698 28.8027C89.0698 27.9775 89.3823 27.3379 90.0073 26.8838C90.6372 26.4248 91.521 26.1953 92.6587 26.1953H93.9771V25.5728C93.9771 25.0991 93.8354 24.7231 93.5522 24.4448C93.269 24.1616 92.8516 24.02 92.2998 24.02C91.8164 24.02 91.4111 24.1421 91.084 24.3862C90.7568 24.6304 90.5933 24.9258 90.5933 25.2725H89.231C89.231 24.877 89.3701 24.4961 89.6484 24.1299C89.9316 23.7588 90.3125 23.4658 90.791 23.251C91.2744 23.0361 91.8042 22.9287 92.3804 22.9287C93.2935 22.9287 94.0088 23.1582 94.5264 23.6172C95.0439 24.0713 95.3125 24.6987 95.332 25.4995V29.147C95.332 29.8745 95.4248 30.4531 95.6104 30.8828V31H94.1895ZM91.9409 29.9673C92.3657 29.9673 92.7686 29.8574 93.1494 29.6377C93.5303 29.418 93.8062 29.1323 93.9771 28.7808V27.1548H92.915C91.2549 27.1548 90.4248 27.6406 90.4248 28.6123C90.4248 29.0371 90.5664 29.3691 90.8496 29.6084C91.1328 29.8477 91.4966 29.9673 91.9409 29.9673ZM107.417 26.0708H102.795V29.8501H108.164V31H101.389V20.3359H108.091V21.4932H102.795V24.9209H107.417V26.0708ZM110.984 23.0752L111.028 24.0713C111.633 23.3096 112.424 22.9287 113.401 22.9287C115.076 22.9287 115.92 23.8735 115.935 25.7632V31H114.58V25.7559C114.575 25.1846 114.443 24.7622 114.185 24.4888C113.931 24.2153 113.533 24.0786 112.991 24.0786C112.551 24.0786 112.166 24.1958 111.833 24.4302C111.501 24.6646 111.243 24.9722 111.057 25.353V31H109.702V23.0752H110.984ZM119.817 21.1562V23.0752H121.296V24.1226H119.817V29.0371C119.817 29.3545 119.883 29.5938 120.015 29.7549C120.146 29.9111 120.371 29.9893 120.688 29.9893C120.845 29.9893 121.06 29.96 121.333 29.9014V31C120.977 31.0977 120.63 31.1465 120.293 31.1465C119.688 31.1465 119.231 30.9634 118.923 30.5972C118.616 30.231 118.462 29.7109 118.462 29.0371V24.1226H117.019V23.0752H118.462V21.1562H119.817ZM126.716 24.291C126.511 24.2568 126.289 24.2397 126.05 24.2397C125.161 24.2397 124.558 24.6182 124.241 25.375V31H122.886V23.0752H124.204L124.226 23.9907C124.67 23.2827 125.3 22.9287 126.116 22.9287C126.379 22.9287 126.58 22.9629 126.716 23.0312V24.291ZM132.568 31C132.49 30.8438 132.427 30.5654 132.378 30.165C131.748 30.8193 130.996 31.1465 130.122 31.1465C129.341 31.1465 128.699 30.9268 128.196 30.4873C127.698 30.043 127.449 29.4814 127.449 28.8027C127.449 27.9775 127.761 27.3379 128.386 26.8838C129.016 26.4248 129.9 26.1953 131.038 26.1953H132.356V25.5728C132.356 25.0991 132.214 24.7231 131.931 24.4448C131.648 24.1616 131.23 24.02 130.679 24.02C130.195 24.02 129.79 24.1421 129.463 24.3862C129.136 24.6304 128.972 24.9258 128.972 25.2725H127.61C127.61 24.877 127.749 24.4961 128.027 24.1299C128.311 23.7588 128.691 23.4658 129.17 23.251C129.653 23.0361 130.183 22.9287 130.759 22.9287C131.672 22.9287 132.388 23.1582 132.905 23.6172C133.423 24.0713 133.691 24.6987 133.711 25.4995V29.147C133.711 29.8745 133.804 30.4531 133.989 30.8828V31H132.568ZM130.32 29.9673C130.745 29.9673 131.147 29.8574 131.528 29.6377C131.909 29.418 132.185 29.1323 132.356 28.7808V27.1548H131.294C129.634 27.1548 128.804 27.6406 128.804 28.6123C128.804 29.0371 128.945 29.3691 129.229 29.6084C129.512 29.8477 129.875 29.9673 130.32 29.9673ZM135.505 26.9717C135.505 25.7559 135.793 24.7793 136.37 24.042C136.946 23.2998 137.7 22.9287 138.633 22.9287C139.561 22.9287 140.295 23.2461 140.837 23.8809V19.75H142.192V31H140.947L140.881 30.1504C140.339 30.8145 139.585 31.1465 138.618 31.1465C137.7 31.1465 136.951 30.7705 136.37 30.0186C135.793 29.2666 135.505 28.2852 135.505 27.0742V26.9717ZM136.86 27.1255C136.86 28.0239 137.046 28.7271 137.417 29.2349C137.788 29.7427 138.301 29.9966 138.955 29.9966C139.814 29.9966 140.442 29.6108 140.837 28.8394V25.1992C140.432 24.4521 139.81 24.0786 138.97 24.0786C138.306 24.0786 137.788 24.335 137.417 24.8477C137.046 25.3604 136.86 26.1196 136.86 27.1255ZM149.194 31C149.116 30.8438 149.053 30.5654 149.004 30.165C148.374 30.8193 147.622 31.1465 146.748 31.1465C145.967 31.1465 145.325 30.9268 144.822 30.4873C144.324 30.043 144.075 29.4814 144.075 28.8027C144.075 27.9775 144.387 27.3379 145.012 26.8838C145.642 26.4248 146.526 26.1953 147.664 26.1953H148.982V25.5728C148.982 25.0991 148.84 24.7231 148.557 24.4448C148.274 24.1616 147.856 24.02 147.305 24.02C146.821 24.02 146.416 24.1421 146.089 24.3862C145.762 24.6304 145.598 24.9258 145.598 25.2725H144.236C144.236 24.877 144.375 24.4961 144.653 24.1299C144.937 23.7588 145.317 23.4658 145.796 23.251C146.279 23.0361 146.809 22.9287 147.385 22.9287C148.298 22.9287 149.014 23.1582 149.531 23.6172C150.049 24.0713 150.317 24.6987 150.337 25.4995V29.147C150.337 29.8745 150.43 30.4531 150.615 30.8828V31H149.194ZM146.946 29.9673C147.371 29.9673 147.773 29.8574 148.154 29.6377C148.535 29.418 148.811 29.1323 148.982 28.7808V27.1548H147.92C146.26 27.1548 145.43 27.6406 145.43 28.6123C145.43 29.0371 145.571 29.3691 145.854 29.6084C146.138 29.8477 146.501 29.9673 146.946 29.9673Z" fill="#09485F"/>
<path d="M66.9062 39.9023C66.9062 39.4297 66.7402 39.0566 66.4082 38.7832C66.0762 38.5059 65.4688 38.2441 64.5859 37.998C63.7031 37.748 63.0586 37.4766 62.6523 37.1836C62.0742 36.7695 61.7852 36.2266 61.7852 35.5547C61.7852 34.9023 62.0527 34.373 62.5879 33.9668C63.127 33.5566 63.8145 33.3516 64.6504 33.3516C65.2168 33.3516 65.7227 33.4609 66.168 33.6797C66.6172 33.8984 66.9648 34.2031 67.2109 34.5938C67.457 34.9844 67.5801 35.4199 67.5801 35.9004H66.8535C66.8535 35.3184 66.6543 34.8516 66.2559 34.5C65.8574 34.1445 65.3223 33.9668 64.6504 33.9668C63.998 33.9668 63.4785 34.1133 63.0918 34.4062C62.7051 34.6953 62.5117 35.0742 62.5117 35.543C62.5117 35.9766 62.6855 36.3301 63.0332 36.6035C63.3809 36.877 63.9375 37.1191 64.7031 37.3301C65.4688 37.5371 66.0488 37.7539 66.4434 37.9805C66.8379 38.2031 67.1348 38.4707 67.334 38.7832C67.5332 39.0957 67.6328 39.4648 67.6328 39.8906C67.6328 40.5625 67.3633 41.1016 66.8242 41.5078C66.2891 41.9141 65.582 42.1172 64.7031 42.1172C64.1016 42.1172 63.5488 42.0098 63.0449 41.7949C62.5449 41.5801 62.1641 41.2793 61.9023 40.8926C61.6445 40.5059 61.5156 40.0625 61.5156 39.5625H62.2363C62.2363 40.1641 62.4609 40.6387 62.9102 40.9863C63.3594 41.334 63.957 41.5078 64.7031 41.5078C65.3672 41.5078 65.9004 41.3613 66.3027 41.0684C66.7051 40.7754 66.9062 40.3867 66.9062 39.9023ZM73.0293 42C72.959 41.8008 72.9141 41.5059 72.8945 41.1152C72.6484 41.4355 72.334 41.6836 71.9512 41.8594C71.5723 42.0312 71.1699 42.1172 70.7441 42.1172C70.1348 42.1172 69.6406 41.9473 69.2617 41.6074C68.8867 41.2676 68.6992 40.8379 68.6992 40.3184C68.6992 39.7012 68.9551 39.2129 69.4668 38.8535C69.9824 38.4941 70.6992 38.3145 71.6172 38.3145H72.8887V37.5938C72.8887 37.1406 72.748 36.7852 72.4668 36.5273C72.1895 36.2656 71.7832 36.1348 71.248 36.1348C70.7598 36.1348 70.3555 36.2598 70.0352 36.5098C69.7148 36.7598 69.5547 37.0605 69.5547 37.4121L68.8516 37.4062C68.8516 36.9023 69.0859 36.4668 69.5547 36.0996C70.0234 35.7285 70.5996 35.543 71.2832 35.543C71.9902 35.543 72.5469 35.7207 72.9531 36.0762C73.3633 36.4277 73.5742 36.9199 73.5859 37.5527V40.5527C73.5859 41.166 73.6504 41.625 73.7793 41.9297V42H73.0293ZM70.8262 41.4961C71.2949 41.4961 71.7129 41.3828 72.0801 41.1562C72.4512 40.9297 72.7207 40.627 72.8887 40.248V38.8535H71.6348C70.9355 38.8613 70.3887 38.9902 69.9941 39.2402C69.5996 39.4863 69.4023 39.8262 69.4023 40.2598C69.4023 40.6152 69.5332 40.9102 69.7949 41.1445C70.0605 41.3789 70.4043 41.4961 70.8262 41.4961ZM76.2461 42H75.543V33H76.2461V42ZM82.1582 42C82.0879 41.8008 82.043 41.5059 82.0234 41.1152C81.7773 41.4355 81.4629 41.6836 81.0801 41.8594C80.7012 42.0312 80.2988 42.1172 79.873 42.1172C79.2637 42.1172 78.7695 41.9473 78.3906 41.6074C78.0156 41.2676 77.8281 40.8379 77.8281 40.3184C77.8281 39.7012 78.084 39.2129 78.5957 38.8535C79.1113 38.4941 79.8281 38.3145 80.7461 38.3145H82.0176V37.5938C82.0176 37.1406 81.877 36.7852 81.5957 36.5273C81.3184 36.2656 80.9121 36.1348 80.377 36.1348C79.8887 36.1348 79.4844 36.2598 79.1641 36.5098C78.8438 36.7598 78.6836 37.0605 78.6836 37.4121L77.9805 37.4062C77.9805 36.9023 78.2148 36.4668 78.6836 36.0996C79.1523 35.7285 79.7285 35.543 80.4121 35.543C81.1191 35.543 81.6758 35.7207 82.082 36.0762C82.4922 36.4277 82.7031 36.9199 82.7148 37.5527V40.5527C82.7148 41.166 82.7793 41.625 82.9082 41.9297V42H82.1582ZM79.9551 41.4961C80.4238 41.4961 80.8418 41.3828 81.209 41.1562C81.5801 40.9297 81.8496 40.627 82.0176 40.248V38.8535H80.7637C80.0645 38.8613 79.5176 38.9902 79.123 39.2402C78.7285 39.4863 78.5312 39.8262 78.5312 40.2598C78.5312 40.6152 78.6621 40.9102 78.9238 41.1445C79.1895 41.3789 79.5332 41.4961 79.9551 41.4961Z" fill="#09485F"/>
<path d="M205.256 33.4688L208.402 40.998L211.561 33.4688H212.521V42H211.801V38.2852L211.859 34.4766L208.684 42H208.127L204.963 34.5059L205.021 38.2617V42H204.301V33.4688H205.256ZM216.975 42.1172C216.436 42.1172 215.947 41.9844 215.51 41.7188C215.076 41.4531 214.738 41.084 214.496 40.6113C214.254 40.1348 214.133 39.6016 214.133 39.0117V38.7598C214.133 38.1504 214.25 37.6016 214.484 37.1133C214.723 36.625 215.053 36.2422 215.475 35.9648C215.896 35.6836 216.354 35.543 216.846 35.543C217.615 35.543 218.225 35.8066 218.674 36.334C219.127 36.8574 219.354 37.5742 219.354 38.4844V38.877H214.83V39.0117C214.83 39.7305 215.035 40.3301 215.445 40.8105C215.859 41.2871 216.379 41.5254 217.004 41.5254C217.379 41.5254 217.709 41.457 217.994 41.3203C218.283 41.1836 218.545 40.9648 218.779 40.6641L219.219 40.998C218.703 41.7441 217.955 42.1172 216.975 42.1172ZM216.846 36.1406C216.318 36.1406 215.873 36.334 215.51 36.7207C215.15 37.1074 214.932 37.627 214.854 38.2793H218.656V38.2031C218.637 37.5938 218.463 37.0977 218.135 36.7148C217.807 36.332 217.377 36.1406 216.846 36.1406ZM217.625 33H218.475L217.121 34.6406H216.506L217.625 33ZM220.438 38.7715C220.438 37.7871 220.656 37.0039 221.094 36.4219C221.535 35.8359 222.133 35.543 222.887 35.543C223.742 35.543 224.395 35.8809 224.844 36.5566V33H225.541V42H224.885L224.855 41.1562C224.406 41.7969 223.746 42.1172 222.875 42.1172C222.145 42.1172 221.555 41.8242 221.105 41.2383C220.66 40.6484 220.438 39.8535 220.438 38.8535V38.7715ZM221.146 38.8945C221.146 39.7031 221.309 40.3418 221.633 40.8105C221.957 41.2754 222.414 41.5078 223.004 41.5078C223.867 41.5078 224.48 41.127 224.844 40.3652V37.3887C224.48 36.5645 223.871 36.1523 223.016 36.1523C222.426 36.1523 221.967 36.3848 221.639 36.8496C221.311 37.3105 221.146 37.9922 221.146 38.8945ZM228.172 42H227.469V35.6602H228.172V42ZM227.346 33.8262C227.346 33.6934 227.389 33.582 227.475 33.4922C227.561 33.3984 227.678 33.3516 227.826 33.3516C227.975 33.3516 228.092 33.3984 228.178 33.4922C228.268 33.582 228.312 33.6934 228.312 33.8262C228.312 33.959 228.268 34.0703 228.178 34.1602C228.092 34.25 227.975 34.2949 227.826 34.2949C227.678 34.2949 227.561 34.25 227.475 34.1602C227.389 34.0703 227.346 33.959 227.346 33.8262ZM234.084 42C234.014 41.8008 233.969 41.5059 233.949 41.1152C233.703 41.4355 233.389 41.6836 233.006 41.8594C232.627 42.0312 232.225 42.1172 231.799 42.1172C231.189 42.1172 230.695 41.9473 230.316 41.6074C229.941 41.2676 229.754 40.8379 229.754 40.3184C229.754 39.7012 230.01 39.2129 230.521 38.8535C231.037 38.4941 231.754 38.3145 232.672 38.3145H233.943V37.5938C233.943 37.1406 233.803 36.7852 233.521 36.5273C233.244 36.2656 232.838 36.1348 232.303 36.1348C231.814 36.1348 231.41 36.2598 231.09 36.5098C230.77 36.7598 230.609 37.0605 230.609 37.4121L229.906 37.4062C229.906 36.9023 230.141 36.4668 230.609 36.0996C231.078 35.7285 231.654 35.543 232.338 35.543C233.045 35.543 233.602 35.7207 234.008 36.0762C234.418 36.4277 234.629 36.9199 234.641 37.5527V40.5527C234.641 41.166 234.705 41.625 234.834 41.9297V42H234.084ZM231.881 41.4961C232.35 41.4961 232.768 41.3828 233.135 41.1562C233.506 40.9297 233.775 40.627 233.943 40.248V38.8535H232.689C231.99 38.8613 231.443 38.9902 231.049 39.2402C230.654 39.4863 230.457 39.8262 230.457 40.2598C230.457 40.6152 230.588 40.9102 230.85 41.1445C231.115 41.3789 231.459 41.4961 231.881 41.4961ZM241.889 42.1172C241.35 42.1172 240.861 41.9844 240.424 41.7188C239.99 41.4531 239.652 41.084 239.41 40.6113C239.168 40.1348 239.047 39.6016 239.047 39.0117V38.7598C239.047 38.1504 239.164 37.6016 239.398 37.1133C239.637 36.625 239.967 36.2422 240.389 35.9648C240.811 35.6836 241.268 35.543 241.76 35.543C242.529 35.543 243.139 35.8066 243.588 36.334C244.041 36.8574 244.268 37.5742 244.268 38.4844V38.877H239.744V39.0117C239.744 39.7305 239.949 40.3301 240.359 40.8105C240.773 41.2871 241.293 41.5254 241.918 41.5254C242.293 41.5254 242.623 41.457 242.908 41.3203C243.197 41.1836 243.459 40.9648 243.693 40.6641L244.133 40.998C243.617 41.7441 242.869 42.1172 241.889 42.1172ZM241.76 36.1406C241.232 36.1406 240.787 36.334 240.424 36.7207C240.064 37.1074 239.846 37.627 239.768 38.2793H243.57V38.2031C243.551 37.5938 243.377 37.0977 243.049 36.7148C242.721 36.332 242.291 36.1406 241.76 36.1406ZM249.43 40.3887C249.43 40.041 249.289 39.7617 249.008 39.5508C248.73 39.3398 248.311 39.1758 247.748 39.0586C247.186 38.9375 246.748 38.8008 246.436 38.6484C246.127 38.4922 245.896 38.3027 245.744 38.0801C245.596 37.8574 245.521 37.5879 245.521 37.2715C245.521 36.7715 245.73 36.3594 246.148 36.0352C246.566 35.707 247.102 35.543 247.754 35.543C248.461 35.543 249.027 35.7188 249.453 36.0703C249.883 36.418 250.098 36.873 250.098 37.4355H249.395C249.395 37.0645 249.238 36.7559 248.926 36.5098C248.617 36.2637 248.227 36.1406 247.754 36.1406C247.293 36.1406 246.922 36.2441 246.641 36.4512C246.363 36.6543 246.225 36.9199 246.225 37.248C246.225 37.5645 246.34 37.8105 246.57 37.9863C246.805 38.1582 247.229 38.3164 247.842 38.4609C248.459 38.6055 248.92 38.7598 249.225 38.9238C249.533 39.0879 249.762 39.2852 249.91 39.5156C250.059 39.7461 250.133 40.0254 250.133 40.3535C250.133 40.8887 249.916 41.3164 249.482 41.6367C249.053 41.957 248.49 42.1172 247.795 42.1172C247.057 42.1172 246.457 41.9395 245.996 41.584C245.539 41.2246 245.311 40.7715 245.311 40.2246H246.014C246.041 40.6348 246.213 40.9551 246.529 41.1855C246.85 41.4121 247.271 41.5254 247.795 41.5254C248.283 41.5254 248.678 41.418 248.979 41.2031C249.279 40.9883 249.43 40.7168 249.43 40.3887ZM256.812 38.8945C256.812 39.8828 256.594 40.668 256.156 41.25C255.719 41.8281 255.133 42.1172 254.398 42.1172C253.531 42.1172 252.867 41.8125 252.406 41.2031V44.4375H251.709V35.6602H252.359L252.395 36.5566C252.852 35.8809 253.514 35.543 254.381 35.543C255.139 35.543 255.732 35.8301 256.162 36.4043C256.596 36.9785 256.812 37.7754 256.812 38.7949V38.8945ZM256.109 38.7715C256.109 37.9629 255.943 37.3242 255.611 36.8555C255.279 36.3867 254.816 36.1523 254.223 36.1523C253.793 36.1523 253.424 36.2559 253.115 36.4629C252.807 36.6699 252.57 36.9707 252.406 37.3652V40.4062C252.574 40.7695 252.814 41.0469 253.127 41.2383C253.439 41.4297 253.809 41.5254 254.234 41.5254C254.824 41.5254 255.283 41.291 255.611 40.8223C255.943 40.3496 256.109 39.666 256.109 38.7715ZM260.826 42.1172C260.287 42.1172 259.799 41.9844 259.361 41.7188C258.928 41.4531 258.59 41.084 258.348 40.6113C258.105 40.1348 257.984 39.6016 257.984 39.0117V38.7598C257.984 38.1504 258.102 37.6016 258.336 37.1133C258.574 36.625 258.904 36.2422 259.326 35.9648C259.748 35.6836 260.205 35.543 260.697 35.543C261.467 35.543 262.076 35.8066 262.525 36.334C262.979 36.8574 263.205 37.5742 263.205 38.4844V38.877H258.682V39.0117C258.682 39.7305 258.887 40.3301 259.297 40.8105C259.711 41.2871 260.23 41.5254 260.855 41.5254C261.23 41.5254 261.561 41.457 261.846 41.3203C262.135 41.1836 262.396 40.9648 262.631 40.6641L263.07 40.998C262.555 41.7441 261.807 42.1172 260.826 42.1172ZM260.697 36.1406C260.17 36.1406 259.725 36.334 259.361 36.7207C259.002 37.1074 258.783 37.627 258.705 38.2793H262.508V38.2031C262.488 37.5938 262.314 37.0977 261.986 36.7148C261.658 36.332 261.229 36.1406 260.697 36.1406ZM267.5 36.2578C267.352 36.2305 267.193 36.2168 267.025 36.2168C266.588 36.2168 266.217 36.3398 265.912 36.5859C265.611 36.8281 265.396 37.1816 265.268 37.6465V42H264.57V35.6602H265.256L265.268 36.668C265.639 35.918 266.234 35.543 267.055 35.543C267.25 35.543 267.404 35.5684 267.518 35.6191L267.5 36.2578ZM272.381 42C272.311 41.8008 272.266 41.5059 272.246 41.1152C272 41.4355 271.686 41.6836 271.303 41.8594C270.924 42.0312 270.521 42.1172 270.096 42.1172C269.486 42.1172 268.992 41.9473 268.613 41.6074C268.238 41.2676 268.051 40.8379 268.051 40.3184C268.051 39.7012 268.307 39.2129 268.818 38.8535C269.334 38.4941 270.051 38.3145 270.969 38.3145H272.24V37.5938C272.24 37.1406 272.1 36.7852 271.818 36.5273C271.541 36.2656 271.135 36.1348 270.6 36.1348C270.111 36.1348 269.707 36.2598 269.387 36.5098C269.066 36.7598 268.906 37.0605 268.906 37.4121L268.203 37.4062C268.203 36.9023 268.438 36.4668 268.906 36.0996C269.375 35.7285 269.951 35.543 270.635 35.543C271.342 35.543 271.898 35.7207 272.305 36.0762C272.715 36.4277 272.926 36.9199 272.938 37.5527V40.5527C272.938 41.166 273.002 41.625 273.131 41.9297V42H272.381ZM270.178 41.4961C270.646 41.4961 271.064 41.3828 271.432 41.1562C271.803 40.9297 272.072 40.627 272.24 40.248V38.8535H270.986C270.287 38.8613 269.74 38.9902 269.346 39.2402C268.951 39.4863 268.754 39.8262 268.754 40.2598C268.754 40.6152 268.885 40.9102 269.146 41.1445C269.412 41.3789 269.756 41.4961 270.178 41.4961ZM274.531 38.7715C274.531 37.7871 274.75 37.0039 275.188 36.4219C275.629 35.8359 276.227 35.543 276.98 35.543C277.836 35.543 278.488 35.8809 278.938 36.5566V33H279.635V42H278.979L278.949 41.1562C278.5 41.7969 277.84 42.1172 276.969 42.1172C276.238 42.1172 275.648 41.8242 275.199 41.2383C274.754 40.6484 274.531 39.8535 274.531 38.8535V38.7715ZM275.24 38.8945C275.24 39.7031 275.402 40.3418 275.727 40.8105C276.051 41.2754 276.508 41.5078 277.098 41.5078C277.961 41.5078 278.574 41.127 278.938 40.3652V37.3887C278.574 36.5645 277.965 36.1523 277.109 36.1523C276.52 36.1523 276.061 36.3848 275.732 36.8496C275.404 37.3105 275.24 37.9922 275.24 38.8945ZM285.482 42C285.412 41.8008 285.367 41.5059 285.348 41.1152C285.102 41.4355 284.787 41.6836 284.404 41.8594C284.025 42.0312 283.623 42.1172 283.197 42.1172C282.588 42.1172 282.094 41.9473 281.715 41.6074C281.34 41.2676 281.152 40.8379 281.152 40.3184C281.152 39.7012 281.408 39.2129 281.92 38.8535C282.436 38.4941 283.152 38.3145 284.07 38.3145H285.342V37.5938C285.342 37.1406 285.201 36.7852 284.92 36.5273C284.643 36.2656 284.236 36.1348 283.701 36.1348C283.213 36.1348 282.809 36.2598 282.488 36.5098C282.168 36.7598 282.008 37.0605 282.008 37.4121L281.305 37.4062C281.305 36.9023 281.539 36.4668 282.008 36.0996C282.477 35.7285 283.053 35.543 283.736 35.543C284.443 35.543 285 35.7207 285.406 36.0762C285.816 36.4277 286.027 36.9199 286.039 37.5527V40.5527C286.039 41.166 286.104 41.625 286.232 41.9297V42H285.482ZM283.279 41.4961C283.748 41.4961 284.166 41.3828 284.533 41.1562C284.904 40.9297 285.174 40.627 285.342 40.248V38.8535H284.088C283.389 38.8613 282.842 38.9902 282.447 39.2402C282.053 39.4863 281.855 39.8262 281.855 40.2598C281.855 40.6152 281.986 40.9102 282.248 41.1445C282.514 41.3789 282.857 41.4961 283.279 41.4961Z" fill="#09485F"/>
<path d="M257.271 29H250.284V28.0259L253.975 23.9243C254.522 23.3042 254.898 22.8013 255.103 22.4155C255.313 22.0249 255.418 21.6221 255.418 21.207C255.418 20.6504 255.25 20.1938 254.913 19.8374C254.576 19.481 254.126 19.3027 253.565 19.3027C252.891 19.3027 252.366 19.4956 251.99 19.8813C251.619 20.2622 251.434 20.7944 251.434 21.478H250.079C250.079 20.4966 250.394 19.7031 251.023 19.0977C251.658 18.4922 252.505 18.1895 253.565 18.1895C254.556 18.1895 255.34 18.4507 255.916 18.9731C256.492 19.4907 256.78 20.1816 256.78 21.0459C256.78 22.0957 256.111 23.3457 254.773 24.7959L251.917 27.894H257.271V29ZM261.058 25.3306L260.208 26.2168V29H258.853V17.75H260.208V24.5542L260.933 23.6826L263.401 21.0752H265.049L261.966 24.3857L265.408 29H263.819L261.058 25.3306ZM268.96 25.6382L269.166 27.0444L269.466 25.7773L271.575 18.3359H272.762L274.82 25.7773L275.113 27.0664L275.34 25.6309L276.995 18.3359H278.409L275.823 29H274.542L272.344 21.229L272.176 20.416L272.007 21.229L269.729 29H268.448L265.87 18.3359H267.276L268.96 25.6382ZM281.119 22.0347C281.719 21.2974 282.5 20.9287 283.462 20.9287C285.137 20.9287 285.982 21.8735 285.997 23.7632V29H284.642V23.7559C284.637 23.1846 284.505 22.7622 284.246 22.4888C283.992 22.2153 283.594 22.0786 283.052 22.0786C282.613 22.0786 282.227 22.1958 281.895 22.4302C281.563 22.6646 281.304 22.9722 281.119 23.353V29H279.764V17.75H281.119V22.0347Z" fill="#9F9C9C"/>
<circle cx="239" cy="23" r="5" fill="#F7C934"/>
</svg>

