<svg width="143" height="120" viewBox="0 0 143 120" fill="none" xmlns="http://www.w3.org/2000/svg">
<path d="M0 20.5157C0 9.1852 9.1852 0 20.5157 0H122.484C133.815 0 143 9.1852 143 20.5157V99.4843C143 110.815 133.815 120 122.484 120H20.5157C9.18521 120 0 110.815 0 99.4843V20.5157Z" fill="#ECEFF0"/>
<circle cx="113" cy="28" r="15" fill="#A7DC10"/>
<path d="M114.703 26.4257H118.228V28.9745H114.703V32.9589H112.017V28.9745H108.482V26.4257H112.017V22.6073H114.703V26.4257Z" fill="white"/>
<path d="M19.1265 79.2168H14.6587L13.6553 82H12.2051L16.2773 71.3359H17.5078L21.5874 82H20.1445L19.1265 79.2168ZM15.0835 78.0596H18.709L16.8926 73.0718L15.0835 78.0596ZM22.481 77.9717C22.481 76.7559 22.769 75.7793 23.3452 75.042C23.9214 74.2998 24.6758 73.9287 25.6084 73.9287C26.5361 73.9287 27.271 74.2461 27.813 74.8809V70.75H29.168V82H27.9229L27.8569 81.1504C27.3149 81.8145 26.5605 82.1465 25.5938 82.1465C24.6758 82.1465 23.9263 81.7705 23.3452 81.0186C22.769 80.2666 22.481 79.2852 22.481 78.0742V77.9717ZM23.8359 78.1255C23.8359 79.0239 24.0215 79.7271 24.3926 80.2349C24.7637 80.7427 25.2764 80.9966 25.9307 80.9966C26.79 80.9966 27.4175 80.6108 27.813 79.8394V76.1992C27.4077 75.4521 26.7852 75.0786 25.9453 75.0786C25.2812 75.0786 24.7637 75.335 24.3926 75.8477C24.0215 76.3604 23.8359 77.1196 23.8359 78.1255ZM32.7495 82H31.3945V74.0752H32.7495V82ZM31.2847 71.9731C31.2847 71.7534 31.3506 71.5679 31.4824 71.4165C31.6191 71.2651 31.8193 71.1895 32.083 71.1895C32.3467 71.1895 32.5469 71.2651 32.6836 71.4165C32.8203 71.5679 32.8887 71.7534 32.8887 71.9731C32.8887 72.1929 32.8203 72.376 32.6836 72.5225C32.5469 72.6689 32.3467 72.7422 32.083 72.7422C31.8193 72.7422 31.6191 72.6689 31.4824 72.5225C31.3506 72.376 31.2847 72.1929 31.2847 71.9731ZM38.1035 81.0405C38.5869 81.0405 39.0093 80.894 39.3706 80.6011C39.7319 80.3081 39.9321 79.9419 39.9712 79.5024H41.2529C41.2285 79.9565 41.0723 80.3887 40.7842 80.7988C40.4961 81.209 40.1104 81.5361 39.627 81.7803C39.1484 82.0244 38.6406 82.1465 38.1035 82.1465C37.0244 82.1465 36.165 81.7876 35.5254 81.0698C34.8906 80.3472 34.5732 79.3608 34.5732 78.1108V77.8838C34.5732 77.1123 34.7148 76.4263 34.998 75.8257C35.2812 75.2251 35.6865 74.7588 36.2139 74.4268C36.7461 74.0947 37.3735 73.9287 38.0962 73.9287C38.9849 73.9287 39.7222 74.1948 40.3081 74.7271C40.8989 75.2593 41.2139 75.9502 41.2529 76.7998H39.9712C39.9321 76.2871 39.7368 75.8672 39.3853 75.54C39.0386 75.208 38.6089 75.042 38.0962 75.042C37.4077 75.042 36.873 75.291 36.4922 75.7891C36.1162 76.2822 35.9282 76.9976 35.9282 77.9351V78.1914C35.9282 79.1045 36.1162 79.8076 36.4922 80.3008C36.8682 80.7939 37.4053 81.0405 38.1035 81.0405ZM44.2485 82H42.8936V74.0752H44.2485V82ZM42.7837 71.9731C42.7837 71.7534 42.8496 71.5679 42.9814 71.4165C43.1182 71.2651 43.3184 71.1895 43.582 71.1895C43.8457 71.1895 44.0459 71.2651 44.1826 71.4165C44.3193 71.5679 44.3877 71.7534 44.3877 71.9731C44.3877 72.1929 44.3193 72.376 44.1826 72.5225C44.0459 72.6689 43.8457 72.7422 43.582 72.7422C43.3184 72.7422 43.1182 72.6689 42.9814 72.5225C42.8496 72.376 42.7837 72.1929 42.7837 71.9731ZM46.0649 77.9644C46.0649 77.188 46.2163 76.4897 46.519 75.8696C46.8267 75.2495 47.2515 74.771 47.7935 74.4341C48.3403 74.0972 48.9629 73.9287 49.6611 73.9287C50.7402 73.9287 51.6118 74.3022 52.2759 75.0493C52.9448 75.7964 53.2793 76.79 53.2793 78.0303V78.1255C53.2793 78.897 53.1304 79.5903 52.8325 80.2056C52.5396 80.8159 52.1172 81.292 51.5654 81.6338C51.0186 81.9756 50.3887 82.1465 49.6758 82.1465C48.6016 82.1465 47.73 81.7729 47.061 81.0259C46.397 80.2788 46.0649 79.29 46.0649 78.0596V77.9644ZM47.4272 78.1255C47.4272 79.0044 47.6299 79.71 48.0352 80.2422C48.4453 80.7744 48.9922 81.0405 49.6758 81.0405C50.3643 81.0405 50.9111 80.772 51.3164 80.2349C51.7217 79.6929 51.9243 78.936 51.9243 77.9644C51.9243 77.0952 51.7168 76.3921 51.3018 75.855C50.8916 75.313 50.3447 75.042 49.6611 75.042C48.9922 75.042 48.4526 75.3081 48.0425 75.8403C47.6323 76.3726 47.4272 77.1343 47.4272 78.1255ZM56.2603 74.0752L56.3042 75.0713C56.9097 74.3096 57.7007 73.9287 58.6772 73.9287C60.3521 73.9287 61.1968 74.8735 61.2114 76.7632V82H59.8564V76.7559C59.8516 76.1846 59.7197 75.7622 59.4609 75.4888C59.207 75.2153 58.8091 75.0786 58.2671 75.0786C57.8276 75.0786 57.4419 75.1958 57.1099 75.4302C56.7778 75.6646 56.519 75.9722 56.3335 76.353V82H54.9785V74.0752H56.2603ZM68.1475 82C68.0693 81.8438 68.0059 81.5654 67.957 81.165C67.3271 81.8193 66.5752 82.1465 65.7012 82.1465C64.9199 82.1465 64.2778 81.9268 63.7749 81.4873C63.2769 81.043 63.0278 80.4814 63.0278 79.8027C63.0278 78.9775 63.3403 78.3379 63.9653 77.8838C64.5952 77.4248 65.479 77.1953 66.6167 77.1953H67.9351V76.5728C67.9351 76.0991 67.7935 75.7231 67.5103 75.4448C67.2271 75.1616 66.8096 75.02 66.2578 75.02C65.7744 75.02 65.3691 75.1421 65.042 75.3862C64.7148 75.6304 64.5513 75.9258 64.5513 76.2725H63.189C63.189 75.877 63.3281 75.4961 63.6064 75.1299C63.8896 74.7588 64.2705 74.4658 64.749 74.251C65.2324 74.0361 65.7622 73.9287 66.3384 73.9287C67.2515 73.9287 67.9668 74.1582 68.4844 74.6172C69.002 75.0713 69.2705 75.6987 69.29 76.4995V80.147C69.29 80.8745 69.3828 81.4531 69.5684 81.8828V82H68.1475ZM65.8989 80.9673C66.3237 80.9673 66.7266 80.8574 67.1074 80.6377C67.4883 80.418 67.7642 80.1323 67.9351 79.7808V78.1548H66.873C65.2129 78.1548 64.3828 78.6406 64.3828 79.6123C64.3828 80.0371 64.5244 80.3691 64.8076 80.6084C65.0908 80.8477 65.4546 80.9673 65.8989 80.9673ZM75.2446 75.291C75.0396 75.2568 74.8174 75.2397 74.5781 75.2397C73.6895 75.2397 73.0864 75.6182 72.769 76.375V82H71.4141V74.0752H72.7324L72.7544 74.9907C73.1987 74.2827 73.8286 73.9287 74.644 73.9287C74.9077 73.9287 75.1079 73.9629 75.2446 74.0312V75.291ZM81.4995 74.0752L81.5435 75.0713C82.1489 74.3096 82.9399 73.9287 83.9165 73.9287C85.5913 73.9287 86.436 74.8735 86.4507 76.7632V82H85.0957V76.7559C85.0908 76.1846 84.959 75.7622 84.7002 75.4888C84.4463 75.2153 84.0483 75.0786 83.5063 75.0786C83.0669 75.0786 82.6812 75.1958 82.3491 75.4302C82.0171 75.6646 81.7583 75.9722 81.5728 76.353V82H80.2178V74.0752H81.4995ZM88.1353 77.9644C88.1353 77.188 88.2866 76.4897 88.5894 75.8696C88.897 75.2495 89.3218 74.771 89.8638 74.4341C90.4106 74.0972 91.0332 73.9287 91.7314 73.9287C92.8105 73.9287 93.6821 74.3022 94.3462 75.0493C95.0151 75.7964 95.3496 76.79 95.3496 78.0303V78.1255C95.3496 78.897 95.2007 79.5903 94.9028 80.2056C94.6099 80.8159 94.1875 81.292 93.6357 81.6338C93.0889 81.9756 92.459 82.1465 91.7461 82.1465C90.6719 82.1465 89.8003 81.7729 89.1313 81.0259C88.4673 80.2788 88.1353 79.29 88.1353 78.0596V77.9644ZM89.4976 78.1255C89.4976 79.0044 89.7002 79.71 90.1055 80.2422C90.5156 80.7744 91.0625 81.0405 91.7461 81.0405C92.4346 81.0405 92.9814 80.772 93.3867 80.2349C93.792 79.6929 93.9946 78.936 93.9946 77.9644C93.9946 77.0952 93.7871 76.3921 93.3721 75.855C92.9619 75.313 92.415 75.042 91.7314 75.042C91.0625 75.042 90.5229 75.3081 90.1128 75.8403C89.7026 76.3726 89.4976 77.1343 89.4976 78.1255ZM99.5464 80.1616L101.509 74.0752H102.894L100.052 82H99.019L96.1479 74.0752H97.5322L99.5464 80.1616ZM103.721 77.9644C103.721 77.188 103.873 76.4897 104.175 75.8696C104.483 75.2495 104.908 74.771 105.45 74.4341C105.997 74.0972 106.619 73.9287 107.317 73.9287C108.396 73.9287 109.268 74.3022 109.932 75.0493C110.601 75.7964 110.936 76.79 110.936 78.0303V78.1255C110.936 78.897 110.787 79.5903 110.489 80.2056C110.196 80.8159 109.773 81.292 109.222 81.6338C108.675 81.9756 108.045 82.1465 107.332 82.1465C106.258 82.1465 105.386 81.7729 104.717 81.0259C104.053 80.2788 103.721 79.29 103.721 78.0596V77.9644ZM105.083 78.1255C105.083 79.0044 105.286 79.71 105.691 80.2422C106.102 80.7744 106.648 81.0405 107.332 81.0405C108.021 81.0405 108.567 80.772 108.973 80.2349C109.378 79.6929 109.581 78.936 109.581 77.9644C109.581 77.0952 109.373 76.3921 108.958 75.855C108.548 75.313 108.001 75.042 107.317 75.042C106.648 75.042 106.109 75.3081 105.699 75.8403C105.289 76.3726 105.083 77.1343 105.083 78.1255ZM12.6958 95.9717C12.6958 94.7559 12.9839 93.7793 13.5601 93.042C14.1362 92.2998 14.8906 91.9287 15.8232 91.9287C16.751 91.9287 17.4858 92.2461 18.0278 92.8809V88.75H19.3828V100H18.1377L18.0718 99.1504C17.5298 99.8145 16.7754 100.146 15.8086 100.146C14.8906 100.146 14.1411 99.7705 13.5601 99.0186C12.9839 98.2666 12.6958 97.2852 12.6958 96.0742V95.9717ZM14.0508 96.1255C14.0508 97.0239 14.2363 97.7271 14.6074 98.2349C14.9785 98.7427 15.4912 98.9966 16.1455 98.9966C17.0049 98.9966 17.6323 98.6108 18.0278 97.8394V94.1992C17.6226 93.4521 17 93.0786 16.1602 93.0786C15.4961 93.0786 14.9785 93.335 14.6074 93.8477C14.2363 94.3604 14.0508 95.1196 14.0508 96.1255ZM22.9644 100H21.6094V92.0752H22.9644V100ZM21.4995 89.9731C21.4995 89.7534 21.5654 89.5679 21.6973 89.4165C21.834 89.2651 22.0342 89.1895 22.2979 89.1895C22.5615 89.1895 22.7617 89.2651 22.8984 89.4165C23.0352 89.5679 23.1035 89.7534 23.1035 89.9731C23.1035 90.1929 23.0352 90.376 22.8984 90.5225C22.7617 90.6689 22.5615 90.7422 22.2979 90.7422C22.0342 90.7422 21.834 90.6689 21.6973 90.5225C21.5654 90.376 21.4995 90.1929 21.4995 89.9731ZM29.7539 97.8979C29.7539 97.5317 29.6147 97.2485 29.3364 97.0483C29.063 96.8433 28.582 96.6675 27.8936 96.521C27.21 96.3745 26.6655 96.1987 26.2603 95.9937C25.8599 95.7886 25.562 95.5444 25.3667 95.2612C25.1763 94.978 25.0811 94.6411 25.0811 94.2505C25.0811 93.6011 25.3545 93.0518 25.9014 92.6025C26.4531 92.1533 27.1562 91.9287 28.0107 91.9287C28.9092 91.9287 29.6367 92.1606 30.1934 92.6245C30.7549 93.0884 31.0356 93.6816 31.0356 94.4043H29.6733C29.6733 94.0332 29.5146 93.7134 29.1973 93.4448C28.8848 93.1763 28.4893 93.042 28.0107 93.042C27.5176 93.042 27.1318 93.1494 26.8535 93.3643C26.5752 93.5791 26.436 93.8599 26.436 94.2065C26.436 94.5337 26.5654 94.7803 26.8242 94.9463C27.083 95.1123 27.5493 95.271 28.2231 95.4224C28.9019 95.5737 29.4512 95.7544 29.8711 95.9644C30.291 96.1743 30.6011 96.4282 30.8013 96.7261C31.0063 97.019 31.1089 97.3779 31.1089 97.8027C31.1089 98.5107 30.8257 99.0796 30.2593 99.5093C29.6929 99.9341 28.958 100.146 28.0547 100.146C27.4199 100.146 26.8584 100.034 26.3701 99.8096C25.8818 99.585 25.4985 99.2725 25.2202 98.8721C24.9468 98.4668 24.8101 98.0298 24.8101 97.561H26.165C26.1895 98.0151 26.3701 98.3765 26.707 98.645C27.0488 98.9087 27.498 99.0405 28.0547 99.0405C28.5674 99.0405 28.9775 98.938 29.2852 98.7329C29.5977 98.5229 29.7539 98.2446 29.7539 97.8979ZM39.5684 96.1255C39.5684 97.3315 39.2925 98.3032 38.7407 99.0405C38.189 99.7778 37.4419 100.146 36.4995 100.146C35.5376 100.146 34.7808 99.8413 34.229 99.231V103.047H32.874V92.0752H34.1118L34.1777 92.9541C34.7295 92.2705 35.4961 91.9287 36.4775 91.9287C37.4297 91.9287 38.1816 92.2876 38.7334 93.0054C39.29 93.7231 39.5684 94.7217 39.5684 96.001V96.1255ZM38.2134 95.9717C38.2134 95.0781 38.0229 94.3726 37.6421 93.855C37.2612 93.3374 36.7388 93.0786 36.0747 93.0786C35.2544 93.0786 34.6392 93.4424 34.229 94.1699V97.9565C34.6343 98.6792 35.2544 99.0405 36.0894 99.0405C36.7388 99.0405 37.2539 98.7842 37.6348 98.2715C38.0205 97.7539 38.2134 96.9873 38.2134 95.9717ZM40.938 95.9644C40.938 95.188 41.0894 94.4897 41.3921 93.8696C41.6997 93.2495 42.1245 92.771 42.6665 92.4341C43.2134 92.0972 43.8359 91.9287 44.5342 91.9287C45.6133 91.9287 46.4849 92.3022 47.1489 93.0493C47.8179 93.7964 48.1523 94.79 48.1523 96.0303V96.1255C48.1523 96.897 48.0034 97.5903 47.7056 98.2056C47.4126 98.8159 46.9902 99.292 46.4385 99.6338C45.8916 99.9756 45.2617 100.146 44.5488 100.146C43.4746 100.146 42.603 99.7729 41.9341 99.0259C41.27 98.2788 40.938 97.29 40.938 96.0596V95.9644ZM42.3003 96.1255C42.3003 97.0044 42.5029 97.71 42.9082 98.2422C43.3184 98.7744 43.8652 99.0405 44.5488 99.0405C45.2373 99.0405 45.7842 98.772 46.1895 98.2349C46.5947 97.6929 46.7974 96.936 46.7974 95.9644C46.7974 95.0952 46.5898 94.3921 46.1748 93.855C45.7646 93.313 45.2178 93.042 44.5342 93.042C43.8652 93.042 43.3257 93.3081 42.9155 93.8403C42.5054 94.3726 42.3003 95.1343 42.3003 96.1255ZM54.4658 97.8979C54.4658 97.5317 54.3267 97.2485 54.0483 97.0483C53.7749 96.8433 53.2939 96.6675 52.6055 96.521C51.9219 96.3745 51.3774 96.1987 50.9722 95.9937C50.5718 95.7886 50.2739 95.5444 50.0786 95.2612C49.8882 94.978 49.793 94.6411 49.793 94.2505C49.793 93.6011 50.0664 93.0518 50.6133 92.6025C51.165 92.1533 51.8682 91.9287 52.7227 91.9287C53.6211 91.9287 54.3486 92.1606 54.9053 92.6245C55.4668 93.0884 55.7476 93.6816 55.7476 94.4043H54.3853C54.3853 94.0332 54.2266 93.7134 53.9092 93.4448C53.5967 93.1763 53.2012 93.042 52.7227 93.042C52.2295 93.042 51.8438 93.1494 51.5654 93.3643C51.2871 93.5791 51.1479 93.8599 51.1479 94.2065C51.1479 94.5337 51.2773 94.7803 51.5361 94.9463C51.7949 95.1123 52.2612 95.271 52.9351 95.4224C53.6138 95.5737 54.1631 95.7544 54.583 95.9644C55.0029 96.1743 55.313 96.4282 55.5132 96.7261C55.7183 97.019 55.8208 97.3779 55.8208 97.8027C55.8208 98.5107 55.5376 99.0796 54.9712 99.5093C54.4048 99.9341 53.6699 100.146 52.7666 100.146C52.1318 100.146 51.5703 100.034 51.082 99.8096C50.5938 99.585 50.2104 99.2725 49.9321 98.8721C49.6587 98.4668 49.522 98.0298 49.522 97.561H50.877C50.9014 98.0151 51.082 98.3765 51.4189 98.645C51.7607 98.9087 52.21 99.0405 52.7666 99.0405C53.2793 99.0405 53.6895 98.938 53.9971 98.7329C54.3096 98.5229 54.4658 98.2446 54.4658 97.8979ZM59.0581 100H57.7031V92.0752H59.0581V100ZM57.5933 89.9731C57.5933 89.7534 57.6592 89.5679 57.791 89.4165C57.9277 89.2651 58.1279 89.1895 58.3916 89.1895C58.6553 89.1895 58.8555 89.2651 58.9922 89.4165C59.1289 89.5679 59.1973 89.7534 59.1973 89.9731C59.1973 90.1929 59.1289 90.376 58.9922 90.5225C58.8555 90.6689 58.6553 90.7422 58.3916 90.7422C58.1279 90.7422 57.9277 90.6689 57.791 90.5225C57.6592 90.376 57.5933 90.1929 57.5933 89.9731ZM63.0718 90.1562V92.0752H64.5513V93.1226H63.0718V98.0371C63.0718 98.3545 63.1377 98.5938 63.2695 98.7549C63.4014 98.9111 63.626 98.9893 63.9434 98.9893C64.0996 98.9893 64.3145 98.96 64.5879 98.9014V100C64.2314 100.098 63.8848 100.146 63.5479 100.146C62.9424 100.146 62.4858 99.9634 62.1782 99.5972C61.8706 99.231 61.7168 98.7109 61.7168 98.0371V93.1226H60.2739V92.0752H61.7168V90.1562H63.0718ZM67.6128 100H66.2578V92.0752H67.6128V100ZM66.1479 89.9731C66.1479 89.7534 66.2139 89.5679 66.3457 89.4165C66.4824 89.2651 66.6826 89.1895 66.9463 89.1895C67.21 89.1895 67.4102 89.2651 67.5469 89.4165C67.6836 89.5679 67.752 89.7534 67.752 89.9731C67.752 90.1929 67.6836 90.376 67.5469 90.5225C67.4102 90.6689 67.21 90.7422 66.9463 90.7422C66.6826 90.7422 66.4824 90.6689 66.3457 90.5225C66.2139 90.376 66.1479 90.1929 66.1479 89.9731ZM72.4028 98.1616L74.3657 92.0752H75.75L72.9082 100H71.8755L69.0044 92.0752H70.3887L72.4028 98.1616ZM76.5776 95.9644C76.5776 95.188 76.729 94.4897 77.0317 93.8696C77.3394 93.2495 77.7642 92.771 78.3062 92.4341C78.853 92.0972 79.4756 91.9287 80.1738 91.9287C81.2529 91.9287 82.1245 92.3022 82.7886 93.0493C83.4575 93.7964 83.792 94.79 83.792 96.0303V96.1255C83.792 96.897 83.6431 97.5903 83.3452 98.2056C83.0522 98.8159 82.6299 99.292 82.0781 99.6338C81.5312 99.9756 80.9014 100.146 80.1885 100.146C79.1143 100.146 78.2427 99.7729 77.5737 99.0259C76.9097 98.2788 76.5776 97.29 76.5776 96.0596V95.9644ZM77.9399 96.1255C77.9399 97.0044 78.1426 97.71 78.5479 98.2422C78.958 98.7744 79.5049 99.0405 80.1885 99.0405C80.877 99.0405 81.4238 98.772 81.8291 98.2349C82.2344 97.6929 82.437 96.936 82.437 95.9644C82.437 95.0952 82.2295 94.3921 81.8145 93.855C81.4043 93.313 80.8574 93.042 80.1738 93.042C79.5049 93.042 78.9653 93.3081 78.5552 93.8403C78.145 94.3726 77.9399 95.1343 77.9399 96.1255Z" fill="#9F9C9C"/>
</svg>
