<svg width="64" height="55" viewBox="0 0 64 55" fill="none" xmlns="http://www.w3.org/2000/svg">
<path d="M1.15625 47V38.4688H3.54102C4.24023 38.4688 4.86719 38.6289 5.42188 38.9492C5.97656 39.2656 6.4082 39.7207 6.7168 40.3145C7.0293 40.9082 7.18555 41.584 7.18555 42.3418V43.127C7.18555 43.8887 7.03125 44.5645 6.72266 45.1543C6.41406 45.7441 5.97852 46.1992 5.41602 46.5195C4.85742 46.8398 4.21484 47 3.48828 47H1.15625ZM1.87695 39.084V46.3906H3.49414C4.39258 46.3906 5.11328 46.0938 5.65625 45.5C6.19922 44.9023 6.4707 44.0957 6.4707 43.0801V42.3301C6.4707 41.3496 6.20312 40.5645 5.66797 39.9746C5.13281 39.3848 4.42773 39.0879 3.55273 39.084H1.87695ZM9.64062 47H8.9375V40.6602H9.64062V47ZM8.81445 38.8262C8.81445 38.6934 8.85742 38.582 8.94336 38.4922C9.0293 38.3984 9.14648 38.3516 9.29492 38.3516C9.44336 38.3516 9.56055 38.3984 9.64648 38.4922C9.73633 38.582 9.78125 38.6934 9.78125 38.8262C9.78125 38.959 9.73633 39.0703 9.64648 39.1602C9.56055 39.25 9.44336 39.2949 9.29492 39.2949C9.14648 39.2949 9.0293 39.25 8.94336 39.1602C8.85742 39.0703 8.81445 38.959 8.81445 38.8262ZM15.3477 45.3887C15.3477 45.041 15.207 44.7617 14.9258 44.5508C14.6484 44.3398 14.2285 44.1758 13.666 44.0586C13.1035 43.9375 12.666 43.8008 12.3535 43.6484C12.0449 43.4922 11.8145 43.3027 11.6621 43.0801C11.5137 42.8574 11.4395 42.5879 11.4395 42.2715C11.4395 41.7715 11.6484 41.3594 12.0664 41.0352C12.4844 40.707 13.0195 40.543 13.6719 40.543C14.3789 40.543 14.9453 40.7188 15.3711 41.0703C15.8008 41.418 16.0156 41.873 16.0156 42.4355H15.3125C15.3125 42.0645 15.1562 41.7559 14.8438 41.5098C14.5352 41.2637 14.1445 41.1406 13.6719 41.1406C13.2109 41.1406 12.8398 41.2441 12.5586 41.4512C12.2812 41.6543 12.1426 41.9199 12.1426 42.248C12.1426 42.5645 12.2578 42.8105 12.4883 42.9863C12.7227 43.1582 13.1465 43.3164 13.7598 43.4609C14.377 43.6055 14.8379 43.7598 15.1426 43.9238C15.4512 44.0879 15.6797 44.2852 15.8281 44.5156C15.9766 44.7461 16.0508 45.0254 16.0508 45.3535C16.0508 45.8887 15.834 46.3164 15.4004 46.6367C14.9707 46.957 14.4082 47.1172 13.7129 47.1172C12.9746 47.1172 12.375 46.9395 11.9141 46.584C11.457 46.2246 11.2285 45.7715 11.2285 45.2246H11.9316C11.959 45.6348 12.1309 45.9551 12.4473 46.1855C12.7676 46.4121 13.1895 46.5254 13.7129 46.5254C14.2012 46.5254 14.5957 46.418 14.8965 46.2031C15.1973 45.9883 15.3477 45.7168 15.3477 45.3887ZM22.7305 43.8945C22.7305 44.8828 22.5117 45.668 22.0742 46.25C21.6367 46.8281 21.0508 47.1172 20.3164 47.1172C19.4492 47.1172 18.7852 46.8125 18.3242 46.2031V49.4375H17.627V40.6602H18.2773L18.3125 41.5566C18.7695 40.8809 19.4316 40.543 20.2988 40.543C21.0566 40.543 21.6504 40.8301 22.0801 41.4043C22.5137 41.9785 22.7305 42.7754 22.7305 43.7949V43.8945ZM22.0273 43.7715C22.0273 42.9629 21.8613 42.3242 21.5293 41.8555C21.1973 41.3867 20.7344 41.1523 20.1406 41.1523C19.7109 41.1523 19.3418 41.2559 19.0332 41.4629C18.7246 41.6699 18.4883 41.9707 18.3242 42.3652V45.4062C18.4922 45.7695 18.7324 46.0469 19.0449 46.2383C19.3574 46.4297 19.7266 46.5254 20.1523 46.5254C20.7422 46.5254 21.2012 46.291 21.5293 45.8223C21.8613 45.3496 22.0273 44.666 22.0273 43.7715ZM23.9023 43.7363C23.9023 43.127 24.0195 42.5781 24.2539 42.0898C24.4922 41.6016 24.8262 41.2227 25.2559 40.9531C25.6895 40.6797 26.1797 40.543 26.7266 40.543C27.5703 40.543 28.2539 40.8398 28.7773 41.4336C29.3008 42.0234 29.5625 42.8066 29.5625 43.7832V43.9297C29.5625 44.543 29.4434 45.0957 29.2051 45.5879C28.9707 46.0762 28.6387 46.4531 28.209 46.7188C27.7793 46.9844 27.2891 47.1172 26.7383 47.1172C25.8984 47.1172 25.2148 46.8223 24.6875 46.2324C24.1641 45.6387 23.9023 44.8535 23.9023 43.877V43.7363ZM24.6055 43.9297C24.6055 44.6875 24.8008 45.3105 25.1914 45.7988C25.5859 46.2832 26.1016 46.5254 26.7383 46.5254C27.3711 46.5254 27.8828 46.2832 28.2734 45.7988C28.668 45.3105 28.8652 44.668 28.8652 43.8711V43.7363C28.8652 43.252 28.7754 42.8086 28.5957 42.4062C28.416 42.0039 28.1641 41.6934 27.8398 41.4746C27.5156 41.252 27.1445 41.1406 26.7266 41.1406C26.1016 41.1406 25.5918 41.3867 25.1973 41.8789C24.8027 42.3672 24.6055 43.0078 24.6055 43.8008V43.9297ZM34.8125 45.3887C34.8125 45.041 34.6719 44.7617 34.3906 44.5508C34.1133 44.3398 33.6934 44.1758 33.1309 44.0586C32.5684 43.9375 32.1309 43.8008 31.8184 43.6484C31.5098 43.4922 31.2793 43.3027 31.127 43.0801C30.9785 42.8574 30.9043 42.5879 30.9043 42.2715C30.9043 41.7715 31.1133 41.3594 31.5312 41.0352C31.9492 40.707 32.4844 40.543 33.1367 40.543C33.8438 40.543 34.4102 40.7188 34.8359 41.0703C35.2656 41.418 35.4805 41.873 35.4805 42.4355H34.7773C34.7773 42.0645 34.6211 41.7559 34.3086 41.5098C34 41.2637 33.6094 41.1406 33.1367 41.1406C32.6758 41.1406 32.3047 41.2441 32.0234 41.4512C31.7461 41.6543 31.6074 41.9199 31.6074 42.248C31.6074 42.5645 31.7227 42.8105 31.9531 42.9863C32.1875 43.1582 32.6113 43.3164 33.2246 43.4609C33.8418 43.6055 34.3027 43.7598 34.6074 43.9238C34.916 44.0879 35.1445 44.2852 35.293 44.5156C35.4414 44.7461 35.5156 45.0254 35.5156 45.3535C35.5156 45.8887 35.2988 46.3164 34.8652 46.6367C34.4355 46.957 33.873 47.1172 33.1777 47.1172C32.4395 47.1172 31.8398 46.9395 31.3789 46.584C30.9219 46.2246 30.6934 45.7715 30.6934 45.2246H31.3965C31.4238 45.6348 31.5957 45.9551 31.9121 46.1855C32.2324 46.4121 32.6543 46.5254 33.1777 46.5254C33.666 46.5254 34.0605 46.418 34.3613 46.2031C34.6621 45.9883 34.8125 45.7168 34.8125 45.3887ZM37.8828 47H37.1797V40.6602H37.8828V47ZM37.0566 38.8262C37.0566 38.6934 37.0996 38.582 37.1855 38.4922C37.2715 38.3984 37.3887 38.3516 37.5371 38.3516C37.6855 38.3516 37.8027 38.3984 37.8887 38.4922C37.9785 38.582 38.0234 38.6934 38.0234 38.8262C38.0234 38.959 37.9785 39.0703 37.8887 39.1602C37.8027 39.25 37.6855 39.2949 37.5371 39.2949C37.3887 39.2949 37.2715 39.25 37.1855 39.1602C37.0996 39.0703 37.0566 38.959 37.0566 38.8262ZM40.8828 39.0371V40.6602H42.1953V41.2344H40.8828V45.459C40.8828 45.8105 40.9453 46.0723 41.0703 46.2441C41.1992 46.416 41.4121 46.502 41.709 46.502C41.8262 46.502 42.0156 46.4824 42.2773 46.4434L42.3066 47.0176C42.123 47.084 41.873 47.1172 41.5566 47.1172C41.0762 47.1172 40.7266 46.9785 40.5078 46.7012C40.2891 46.4199 40.1797 46.0078 40.1797 45.4648V41.2344H39.0137V40.6602H40.1797V39.0371H40.8828ZM44.4336 47H43.7305V40.6602H44.4336V47ZM43.6074 38.8262C43.6074 38.6934 43.6504 38.582 43.7363 38.4922C43.8223 38.3984 43.9395 38.3516 44.0879 38.3516C44.2363 38.3516 44.3535 38.3984 44.4395 38.4922C44.5293 38.582 44.5742 38.6934 44.5742 38.8262C44.5742 38.959 44.5293 39.0703 44.4395 39.1602C44.3535 39.25 44.2363 39.2949 44.0879 39.2949C43.9395 39.2949 43.8223 39.25 43.7363 39.1602C43.6504 39.0703 43.6074 38.959 43.6074 38.8262ZM48.3184 46.0332L50.2461 40.6602H50.9668L48.5996 47H48.0312L45.6523 40.6602H46.373L48.3184 46.0332ZM51.6406 43.7363C51.6406 43.127 51.7578 42.5781 51.9922 42.0898C52.2305 41.6016 52.5645 41.2227 52.9941 40.9531C53.4277 40.6797 53.918 40.543 54.4648 40.543C55.3086 40.543 55.9922 40.8398 56.5156 41.4336C57.0391 42.0234 57.3008 42.8066 57.3008 43.7832V43.9297C57.3008 44.543 57.1816 45.0957 56.9434 45.5879C56.709 46.0762 56.377 46.4531 55.9473 46.7188C55.5176 46.9844 55.0273 47.1172 54.4766 47.1172C53.6367 47.1172 52.9531 46.8223 52.4258 46.2324C51.9023 45.6387 51.6406 44.8535 51.6406 43.877V43.7363ZM52.3438 43.9297C52.3438 44.6875 52.5391 45.3105 52.9297 45.7988C53.3242 46.2832 53.8398 46.5254 54.4766 46.5254C55.1094 46.5254 55.6211 46.2832 56.0117 45.7988C56.4062 45.3105 56.6035 44.668 56.6035 43.8711V43.7363C56.6035 43.252 56.5137 42.8086 56.334 42.4062C56.1543 42.0039 55.9023 41.6934 55.5781 41.4746C55.2539 41.252 54.8828 41.1406 54.4648 41.1406C53.8398 41.1406 53.3301 41.3867 52.9355 41.8789C52.541 42.3672 52.3438 43.0078 52.3438 43.8008V43.9297ZM62.5508 45.3887C62.5508 45.041 62.4102 44.7617 62.1289 44.5508C61.8516 44.3398 61.4316 44.1758 60.8691 44.0586C60.3066 43.9375 59.8691 43.8008 59.5566 43.6484C59.248 43.4922 59.0176 43.3027 58.8652 43.0801C58.7168 42.8574 58.6426 42.5879 58.6426 42.2715C58.6426 41.7715 58.8516 41.3594 59.2695 41.0352C59.6875 40.707 60.2227 40.543 60.875 40.543C61.582 40.543 62.1484 40.7188 62.5742 41.0703C63.0039 41.418 63.2188 41.873 63.2188 42.4355H62.5156C62.5156 42.0645 62.3594 41.7559 62.0469 41.5098C61.7383 41.2637 61.3477 41.1406 60.875 41.1406C60.4141 41.1406 60.043 41.2441 59.7617 41.4512C59.4844 41.6543 59.3457 41.9199 59.3457 42.248C59.3457 42.5645 59.4609 42.8105 59.6914 42.9863C59.9258 43.1582 60.3496 43.3164 60.9629 43.4609C61.5801 43.6055 62.041 43.7598 62.3457 43.9238C62.6543 44.0879 62.8828 44.2852 63.0312 44.5156C63.1797 44.7461 63.2539 45.0254 63.2539 45.3535C63.2539 45.8887 63.0371 46.3164 62.6035 46.6367C62.1738 46.957 61.6113 47.1172 60.916 47.1172C60.1777 47.1172 59.5781 46.9395 59.1172 46.584C58.6602 46.2246 58.4316 45.7715 58.4316 45.2246H59.1348C59.1621 45.6348 59.334 45.9551 59.6504 46.1855C59.9707 46.4121 60.3926 46.5254 60.916 46.5254C61.4043 46.5254 61.7988 46.418 62.0996 46.2031C62.4004 45.9883 62.5508 45.7168 62.5508 45.3887Z" fill="#9F9C9C"/>
<rect x="18" y="1" width="28" height="28" rx="4" stroke="#9F9C9C" stroke-width="2"/>
<path d="M39.0769 16.6667C39.0769 20.3747 35.9444 23.4445 32 23.4445C28.0556 23.4445 24.9231 20.3747 24.9231 16.6667C24.9231 12.9587 28.0556 9.88892 32 9.88892C35.9444 9.88892 39.0769 12.9587 39.0769 16.6667Z" stroke="#9F9C9C" stroke-width="2"/>
<path d="M23.3462 6.66669H25.6539" stroke="#9F9C9C" stroke-width="2" stroke-linecap="round" stroke-linejoin="round"/>
</svg>
