<svg width="321" height="60" viewBox="0 0 321 60" fill="none" xmlns="http://www.w3.org/2000/svg">
<path d="M0 20.5157C0 9.1852 9.1852 0 20.5157 0H300.484C311.815 0 321 9.1852 321 20.5157V39.4843C321 50.8148 311.815 60 300.484 60H20.5157C9.1852 60 0 50.8148 0 39.4843V20.5157Z" fill="#ECEFF0"/>
<path d="M68.1265 21.2168H63.6587L62.6553 24H61.2051L65.2773 13.3359H66.5078L70.5874 24H69.1445L68.1265 21.2168ZM64.0835 20.0596H67.709L65.8926 15.0718L64.0835 20.0596ZM75.6411 17.291C75.436 17.2568 75.2139 17.2397 74.9746 17.2397C74.0859 17.2397 73.4829 17.6182 73.1655 18.375V24H71.8105V16.0752H73.1289L73.1509 16.9907C73.5952 16.2827 74.2251 15.9287 75.0405 15.9287C75.3042 15.9287 75.5044 15.9629 75.6411 16.0312V17.291ZM88.6709 20.6162C88.5391 21.7441 88.1216 22.6157 87.4185 23.231C86.7202 23.8413 85.79 24.1465 84.6279 24.1465C83.3682 24.1465 82.3574 23.6948 81.5957 22.7915C80.8389 21.8882 80.4604 20.6797 80.4604 19.166V18.1406C80.4604 17.1494 80.6362 16.2778 80.9878 15.5259C81.3442 14.7739 81.8472 14.1978 82.4966 13.7974C83.146 13.3921 83.8979 13.1895 84.7524 13.1895C85.8853 13.1895 86.7935 13.5068 87.4771 14.1416C88.1606 14.7715 88.5586 15.6455 88.6709 16.7637H87.2573C87.1353 15.9141 86.8691 15.2988 86.459 14.918C86.0537 14.5371 85.4849 14.3467 84.7524 14.3467C83.854 14.3467 83.1484 14.6787 82.6357 15.3428C82.1279 16.0068 81.874 16.9517 81.874 18.1772V19.21C81.874 20.3672 82.1157 21.2876 82.5991 21.9712C83.0825 22.6548 83.7588 22.9966 84.6279 22.9966C85.4092 22.9966 86.0073 22.8208 86.4224 22.4692C86.8423 22.1128 87.1206 21.4951 87.2573 20.6162H88.6709ZM90.0259 19.9644C90.0259 19.188 90.1772 18.4897 90.48 17.8696C90.7876 17.2495 91.2124 16.771 91.7544 16.4341C92.3013 16.0972 92.9238 15.9287 93.6221 15.9287C94.7012 15.9287 95.5728 16.3022 96.2368 17.0493C96.9058 17.7964 97.2402 18.79 97.2402 20.0303V20.1255C97.2402 20.897 97.0913 21.5903 96.7935 22.2056C96.5005 22.8159 96.0781 23.292 95.5264 23.6338C94.9795 23.9756 94.3496 24.1465 93.6367 24.1465C92.5625 24.1465 91.6909 23.7729 91.022 23.0259C90.3579 22.2788 90.0259 21.29 90.0259 20.0596V19.9644ZM91.3882 20.1255C91.3882 21.0044 91.5908 21.71 91.9961 22.2422C92.4062 22.7744 92.9531 23.0405 93.6367 23.0405C94.3252 23.0405 94.8721 22.772 95.2773 22.2349C95.6826 21.6929 95.8853 20.936 95.8853 19.9644C95.8853 19.0952 95.6777 18.3921 95.2627 17.855C94.8525 17.313 94.3057 17.042 93.6221 17.042C92.9531 17.042 92.4136 17.3081 92.0034 17.8403C91.5933 18.3726 91.3882 19.1343 91.3882 20.1255ZM100.221 16.0752L100.265 17.0713C100.871 16.3096 101.662 15.9287 102.638 15.9287C104.313 15.9287 105.158 16.8735 105.172 18.7632V24H103.817V18.7559C103.812 18.1846 103.681 17.7622 103.422 17.4888C103.168 17.2153 102.77 17.0786 102.228 17.0786C101.789 17.0786 101.403 17.1958 101.071 17.4302C100.739 17.6646 100.48 17.9722 100.294 18.353V24H98.9395V16.0752H100.221ZM106.886 19.9717C106.886 18.7559 107.174 17.7793 107.75 17.042C108.327 16.2998 109.081 15.9287 110.014 15.9287C110.941 15.9287 111.676 16.2461 112.218 16.8809V12.75H113.573V24H112.328L112.262 23.1504C111.72 23.8145 110.966 24.1465 109.999 24.1465C109.081 24.1465 108.332 23.7705 107.75 23.0186C107.174 22.2666 106.886 21.2852 106.886 20.0742V19.9717ZM108.241 20.1255C108.241 21.0239 108.427 21.7271 108.798 22.2349C109.169 22.7427 109.682 22.9966 110.336 22.9966C111.195 22.9966 111.823 22.6108 112.218 21.8394V18.1992C111.813 17.4521 111.19 17.0786 110.351 17.0786C109.687 17.0786 109.169 17.335 108.798 17.8477C108.427 18.3604 108.241 19.1196 108.241 20.1255ZM117.155 24H115.8V16.0752H117.155V24ZM115.69 13.9731C115.69 13.7534 115.756 13.5679 115.888 13.4165C116.024 13.2651 116.225 13.1895 116.488 13.1895C116.752 13.1895 116.952 13.2651 117.089 13.4165C117.226 13.5679 117.294 13.7534 117.294 13.9731C117.294 14.1929 117.226 14.376 117.089 14.5225C116.952 14.6689 116.752 14.7422 116.488 14.7422C116.225 14.7422 116.024 14.6689 115.888 14.5225C115.756 14.376 115.69 14.1929 115.69 13.9731ZM122.509 23.0405C122.992 23.0405 123.415 22.894 123.776 22.6011C124.137 22.3081 124.337 21.9419 124.376 21.5024H125.658C125.634 21.9565 125.478 22.3887 125.189 22.7988C124.901 23.209 124.516 23.5361 124.032 23.7803C123.554 24.0244 123.046 24.1465 122.509 24.1465C121.43 24.1465 120.57 23.7876 119.931 23.0698C119.296 22.3472 118.979 21.3608 118.979 20.1108V19.8838C118.979 19.1123 119.12 18.4263 119.403 17.8257C119.687 17.2251 120.092 16.7588 120.619 16.4268C121.151 16.0947 121.779 15.9287 122.501 15.9287C123.39 15.9287 124.127 16.1948 124.713 16.7271C125.304 17.2593 125.619 17.9502 125.658 18.7998H124.376C124.337 18.2871 124.142 17.8672 123.791 17.54C123.444 17.208 123.014 17.042 122.501 17.042C121.813 17.042 121.278 17.291 120.897 17.7891C120.521 18.2822 120.333 18.9976 120.333 19.9351V20.1914C120.333 21.1045 120.521 21.8076 120.897 22.3008C121.273 22.7939 121.811 23.0405 122.509 23.0405ZM128.654 24H127.299V16.0752H128.654V24ZM127.189 13.9731C127.189 13.7534 127.255 13.5679 127.387 13.4165C127.523 13.2651 127.724 13.1895 127.987 13.1895C128.251 13.1895 128.451 13.2651 128.588 13.4165C128.725 13.5679 128.793 13.7534 128.793 13.9731C128.793 14.1929 128.725 14.376 128.588 14.5225C128.451 14.6689 128.251 14.7422 127.987 14.7422C127.724 14.7422 127.523 14.6689 127.387 14.5225C127.255 14.376 127.189 14.1929 127.189 13.9731ZM130.47 19.9644C130.47 19.188 130.622 18.4897 130.924 17.8696C131.232 17.2495 131.657 16.771 132.199 16.4341C132.746 16.0972 133.368 15.9287 134.066 15.9287C135.146 15.9287 136.017 16.3022 136.681 17.0493C137.35 17.7964 137.685 18.79 137.685 20.0303V20.1255C137.685 20.897 137.536 21.5903 137.238 22.2056C136.945 22.8159 136.522 23.292 135.971 23.6338C135.424 23.9756 134.794 24.1465 134.081 24.1465C133.007 24.1465 132.135 23.7729 131.466 23.0259C130.802 22.2788 130.47 21.29 130.47 20.0596V19.9644ZM131.833 20.1255C131.833 21.0044 132.035 21.71 132.44 22.2422C132.851 22.7744 133.397 23.0405 134.081 23.0405C134.77 23.0405 135.316 22.772 135.722 22.2349C136.127 21.6929 136.33 20.936 136.33 19.9644C136.33 19.0952 136.122 18.3921 135.707 17.855C135.297 17.313 134.75 17.042 134.066 17.042C133.397 17.042 132.858 17.3081 132.448 17.8403C132.038 18.3726 131.833 19.1343 131.833 20.1255ZM140.666 16.0752L140.709 17.0713C141.315 16.3096 142.106 15.9287 143.083 15.9287C144.757 15.9287 145.602 16.8735 145.617 18.7632V24H144.262V18.7559C144.257 18.1846 144.125 17.7622 143.866 17.4888C143.612 17.2153 143.214 17.0786 142.672 17.0786C142.233 17.0786 141.847 17.1958 141.515 17.4302C141.183 17.6646 140.924 17.9722 140.739 18.353V24H139.384V16.0752H140.666ZM152.553 24C152.475 23.8438 152.411 23.5654 152.362 23.165C151.732 23.8193 150.98 24.1465 150.106 24.1465C149.325 24.1465 148.683 23.9268 148.18 23.4873C147.682 23.043 147.433 22.4814 147.433 21.8027C147.433 20.9775 147.746 20.3379 148.371 19.8838C149 19.4248 149.884 19.1953 151.022 19.1953H152.34V18.5728C152.34 18.0991 152.199 17.7231 151.916 17.4448C151.632 17.1616 151.215 17.02 150.663 17.02C150.18 17.02 149.774 17.1421 149.447 17.3862C149.12 17.6304 148.957 17.9258 148.957 18.2725H147.594C147.594 17.877 147.733 17.4961 148.012 17.1299C148.295 16.7588 148.676 16.4658 149.154 16.251C149.638 16.0361 150.167 15.9287 150.744 15.9287C151.657 15.9287 152.372 16.1582 152.89 16.6172C153.407 17.0713 153.676 17.6987 153.695 18.4995V22.147C153.695 22.8745 153.788 23.4531 153.974 23.8828V24H152.553ZM150.304 22.9673C150.729 22.9673 151.132 22.8574 151.513 22.6377C151.894 22.418 152.169 22.1323 152.34 21.7808V20.1548H151.278C149.618 20.1548 148.788 20.6406 148.788 21.6123C148.788 22.0371 148.93 22.3691 149.213 22.6084C149.496 22.8477 149.86 22.9673 150.304 22.9673ZM155.49 19.9717C155.49 18.7559 155.778 17.7793 156.354 17.042C156.93 16.2998 157.685 15.9287 158.617 15.9287C159.545 15.9287 160.28 16.2461 160.822 16.8809V12.75H162.177V24H160.932L160.866 23.1504C160.324 23.8145 159.569 24.1465 158.603 24.1465C157.685 24.1465 156.935 23.7705 156.354 23.0186C155.778 22.2666 155.49 21.2852 155.49 20.0742V19.9717ZM156.845 20.1255C156.845 21.0239 157.03 21.7271 157.401 22.2349C157.772 22.7427 158.285 22.9966 158.939 22.9966C159.799 22.9966 160.426 22.6108 160.822 21.8394V18.1992C160.417 17.4521 159.794 17.0786 158.954 17.0786C158.29 17.0786 157.772 17.335 157.401 17.8477C157.03 18.3604 156.845 19.1196 156.845 20.1255ZM163.927 19.9644C163.927 19.188 164.079 18.4897 164.381 17.8696C164.689 17.2495 165.114 16.771 165.656 16.4341C166.203 16.0972 166.825 15.9287 167.523 15.9287C168.603 15.9287 169.474 16.3022 170.138 17.0493C170.807 17.7964 171.142 18.79 171.142 20.0303V20.1255C171.142 20.897 170.993 21.5903 170.695 22.2056C170.402 22.8159 169.979 23.292 169.428 23.6338C168.881 23.9756 168.251 24.1465 167.538 24.1465C166.464 24.1465 165.592 23.7729 164.923 23.0259C164.259 22.2788 163.927 21.29 163.927 20.0596V19.9644ZM165.29 20.1255C165.29 21.0044 165.492 21.71 165.897 22.2422C166.308 22.7744 166.854 23.0405 167.538 23.0405C168.227 23.0405 168.773 22.772 169.179 22.2349C169.584 21.6929 169.787 20.936 169.787 19.9644C169.787 19.0952 169.579 18.3921 169.164 17.855C168.754 17.313 168.207 17.042 167.523 17.042C166.854 17.042 166.315 17.3081 165.905 17.8403C165.495 18.3726 165.29 19.1343 165.29 20.1255Z" fill="#09485F"/>
<path d="M66.9062 39.9023C66.9062 39.4297 66.7402 39.0566 66.4082 38.7832C66.0762 38.5059 65.4688 38.2441 64.5859 37.998C63.7031 37.748 63.0586 37.4766 62.6523 37.1836C62.0742 36.7695 61.7852 36.2266 61.7852 35.5547C61.7852 34.9023 62.0527 34.373 62.5879 33.9668C63.127 33.5566 63.8145 33.3516 64.6504 33.3516C65.2168 33.3516 65.7227 33.4609 66.168 33.6797C66.6172 33.8984 66.9648 34.2031 67.2109 34.5938C67.457 34.9844 67.5801 35.4199 67.5801 35.9004H66.8535C66.8535 35.3184 66.6543 34.8516 66.2559 34.5C65.8574 34.1445 65.3223 33.9668 64.6504 33.9668C63.998 33.9668 63.4785 34.1133 63.0918 34.4062C62.7051 34.6953 62.5117 35.0742 62.5117 35.543C62.5117 35.9766 62.6855 36.3301 63.0332 36.6035C63.3809 36.877 63.9375 37.1191 64.7031 37.3301C65.4688 37.5371 66.0488 37.7539 66.4434 37.9805C66.8379 38.2031 67.1348 38.4707 67.334 38.7832C67.5332 39.0957 67.6328 39.4648 67.6328 39.8906C67.6328 40.5625 67.3633 41.1016 66.8242 41.5078C66.2891 41.9141 65.582 42.1172 64.7031 42.1172C64.1016 42.1172 63.5488 42.0098 63.0449 41.7949C62.5449 41.5801 62.1641 41.2793 61.9023 40.8926C61.6445 40.5059 61.5156 40.0625 61.5156 39.5625H62.2363C62.2363 40.1641 62.4609 40.6387 62.9102 40.9863C63.3594 41.334 63.957 41.5078 64.7031 41.5078C65.3672 41.5078 65.9004 41.3613 66.3027 41.0684C66.7051 40.7754 66.9062 40.3867 66.9062 39.9023ZM73.0293 42C72.959 41.8008 72.9141 41.5059 72.8945 41.1152C72.6484 41.4355 72.334 41.6836 71.9512 41.8594C71.5723 42.0312 71.1699 42.1172 70.7441 42.1172C70.1348 42.1172 69.6406 41.9473 69.2617 41.6074C68.8867 41.2676 68.6992 40.8379 68.6992 40.3184C68.6992 39.7012 68.9551 39.2129 69.4668 38.8535C69.9824 38.4941 70.6992 38.3145 71.6172 38.3145H72.8887V37.5938C72.8887 37.1406 72.748 36.7852 72.4668 36.5273C72.1895 36.2656 71.7832 36.1348 71.248 36.1348C70.7598 36.1348 70.3555 36.2598 70.0352 36.5098C69.7148 36.7598 69.5547 37.0605 69.5547 37.4121L68.8516 37.4062C68.8516 36.9023 69.0859 36.4668 69.5547 36.0996C70.0234 35.7285 70.5996 35.543 71.2832 35.543C71.9902 35.543 72.5469 35.7207 72.9531 36.0762C73.3633 36.4277 73.5742 36.9199 73.5859 37.5527V40.5527C73.5859 41.166 73.6504 41.625 73.7793 41.9297V42H73.0293ZM70.8262 41.4961C71.2949 41.4961 71.7129 41.3828 72.0801 41.1562C72.4512 40.9297 72.7207 40.627 72.8887 40.248V38.8535H71.6348C70.9355 38.8613 70.3887 38.9902 69.9941 39.2402C69.5996 39.4863 69.4023 39.8262 69.4023 40.2598C69.4023 40.6152 69.5332 40.9102 69.7949 41.1445C70.0605 41.3789 70.4043 41.4961 70.8262 41.4961ZM76.2461 42H75.543V33H76.2461V42ZM82.1582 42C82.0879 41.8008 82.043 41.5059 82.0234 41.1152C81.7773 41.4355 81.4629 41.6836 81.0801 41.8594C80.7012 42.0312 80.2988 42.1172 79.873 42.1172C79.2637 42.1172 78.7695 41.9473 78.3906 41.6074C78.0156 41.2676 77.8281 40.8379 77.8281 40.3184C77.8281 39.7012 78.084 39.2129 78.5957 38.8535C79.1113 38.4941 79.8281 38.3145 80.7461 38.3145H82.0176V37.5938C82.0176 37.1406 81.877 36.7852 81.5957 36.5273C81.3184 36.2656 80.9121 36.1348 80.377 36.1348C79.8887 36.1348 79.4844 36.2598 79.1641 36.5098C78.8438 36.7598 78.6836 37.0605 78.6836 37.4121L77.9805 37.4062C77.9805 36.9023 78.2148 36.4668 78.6836 36.0996C79.1523 35.7285 79.7285 35.543 80.4121 35.543C81.1191 35.543 81.6758 35.7207 82.082 36.0762C82.4922 36.4277 82.7031 36.9199 82.7148 37.5527V40.5527C82.7148 41.166 82.7793 41.625 82.9082 41.9297V42H82.1582ZM79.9551 41.4961C80.4238 41.4961 80.8418 41.3828 81.209 41.1562C81.5801 40.9297 81.8496 40.627 82.0176 40.248V38.8535H80.7637C80.0645 38.8613 79.5176 38.9902 79.123 39.2402C78.7285 39.4863 78.5312 39.8262 78.5312 40.2598C78.5312 40.6152 78.6621 40.9102 78.9238 41.1445C79.1895 41.3789 79.5332 41.4961 79.9551 41.4961Z" fill="#09485F"/>
<path d="M216.238 38.9102H212.248V42.3906H216.836V43H211.527V34.4688H216.807V35.084H212.248V38.3008H216.238V38.9102ZM220.422 42.5254C220.91 42.5254 221.318 42.3887 221.646 42.1152C221.979 41.8379 222.158 41.4805 222.186 41.043H222.859C222.84 41.4297 222.719 41.7832 222.496 42.1035C222.273 42.4199 221.977 42.668 221.605 42.8477C221.238 43.0273 220.844 43.1172 220.422 43.1172C219.59 43.1172 218.93 42.8281 218.441 42.25C217.957 41.6719 217.715 40.8945 217.715 39.918V39.707C217.715 39.082 217.824 38.5293 218.043 38.0488C218.262 37.5684 218.574 37.1973 218.98 36.9355C219.391 36.6738 219.869 36.543 220.416 36.543C221.111 36.543 221.684 36.75 222.133 37.1641C222.586 37.5781 222.828 38.123 222.859 38.7988H222.186C222.154 38.3027 221.975 37.9023 221.646 37.5977C221.322 37.293 220.912 37.1406 220.416 37.1406C219.783 37.1406 219.291 37.3691 218.939 37.8262C218.592 38.2832 218.418 38.9238 218.418 39.748V39.9531C218.418 40.7617 218.592 41.3926 218.939 41.8457C219.291 42.2988 219.785 42.5254 220.422 42.5254ZM223.879 39.7363C223.879 39.127 223.996 38.5781 224.23 38.0898C224.469 37.6016 224.803 37.2227 225.232 36.9531C225.666 36.6797 226.156 36.543 226.703 36.543C227.547 36.543 228.23 36.8398 228.754 37.4336C229.277 38.0234 229.539 38.8066 229.539 39.7832V39.9297C229.539 40.543 229.42 41.0957 229.182 41.5879C228.947 42.0762 228.615 42.4531 228.186 42.7188C227.756 42.9844 227.266 43.1172 226.715 43.1172C225.875 43.1172 225.191 42.8223 224.664 42.2324C224.141 41.6387 223.879 40.8535 223.879 39.877V39.7363ZM224.582 39.9297C224.582 40.6875 224.777 41.3105 225.168 41.7988C225.562 42.2832 226.078 42.5254 226.715 42.5254C227.348 42.5254 227.859 42.2832 228.25 41.7988C228.645 41.3105 228.842 40.668 228.842 39.8711V39.7363C228.842 39.252 228.752 38.8086 228.572 38.4062C228.393 38.0039 228.141 37.6934 227.816 37.4746C227.492 37.252 227.121 37.1406 226.703 37.1406C226.078 37.1406 225.568 37.3867 225.174 37.8789C224.779 38.3672 224.582 39.0078 224.582 39.8008V39.9297ZM231.66 36.6602L231.684 37.7441C231.922 37.3535 232.219 37.0566 232.574 36.8535C232.93 36.6465 233.322 36.543 233.752 36.543C234.432 36.543 234.938 36.7344 235.27 37.1172C235.602 37.5 235.77 38.0742 235.773 38.8398V43H235.076V38.834C235.072 38.2676 234.951 37.8457 234.713 37.5684C234.479 37.291 234.102 37.1523 233.582 37.1523C233.148 37.1523 232.764 37.2891 232.428 37.5625C232.096 37.832 231.85 38.1973 231.689 38.6582V43H230.992V36.6602H231.66ZM237.203 39.7363C237.203 39.127 237.32 38.5781 237.555 38.0898C237.793 37.6016 238.127 37.2227 238.557 36.9531C238.99 36.6797 239.48 36.543 240.027 36.543C240.871 36.543 241.555 36.8398 242.078 37.4336C242.602 38.0234 242.863 38.8066 242.863 39.7832V39.9297C242.863 40.543 242.744 41.0957 242.506 41.5879C242.271 42.0762 241.939 42.4531 241.51 42.7188C241.08 42.9844 240.59 43.1172 240.039 43.1172C239.199 43.1172 238.516 42.8223 237.988 42.2324C237.465 41.6387 237.203 40.8535 237.203 39.877V39.7363ZM237.906 39.9297C237.906 40.6875 238.102 41.3105 238.492 41.7988C238.887 42.2832 239.402 42.5254 240.039 42.5254C240.672 42.5254 241.184 42.2832 241.574 41.7988C241.969 41.3105 242.166 40.668 242.166 39.8711V39.7363C242.166 39.252 242.076 38.8086 241.896 38.4062C241.717 38.0039 241.465 37.6934 241.141 37.4746C240.816 37.252 240.445 37.1406 240.027 37.1406C239.402 37.1406 238.893 37.3867 238.498 37.8789C238.104 38.3672 237.906 39.0078 237.906 39.8008V39.9297ZM244.955 36.6602L244.979 37.6914C245.213 37.3086 245.506 37.0215 245.857 36.8301C246.209 36.6387 246.6 36.543 247.029 36.543C248.029 36.543 248.664 36.9531 248.934 37.7734C249.16 37.3789 249.463 37.0762 249.842 36.8652C250.221 36.6504 250.639 36.543 251.096 36.543C252.455 36.543 253.148 37.2852 253.176 38.7695V43H252.473V38.8223C252.469 38.2559 252.346 37.8359 252.104 37.5625C251.865 37.2891 251.475 37.1523 250.932 37.1523C250.428 37.1602 250.002 37.3242 249.654 37.6445C249.307 37.9609 249.113 38.3477 249.074 38.8047V43H248.371V38.7695C248.367 38.2266 248.238 37.8223 247.984 37.5566C247.734 37.2871 247.348 37.1523 246.824 37.1523C246.383 37.1523 246.004 37.2793 245.688 37.5332C245.371 37.7832 245.137 38.1562 244.984 38.6523V43H244.281V36.6602H244.955ZM255.742 43H255.039V36.6602H255.742V43ZM254.916 34.8262C254.916 34.6934 254.959 34.582 255.045 34.4922C255.131 34.3984 255.248 34.3516 255.396 34.3516C255.545 34.3516 255.662 34.3984 255.748 34.4922C255.838 34.582 255.883 34.6934 255.883 34.8262C255.883 34.959 255.838 35.0703 255.748 35.1602C255.662 35.25 255.545 35.2949 255.396 35.2949C255.248 35.2949 255.131 35.25 255.045 35.1602C254.959 35.0703 254.916 34.959 254.916 34.8262ZM258.115 42.4082H262.234V43H257.248V42.4844L261.092 37.2637H257.365V36.6602H261.977V37.1816L258.115 42.4082ZM267.49 43C267.42 42.8008 267.375 42.5059 267.355 42.1152C267.109 42.4355 266.795 42.6836 266.412 42.8594C266.033 43.0312 265.631 43.1172 265.205 43.1172C264.596 43.1172 264.102 42.9473 263.723 42.6074C263.348 42.2676 263.16 41.8379 263.16 41.3184C263.16 40.7012 263.416 40.2129 263.928 39.8535C264.443 39.4941 265.16 39.3145 266.078 39.3145H267.35V38.5938C267.35 38.1406 267.209 37.7852 266.928 37.5273C266.65 37.2656 266.244 37.1348 265.709 37.1348C265.221 37.1348 264.816 37.2598 264.496 37.5098C264.176 37.7598 264.016 38.0605 264.016 38.4121L263.312 38.4062C263.312 37.9023 263.547 37.4668 264.016 37.0996C264.484 36.7285 265.061 36.543 265.744 36.543C266.451 36.543 267.008 36.7207 267.414 37.0762C267.824 37.4277 268.035 37.9199 268.047 38.5527V41.5527C268.047 42.166 268.111 42.625 268.24 42.9297V43H267.49ZM265.287 42.4961C265.756 42.4961 266.174 42.3828 266.541 42.1562C266.912 41.9297 267.182 41.627 267.35 41.248V39.8535H266.096C265.396 39.8613 264.85 39.9902 264.455 40.2402C264.061 40.4863 263.863 40.8262 263.863 41.2598C263.863 41.6152 263.994 41.9102 264.256 42.1445C264.521 42.3789 264.865 42.4961 265.287 42.4961ZM270.59 36.6602L270.613 37.7441C270.852 37.3535 271.148 37.0566 271.504 36.8535C271.859 36.6465 272.252 36.543 272.682 36.543C273.361 36.543 273.867 36.7344 274.199 37.1172C274.531 37.5 274.699 38.0742 274.703 38.8398V43H274.006V38.834C274.002 38.2676 273.881 37.8457 273.643 37.5684C273.408 37.291 273.031 37.1523 272.512 37.1523C272.078 37.1523 271.693 37.2891 271.357 37.5625C271.025 37.832 270.779 38.1973 270.619 38.6582V43H269.922V36.6602H270.59ZM276.238 39.7715C276.238 38.7871 276.457 38.0039 276.895 37.4219C277.336 36.8359 277.934 36.543 278.688 36.543C279.543 36.543 280.195 36.8809 280.645 37.5566V34H281.342V43H280.686L280.656 42.1562C280.207 42.7969 279.547 43.1172 278.676 43.1172C277.945 43.1172 277.355 42.8242 276.906 42.2383C276.461 41.6484 276.238 40.8535 276.238 39.8535V39.7715ZM276.947 39.8945C276.947 40.7031 277.109 41.3418 277.434 41.8105C277.758 42.2754 278.215 42.5078 278.805 42.5078C279.668 42.5078 280.281 42.127 280.645 41.3652V38.3887C280.281 37.5645 279.672 37.1523 278.816 37.1523C278.227 37.1523 277.768 37.3848 277.439 37.8496C277.111 38.3105 276.947 38.9922 276.947 39.8945ZM282.801 39.7363C282.801 39.127 282.918 38.5781 283.152 38.0898C283.391 37.6016 283.725 37.2227 284.154 36.9531C284.588 36.6797 285.078 36.543 285.625 36.543C286.469 36.543 287.152 36.8398 287.676 37.4336C288.199 38.0234 288.461 38.8066 288.461 39.7832V39.9297C288.461 40.543 288.342 41.0957 288.104 41.5879C287.869 42.0762 287.537 42.4531 287.107 42.7188C286.678 42.9844 286.188 43.1172 285.637 43.1172C284.797 43.1172 284.113 42.8223 283.586 42.2324C283.062 41.6387 282.801 40.8535 282.801 39.877V39.7363ZM283.504 39.9297C283.504 40.6875 283.699 41.3105 284.09 41.7988C284.484 42.2832 285 42.5254 285.637 42.5254C286.27 42.5254 286.781 42.2832 287.172 41.7988C287.566 41.3105 287.764 40.668 287.764 39.8711V39.7363C287.764 39.252 287.674 38.8086 287.494 38.4062C287.314 38.0039 287.062 37.6934 286.738 37.4746C286.414 37.252 286.043 37.1406 285.625 37.1406C285 37.1406 284.49 37.3867 284.096 37.8789C283.701 38.3672 283.504 39.0078 283.504 39.8008V39.9297Z" fill="#09485F"/>
<path d="M248.314 29H246.952V19.9692L244.22 20.9727V19.7422L248.102 18.2847H248.314V29ZM258.971 24.4517C258.971 26.0386 258.7 27.2178 258.158 27.9893C257.616 28.7607 256.769 29.1465 255.616 29.1465C254.479 29.1465 253.636 28.7705 253.089 28.0186C252.542 27.2617 252.259 26.1338 252.24 24.6348V22.8257C252.24 21.2583 252.511 20.0938 253.053 19.332C253.595 18.5703 254.444 18.1895 255.602 18.1895C256.749 18.1895 257.594 18.5581 258.136 19.2954C258.678 20.0278 258.956 21.1606 258.971 22.6938V24.4517ZM257.616 22.5986C257.616 21.4512 257.455 20.6162 257.132 20.0938C256.81 19.5664 256.3 19.3027 255.602 19.3027C254.908 19.3027 254.403 19.564 254.085 20.0864C253.768 20.6089 253.604 21.4121 253.595 22.4961V24.6641C253.595 25.8164 253.761 26.6685 254.093 27.2202C254.43 27.7671 254.938 28.0405 255.616 28.0405C256.285 28.0405 256.781 27.7817 257.103 27.2642C257.43 26.7466 257.601 25.9312 257.616 24.8179V22.5986ZM263.058 25.3306L262.208 26.2168V29H260.853V17.75H262.208V24.5542L262.933 23.6826L265.401 21.0752H267.049L263.966 24.3857L267.408 29H265.819L263.058 25.3306ZM270.96 25.6382L271.166 27.0444L271.466 25.7773L273.575 18.3359H274.762L276.82 25.7773L277.113 27.0664L277.34 25.6309L278.995 18.3359H280.409L277.823 29H276.542L274.344 21.229L274.176 20.416L274.007 21.229L271.729 29H270.448L267.87 18.3359H269.276L270.96 25.6382ZM283.119 22.0347C283.719 21.2974 284.5 20.9287 285.462 20.9287C287.137 20.9287 287.982 21.8735 287.997 23.7632V29H286.642V23.7559C286.637 23.1846 286.505 22.7622 286.246 22.4888C285.992 22.2153 285.594 22.0786 285.052 22.0786C284.613 22.0786 284.227 22.1958 283.895 22.4302C283.563 22.6646 283.304 22.9722 283.119 23.353V29H281.764V17.75H283.119V22.0347Z" fill="#9F9C9C"/>
<circle cx="232" cy="23" r="5" fill="#A7DC10"/>
<g clip-path="url(#clip0)">
<g clip-path="url(#clip1)">
<rect width="0" height="0" transform="translate(-113 -151)" fill="white"/>
</g>
</g>
<defs>
<clipPath id="clip0">
<rect width="32" height="32" fill="white" transform="translate(19 13)"/>
</clipPath>
<clipPath id="clip1">
<rect width="0" height="0" fill="white" transform="translate(-113 -151)"/>
</clipPath>
</defs>
</svg>
