<svg width="143" height="120" viewBox="0 0 143 120" fill="none" xmlns="http://www.w3.org/2000/svg">
<path d="M0 20.5157C0 9.1852 9.1852 0 20.5157 0H122.484C133.815 0 143 9.1852 143 20.5157V99.4843C143 110.815 133.815 120 122.484 120H20.5157C9.18521 120 0 110.815 0 99.4843V20.5157Z" fill="#ECEFF0"/>
<g clip-path="url(#clip0)">
<g clip-path="url(#clip1)">
<rect width="0" height="0" transform="translate(-117 -90)" fill="white"/>
</g>
</g>
<path d="M21.1265 26.2168H16.6587L15.6553 29H14.2051L18.2773 18.3359H19.5078L23.5874 29H22.1445L21.1265 26.2168ZM17.0835 25.0596H20.709L18.8926 20.0718L17.0835 25.0596ZM28.6411 22.291C28.436 22.2568 28.2139 22.2397 27.9746 22.2397C27.0859 22.2397 26.4829 22.6182 26.1655 23.375V29H24.8105V21.0752H26.1289L26.1509 21.9907C26.5952 21.2827 27.2251 20.9287 28.0405 20.9287C28.3042 20.9287 28.5044 20.9629 28.6411 21.0312V22.291ZM41.6709 25.6162C41.5391 26.7441 41.1216 27.6157 40.4185 28.231C39.7202 28.8413 38.79 29.1465 37.6279 29.1465C36.3682 29.1465 35.3574 28.6948 34.5957 27.7915C33.8389 26.8882 33.4604 25.6797 33.4604 24.166V23.1406C33.4604 22.1494 33.6362 21.2778 33.9878 20.5259C34.3442 19.7739 34.8472 19.1978 35.4966 18.7974C36.146 18.3921 36.8979 18.1895 37.7524 18.1895C38.8853 18.1895 39.7935 18.5068 40.4771 19.1416C41.1606 19.7715 41.5586 20.6455 41.6709 21.7637H40.2573C40.1353 20.9141 39.8691 20.2988 39.459 19.918C39.0537 19.5371 38.4849 19.3467 37.7524 19.3467C36.854 19.3467 36.1484 19.6787 35.6357 20.3428C35.1279 21.0068 34.874 21.9517 34.874 23.1772V24.21C34.874 25.3672 35.1157 26.2876 35.5991 26.9712C36.0825 27.6548 36.7588 27.9966 37.6279 27.9966C38.4092 27.9966 39.0073 27.8208 39.4224 27.4692C39.8423 27.1128 40.1206 26.4951 40.2573 25.6162H41.6709ZM43.0259 24.9644C43.0259 24.188 43.1772 23.4897 43.48 22.8696C43.7876 22.2495 44.2124 21.771 44.7544 21.4341C45.3013 21.0972 45.9238 20.9287 46.6221 20.9287C47.7012 20.9287 48.5728 21.3022 49.2368 22.0493C49.9058 22.7964 50.2402 23.79 50.2402 25.0303V25.1255C50.2402 25.897 50.0913 26.5903 49.7935 27.2056C49.5005 27.8159 49.0781 28.292 48.5264 28.6338C47.9795 28.9756 47.3496 29.1465 46.6367 29.1465C45.5625 29.1465 44.6909 28.7729 44.022 28.0259C43.3579 27.2788 43.0259 26.29 43.0259 25.0596V24.9644ZM44.3882 25.1255C44.3882 26.0044 44.5908 26.71 44.9961 27.2422C45.4062 27.7744 45.9531 28.0405 46.6367 28.0405C47.3252 28.0405 47.8721 27.772 48.2773 27.2349C48.6826 26.6929 48.8853 25.936 48.8853 24.9644C48.8853 24.0952 48.6777 23.3921 48.2627 22.855C47.8525 22.313 47.3057 22.042 46.6221 22.042C45.9531 22.042 45.4136 22.3081 45.0034 22.8403C44.5933 23.3726 44.3882 24.1343 44.3882 25.1255ZM53.2212 21.0752L53.2651 22.0713C53.8706 21.3096 54.6616 20.9287 55.6382 20.9287C57.313 20.9287 58.1577 21.8735 58.1724 23.7632V29H56.8174V23.7559C56.8125 23.1846 56.6807 22.7622 56.4219 22.4888C56.168 22.2153 55.77 22.0786 55.228 22.0786C54.7886 22.0786 54.4028 22.1958 54.0708 22.4302C53.7388 22.6646 53.48 22.9722 53.2944 23.353V29H51.9395V21.0752H53.2212ZM59.8862 24.9717C59.8862 23.7559 60.1743 22.7793 60.7505 22.042C61.3267 21.2998 62.0811 20.9287 63.0137 20.9287C63.9414 20.9287 64.6763 21.2461 65.2183 21.8809V17.75H66.5732V29H65.3281L65.2622 28.1504C64.7202 28.8145 63.9658 29.1465 62.999 29.1465C62.0811 29.1465 61.3315 28.7705 60.7505 28.0186C60.1743 27.2666 59.8862 26.2852 59.8862 25.0742V24.9717ZM61.2412 25.1255C61.2412 26.0239 61.4268 26.7271 61.7979 27.2349C62.1689 27.7427 62.6816 27.9966 63.3359 27.9966C64.1953 27.9966 64.8228 27.6108 65.2183 26.8394V23.1992C64.813 22.4521 64.1904 22.0786 63.3506 22.0786C62.6865 22.0786 62.1689 22.335 61.7979 22.8477C61.4268 23.3604 61.2412 24.1196 61.2412 25.1255ZM70.1548 29H68.7998V21.0752H70.1548V29ZM68.6899 18.9731C68.6899 18.7534 68.7559 18.5679 68.8877 18.4165C69.0244 18.2651 69.2246 18.1895 69.4883 18.1895C69.752 18.1895 69.9521 18.2651 70.0889 18.4165C70.2256 18.5679 70.2939 18.7534 70.2939 18.9731C70.2939 19.1929 70.2256 19.376 70.0889 19.5225C69.9521 19.6689 69.752 19.7422 69.4883 19.7422C69.2246 19.7422 69.0244 19.6689 68.8877 19.5225C68.7559 19.376 68.6899 19.1929 68.6899 18.9731ZM75.5088 28.0405C75.9922 28.0405 76.4146 27.894 76.7759 27.6011C77.1372 27.3081 77.3374 26.9419 77.3765 26.5024H78.6582C78.6338 26.9565 78.4775 27.3887 78.1895 27.7988C77.9014 28.209 77.5156 28.5361 77.0322 28.7803C76.5537 29.0244 76.0459 29.1465 75.5088 29.1465C74.4297 29.1465 73.5703 28.7876 72.9307 28.0698C72.2959 27.3472 71.9785 26.3608 71.9785 25.1108V24.8838C71.9785 24.1123 72.1201 23.4263 72.4033 22.8257C72.6865 22.2251 73.0918 21.7588 73.6191 21.4268C74.1514 21.0947 74.7788 20.9287 75.5015 20.9287C76.3901 20.9287 77.1274 21.1948 77.7134 21.7271C78.3042 22.2593 78.6191 22.9502 78.6582 23.7998H77.3765C77.3374 23.2871 77.1421 22.8672 76.7905 22.54C76.4438 22.208 76.0142 22.042 75.5015 22.042C74.813 22.042 74.2783 22.291 73.8975 22.7891C73.5215 23.2822 73.3335 23.9976 73.3335 24.9351V25.1914C73.3335 26.1045 73.5215 26.8076 73.8975 27.3008C74.2734 27.7939 74.8105 28.0405 75.5088 28.0405ZM81.6538 29H80.2988V21.0752H81.6538V29ZM80.189 18.9731C80.189 18.7534 80.2549 18.5679 80.3867 18.4165C80.5234 18.2651 80.7236 18.1895 80.9873 18.1895C81.251 18.1895 81.4512 18.2651 81.5879 18.4165C81.7246 18.5679 81.793 18.7534 81.793 18.9731C81.793 19.1929 81.7246 19.376 81.5879 19.5225C81.4512 19.6689 81.251 19.7422 80.9873 19.7422C80.7236 19.7422 80.5234 19.6689 80.3867 19.5225C80.2549 19.376 80.189 19.1929 80.189 18.9731ZM83.4702 24.9644C83.4702 24.188 83.6216 23.4897 83.9243 22.8696C84.2319 22.2495 84.6567 21.771 85.1987 21.4341C85.7456 21.0972 86.3682 20.9287 87.0664 20.9287C88.1455 20.9287 89.0171 21.3022 89.6812 22.0493C90.3501 22.7964 90.6846 23.79 90.6846 25.0303V25.1255C90.6846 25.897 90.5356 26.5903 90.2378 27.2056C89.9448 27.8159 89.5225 28.292 88.9707 28.6338C88.4238 28.9756 87.7939 29.1465 87.0811 29.1465C86.0068 29.1465 85.1353 28.7729 84.4663 28.0259C83.8022 27.2788 83.4702 26.29 83.4702 25.0596V24.9644ZM84.8325 25.1255C84.8325 26.0044 85.0352 26.71 85.4404 27.2422C85.8506 27.7744 86.3975 28.0405 87.0811 28.0405C87.7695 28.0405 88.3164 27.772 88.7217 27.2349C89.127 26.6929 89.3296 25.936 89.3296 24.9644C89.3296 24.0952 89.1221 23.3921 88.707 22.855C88.2969 22.313 87.75 22.042 87.0664 22.042C86.3975 22.042 85.8579 22.3081 85.4478 22.8403C85.0376 23.3726 84.8325 24.1343 84.8325 25.1255ZM93.6655 21.0752L93.7095 22.0713C94.3149 21.3096 95.106 20.9287 96.0825 20.9287C97.7573 20.9287 98.6021 21.8735 98.6167 23.7632V29H97.2617V23.7559C97.2568 23.1846 97.125 22.7622 96.8662 22.4888C96.6123 22.2153 96.2144 22.0786 95.6724 22.0786C95.2329 22.0786 94.8472 22.1958 94.5151 22.4302C94.1831 22.6646 93.9243 22.9722 93.7388 23.353V29H92.3838V21.0752H93.6655ZM105.553 29C105.475 28.8438 105.411 28.5654 105.362 28.165C104.732 28.8193 103.98 29.1465 103.106 29.1465C102.325 29.1465 101.683 28.9268 101.18 28.4873C100.682 28.043 100.433 27.4814 100.433 26.8027C100.433 25.9775 100.746 25.3379 101.371 24.8838C102 24.4248 102.884 24.1953 104.022 24.1953H105.34V23.5728C105.34 23.0991 105.199 22.7231 104.916 22.4448C104.632 22.1616 104.215 22.02 103.663 22.02C103.18 22.02 102.774 22.1421 102.447 22.3862C102.12 22.6304 101.957 22.9258 101.957 23.2725H100.594C100.594 22.877 100.733 22.4961 101.012 22.1299C101.295 21.7588 101.676 21.4658 102.154 21.251C102.638 21.0361 103.167 20.9287 103.744 20.9287C104.657 20.9287 105.372 21.1582 105.89 21.6172C106.407 22.0713 106.676 22.6987 106.695 23.4995V27.147C106.695 27.8745 106.788 28.4531 106.974 28.8828V29H105.553ZM103.304 27.9673C103.729 27.9673 104.132 27.8574 104.513 27.6377C104.894 27.418 105.169 27.1323 105.34 26.7808V25.1548H104.278C102.618 25.1548 101.788 25.6406 101.788 26.6123C101.788 27.0371 101.93 27.3691 102.213 27.6084C102.496 27.8477 102.86 27.9673 103.304 27.9673ZM108.49 24.9717C108.49 23.7559 108.778 22.7793 109.354 22.042C109.93 21.2998 110.685 20.9287 111.617 20.9287C112.545 20.9287 113.28 21.2461 113.822 21.8809V17.75H115.177V29H113.932L113.866 28.1504C113.324 28.8145 112.569 29.1465 111.603 29.1465C110.685 29.1465 109.935 28.7705 109.354 28.0186C108.778 27.2666 108.49 26.2852 108.49 25.0742V24.9717ZM109.845 25.1255C109.845 26.0239 110.03 26.7271 110.401 27.2349C110.772 27.7427 111.285 27.9966 111.939 27.9966C112.799 27.9966 113.426 27.6108 113.822 26.8394V23.1992C113.417 22.4521 112.794 22.0786 111.954 22.0786C111.29 22.0786 110.772 22.335 110.401 22.8477C110.03 23.3604 109.845 24.1196 109.845 25.1255ZM116.927 24.9644C116.927 24.188 117.079 23.4897 117.381 22.8696C117.689 22.2495 118.114 21.771 118.656 21.4341C119.203 21.0972 119.825 20.9287 120.523 20.9287C121.603 20.9287 122.474 21.3022 123.138 22.0493C123.807 22.7964 124.142 23.79 124.142 25.0303V25.1255C124.142 25.897 123.993 26.5903 123.695 27.2056C123.402 27.8159 122.979 28.292 122.428 28.6338C121.881 28.9756 121.251 29.1465 120.538 29.1465C119.464 29.1465 118.592 28.7729 117.923 28.0259C117.259 27.2788 116.927 26.29 116.927 25.0596V24.9644ZM118.29 25.1255C118.29 26.0044 118.492 26.71 118.897 27.2422C119.308 27.7744 119.854 28.0405 120.538 28.0405C121.227 28.0405 121.773 27.772 122.179 27.2349C122.584 26.6929 122.787 25.936 122.787 24.9644C122.787 24.0952 122.579 23.3921 122.164 22.855C121.754 22.313 121.207 22.042 120.523 22.042C119.854 22.042 119.315 22.3081 118.905 22.8403C118.495 23.3726 118.29 24.1343 118.29 25.1255Z" fill="#09485F"/>
<path d="M17.6504 49.9453L17.6973 50.127L17.75 49.9453L20.4336 42.4688H21.2246L18.0488 51H17.3574L14.1816 42.4688H14.9668L17.6504 49.9453ZM21.6641 47.7363C21.6641 47.127 21.7812 46.5781 22.0156 46.0898C22.2539 45.6016 22.5879 45.2227 23.0176 44.9531C23.4512 44.6797 23.9414 44.543 24.4883 44.543C25.332 44.543 26.0156 44.8398 26.5391 45.4336C27.0625 46.0234 27.3242 46.8066 27.3242 47.7832V47.9297C27.3242 48.543 27.2051 49.0957 26.9668 49.5879C26.7324 50.0762 26.4004 50.4531 25.9707 50.7188C25.541 50.9844 25.0508 51.1172 24.5 51.1172C23.6602 51.1172 22.9766 50.8223 22.4492 50.2324C21.9258 49.6387 21.6641 48.8535 21.6641 47.877V47.7363ZM22.3672 47.9297C22.3672 48.6875 22.5625 49.3105 22.9531 49.7988C23.3477 50.2832 23.8633 50.5254 24.5 50.5254C25.1328 50.5254 25.6445 50.2832 26.0352 49.7988C26.4297 49.3105 26.627 48.668 26.627 47.8711V47.7363C26.627 47.252 26.5371 46.8086 26.3574 46.4062C26.1777 46.0039 25.9258 45.6934 25.6016 45.4746C25.2773 45.252 24.9062 45.1406 24.4883 45.1406C23.8633 45.1406 23.3535 45.3867 22.959 45.8789C22.5645 46.3672 22.3672 47.0078 22.3672 47.8008V47.9297ZM29.5625 51H28.8594V42H29.5625V51ZM32.5625 43.0371V44.6602H33.875V45.2344H32.5625V49.459C32.5625 49.8105 32.625 50.0723 32.75 50.2441C32.8789 50.416 33.0918 50.502 33.3887 50.502C33.5059 50.502 33.6953 50.4824 33.957 50.4434L33.9863 51.0176C33.8027 51.084 33.5527 51.1172 33.2363 51.1172C32.7559 51.1172 32.4062 50.9785 32.1875 50.7012C31.9688 50.4199 31.8594 50.0078 31.8594 49.4648V45.2344H30.6934V44.6602H31.8594V43.0371H32.5625ZM39.3301 51C39.2598 50.8008 39.2148 50.5059 39.1953 50.1152C38.9492 50.4355 38.6348 50.6836 38.252 50.8594C37.873 51.0312 37.4707 51.1172 37.0449 51.1172C36.4355 51.1172 35.9414 50.9473 35.5625 50.6074C35.1875 50.2676 35 49.8379 35 49.3184C35 48.7012 35.2559 48.2129 35.7676 47.8535C36.2832 47.4941 37 47.3145 37.918 47.3145H39.1895V46.5938C39.1895 46.1406 39.0488 45.7852 38.7676 45.5273C38.4902 45.2656 38.084 45.1348 37.5488 45.1348C37.0605 45.1348 36.6562 45.2598 36.3359 45.5098C36.0156 45.7598 35.8555 46.0605 35.8555 46.4121L35.1523 46.4062C35.1523 45.9023 35.3867 45.4668 35.8555 45.0996C36.3242 44.7285 36.9004 44.543 37.584 44.543C38.291 44.543 38.8477 44.7207 39.2539 45.0762C39.6641 45.4277 39.875 45.9199 39.8867 46.5527V49.5527C39.8867 50.166 39.9512 50.625 40.0801 50.9297V51H39.3301ZM37.127 50.4961C37.5957 50.4961 38.0137 50.3828 38.3809 50.1562C38.752 49.9297 39.0215 49.627 39.1895 49.248V47.8535H37.9355C37.2363 47.8613 36.6895 47.9902 36.2949 48.2402C35.9004 48.4863 35.7031 48.8262 35.7031 49.2598C35.7031 49.6152 35.834 49.9102 36.0957 50.1445C36.3613 50.3789 36.7051 50.4961 37.127 50.4961ZM45.5586 49.3887C45.5586 49.041 45.418 48.7617 45.1367 48.5508C44.8594 48.3398 44.4395 48.1758 43.877 48.0586C43.3145 47.9375 42.877 47.8008 42.5645 47.6484C42.2559 47.4922 42.0254 47.3027 41.873 47.0801C41.7246 46.8574 41.6504 46.5879 41.6504 46.2715C41.6504 45.7715 41.8594 45.3594 42.2773 45.0352C42.6953 44.707 43.2305 44.543 43.8828 44.543C44.5898 44.543 45.1562 44.7188 45.582 45.0703C46.0117 45.418 46.2266 45.873 46.2266 46.4355H45.5234C45.5234 46.0645 45.3672 45.7559 45.0547 45.5098C44.7461 45.2637 44.3555 45.1406 43.8828 45.1406C43.4219 45.1406 43.0508 45.2441 42.7695 45.4512C42.4922 45.6543 42.3535 45.9199 42.3535 46.248C42.3535 46.5645 42.4688 46.8105 42.6992 46.9863C42.9336 47.1582 43.3574 47.3164 43.9707 47.4609C44.5879 47.6055 45.0488 47.7598 45.3535 47.9238C45.6621 48.0879 45.8906 48.2852 46.0391 48.5156C46.1875 48.7461 46.2617 49.0254 46.2617 49.3535C46.2617 49.8887 46.0449 50.3164 45.6113 50.6367C45.1816 50.957 44.6191 51.1172 43.9238 51.1172C43.1855 51.1172 42.5859 50.9395 42.125 50.584C41.668 50.2246 41.4395 49.7715 41.4395 49.2246H42.1426C42.1699 49.6348 42.3418 49.9551 42.6582 50.1855C42.9785 50.4121 43.4004 50.5254 43.9238 50.5254C44.4121 50.5254 44.8066 50.418 45.1074 50.2031C45.4082 49.9883 45.5586 49.7168 45.5586 49.3887ZM54.1133 47.4492H51.6348V51H50.9082V42.4688H53.6797C54.5898 42.4688 55.3008 42.6895 55.8125 43.1309C56.3242 43.5723 56.5801 44.1895 56.5801 44.9824C56.5801 45.5293 56.4199 46.0117 56.0996 46.4297C55.7793 46.8477 55.3496 47.1367 54.8105 47.2969L56.9434 50.9238V51H56.1758L54.1133 47.4492ZM51.6348 46.834H53.8438C54.4492 46.834 54.9355 46.6621 55.3027 46.3184C55.6699 45.9746 55.8535 45.5293 55.8535 44.9824C55.8535 44.3809 55.6621 43.9141 55.2793 43.582C54.8965 43.25 54.3594 43.084 53.668 43.084H51.6348V46.834ZM63.2422 47.0156H59.2637V51H58.543V42.4688H63.8281V43.084H59.2637V46.4004H63.2422V47.0156ZM68.2812 51H67.5781V43.3125L65.2578 44.1738V43.5176L68.1641 42.4395H68.2812V51ZM75.9805 48.252H77.3105V48.8438H75.9805V51H75.2773V48.8438H71.2637V48.4453L75.2129 42.4688H75.9805V48.252ZM72.125 48.252H75.2773V43.377L74.9668 43.916L72.125 48.252ZM83.4746 47.4434C83.4746 48.6465 83.2539 49.5605 82.8125 50.1855C82.3711 50.8066 81.7207 51.1172 80.8613 51.1172C80.0176 51.1172 79.3711 50.8125 78.9219 50.2031C78.4727 49.5898 78.2422 48.6992 78.2305 47.5312V46.002C78.2305 44.8027 78.4531 43.8945 78.8984 43.2773C79.3438 42.6602 79.9941 42.3516 80.8496 42.3516C81.6934 42.3516 82.3379 42.6504 82.7832 43.248C83.2285 43.8418 83.459 44.7188 83.4746 45.8789V47.4434ZM82.7715 45.9141C82.7715 44.9375 82.6113 44.1992 82.291 43.6992C81.9746 43.1992 81.4941 42.9492 80.8496 42.9492C80.2168 42.9492 79.7402 43.1934 79.4199 43.6816C79.0996 44.1699 78.9355 44.8906 78.9277 45.8438V47.5195C78.9277 48.4922 79.0918 49.2363 79.4199 49.752C79.752 50.2676 80.2324 50.5254 80.8613 50.5254C81.4863 50.5254 81.959 50.2734 82.2793 49.7695C82.6035 49.2656 82.7676 48.5273 82.7715 47.5547V45.9141Z" fill="#09485F"/>
<path d="M103.35 70.1973C103.35 70.9824 103.213 71.6719 102.939 72.2656C102.67 72.8594 102.283 73.3164 101.779 73.6367C101.275 73.957 100.693 74.1172 100.033 74.1172C99.0371 74.1172 98.2324 73.7617 97.6191 73.0508C97.0059 72.3359 96.6992 71.373 96.6992 70.1621V69.2832C96.6992 68.5059 96.8359 67.8184 97.1094 67.2207C97.3867 66.6191 97.7773 66.1582 98.2812 65.8379C98.7852 65.5137 99.3652 65.3516 100.021 65.3516C100.678 65.3516 101.256 65.5098 101.756 65.8262C102.26 66.1426 102.648 66.5898 102.922 67.168C103.195 67.7461 103.338 68.416 103.35 69.1777V70.1973ZM102.629 69.2715C102.629 68.2441 102.396 67.4395 101.932 66.8574C101.467 66.2754 100.83 65.9844 100.021 65.9844C99.2285 65.9844 98.5957 66.2773 98.123 66.8633C97.6543 67.4453 97.4199 68.2598 97.4199 69.3066V70.1973C97.4199 71.209 97.6543 72.0117 98.123 72.6055C98.5918 73.1953 99.2285 73.4902 100.033 73.4902C100.85 73.4902 101.486 73.1992 101.943 72.6172C102.4 72.0312 102.629 71.2168 102.629 70.1738V69.2715ZM105.506 74V68.2344H104.457V67.6602H105.506V66.8926C105.506 66.2441 105.67 65.7461 105.998 65.3984C106.33 65.0508 106.791 64.877 107.381 64.877C107.646 64.877 107.895 64.9102 108.125 64.9766L108.072 65.5625C107.877 65.5156 107.664 65.4922 107.434 65.4922C107.047 65.4922 106.746 65.6133 106.531 65.8555C106.316 66.0938 106.209 66.4336 106.209 66.875V67.6602H107.721V68.2344H106.209V74H105.506ZM109.479 74V68.2344H108.43V67.6602H109.479V66.8926C109.479 66.2441 109.643 65.7461 109.971 65.3984C110.303 65.0508 110.764 64.877 111.354 64.877C111.619 64.877 111.867 64.9102 112.098 64.9766L112.045 65.5625C111.85 65.5156 111.637 65.4922 111.406 65.4922C111.02 65.4922 110.719 65.6133 110.504 65.8555C110.289 66.0938 110.182 66.4336 110.182 66.875V67.6602H111.693V68.2344H110.182V74H109.479Z" fill="#09485F"/>
<path d="M82.5 90C82.5 84.7533 86.7533 80.5 92 80.5H114C119.247 80.5 123.5 84.7533 123.5 90C123.5 95.2467 119.247 99.5 114 99.5H92C86.7533 99.5 82.5 95.2467 82.5 90Z" stroke="#09485F"/>
<path d="M81 90C81 84.4772 85.4772 80 91 80H94C99.5228 80 104 84.4772 104 90C104 95.5228 99.5228 100 94 100H91C85.4772 100 81 95.5228 81 90Z" fill="#09485F"/>
<defs>
<clipPath id="clip0">
<rect width="32" height="32" fill="white" transform="translate(15 74)"/>
</clipPath>
<clipPath id="clip1">
<rect width="0" height="0" fill="white" transform="translate(-117 -90)"/>
</clipPath>
</defs>
</svg>
