<svg width="321" height="60" viewBox="0 0 321 60" fill="none" xmlns="http://www.w3.org/2000/svg">
<path d="M0 20.5157C0 9.1852 9.1852 0 20.5157 0H300.484C311.815 0 321 9.1852 321 20.5157V39.4843C321 50.8148 311.815 60 300.484 60H20.5157C9.1852 60 0 50.8148 0 39.4843V20.5157Z" fill="#ECEFF0"/>
<path d="M191.223 40.6094H187.35L186.471 43H185.715L188.943 34.4688H189.629L192.857 43H192.107L191.223 40.6094ZM187.572 39.9941H190.994L189.283 35.3477L187.572 39.9941ZM196.297 42.5254C196.785 42.5254 197.193 42.3887 197.521 42.1152C197.854 41.8379 198.033 41.4805 198.061 41.043H198.734C198.715 41.4297 198.594 41.7832 198.371 42.1035C198.148 42.4199 197.852 42.668 197.48 42.8477C197.113 43.0273 196.719 43.1172 196.297 43.1172C195.465 43.1172 194.805 42.8281 194.316 42.25C193.832 41.6719 193.59 40.8945 193.59 39.918V39.707C193.59 39.082 193.699 38.5293 193.918 38.0488C194.137 37.5684 194.449 37.1973 194.855 36.9355C195.266 36.6738 195.744 36.543 196.291 36.543C196.986 36.543 197.559 36.75 198.008 37.1641C198.461 37.5781 198.703 38.123 198.734 38.7988H198.061C198.029 38.3027 197.85 37.9023 197.521 37.5977C197.197 37.293 196.787 37.1406 196.291 37.1406C195.658 37.1406 195.166 37.3691 194.814 37.8262C194.467 38.2832 194.293 38.9238 194.293 39.748V39.9531C194.293 40.7617 194.467 41.3926 194.814 41.8457C195.166 42.2988 195.66 42.5254 196.297 42.5254ZM200.926 43H200.223V36.6602H200.926V43ZM200.1 34.8262C200.1 34.6934 200.143 34.582 200.229 34.4922C200.314 34.3984 200.432 34.3516 200.58 34.3516C200.729 34.3516 200.846 34.3984 200.932 34.4922C201.021 34.582 201.066 34.6934 201.066 34.8262C201.066 34.959 201.021 35.0703 200.932 35.1602C200.846 35.25 200.729 35.2949 200.58 35.2949C200.432 35.2949 200.314 35.25 200.229 35.1602C200.143 35.0703 200.1 34.959 200.1 34.8262ZM203.475 36.6602L203.498 37.6914C203.732 37.3086 204.025 37.0215 204.377 36.8301C204.729 36.6387 205.119 36.543 205.549 36.543C206.549 36.543 207.184 36.9531 207.453 37.7734C207.68 37.3789 207.982 37.0762 208.361 36.8652C208.74 36.6504 209.158 36.543 209.615 36.543C210.975 36.543 211.668 37.2852 211.695 38.7695V43H210.992V38.8223C210.988 38.2559 210.865 37.8359 210.623 37.5625C210.385 37.2891 209.994 37.1523 209.451 37.1523C208.947 37.1602 208.521 37.3242 208.174 37.6445C207.826 37.9609 207.633 38.3477 207.594 38.8047V43H206.891V38.7695C206.887 38.2266 206.758 37.8223 206.504 37.5566C206.254 37.2871 205.867 37.1523 205.344 37.1523C204.902 37.1523 204.523 37.2793 204.207 37.5332C203.891 37.7832 203.656 38.1562 203.504 38.6523V43H202.801V36.6602H203.475ZM217.479 43C217.408 42.8008 217.363 42.5059 217.344 42.1152C217.098 42.4355 216.783 42.6836 216.4 42.8594C216.021 43.0312 215.619 43.1172 215.193 43.1172C214.584 43.1172 214.09 42.9473 213.711 42.6074C213.336 42.2676 213.148 41.8379 213.148 41.3184C213.148 40.7012 213.404 40.2129 213.916 39.8535C214.432 39.4941 215.148 39.3145 216.066 39.3145H217.338V38.5938C217.338 38.1406 217.197 37.7852 216.916 37.5273C216.639 37.2656 216.232 37.1348 215.697 37.1348C215.209 37.1348 214.805 37.2598 214.484 37.5098C214.164 37.7598 214.004 38.0605 214.004 38.4121L213.301 38.4062C213.301 37.9023 213.535 37.4668 214.004 37.0996C214.473 36.7285 215.049 36.543 215.732 36.543C216.439 36.543 216.996 36.7207 217.402 37.0762C217.812 37.4277 218.023 37.9199 218.035 38.5527V41.5527C218.035 42.166 218.1 42.625 218.229 42.9297V43H217.479ZM215.275 42.4961C215.744 42.4961 216.162 42.3828 216.529 42.1562C216.9 41.9297 217.17 41.627 217.338 41.248V39.8535H216.084C215.385 39.8613 214.838 39.9902 214.443 40.2402C214.049 40.4863 213.852 40.8262 213.852 41.2598C213.852 41.6152 213.982 41.9102 214.244 42.1445C214.51 42.3789 214.854 42.4961 215.275 42.4961ZM222.547 39.7715C222.547 38.7871 222.766 38.0039 223.203 37.4219C223.645 36.8359 224.242 36.543 224.996 36.543C225.852 36.543 226.504 36.8809 226.953 37.5566V34H227.65V43H226.994L226.965 42.1562C226.516 42.7969 225.855 43.1172 224.984 43.1172C224.254 43.1172 223.664 42.8242 223.215 42.2383C222.77 41.6484 222.547 40.8535 222.547 39.8535V39.7715ZM223.256 39.8945C223.256 40.7031 223.418 41.3418 223.742 41.8105C224.066 42.2754 224.523 42.5078 225.113 42.5078C225.977 42.5078 226.59 42.127 226.953 41.3652V38.3887C226.59 37.5645 225.98 37.1523 225.125 37.1523C224.535 37.1523 224.076 37.3848 223.748 37.8496C223.42 38.3105 223.256 38.9922 223.256 39.8945ZM229.109 39.7363C229.109 39.127 229.227 38.5781 229.461 38.0898C229.699 37.6016 230.033 37.2227 230.463 36.9531C230.896 36.6797 231.387 36.543 231.934 36.543C232.777 36.543 233.461 36.8398 233.984 37.4336C234.508 38.0234 234.77 38.8066 234.77 39.7832V39.9297C234.77 40.543 234.65 41.0957 234.412 41.5879C234.178 42.0762 233.846 42.4531 233.416 42.7188C232.986 42.9844 232.496 43.1172 231.945 43.1172C231.105 43.1172 230.422 42.8223 229.895 42.2324C229.371 41.6387 229.109 40.8535 229.109 39.877V39.7363ZM229.812 39.9297C229.812 40.6875 230.008 41.3105 230.398 41.7988C230.793 42.2832 231.309 42.5254 231.945 42.5254C232.578 42.5254 233.09 42.2832 233.48 41.7988C233.875 41.3105 234.072 40.668 234.072 39.8711V39.7363C234.072 39.252 233.982 38.8086 233.803 38.4062C233.623 38.0039 233.371 37.6934 233.047 37.4746C232.723 37.252 232.352 37.1406 231.934 37.1406C231.309 37.1406 230.799 37.3867 230.404 37.8789C230.01 38.3672 229.812 39.0078 229.812 39.8008V39.9297ZM241.596 43.1172C241.057 43.1172 240.568 42.9844 240.131 42.7188C239.697 42.4531 239.359 42.084 239.117 41.6113C238.875 41.1348 238.754 40.6016 238.754 40.0117V39.7598C238.754 39.1504 238.871 38.6016 239.105 38.1133C239.344 37.625 239.674 37.2422 240.096 36.9648C240.518 36.6836 240.975 36.543 241.467 36.543C242.236 36.543 242.846 36.8066 243.295 37.334C243.748 37.8574 243.975 38.5742 243.975 39.4844V39.877H239.451V40.0117C239.451 40.7305 239.656 41.3301 240.066 41.8105C240.48 42.2871 241 42.5254 241.625 42.5254C242 42.5254 242.33 42.457 242.615 42.3203C242.904 42.1836 243.166 41.9648 243.4 41.6641L243.84 41.998C243.324 42.7441 242.576 43.1172 241.596 43.1172ZM241.467 37.1406C240.939 37.1406 240.494 37.334 240.131 37.7207C239.771 38.1074 239.553 38.627 239.475 39.2793H243.277V39.2031C243.258 38.5938 243.084 38.0977 242.756 37.7148C242.428 37.332 241.998 37.1406 241.467 37.1406ZM249.137 41.3887C249.137 41.041 248.996 40.7617 248.715 40.5508C248.438 40.3398 248.018 40.1758 247.455 40.0586C246.893 39.9375 246.455 39.8008 246.143 39.6484C245.834 39.4922 245.604 39.3027 245.451 39.0801C245.303 38.8574 245.229 38.5879 245.229 38.2715C245.229 37.7715 245.438 37.3594 245.855 37.0352C246.273 36.707 246.809 36.543 247.461 36.543C248.168 36.543 248.734 36.7188 249.16 37.0703C249.59 37.418 249.805 37.873 249.805 38.4355H249.102C249.102 38.0645 248.945 37.7559 248.633 37.5098C248.324 37.2637 247.934 37.1406 247.461 37.1406C247 37.1406 246.629 37.2441 246.348 37.4512C246.07 37.6543 245.932 37.9199 245.932 38.248C245.932 38.5645 246.047 38.8105 246.277 38.9863C246.512 39.1582 246.936 39.3164 247.549 39.4609C248.166 39.6055 248.627 39.7598 248.932 39.9238C249.24 40.0879 249.469 40.2852 249.617 40.5156C249.766 40.7461 249.84 41.0254 249.84 41.3535C249.84 41.8887 249.623 42.3164 249.189 42.6367C248.76 42.957 248.197 43.1172 247.502 43.1172C246.764 43.1172 246.164 42.9395 245.703 42.584C245.246 42.2246 245.018 41.7715 245.018 41.2246H245.721C245.748 41.6348 245.92 41.9551 246.236 42.1855C246.557 42.4121 246.979 42.5254 247.502 42.5254C247.99 42.5254 248.385 42.418 248.686 42.2031C248.986 41.9883 249.137 41.7168 249.137 41.3887ZM256.52 39.8945C256.52 40.8828 256.301 41.668 255.863 42.25C255.426 42.8281 254.84 43.1172 254.105 43.1172C253.238 43.1172 252.574 42.8125 252.113 42.2031V45.4375H251.416V36.6602H252.066L252.102 37.5566C252.559 36.8809 253.221 36.543 254.088 36.543C254.846 36.543 255.439 36.8301 255.869 37.4043C256.303 37.9785 256.52 38.7754 256.52 39.7949V39.8945ZM255.816 39.7715C255.816 38.9629 255.65 38.3242 255.318 37.8555C254.986 37.3867 254.523 37.1523 253.93 37.1523C253.5 37.1523 253.131 37.2559 252.822 37.4629C252.514 37.6699 252.277 37.9707 252.113 38.3652V41.4062C252.281 41.7695 252.521 42.0469 252.834 42.2383C253.146 42.4297 253.516 42.5254 253.941 42.5254C254.531 42.5254 254.99 42.291 255.318 41.8223C255.65 41.3496 255.816 40.666 255.816 39.7715ZM260.533 43.1172C259.994 43.1172 259.506 42.9844 259.068 42.7188C258.635 42.4531 258.297 42.084 258.055 41.6113C257.812 41.1348 257.691 40.6016 257.691 40.0117V39.7598C257.691 39.1504 257.809 38.6016 258.043 38.1133C258.281 37.625 258.611 37.2422 259.033 36.9648C259.455 36.6836 259.912 36.543 260.404 36.543C261.174 36.543 261.783 36.8066 262.232 37.334C262.686 37.8574 262.912 38.5742 262.912 39.4844V39.877H258.389V40.0117C258.389 40.7305 258.594 41.3301 259.004 41.8105C259.418 42.2871 259.938 42.5254 260.562 42.5254C260.938 42.5254 261.268 42.457 261.553 42.3203C261.842 42.1836 262.104 41.9648 262.338 41.6641L262.777 41.998C262.262 42.7441 261.514 43.1172 260.533 43.1172ZM260.404 37.1406C259.877 37.1406 259.432 37.334 259.068 37.7207C258.709 38.1074 258.49 38.627 258.412 39.2793H262.215V39.2031C262.195 38.5938 262.021 38.0977 261.693 37.7148C261.365 37.332 260.936 37.1406 260.404 37.1406ZM267.207 37.2578C267.059 37.2305 266.9 37.2168 266.732 37.2168C266.295 37.2168 265.924 37.3398 265.619 37.5859C265.318 37.8281 265.104 38.1816 264.975 38.6465V43H264.277V36.6602H264.963L264.975 37.668C265.346 36.918 265.941 36.543 266.762 36.543C266.957 36.543 267.111 36.5684 267.225 36.6191L267.207 37.2578ZM272.088 43C272.018 42.8008 271.973 42.5059 271.953 42.1152C271.707 42.4355 271.393 42.6836 271.01 42.8594C270.631 43.0312 270.229 43.1172 269.803 43.1172C269.193 43.1172 268.699 42.9473 268.32 42.6074C267.945 42.2676 267.758 41.8379 267.758 41.3184C267.758 40.7012 268.014 40.2129 268.525 39.8535C269.041 39.4941 269.758 39.3145 270.676 39.3145H271.947V38.5938C271.947 38.1406 271.807 37.7852 271.525 37.5273C271.248 37.2656 270.842 37.1348 270.307 37.1348C269.818 37.1348 269.414 37.2598 269.094 37.5098C268.773 37.7598 268.613 38.0605 268.613 38.4121L267.91 38.4062C267.91 37.9023 268.145 37.4668 268.613 37.0996C269.082 36.7285 269.658 36.543 270.342 36.543C271.049 36.543 271.605 36.7207 272.012 37.0762C272.422 37.4277 272.633 37.9199 272.645 38.5527V41.5527C272.645 42.166 272.709 42.625 272.838 42.9297V43H272.088ZM269.885 42.4961C270.354 42.4961 270.771 42.3828 271.139 42.1562C271.51 41.9297 271.779 41.627 271.947 41.248V39.8535H270.693C269.994 39.8613 269.447 39.9902 269.053 40.2402C268.658 40.4863 268.461 40.8262 268.461 41.2598C268.461 41.6152 268.592 41.9102 268.854 42.1445C269.119 42.3789 269.463 42.4961 269.885 42.4961ZM274.238 39.7715C274.238 38.7871 274.457 38.0039 274.895 37.4219C275.336 36.8359 275.934 36.543 276.688 36.543C277.543 36.543 278.195 36.8809 278.645 37.5566V34H279.342V43H278.686L278.656 42.1562C278.207 42.7969 277.547 43.1172 276.676 43.1172C275.945 43.1172 275.355 42.8242 274.906 42.2383C274.461 41.6484 274.238 40.8535 274.238 39.8535V39.7715ZM274.947 39.8945C274.947 40.7031 275.109 41.3418 275.434 41.8105C275.758 42.2754 276.215 42.5078 276.805 42.5078C277.668 42.5078 278.281 42.127 278.645 41.3652V38.3887C278.281 37.5645 277.672 37.1523 276.816 37.1523C276.227 37.1523 275.768 37.3848 275.439 37.8496C275.111 38.3105 274.947 38.9922 274.947 39.8945ZM280.801 39.7363C280.801 39.127 280.918 38.5781 281.152 38.0898C281.391 37.6016 281.725 37.2227 282.154 36.9531C282.588 36.6797 283.078 36.543 283.625 36.543C284.469 36.543 285.152 36.8398 285.676 37.4336C286.199 38.0234 286.461 38.8066 286.461 39.7832V39.9297C286.461 40.543 286.342 41.0957 286.104 41.5879C285.869 42.0762 285.537 42.4531 285.107 42.7188C284.678 42.9844 284.188 43.1172 283.637 43.1172C282.797 43.1172 282.113 42.8223 281.586 42.2324C281.062 41.6387 280.801 40.8535 280.801 39.877V39.7363ZM281.504 39.9297C281.504 40.6875 281.699 41.3105 282.09 41.7988C282.484 42.2832 283 42.5254 283.637 42.5254C284.27 42.5254 284.781 42.2832 285.172 41.7988C285.566 41.3105 285.764 40.668 285.764 39.8711V39.7363C285.764 39.252 285.674 38.8086 285.494 38.4062C285.314 38.0039 285.062 37.6934 284.738 37.4746C284.414 37.252 284.043 37.1406 283.625 37.1406C283 37.1406 282.49 37.3867 282.096 37.8789C281.701 38.3672 281.504 39.0078 281.504 39.8008V39.9297Z" fill="#09485F"/>
<path d="M256.751 21.1191C256.751 21.6514 256.609 22.125 256.326 22.54C256.048 22.9551 255.669 23.2798 255.191 23.5142C255.748 23.7534 256.187 24.1025 256.509 24.5615C256.836 25.0205 257 25.5405 257 26.1216C257 27.0444 256.688 27.7793 256.062 28.3262C255.442 28.873 254.625 29.1465 253.609 29.1465C252.583 29.1465 251.761 28.873 251.141 28.3262C250.525 27.7744 250.218 27.0396 250.218 26.1216C250.218 25.5454 250.374 25.0254 250.687 24.5615C251.004 24.0977 251.441 23.7461 251.998 23.5068C251.524 23.2725 251.15 22.9478 250.877 22.5327C250.604 22.1177 250.467 21.6465 250.467 21.1191C250.467 20.2207 250.755 19.5078 251.331 18.9805C251.907 18.4531 252.667 18.1895 253.609 18.1895C254.546 18.1895 255.303 18.4531 255.879 18.9805C256.46 19.5078 256.751 20.2207 256.751 21.1191ZM255.645 26.0923C255.645 25.4966 255.455 25.0107 255.074 24.6348C254.698 24.2588 254.205 24.0708 253.594 24.0708C252.984 24.0708 252.493 24.2563 252.122 24.6274C251.756 24.9985 251.573 25.4868 251.573 26.0923C251.573 26.6978 251.751 27.1738 252.107 27.5205C252.469 27.8672 252.969 28.0405 253.609 28.0405C254.244 28.0405 254.742 27.8672 255.103 27.5205C255.464 27.1689 255.645 26.6929 255.645 26.0923ZM253.609 19.3027C253.077 19.3027 252.645 19.4688 252.312 19.8008C251.985 20.1279 251.822 20.5747 251.822 21.1411C251.822 21.6831 251.983 22.1226 252.305 22.4595C252.632 22.7915 253.067 22.9575 253.609 22.9575C254.151 22.9575 254.583 22.7915 254.905 22.4595C255.232 22.1226 255.396 21.6831 255.396 21.1411C255.396 20.5991 255.228 20.1572 254.891 19.8154C254.554 19.4736 254.126 19.3027 253.609 19.3027ZM261.058 25.3306L260.208 26.2168V29H258.853V17.75H260.208V24.5542L260.933 23.6826L263.401 21.0752H265.049L261.966 24.3857L265.408 29H263.819L261.058 25.3306ZM268.96 25.6382L269.166 27.0444L269.466 25.7773L271.575 18.3359H272.762L274.82 25.7773L275.113 27.0664L275.34 25.6309L276.995 18.3359H278.409L275.823 29H274.542L272.344 21.229L272.176 20.416L272.007 21.229L269.729 29H268.448L265.87 18.3359H267.276L268.96 25.6382ZM281.119 22.0347C281.719 21.2974 282.5 20.9287 283.462 20.9287C285.137 20.9287 285.982 21.8735 285.997 23.7632V29H284.642V23.7559C284.637 23.1846 284.505 22.7622 284.246 22.4888C283.992 22.2153 283.594 22.0786 283.052 22.0786C282.613 22.0786 282.227 22.1958 281.895 22.4302C281.563 22.6646 281.304 22.9722 281.119 23.353V29H279.764V17.75H281.119V22.0347Z" fill="#9F9C9C"/>
<path d="M69.606 14.4932H66.1782V24H64.7793V14.4932H61.3589V13.3359H69.606V14.4932ZM69.8843 19.9644C69.8843 19.188 70.0356 18.4897 70.3384 17.8696C70.646 17.2495 71.0708 16.771 71.6128 16.4341C72.1597 16.0972 72.7822 15.9287 73.4805 15.9287C74.5596 15.9287 75.4312 16.3022 76.0952 17.0493C76.7642 17.7964 77.0986 18.79 77.0986 20.0303V20.1255C77.0986 20.897 76.9497 21.5903 76.6519 22.2056C76.3589 22.8159 75.9365 23.292 75.3848 23.6338C74.8379 23.9756 74.208 24.1465 73.4951 24.1465C72.4209 24.1465 71.5493 23.7729 70.8804 23.0259C70.2163 22.2788 69.8843 21.29 69.8843 20.0596V19.9644ZM71.2466 20.1255C71.2466 21.0044 71.4492 21.71 71.8545 22.2422C72.2646 22.7744 72.8115 23.0405 73.4951 23.0405C74.1836 23.0405 74.7305 22.772 75.1357 22.2349C75.541 21.6929 75.7437 20.936 75.7437 19.9644C75.7437 19.0952 75.5361 18.3921 75.1211 17.855C74.7109 17.313 74.1641 17.042 73.4805 17.042C72.8115 17.042 72.272 17.3081 71.8618 17.8403C71.4517 18.3726 71.2466 19.1343 71.2466 20.1255ZM80.0723 16.0752L80.1089 16.9541C80.6899 16.2705 81.4736 15.9287 82.46 15.9287C83.5684 15.9287 84.3228 16.3535 84.7231 17.2031C84.9868 16.8223 85.3286 16.5146 85.7485 16.2803C86.1733 16.0459 86.6738 15.9287 87.25 15.9287C88.9883 15.9287 89.8721 16.8491 89.9014 18.6899V24H88.5464V18.7705C88.5464 18.2041 88.417 17.7817 88.1582 17.5034C87.8994 17.2202 87.4648 17.0786 86.8545 17.0786C86.3516 17.0786 85.9341 17.23 85.6021 17.5327C85.27 17.8306 85.0771 18.2334 85.0234 18.7412V24H83.6611V18.8071C83.6611 17.6548 83.0972 17.0786 81.9692 17.0786C81.0806 17.0786 80.4727 17.457 80.1455 18.2139V24H78.7905V16.0752H80.0723ZM96.8447 24C96.7666 23.8438 96.7031 23.5654 96.6543 23.165C96.0244 23.8193 95.2725 24.1465 94.3984 24.1465C93.6172 24.1465 92.9751 23.9268 92.4722 23.4873C91.9741 23.043 91.7251 22.4814 91.7251 21.8027C91.7251 20.9775 92.0376 20.3379 92.6626 19.8838C93.2925 19.4248 94.1763 19.1953 95.314 19.1953H96.6323V18.5728C96.6323 18.0991 96.4907 17.7231 96.2075 17.4448C95.9243 17.1616 95.5068 17.02 94.9551 17.02C94.4717 17.02 94.0664 17.1421 93.7393 17.3862C93.4121 17.6304 93.2485 17.9258 93.2485 18.2725H91.8862C91.8862 17.877 92.0254 17.4961 92.3037 17.1299C92.5869 16.7588 92.9678 16.4658 93.4463 16.251C93.9297 16.0361 94.4595 15.9287 95.0356 15.9287C95.9487 15.9287 96.6641 16.1582 97.1816 16.6172C97.6992 17.0713 97.9678 17.6987 97.9873 18.4995V22.147C97.9873 22.8745 98.0801 23.4531 98.2656 23.8828V24H96.8447ZM94.5962 22.9673C95.021 22.9673 95.4238 22.8574 95.8047 22.6377C96.1855 22.418 96.4614 22.1323 96.6323 21.7808V20.1548H95.5703C93.9102 20.1548 93.0801 20.6406 93.0801 21.6123C93.0801 22.0371 93.2217 22.3691 93.5049 22.6084C93.7881 22.8477 94.1519 22.9673 94.5962 22.9673ZM99.7817 19.9717C99.7817 18.7559 100.07 17.7793 100.646 17.042C101.222 16.2998 101.977 15.9287 102.909 15.9287C103.837 15.9287 104.572 16.2461 105.114 16.8809V12.75H106.469V24H105.224L105.158 23.1504C104.616 23.8145 103.861 24.1465 102.895 24.1465C101.977 24.1465 101.227 23.7705 100.646 23.0186C100.07 22.2666 99.7817 21.2852 99.7817 20.0742V19.9717ZM101.137 20.1255C101.137 21.0239 101.322 21.7271 101.693 22.2349C102.064 22.7427 102.577 22.9966 103.231 22.9966C104.091 22.9966 104.718 22.6108 105.114 21.8394V18.1992C104.708 17.4521 104.086 17.0786 103.246 17.0786C102.582 17.0786 102.064 17.335 101.693 17.8477C101.322 18.3604 101.137 19.1196 101.137 20.1255ZM113.471 24C113.393 23.8438 113.329 23.5654 113.28 23.165C112.65 23.8193 111.898 24.1465 111.024 24.1465C110.243 24.1465 109.601 23.9268 109.098 23.4873C108.6 23.043 108.351 22.4814 108.351 21.8027C108.351 20.9775 108.664 20.3379 109.289 19.8838C109.918 19.4248 110.802 19.1953 111.94 19.1953H113.258V18.5728C113.258 18.0991 113.117 17.7231 112.833 17.4448C112.55 17.1616 112.133 17.02 111.581 17.02C111.098 17.02 110.692 17.1421 110.365 17.3862C110.038 17.6304 109.875 17.9258 109.875 18.2725H108.512C108.512 17.877 108.651 17.4961 108.93 17.1299C109.213 16.7588 109.594 16.4658 110.072 16.251C110.556 16.0361 111.085 15.9287 111.662 15.9287C112.575 15.9287 113.29 16.1582 113.808 16.6172C114.325 17.0713 114.594 17.6987 114.613 18.4995V22.147C114.613 22.8745 114.706 23.4531 114.892 23.8828V24H113.471ZM111.222 22.9673C111.647 22.9673 112.05 22.8574 112.431 22.6377C112.812 22.418 113.087 22.1323 113.258 21.7808V20.1548H112.196C110.536 20.1548 109.706 20.6406 109.706 21.6123C109.706 22.0371 109.848 22.3691 110.131 22.6084C110.414 22.8477 110.778 22.9673 111.222 22.9673ZM124.772 24H123.41V14.9692L120.678 15.9727V14.7422L124.56 13.2847H124.772V24Z" fill="#09485F"/>
<path fill-rule="evenodd" clip-rule="evenodd" d="M19 23.0002C19 19.6864 21.687 17 25.0002 17H44.9998C48.3136 17 51 19.687 51 23.0002V42.9998C51 46.3136 48.313 49 44.9998 49H25.0002C21.6864 49 19 46.313 19 42.9998V23.0002ZM21 23.0002V42.9998C21 45.2087 22.7912 47 25.0002 47H44.9998C47.2087 47 49 45.2088 49 42.9998V23.0002C49 20.7913 47.2088 19 44.9998 19H25.0002C22.7913 19 21 20.7912 21 23.0002ZM23 26.002C23 23.2395 25.2363 21 28.002 21H41.998C44.7605 21 47 23.2363 47 26.002V39.998C47 42.7605 44.7637 45 41.998 45H28.002C25.2395 45 23 42.7637 23 39.998V26.002ZM24 26.002V39.998C24 42.2102 25.7906 44 28.002 44H41.998C44.2102 44 46 42.2094 46 39.998V26.002C46 23.7898 44.2094 22 41.998 22H28.002C25.7898 22 24 23.7906 24 26.002ZM35 42C30.0294 42 26 37.9706 26 33C26 28.0294 30.0294 24 35 24C39.9706 24 44 28.0294 44 33C44 37.9706 39.9706 42 35 42ZM35 41C39.4183 41 43 37.4183 43 33C43 28.5817 39.4183 25 35 25C30.5817 25 27 28.5817 27 33C27 37.4183 30.5817 41 35 41ZM32 35C30.8954 35 30 34.1046 30 33C30 31.8954 30.8954 31 32 31C33.1046 31 34 31.8954 34 33C34 34.1046 33.1046 35 32 35ZM32 34C32.5523 34 33 33.5523 33 33C33 32.4477 32.5523 32 32 32C31.4477 32 31 32.4477 31 33C31 33.5523 31.4477 34 32 34ZM38 35C36.8954 35 36 34.1046 36 33C36 31.8954 36.8954 31 38 31C39.1046 31 40 31.8954 40 33C40 34.1046 39.1046 35 38 35ZM38 34C38.5523 34 39 33.5523 39 33C39 32.4477 38.5523 32 38 32C37.4477 32 37 32.4477 37 33C37 33.5523 37.4477 34 38 34Z" fill="#09485F"/>
<path d="M66.9062 39.9023C66.9062 39.4297 66.7402 39.0566 66.4082 38.7832C66.0762 38.5059 65.4688 38.2441 64.5859 37.998C63.7031 37.748 63.0586 37.4766 62.6523 37.1836C62.0742 36.7695 61.7852 36.2266 61.7852 35.5547C61.7852 34.9023 62.0527 34.373 62.5879 33.9668C63.127 33.5566 63.8145 33.3516 64.6504 33.3516C65.2168 33.3516 65.7227 33.4609 66.168 33.6797C66.6172 33.8984 66.9648 34.2031 67.2109 34.5938C67.457 34.9844 67.5801 35.4199 67.5801 35.9004H66.8535C66.8535 35.3184 66.6543 34.8516 66.2559 34.5C65.8574 34.1445 65.3223 33.9668 64.6504 33.9668C63.998 33.9668 63.4785 34.1133 63.0918 34.4062C62.7051 34.6953 62.5117 35.0742 62.5117 35.543C62.5117 35.9766 62.6855 36.3301 63.0332 36.6035C63.3809 36.877 63.9375 37.1191 64.7031 37.3301C65.4688 37.5371 66.0488 37.7539 66.4434 37.9805C66.8379 38.2031 67.1348 38.4707 67.334 38.7832C67.5332 39.0957 67.6328 39.4648 67.6328 39.8906C67.6328 40.5625 67.3633 41.1016 66.8242 41.5078C66.2891 41.9141 65.582 42.1172 64.7031 42.1172C64.1016 42.1172 63.5488 42.0098 63.0449 41.7949C62.5449 41.5801 62.1641 41.2793 61.9023 40.8926C61.6445 40.5059 61.5156 40.0625 61.5156 39.5625H62.2363C62.2363 40.1641 62.4609 40.6387 62.9102 40.9863C63.3594 41.334 63.957 41.5078 64.7031 41.5078C65.3672 41.5078 65.9004 41.3613 66.3027 41.0684C66.7051 40.7754 66.9062 40.3867 66.9062 39.9023ZM73.0293 42C72.959 41.8008 72.9141 41.5059 72.8945 41.1152C72.6484 41.4355 72.334 41.6836 71.9512 41.8594C71.5723 42.0312 71.1699 42.1172 70.7441 42.1172C70.1348 42.1172 69.6406 41.9473 69.2617 41.6074C68.8867 41.2676 68.6992 40.8379 68.6992 40.3184C68.6992 39.7012 68.9551 39.2129 69.4668 38.8535C69.9824 38.4941 70.6992 38.3145 71.6172 38.3145H72.8887V37.5938C72.8887 37.1406 72.748 36.7852 72.4668 36.5273C72.1895 36.2656 71.7832 36.1348 71.248 36.1348C70.7598 36.1348 70.3555 36.2598 70.0352 36.5098C69.7148 36.7598 69.5547 37.0605 69.5547 37.4121L68.8516 37.4062C68.8516 36.9023 69.0859 36.4668 69.5547 36.0996C70.0234 35.7285 70.5996 35.543 71.2832 35.543C71.9902 35.543 72.5469 35.7207 72.9531 36.0762C73.3633 36.4277 73.5742 36.9199 73.5859 37.5527V40.5527C73.5859 41.166 73.6504 41.625 73.7793 41.9297V42H73.0293ZM70.8262 41.4961C71.2949 41.4961 71.7129 41.3828 72.0801 41.1562C72.4512 40.9297 72.7207 40.627 72.8887 40.248V38.8535H71.6348C70.9355 38.8613 70.3887 38.9902 69.9941 39.2402C69.5996 39.4863 69.4023 39.8262 69.4023 40.2598C69.4023 40.6152 69.5332 40.9102 69.7949 41.1445C70.0605 41.3789 70.4043 41.4961 70.8262 41.4961ZM76.2461 42H75.543V33H76.2461V42ZM82.1582 42C82.0879 41.8008 82.043 41.5059 82.0234 41.1152C81.7773 41.4355 81.4629 41.6836 81.0801 41.8594C80.7012 42.0312 80.2988 42.1172 79.873 42.1172C79.2637 42.1172 78.7695 41.9473 78.3906 41.6074C78.0156 41.2676 77.8281 40.8379 77.8281 40.3184C77.8281 39.7012 78.084 39.2129 78.5957 38.8535C79.1113 38.4941 79.8281 38.3145 80.7461 38.3145H82.0176V37.5938C82.0176 37.1406 81.877 36.7852 81.5957 36.5273C81.3184 36.2656 80.9121 36.1348 80.377 36.1348C79.8887 36.1348 79.4844 36.2598 79.1641 36.5098C78.8438 36.7598 78.6836 37.0605 78.6836 37.4121L77.9805 37.4062C77.9805 36.9023 78.2148 36.4668 78.6836 36.0996C79.1523 35.7285 79.7285 35.543 80.4121 35.543C81.1191 35.543 81.6758 35.7207 82.082 36.0762C82.4922 36.4277 82.7031 36.9199 82.7148 37.5527V40.5527C82.7148 41.166 82.7793 41.625 82.9082 41.9297V42H82.1582ZM79.9551 41.4961C80.4238 41.4961 80.8418 41.3828 81.209 41.1562C81.5801 40.9297 81.8496 40.627 82.0176 40.248V38.8535H80.7637C80.0645 38.8613 79.5176 38.9902 79.123 39.2402C78.7285 39.4863 78.5312 39.8262 78.5312 40.2598C78.5312 40.6152 78.6621 40.9102 78.9238 41.1445C79.1895 41.3789 79.5332 41.4961 79.9551 41.4961Z" fill="#09485F"/>
<circle cx="239" cy="23" r="5" fill="#EA5466"/>
</svg>
