<svg width="321" height="60" viewBox="0 0 321 60" fill="none" xmlns="http://www.w3.org/2000/svg">
<path d="M0 20.5157C0 9.1852 9.1852 0 20.5157 0H300.484C311.815 0 321 9.1852 321 20.5157V39.4843C321 50.8148 311.815 60 300.484 60H20.5157C9.1852 60 0 50.8148 0 39.4843V20.5157Z" fill="#ECEFF0"/>
<path d="M70.1113 22.6011C69.75 23.1187 69.2446 23.5068 68.5952 23.7656C67.9507 24.0195 67.1987 24.1465 66.3394 24.1465C65.4702 24.1465 64.6987 23.9438 64.0249 23.5386C63.3511 23.1284 62.8286 22.5474 62.4575 21.7954C62.0913 21.0435 61.9033 20.1719 61.8936 19.1807V18.2505C61.8936 16.644 62.2671 15.3989 63.0142 14.5151C63.7661 13.6313 64.8208 13.1895 66.1782 13.1895C67.2915 13.1895 68.1875 13.4751 68.8662 14.0464C69.5449 14.6128 69.96 15.4185 70.1113 16.4634H68.7051C68.4414 15.0522 67.6016 14.3467 66.1855 14.3467C65.2432 14.3467 64.5278 14.6787 64.0396 15.3428C63.5562 16.002 63.312 16.959 63.3071 18.2139V19.0854C63.3071 20.2817 63.5806 21.2339 64.1274 21.9419C64.6743 22.645 65.4141 22.9966 66.3467 22.9966C66.874 22.9966 67.3354 22.938 67.731 22.8208C68.1265 22.7036 68.4536 22.5059 68.7124 22.2275V19.8325H66.2441V18.6899H70.1113V22.6011ZM75.5386 24.1465C74.4644 24.1465 73.5903 23.7949 72.9165 23.0918C72.2427 22.3838 71.9058 21.439 71.9058 20.2573V20.0083C71.9058 19.2222 72.0547 18.5215 72.3525 17.9062C72.6553 17.2861 73.0752 16.8027 73.6123 16.4561C74.1543 16.1045 74.7402 15.9287 75.3701 15.9287C76.4004 15.9287 77.2012 16.2681 77.7725 16.9468C78.3438 17.6255 78.6294 18.5972 78.6294 19.8618V20.4258H73.2607C73.2803 21.207 73.5073 21.8394 73.9419 22.3228C74.3813 22.8013 74.938 23.0405 75.6118 23.0405C76.0903 23.0405 76.4956 22.9429 76.8276 22.7476C77.1597 22.5522 77.4502 22.2935 77.6992 21.9712L78.5269 22.6157C77.8628 23.6362 76.8667 24.1465 75.5386 24.1465ZM75.3701 17.042C74.8232 17.042 74.3643 17.2422 73.9932 17.6426C73.6221 18.0381 73.3926 18.5947 73.3047 19.3125H77.2744V19.21C77.2354 18.5215 77.0498 17.9893 76.7178 17.6133C76.3857 17.2324 75.9365 17.042 75.3701 17.042ZM81.6763 24H80.3213V12.75H81.6763V24ZM88.7441 24C88.666 23.8438 88.6025 23.5654 88.5537 23.165C87.9238 23.8193 87.1719 24.1465 86.2979 24.1465C85.5166 24.1465 84.8745 23.9268 84.3716 23.4873C83.8735 23.043 83.6245 22.4814 83.6245 21.8027C83.6245 20.9775 83.937 20.3379 84.562 19.8838C85.1919 19.4248 86.0757 19.1953 87.2134 19.1953H88.5317V18.5728C88.5317 18.0991 88.3901 17.7231 88.1069 17.4448C87.8237 17.1616 87.4062 17.02 86.8545 17.02C86.3711 17.02 85.9658 17.1421 85.6387 17.3862C85.3115 17.6304 85.1479 17.9258 85.1479 18.2725H83.7856C83.7856 17.877 83.9248 17.4961 84.2031 17.1299C84.4863 16.7588 84.8672 16.4658 85.3457 16.251C85.8291 16.0361 86.3589 15.9287 86.9351 15.9287C87.8481 15.9287 88.5635 16.1582 89.0811 16.6172C89.5986 17.0713 89.8672 17.6987 89.8867 18.4995V22.147C89.8867 22.8745 89.9795 23.4531 90.165 23.8828V24H88.7441ZM86.4956 22.9673C86.9204 22.9673 87.3232 22.8574 87.7041 22.6377C88.085 22.418 88.3608 22.1323 88.5317 21.7808V20.1548H87.4697C85.8096 20.1548 84.9795 20.6406 84.9795 21.6123C84.9795 22.0371 85.1211 22.3691 85.4043 22.6084C85.6875 22.8477 86.0513 22.9673 86.4956 22.9673ZM91.6812 19.9717C91.6812 18.7559 91.9692 17.7793 92.5454 17.042C93.1216 16.2998 93.876 15.9287 94.8086 15.9287C95.7363 15.9287 96.4712 16.2461 97.0132 16.8809V12.75H98.3682V24H97.123L97.0571 23.1504C96.5151 23.8145 95.7607 24.1465 94.7939 24.1465C93.876 24.1465 93.1265 23.7705 92.5454 23.0186C91.9692 22.2666 91.6812 21.2852 91.6812 20.0742V19.9717ZM93.0361 20.1255C93.0361 21.0239 93.2217 21.7271 93.5928 22.2349C93.9639 22.7427 94.4766 22.9966 95.1309 22.9966C95.9902 22.9966 96.6177 22.6108 97.0132 21.8394V18.1992C96.6079 17.4521 95.9854 17.0786 95.1455 17.0786C94.4814 17.0786 93.9639 17.335 93.5928 17.8477C93.2217 18.3604 93.0361 19.1196 93.0361 20.1255ZM103.766 24.1465C102.692 24.1465 101.818 23.7949 101.144 23.0918C100.47 22.3838 100.133 21.439 100.133 20.2573V20.0083C100.133 19.2222 100.282 18.5215 100.58 17.9062C100.883 17.2861 101.303 16.8027 101.84 16.4561C102.382 16.1045 102.968 15.9287 103.598 15.9287C104.628 15.9287 105.429 16.2681 106 16.9468C106.571 17.6255 106.857 18.5972 106.857 19.8618V20.4258H101.488C101.508 21.207 101.735 21.8394 102.169 22.3228C102.609 22.8013 103.166 23.0405 103.839 23.0405C104.318 23.0405 104.723 22.9429 105.055 22.7476C105.387 22.5522 105.678 22.2935 105.927 21.9712L106.754 22.6157C106.09 23.6362 105.094 24.1465 103.766 24.1465ZM103.598 17.042C103.051 17.042 102.592 17.2422 102.221 17.6426C101.85 18.0381 101.62 18.5947 101.532 19.3125H105.502V19.21C105.463 18.5215 105.277 17.9893 104.945 17.6133C104.613 17.2324 104.164 17.042 103.598 17.042ZM109.904 24H108.549V16.0752H109.904V24ZM108.439 13.9731C108.439 13.7534 108.505 13.5679 108.637 13.4165C108.773 13.2651 108.974 13.1895 109.237 13.1895C109.501 13.1895 109.701 13.2651 109.838 13.4165C109.975 13.5679 110.043 13.7534 110.043 13.9731C110.043 14.1929 109.975 14.376 109.838 14.5225C109.701 14.6689 109.501 14.7422 109.237 14.7422C108.974 14.7422 108.773 14.6689 108.637 14.5225C108.505 14.376 108.439 14.1929 108.439 13.9731ZM115.91 17.291C115.705 17.2568 115.482 17.2397 115.243 17.2397C114.354 17.2397 113.751 17.6182 113.434 18.375V24H112.079V16.0752H113.397L113.419 16.9907C113.864 16.2827 114.494 15.9287 115.309 15.9287C115.573 15.9287 115.773 15.9629 115.91 16.0312V17.291ZM121.762 24C121.684 23.8438 121.62 23.5654 121.571 23.165C120.941 23.8193 120.189 24.1465 119.315 24.1465C118.534 24.1465 117.892 23.9268 117.389 23.4873C116.891 23.043 116.642 22.4814 116.642 21.8027C116.642 20.9775 116.955 20.3379 117.58 19.8838C118.209 19.4248 119.093 19.1953 120.231 19.1953H121.549V18.5728C121.549 18.0991 121.408 17.7231 121.125 17.4448C120.841 17.1616 120.424 17.02 119.872 17.02C119.389 17.02 118.983 17.1421 118.656 17.3862C118.329 17.6304 118.166 17.9258 118.166 18.2725H116.803C116.803 17.877 116.942 17.4961 117.221 17.1299C117.504 16.7588 117.885 16.4658 118.363 16.251C118.847 16.0361 119.376 15.9287 119.953 15.9287C120.866 15.9287 121.581 16.1582 122.099 16.6172C122.616 17.0713 122.885 17.6987 122.904 18.4995V22.147C122.904 22.8745 122.997 23.4531 123.183 23.8828V24H121.762ZM119.513 22.9673C119.938 22.9673 120.341 22.8574 120.722 22.6377C121.103 22.418 121.378 22.1323 121.549 21.7808V20.1548H120.487C118.827 20.1548 117.997 20.6406 117.997 21.6123C117.997 22.0371 118.139 22.3691 118.422 22.6084C118.705 22.8477 119.069 22.9673 119.513 22.9673Z" fill="#09485F"/>
<path d="M68.1191 39.3398C68.0215 40.2383 67.6992 40.9258 67.1523 41.4023C66.6094 41.8789 65.8848 42.1172 64.9785 42.1172C64.3457 42.1172 63.7852 41.959 63.2969 41.6426C62.8125 41.3262 62.4375 40.8789 62.1719 40.3008C61.9062 39.7188 61.7715 39.0547 61.7676 38.3086V37.2012C61.7676 36.4434 61.9004 35.7715 62.166 35.1855C62.4316 34.5996 62.8125 34.1484 63.3086 33.832C63.8086 33.5117 64.3828 33.3516 65.0312 33.3516C65.9453 33.3516 66.666 33.5996 67.1934 34.0957C67.7246 34.5879 68.0332 35.2695 68.1191 36.1406H67.3926C67.2129 34.6914 66.4258 33.9668 65.0312 33.9668C64.2578 33.9668 63.6406 34.2559 63.1797 34.834C62.7227 35.4121 62.4941 36.2109 62.4941 37.2305V38.2734C62.4941 39.2578 62.7168 40.043 63.1621 40.6289C63.6113 41.2148 64.2168 41.5078 64.9785 41.5078C65.7324 41.5078 66.3008 41.3281 66.6836 40.9688C67.0664 40.6055 67.3027 40.0625 67.3926 39.3398H68.1191ZM69.3203 38.7363C69.3203 38.127 69.4375 37.5781 69.6719 37.0898C69.9102 36.6016 70.2441 36.2227 70.6738 35.9531C71.1074 35.6797 71.5977 35.543 72.1445 35.543C72.9883 35.543 73.6719 35.8398 74.1953 36.4336C74.7188 37.0234 74.9805 37.8066 74.9805 38.7832V38.9297C74.9805 39.543 74.8613 40.0957 74.623 40.5879C74.3887 41.0762 74.0566 41.4531 73.627 41.7188C73.1973 41.9844 72.707 42.1172 72.1562 42.1172C71.3164 42.1172 70.6328 41.8223 70.1055 41.2324C69.582 40.6387 69.3203 39.8535 69.3203 38.877V38.7363ZM70.0234 38.9297C70.0234 39.6875 70.2188 40.3105 70.6094 40.7988C71.0039 41.2832 71.5195 41.5254 72.1562 41.5254C72.7891 41.5254 73.3008 41.2832 73.6914 40.7988C74.0859 40.3105 74.2832 39.668 74.2832 38.8711V38.7363C74.2832 38.252 74.1934 37.8086 74.0137 37.4062C73.834 37.0039 73.582 36.6934 73.2578 36.4746C72.9336 36.252 72.5625 36.1406 72.1445 36.1406C71.5195 36.1406 71.0098 36.3867 70.6152 36.8789C70.2207 37.3672 70.0234 38.0078 70.0234 38.8008V38.9297ZM76.8027 41.4082H80.9219V42H75.9355V41.4844L79.7793 36.2637H76.0527V35.6602H80.6641V36.1816L76.8027 41.4082ZM82.9609 42H82.2578V35.6602H82.9609V42ZM82.1348 33.8262C82.1348 33.6934 82.1777 33.582 82.2637 33.4922C82.3496 33.3984 82.4668 33.3516 82.6152 33.3516C82.7637 33.3516 82.8809 33.3984 82.9668 33.4922C83.0566 33.582 83.1016 33.6934 83.1016 33.8262C83.1016 33.959 83.0566 34.0703 82.9668 34.1602C82.8809 34.25 82.7637 34.2949 82.6152 34.2949C82.4668 34.2949 82.3496 34.25 82.2637 34.1602C82.1777 34.0703 82.1348 33.959 82.1348 33.8262ZM85.5391 35.6602L85.5625 36.7441C85.8008 36.3535 86.0977 36.0566 86.4531 35.8535C86.8086 35.6465 87.2012 35.543 87.6309 35.543C88.3105 35.543 88.8164 35.7344 89.1484 36.1172C89.4805 36.5 89.6484 37.0742 89.6523 37.8398V42H88.9551V37.834C88.9512 37.2676 88.8301 36.8457 88.5918 36.5684C88.3574 36.291 87.9805 36.1523 87.4609 36.1523C87.0273 36.1523 86.6426 36.2891 86.3066 36.5625C85.9746 36.832 85.7285 37.1973 85.5684 37.6582V42H84.8711V35.6602H85.5391ZM92.166 36.7324C92.3965 36.3535 92.6914 36.0605 93.0508 35.8535C93.4102 35.6465 93.8027 35.543 94.2285 35.543C94.9082 35.543 95.4141 35.7344 95.7461 36.1172C96.0781 36.5 96.2461 37.0742 96.25 37.8398V42H95.5527V37.834C95.5488 37.2676 95.4277 36.8457 95.1895 36.5684C94.9551 36.291 94.5781 36.1523 94.0586 36.1523C93.625 36.1523 93.2402 36.2891 92.9043 36.5625C92.5723 36.832 92.3262 37.1973 92.166 37.6582V42H91.4688V33H92.166V36.7324ZM102.057 42C101.986 41.8008 101.941 41.5059 101.922 41.1152C101.676 41.4355 101.361 41.6836 100.979 41.8594C100.6 42.0312 100.197 42.1172 99.7715 42.1172C99.1621 42.1172 98.668 41.9473 98.2891 41.6074C97.9141 41.2676 97.7266 40.8379 97.7266 40.3184C97.7266 39.7012 97.9824 39.2129 98.4941 38.8535C99.0098 38.4941 99.7266 38.3145 100.645 38.3145H101.916V37.5938C101.916 37.1406 101.775 36.7852 101.494 36.5273C101.217 36.2656 100.811 36.1348 100.275 36.1348C99.7871 36.1348 99.3828 36.2598 99.0625 36.5098C98.7422 36.7598 98.582 37.0605 98.582 37.4121L97.8789 37.4062C97.8789 36.9023 98.1133 36.4668 98.582 36.0996C99.0508 35.7285 99.627 35.543 100.311 35.543C101.018 35.543 101.574 35.7207 101.98 36.0762C102.391 36.4277 102.602 36.9199 102.613 37.5527V40.5527C102.613 41.166 102.678 41.625 102.807 41.9297V42H102.057ZM99.8535 41.4961C100.322 41.4961 100.74 41.3828 101.107 41.1562C101.479 40.9297 101.748 40.627 101.916 40.248V38.8535H100.662C99.9629 38.8613 99.416 38.9902 99.0215 39.2402C98.627 39.4863 98.4297 39.8262 98.4297 40.2598C98.4297 40.6152 98.5605 40.9102 98.8223 41.1445C99.0879 41.3789 99.4316 41.4961 99.8535 41.4961Z" fill="#09485F"/>
<path d="M216.238 38.9102H212.248V42.3906H216.836V43H211.527V34.4688H216.807V35.084H212.248V38.3008H216.238V38.9102ZM220.422 42.5254C220.91 42.5254 221.318 42.3887 221.646 42.1152C221.979 41.8379 222.158 41.4805 222.186 41.043H222.859C222.84 41.4297 222.719 41.7832 222.496 42.1035C222.273 42.4199 221.977 42.668 221.605 42.8477C221.238 43.0273 220.844 43.1172 220.422 43.1172C219.59 43.1172 218.93 42.8281 218.441 42.25C217.957 41.6719 217.715 40.8945 217.715 39.918V39.707C217.715 39.082 217.824 38.5293 218.043 38.0488C218.262 37.5684 218.574 37.1973 218.98 36.9355C219.391 36.6738 219.869 36.543 220.416 36.543C221.111 36.543 221.684 36.75 222.133 37.1641C222.586 37.5781 222.828 38.123 222.859 38.7988H222.186C222.154 38.3027 221.975 37.9023 221.646 37.5977C221.322 37.293 220.912 37.1406 220.416 37.1406C219.783 37.1406 219.291 37.3691 218.939 37.8262C218.592 38.2832 218.418 38.9238 218.418 39.748V39.9531C218.418 40.7617 218.592 41.3926 218.939 41.8457C219.291 42.2988 219.785 42.5254 220.422 42.5254ZM223.879 39.7363C223.879 39.127 223.996 38.5781 224.23 38.0898C224.469 37.6016 224.803 37.2227 225.232 36.9531C225.666 36.6797 226.156 36.543 226.703 36.543C227.547 36.543 228.23 36.8398 228.754 37.4336C229.277 38.0234 229.539 38.8066 229.539 39.7832V39.9297C229.539 40.543 229.42 41.0957 229.182 41.5879C228.947 42.0762 228.615 42.4531 228.186 42.7188C227.756 42.9844 227.266 43.1172 226.715 43.1172C225.875 43.1172 225.191 42.8223 224.664 42.2324C224.141 41.6387 223.879 40.8535 223.879 39.877V39.7363ZM224.582 39.9297C224.582 40.6875 224.777 41.3105 225.168 41.7988C225.562 42.2832 226.078 42.5254 226.715 42.5254C227.348 42.5254 227.859 42.2832 228.25 41.7988C228.645 41.3105 228.842 40.668 228.842 39.8711V39.7363C228.842 39.252 228.752 38.8086 228.572 38.4062C228.393 38.0039 228.141 37.6934 227.816 37.4746C227.492 37.252 227.121 37.1406 226.703 37.1406C226.078 37.1406 225.568 37.3867 225.174 37.8789C224.779 38.3672 224.582 39.0078 224.582 39.8008V39.9297ZM231.66 36.6602L231.684 37.7441C231.922 37.3535 232.219 37.0566 232.574 36.8535C232.93 36.6465 233.322 36.543 233.752 36.543C234.432 36.543 234.938 36.7344 235.27 37.1172C235.602 37.5 235.77 38.0742 235.773 38.8398V43H235.076V38.834C235.072 38.2676 234.951 37.8457 234.713 37.5684C234.479 37.291 234.102 37.1523 233.582 37.1523C233.148 37.1523 232.764 37.2891 232.428 37.5625C232.096 37.832 231.85 38.1973 231.689 38.6582V43H230.992V36.6602H231.66ZM237.203 39.7363C237.203 39.127 237.32 38.5781 237.555 38.0898C237.793 37.6016 238.127 37.2227 238.557 36.9531C238.99 36.6797 239.48 36.543 240.027 36.543C240.871 36.543 241.555 36.8398 242.078 37.4336C242.602 38.0234 242.863 38.8066 242.863 39.7832V39.9297C242.863 40.543 242.744 41.0957 242.506 41.5879C242.271 42.0762 241.939 42.4531 241.51 42.7188C241.08 42.9844 240.59 43.1172 240.039 43.1172C239.199 43.1172 238.516 42.8223 237.988 42.2324C237.465 41.6387 237.203 40.8535 237.203 39.877V39.7363ZM237.906 39.9297C237.906 40.6875 238.102 41.3105 238.492 41.7988C238.887 42.2832 239.402 42.5254 240.039 42.5254C240.672 42.5254 241.184 42.2832 241.574 41.7988C241.969 41.3105 242.166 40.668 242.166 39.8711V39.7363C242.166 39.252 242.076 38.8086 241.896 38.4062C241.717 38.0039 241.465 37.6934 241.141 37.4746C240.816 37.252 240.445 37.1406 240.027 37.1406C239.402 37.1406 238.893 37.3867 238.498 37.8789C238.104 38.3672 237.906 39.0078 237.906 39.8008V39.9297ZM244.955 36.6602L244.979 37.6914C245.213 37.3086 245.506 37.0215 245.857 36.8301C246.209 36.6387 246.6 36.543 247.029 36.543C248.029 36.543 248.664 36.9531 248.934 37.7734C249.16 37.3789 249.463 37.0762 249.842 36.8652C250.221 36.6504 250.639 36.543 251.096 36.543C252.455 36.543 253.148 37.2852 253.176 38.7695V43H252.473V38.8223C252.469 38.2559 252.346 37.8359 252.104 37.5625C251.865 37.2891 251.475 37.1523 250.932 37.1523C250.428 37.1602 250.002 37.3242 249.654 37.6445C249.307 37.9609 249.113 38.3477 249.074 38.8047V43H248.371V38.7695C248.367 38.2266 248.238 37.8223 247.984 37.5566C247.734 37.2871 247.348 37.1523 246.824 37.1523C246.383 37.1523 246.004 37.2793 245.688 37.5332C245.371 37.7832 245.137 38.1562 244.984 38.6523V43H244.281V36.6602H244.955ZM255.742 43H255.039V36.6602H255.742V43ZM254.916 34.8262C254.916 34.6934 254.959 34.582 255.045 34.4922C255.131 34.3984 255.248 34.3516 255.396 34.3516C255.545 34.3516 255.662 34.3984 255.748 34.4922C255.838 34.582 255.883 34.6934 255.883 34.8262C255.883 34.959 255.838 35.0703 255.748 35.1602C255.662 35.25 255.545 35.2949 255.396 35.2949C255.248 35.2949 255.131 35.25 255.045 35.1602C254.959 35.0703 254.916 34.959 254.916 34.8262ZM258.115 42.4082H262.234V43H257.248V42.4844L261.092 37.2637H257.365V36.6602H261.977V37.1816L258.115 42.4082ZM267.49 43C267.42 42.8008 267.375 42.5059 267.355 42.1152C267.109 42.4355 266.795 42.6836 266.412 42.8594C266.033 43.0312 265.631 43.1172 265.205 43.1172C264.596 43.1172 264.102 42.9473 263.723 42.6074C263.348 42.2676 263.16 41.8379 263.16 41.3184C263.16 40.7012 263.416 40.2129 263.928 39.8535C264.443 39.4941 265.16 39.3145 266.078 39.3145H267.35V38.5938C267.35 38.1406 267.209 37.7852 266.928 37.5273C266.65 37.2656 266.244 37.1348 265.709 37.1348C265.221 37.1348 264.816 37.2598 264.496 37.5098C264.176 37.7598 264.016 38.0605 264.016 38.4121L263.312 38.4062C263.312 37.9023 263.547 37.4668 264.016 37.0996C264.484 36.7285 265.061 36.543 265.744 36.543C266.451 36.543 267.008 36.7207 267.414 37.0762C267.824 37.4277 268.035 37.9199 268.047 38.5527V41.5527C268.047 42.166 268.111 42.625 268.24 42.9297V43H267.49ZM265.287 42.4961C265.756 42.4961 266.174 42.3828 266.541 42.1562C266.912 41.9297 267.182 41.627 267.35 41.248V39.8535H266.096C265.396 39.8613 264.85 39.9902 264.455 40.2402C264.061 40.4863 263.863 40.8262 263.863 41.2598C263.863 41.6152 263.994 41.9102 264.256 42.1445C264.521 42.3789 264.865 42.4961 265.287 42.4961ZM270.59 36.6602L270.613 37.7441C270.852 37.3535 271.148 37.0566 271.504 36.8535C271.859 36.6465 272.252 36.543 272.682 36.543C273.361 36.543 273.867 36.7344 274.199 37.1172C274.531 37.5 274.699 38.0742 274.703 38.8398V43H274.006V38.834C274.002 38.2676 273.881 37.8457 273.643 37.5684C273.408 37.291 273.031 37.1523 272.512 37.1523C272.078 37.1523 271.693 37.2891 271.357 37.5625C271.025 37.832 270.779 38.1973 270.619 38.6582V43H269.922V36.6602H270.59ZM276.238 39.7715C276.238 38.7871 276.457 38.0039 276.895 37.4219C277.336 36.8359 277.934 36.543 278.688 36.543C279.543 36.543 280.195 36.8809 280.645 37.5566V34H281.342V43H280.686L280.656 42.1562C280.207 42.7969 279.547 43.1172 278.676 43.1172C277.945 43.1172 277.355 42.8242 276.906 42.2383C276.461 41.6484 276.238 40.8535 276.238 39.8535V39.7715ZM276.947 39.8945C276.947 40.7031 277.109 41.3418 277.434 41.8105C277.758 42.2754 278.215 42.5078 278.805 42.5078C279.668 42.5078 280.281 42.127 280.645 41.3652V38.3887C280.281 37.5645 279.672 37.1523 278.816 37.1523C278.227 37.1523 277.768 37.3848 277.439 37.8496C277.111 38.3105 276.947 38.9922 276.947 39.8945ZM282.801 39.7363C282.801 39.127 282.918 38.5781 283.152 38.0898C283.391 37.6016 283.725 37.2227 284.154 36.9531C284.588 36.6797 285.078 36.543 285.625 36.543C286.469 36.543 287.152 36.8398 287.676 37.4336C288.199 38.0234 288.461 38.8066 288.461 39.7832V39.9297C288.461 40.543 288.342 41.0957 288.104 41.5879C287.869 42.0762 287.537 42.4531 287.107 42.7188C286.678 42.9844 286.188 43.1172 285.637 43.1172C284.797 43.1172 284.113 42.8223 283.586 42.2324C283.062 41.6387 282.801 40.8535 282.801 39.877V39.7363ZM283.504 39.9297C283.504 40.6875 283.699 41.3105 284.09 41.7988C284.484 42.2832 285 42.5254 285.637 42.5254C286.27 42.5254 286.781 42.2832 287.172 41.7988C287.566 41.3105 287.764 40.668 287.764 39.8711V39.7363C287.764 39.252 287.674 38.8086 287.494 38.4062C287.314 38.0039 287.062 37.6934 286.738 37.4746C286.414 37.252 286.043 37.1406 285.625 37.1406C285 37.1406 284.49 37.3867 284.096 37.8789C283.701 38.3672 283.504 39.0078 283.504 39.8008V39.9297Z" fill="#09485F"/>
<path d="M245.831 23.0088H246.849C247.489 22.999 247.992 22.8306 248.358 22.5034C248.724 22.1763 248.907 21.7344 248.907 21.1777C248.907 19.9277 248.285 19.3027 247.04 19.3027C246.454 19.3027 245.985 19.4712 245.633 19.8081C245.287 20.1401 245.113 20.582 245.113 21.1338H243.758C243.758 20.2891 244.066 19.5884 244.681 19.0317C245.301 18.4702 246.087 18.1895 247.04 18.1895C248.045 18.1895 248.834 18.4556 249.405 18.9878C249.977 19.52 250.262 20.2598 250.262 21.207C250.262 21.6709 250.111 22.1201 249.808 22.5547C249.51 22.9893 249.103 23.314 248.585 23.5288C249.171 23.7144 249.623 24.022 249.94 24.4517C250.262 24.8813 250.423 25.4062 250.423 26.0264C250.423 26.9834 250.111 27.7427 249.486 28.3042C248.861 28.8657 248.048 29.1465 247.047 29.1465C246.046 29.1465 245.23 28.8755 244.601 28.3335C243.976 27.7915 243.663 27.0762 243.663 26.1875H245.025C245.025 26.749 245.208 27.1982 245.575 27.5352C245.941 27.8721 246.432 28.0405 247.047 28.0405C247.701 28.0405 248.202 27.8696 248.548 27.5278C248.895 27.186 249.068 26.6953 249.068 26.0557C249.068 25.4355 248.878 24.9595 248.497 24.6274C248.116 24.2954 247.567 24.1245 246.849 24.1147H245.831V23.0088ZM258.971 24.4517C258.971 26.0386 258.7 27.2178 258.158 27.9893C257.616 28.7607 256.769 29.1465 255.616 29.1465C254.479 29.1465 253.636 28.7705 253.089 28.0186C252.542 27.2617 252.259 26.1338 252.24 24.6348V22.8257C252.24 21.2583 252.511 20.0938 253.053 19.332C253.595 18.5703 254.444 18.1895 255.602 18.1895C256.749 18.1895 257.594 18.5581 258.136 19.2954C258.678 20.0278 258.956 21.1606 258.971 22.6938V24.4517ZM257.616 22.5986C257.616 21.4512 257.455 20.6162 257.132 20.0938C256.81 19.5664 256.3 19.3027 255.602 19.3027C254.908 19.3027 254.403 19.564 254.085 20.0864C253.768 20.6089 253.604 21.4121 253.595 22.4961V24.6641C253.595 25.8164 253.761 26.6685 254.093 27.2202C254.43 27.7671 254.938 28.0405 255.616 28.0405C256.285 28.0405 256.781 27.7817 257.103 27.2642C257.43 26.7466 257.601 25.9312 257.616 24.8179V22.5986ZM263.058 25.3306L262.208 26.2168V29H260.853V17.75H262.208V24.5542L262.933 23.6826L265.401 21.0752H267.049L263.966 24.3857L267.408 29H265.819L263.058 25.3306ZM270.96 25.6382L271.166 27.0444L271.466 25.7773L273.575 18.3359H274.762L276.82 25.7773L277.113 27.0664L277.34 25.6309L278.995 18.3359H280.409L277.823 29H276.542L274.344 21.229L274.176 20.416L274.007 21.229L271.729 29H270.448L267.87 18.3359H269.276L270.96 25.6382ZM283.119 22.0347C283.719 21.2974 284.5 20.9287 285.462 20.9287C287.137 20.9287 287.982 21.8735 287.997 23.7632V29H286.642V23.7559C286.637 23.1846 286.505 22.7622 286.246 22.4888C285.992 22.2153 285.594 22.0786 285.052 22.0786C284.613 22.0786 284.227 22.1958 283.895 22.4302C283.563 22.6646 283.304 22.9722 283.119 23.353V29H281.764V17.75H283.119V22.0347Z" fill="#9F9C9C"/>
<circle cx="232" cy="23" r="5" fill="#A7DC10"/>
<rect x="21" y="10" width="26.6829" height="40" rx="7" stroke="#09485F" stroke-width="2"/>
<path d="M21.0244 24.8667H48.1707" stroke="black"/>
<path d="M27.1707 15.5334V20.6668" stroke="#09485F"/>
<path d="M27.1707 30.4667V35.6" stroke="#09485F"/>
</svg>
