<svg width="30" height="31" viewBox="0 0 30 31" fill="none" xmlns="http://www.w3.org/2000/svg">
<g clip-path="url(#clip0)">
<path d="M25 14V26.1983C25 26.5662 24.9316 26.9306 24.7987 27.2705C24.6658 27.6104 24.471 27.9192 24.2255 28.1794C23.9799 28.4396 23.6884 28.6459 23.3676 28.7867C23.0467 28.9275 22.7029 29 22.3556 29H7.70381C7.34843 29 6.99653 28.9258 6.66825 28.7816C6.33997 28.6374 6.04174 28.426 5.79061 28.1596C5.53949 27.8932 5.34041 27.5769 5.20475 27.2289C5.06909 26.8809 4.99951 26.5079 5 26.1314V14" stroke="#09485F" stroke-opacity="0.5" stroke-width="2" stroke-miterlimit="10"/>
<path d="M1 14L13.837 1.49976C13.9977 1.34184 14.191 1.21611 14.4052 1.1302C14.6193 1.0443 14.8499 1 15.0829 1C15.3159 1 15.5465 1.0443 15.7607 1.1302C15.9749 1.21611 16.1682 1.34184 16.3288 1.49976L29 14" stroke="#09485F" stroke-opacity="0.5" stroke-width="2" stroke-miterlimit="10"/>
<path d="M15.0121 22.5432C15.4376 22.2703 15.8392 21.9569 16.212 21.6067C16.9046 20.9351 17.4863 20.1436 17.9327 19.2654C18.4214 18.3187 18.7486 17.2868 18.8991 16.2178C19.0608 15.113 19.0279 13.9857 18.8021 12.8938C18.5975 11.8277 18.1876 10.8186 17.5986 9.93066C17.1311 9.21784 16.5053 8.64018 15.7773 8.24949C15.5497 8.13763 15.3074 8.06384 15.0588 8.03071L14.8073 8C14.8073 8 14.8073 8.08828 14.7534 8.25716C14.6995 8.42605 14.6133 8.66018 14.5343 8.902C14.2802 9.49477 13.9922 10.0703 13.6721 10.6254C12.8861 12.0042 12.359 13.5335 12.1202 15.1277C11.9954 15.9962 11.9677 16.8775 12.0375 17.7531C12.1005 18.6056 12.2437 19.4492 12.465 20.271C12.6878 21.1979 12.9637 22.1093 13.2913 23C13.2626 22.9079 13.8877 22.0097 13.9811 21.8715C15.418 19.2538 16.1976 16.3176 15.5869 13.2815C16.1273 14.7578 16.2522 16.3708 15.9461 17.922C15.6345 19.4655 15.1521 20.964 14.5091 22.3859C14.4301 22.5739 14.3295 22.7697 14.2505 22.9501C14.4984 22.8196 14.757 22.6776 15.0121 22.5432Z" fill="#A7DC10" fill-opacity="0.5"/>
<path d="M11.0644 22.4654C10.8941 22.1462 10.6363 21.9069 10.3346 21.7883C10.033 21.6698 9.70622 21.6792 9.40976 21.815C8.98468 20.9882 8.7071 20.0661 8.59432 19.1061C8.48153 18.1461 8.53596 17.1687 8.75421 16.2348C8.97246 15.3009 9.34985 14.4305 9.86289 13.6778C10.3759 12.9252 11.0136 12.3063 11.7363 11.8598C11.7891 11.5596 11.8779 11.2701 12 11C11.1346 11.4273 10.3573 12.0728 9.72151 12.8921C9.08574 13.7113 8.60664 14.6849 8.3172 15.7458C8.02775 16.8067 7.93484 17.9297 8.04487 19.0374C8.15489 20.1452 8.46522 21.2114 8.95451 22.1626C8.72502 22.4242 8.57866 22.7723 8.54032 23.1478C8.50197 23.5233 8.57399 23.903 8.74415 24.2224L8.88858 24.4916L9.29046 24.1888L9.72059 25L10.1727 24.6561L9.74257 23.8449L10.2575 23.471L10.6908 24.2822L11.1429 23.9383L10.7096 23.1271L11.2088 22.7533L11.0644 22.4654Z" fill="#A7DC10" fill-opacity="0.5" stroke="#A7DC10" stroke-opacity="0.5" stroke-width="0.5" stroke-miterlimit="10"/>
<path d="M14.4164 22.9478C14.0469 23.9538 13.8343 24.4833 14.162 25.0771C14.6534 25.9773 15.734 26 15.7828 26C17.4455 26.0056 19.0586 25.3863 20.348 24.2472C21.6373 23.1082 22.5233 21.5198 22.8552 19.7521C23.1871 17.9843 22.9445 16.1464 22.1686 14.5509C21.3927 12.9553 20.1315 11.7006 18.5993 11C18.7178 11.2685 18.8433 11.5333 18.9793 11.7905C19.0106 11.851 19.0316 11.9115 19.0629 11.972C20.328 12.7556 21.3186 13.9713 21.8802 15.4297C22.4418 16.888 22.5428 18.5071 22.1675 20.0343C21.7923 21.5615 20.9618 22.911 19.8056 23.8725C18.6494 24.8339 17.2325 25.3532 15.7759 25.3494C15.7759 25.3494 14.9811 25.3267 14.6639 24.7405C14.3781 24.2186 14.8661 23.3411 15.4168 22.2103L14.4164 22.9478Z" fill="#A7DC10" fill-opacity="0.5" stroke="#A7DC10" stroke-opacity="0.5" stroke-width="0.5" stroke-miterlimit="10"/>
</g>
<defs>
<clipPath id="clip0">
<rect width="30" height="30.3931" fill="white"/>
</clipPath>
</defs>
</svg>
