<svg width="105" height="94" viewBox="0 0 105 114" fill="none" xmlns="http://www.w3.org/2000/svg">
<g clip-path="url(#clip0)">
<path d="M79.94 34.2199V63.7362C79.94 64.6265 79.7558 65.508 79.398 66.3305C79.0402 67.153 78.5158 67.9003 77.8546 68.5298C77.1934 69.1593 76.4085 69.6587 75.5447 69.9994C74.6809 70.3401 73.755 70.5154 72.82 70.5154H33.37C32.4131 70.5154 31.4657 70.3358 30.5818 69.9869C29.6979 69.6379 28.8949 69.1265 28.2187 68.4818C27.5426 67.8372 27.0066 67.0719 26.6413 66.2299C26.276 65.3878 26.0887 64.4854 26.09 63.5743V34.2199" stroke="#09485F" stroke-width="2" stroke-miterlimit="10"/>
<path d="M16.72 35.2291L50 2.25656C50.4166 1.84001 50.9177 1.50837 51.4729 1.28177C52.0281 1.05517 52.6259 0.938324 53.23 0.938324C53.8341 0.938324 54.4319 1.05517 54.9871 1.28177C55.5423 1.50837 56.0434 1.84001 56.46 2.25656L89.31 35.2291" stroke="#09485F" stroke-width="2" stroke-miterlimit="10"/>
<path d="M51.87 55.1759C53.0545 54.4989 54.1724 53.7213 55.21 52.8527C57.1381 51.1867 58.7574 49.2232 60 47.0447C61.3602 44.6964 62.271 42.1366 62.69 39.4847C63.1401 36.7442 63.0485 33.9477 62.42 31.2392C61.8503 28.5944 60.7095 26.0913 59.07 23.8887C57.7686 22.1204 56.0265 20.6875 54 19.7183C53.3665 19.4408 52.692 19.2578 52 19.1756L51.3 19.0994C51.3 19.0994 51.3 19.3184 51.15 19.7373C51 20.1563 50.76 20.7371 50.54 21.3369C49.8326 22.8074 49.0311 24.2351 48.14 25.612C45.952 29.0325 44.4847 32.826 43.82 36.7806C43.4727 38.9352 43.3955 41.1214 43.59 43.2933C43.7651 45.4081 44.1638 47.5007 44.78 49.5393C45.4 51.8387 46.1682 54.0995 47.08 56.309C47 56.0805 48.74 53.8525 49 53.5097C53 47.0161 55.17 39.7323 53.47 32.2008C54.9745 35.8632 55.322 39.8643 54.47 43.7122C53.6025 47.5413 52.2597 51.2585 50.47 54.7856C50.25 55.2521 49.97 55.7377 49.75 56.1852C50.44 55.8615 51.16 55.5092 51.87 55.1759Z" fill="#A7DC10"/>
<path d="M43 55.1283C42.4577 54.3152 41.6364 53.7059 40.6758 53.4038C39.7151 53.1018 38.6742 53.1258 37.73 53.4716C36.3761 51.3659 35.492 49.0174 35.1328 46.5722C34.7736 44.1271 34.9469 41.6377 35.642 39.2591C36.3372 36.8805 37.5392 34.6637 39.1732 32.7466C40.8073 30.8296 42.8384 29.2533 45.14 28.1162C45.3082 27.3516 45.5911 26.6141 45.98 25.9262C43.2237 27.0145 40.7479 28.6586 38.7229 30.7452C36.698 32.8319 35.172 35.3117 34.2501 38.0137C33.3282 40.7158 33.0323 43.576 33.3827 46.3974C33.7332 49.2188 34.7216 51.9343 36.28 54.3571C35.5491 55.0233 35.0829 55.9099 34.9608 56.8663C34.8386 57.8227 35.068 58.7898 35.61 59.6034L36.07 60.2889L37.35 59.5177L38.72 61.5838L40.16 60.7079L38.79 58.6417L40.43 57.6896L41.81 59.7557L43.25 58.8798L41.87 56.8136L43.46 55.8615L43 55.1283Z" fill="#A7DC10" stroke="#A7DC10" stroke-width="0.5" stroke-miterlimit="10"/>
<path d="M50 56.0805C48.94 58.6132 48.33 59.9462 49.27 61.441C50.68 63.7071 53.78 63.7642 53.92 63.7642C58.6898 63.7785 63.3176 62.2193 67.0165 59.3518C70.7154 56.4843 73.257 52.4855 74.2092 48.0354C75.1614 43.5852 74.4655 38.9584 72.2396 34.9416C70.0138 30.9248 66.3955 27.7661 62 26.0024C62.34 26.6784 62.7 27.3449 63.09 27.9924C63.18 28.1447 63.24 28.2971 63.33 28.4494C66.9593 30.422 69.801 33.4826 71.4121 37.154C73.0232 40.8253 73.3131 44.9011 72.2365 48.7458C71.16 52.5905 68.7775 55.9879 65.4607 58.4083C62.1438 60.8288 58.079 62.1361 53.9 62.1266C53.9 62.1266 51.62 62.0694 50.71 60.5936C49.89 59.2797 51.29 57.0707 52.87 54.2238L50 56.0805Z" fill="#A7DC10" stroke="#A7DC10" stroke-width="0.5" stroke-miterlimit="10"/>
</g>
<g clip-path="url(#clip1)">
<path d="M45.9904 97.1161H36.4085V103.944H47.8957V108.837H30.0689V81.4454H47.8957V86.3435H36.4085V92.2348H45.9904V97.1161Z" fill="#A7DC10"/>
<path d="M72.3073 99.6016L72.3463 99.7138C72.3946 102.841 71.52 105.209 69.7224 106.817C67.9249 108.425 65.3827 109.231 62.0959 109.235C58.7311 109.235 56.031 108.199 53.9958 106.127C51.9606 104.055 50.943 101.347 50.943 98.0026V92.2853C50.943 88.945 51.9234 86.2388 53.8844 84.1666C55.8453 82.0944 58.4451 81.0564 61.6836 81.0526C65.1376 81.0526 67.806 81.8606 69.689 83.4765C71.572 85.0923 72.5004 87.4451 72.4744 90.5347L72.4187 90.6469H66.2907C66.2907 88.9637 65.9342 87.763 65.2211 87.0337C64.5081 86.3043 63.3493 85.9452 61.7282 85.9452C61.0687 85.9035 60.4101 86.0408 59.8212 86.3428C59.2323 86.6448 58.7346 87.1004 58.3801 87.6621C57.5665 89.0453 57.1788 90.6406 57.2659 92.246V98.0026C57.1794 99.6342 57.6149 101.251 58.5082 102.615C58.9152 103.182 59.4567 103.638 60.0833 103.941C60.7099 104.243 61.4018 104.384 62.0959 104.348C63.5406 104.348 64.5823 103.984 65.2211 103.254C65.8599 102.525 66.1812 101.309 66.1849 99.6072L72.3073 99.6016Z" fill="#A7DC10"/>
<path d="M98.4905 97.6042C98.5425 99.1391 98.2872 100.669 97.7398 102.102C97.1923 103.536 96.3639 104.843 95.3039 105.947C93.1795 108.143 90.4052 109.239 86.981 109.235C83.5568 109.231 80.7713 108.136 78.6247 105.947C77.5565 104.848 76.7209 103.542 76.1684 102.108C75.6159 100.674 75.358 99.1415 75.4103 97.6042V92.678C75.3606 91.1437 75.6187 89.615 76.1691 88.1834C76.7195 86.7518 77.5509 85.4467 78.6135 84.3461C80.7491 82.1505 83.5345 81.0526 86.9699 81.0526C90.4053 81.0526 93.1907 82.1505 95.3262 84.3461C96.3824 85.4496 97.2069 86.7561 97.7506 88.1876C98.2942 89.6192 98.5459 91.1464 98.4905 92.678V97.6042ZM92.1954 92.6387C92.267 90.9263 91.784 89.2368 90.8193 87.8248C90.3494 87.239 89.7552 86.7666 89.0805 86.442C88.4058 86.1175 87.6675 85.949 86.9197 85.949C86.172 85.949 85.4337 86.1175 84.759 86.442C84.0842 86.7666 83.4901 87.239 83.0201 87.8248C82.0672 89.2455 81.5926 90.937 81.6664 92.65V97.6154C81.5895 99.3408 82.0725 101.044 83.0424 102.469C83.4875 103.083 84.0765 103.576 84.7569 103.905C85.4374 104.234 86.188 104.388 86.942 104.354C87.6892 104.39 88.4334 104.237 89.1062 103.907C89.7789 103.578 90.3585 103.083 90.7915 102.469C91.753 101.041 92.2317 99.339 92.1564 97.6154L92.1954 92.6387Z" fill="#A7DC10"/>
<path d="M26 109H7.67749V104.978L15.7967 95.9867C16.7209 94.9753 17.5253 93.8588 18.1937 92.6599C18.6405 91.8847 18.9003 91.0144 18.9521 90.1193C19.0005 89.2446 18.7578 88.3786 18.2626 87.6589C17.9924 87.341 17.6506 87.093 17.2659 86.9358C16.8811 86.7785 16.4646 86.7165 16.0512 86.755C15.6121 86.739 15.1764 86.8393 14.7875 87.0457C14.3987 87.2521 14.0701 87.5575 13.8345 87.9317C13.2747 88.8295 12.9991 89.878 13.0443 90.9376H7.04641L7.00929 90.8306C6.95476 89.675 7.14082 88.5206 7.55549 87.4418C7.97017 86.3631 8.60426 85.3839 9.41693 84.5674C11.0857 82.8558 13.2971 82 16.0512 82C18.9432 82 21.1741 82.7132 22.7438 84.1395C24.3136 85.5658 25.0985 87.5269 25.0985 90.023C25.1257 91.6128 24.6705 93.173 23.7939 94.4945C22.3335 96.5175 20.7389 98.4385 19.021 100.244L15.8126 104.122L15.8497 104.213H26V109Z" fill="#09485F"/>
<path d="M-40.6062 90.5697L-22.0718 71.1342C-21.8393 70.8886 -21.5597 70.6931 -21.2499 70.5595C-20.9401 70.4259 -20.6066 70.357 -20.2697 70.357C-19.9327 70.357 -19.5992 70.4259 -19.2894 70.5595C-18.9797 70.6931 -18.7 70.8886 -18.4675 71.1342L-0.1727 90.5697" stroke="#09485F" stroke-width="2" stroke-miterlimit="10"/>
</g>
<defs>
<clipPath id="clip0">
<rect width="74.03" height="75" fill="white" transform="translate(16)"/>
</clipPath>
<clipPath id="clip1">
<rect width="105" height="39" fill="white" transform="translate(0 75)"/>
</clipPath>
</defs>
</svg>
