<svg width="112" height="116" viewBox="0 0 112 116" fill="none" xmlns="http://www.w3.org/2000/svg">
<path d="M38.4497 71.9058V73.209H38.1675C36.9722 73.2311 36.0203 73.5853 35.312 74.2715C34.6037 74.9577 34.1942 75.9233 34.0835 77.1685C34.7199 76.438 35.5887 76.0728 36.6899 76.0728C37.7414 76.0728 38.5798 76.4435 39.2051 77.1851C39.8359 77.9266 40.1514 78.884 40.1514 80.0571C40.1514 81.3022 39.811 82.2983 39.1304 83.0454C38.4552 83.7925 37.5477 84.166 36.4077 84.166C35.2511 84.166 34.3132 83.7233 33.5938 82.8379C32.8743 81.9469 32.5146 80.8014 32.5146 79.4014V78.812C32.5146 76.5874 32.9878 74.8885 33.9341 73.7153C34.8859 72.5366 36.2998 71.9334 38.1758 71.9058H38.4497ZM36.4326 77.3511C35.9069 77.3511 35.4227 77.5088 34.98 77.8242C34.5373 78.1396 34.2301 78.5353 34.0586 79.0112V79.5757C34.0586 80.5718 34.2827 81.3742 34.731 81.9829C35.1792 82.5916 35.7381 82.896 36.4077 82.896C37.0994 82.896 37.6418 82.6414 38.0347 82.1323C38.4331 81.6232 38.6323 80.9564 38.6323 80.1318C38.6323 79.3018 38.4303 78.6322 38.0264 78.123C37.6279 77.6084 37.0967 77.3511 36.4326 77.3511ZM49.5479 78.8452C49.5479 80.6437 49.2407 81.9801 48.6265 82.8545C48.0122 83.7288 47.0521 84.166 45.7461 84.166C44.4567 84.166 43.5021 83.7399 42.8823 82.8877C42.2625 82.0299 41.9416 80.7516 41.9194 79.0527V77.0024C41.9194 75.2261 42.2266 73.9062 42.8408 73.043C43.4551 72.1797 44.418 71.748 45.7295 71.748C47.0299 71.748 47.9873 72.1659 48.6016 73.0015C49.2158 73.8315 49.5312 75.1154 49.5479 76.853V78.8452ZM48.0122 76.7451C48.0122 75.4447 47.8296 74.4984 47.4644 73.9062C47.0991 73.3086 46.5208 73.0098 45.7295 73.0098C44.9437 73.0098 44.3709 73.3058 44.0112 73.8979C43.6515 74.4901 43.4661 75.4004 43.4551 76.6289V79.0859C43.4551 80.3919 43.6432 81.3576 44.0195 81.9829C44.4014 82.6027 44.9769 82.9126 45.7461 82.9126C46.5042 82.9126 47.0659 82.6193 47.4312 82.0327C47.8019 81.4461 47.9956 80.522 48.0122 79.2603V76.7451ZM54.1797 79.8413L53.2168 80.8457V84H51.6812V71.25H53.2168V78.9614L54.0386 77.9736L56.8359 75.0186H58.7036L55.209 78.7705L59.1104 84H57.3091L54.1797 79.8413ZM63.1362 80.1899L63.3687 81.7837L63.709 80.3477L66.0996 71.9141H67.4443L69.7769 80.3477L70.1089 81.8086L70.3662 80.1816L72.2422 71.9141H73.8442L70.9141 84H69.4614L66.9712 75.1929L66.7803 74.2715L66.5894 75.1929L64.0078 84H62.5552L59.6333 71.9141H61.2271L63.1362 80.1899ZM76.9155 76.106C77.5962 75.2703 78.4816 74.8525 79.5718 74.8525C81.4699 74.8525 82.4272 75.9233 82.4438 78.0649V84H80.9082V78.0566C80.9027 77.4092 80.7533 76.9305 80.46 76.6206C80.1722 76.3107 79.7212 76.1558 79.1069 76.1558C78.6089 76.1558 78.1717 76.2886 77.7954 76.5542C77.4191 76.8198 77.1258 77.1685 76.9155 77.6001V84H75.3799V71.25H76.9155V76.106Z" fill="#9F9C9C"/>
<path d="M23.4056 61.39C22.2656 61.35 21.2656 61.23 20.4056 61.03C19.5456 60.83 18.8756 60.6 18.3956 60.34L19.5656 56.95C19.9256 57.17 20.4256 57.38 21.0656 57.58C21.7256 57.78 22.5056 57.92 23.4056 58V51.85C22.7856 51.57 22.1656 51.26 21.5456 50.92C20.9456 50.58 20.4056 50.17 19.9256 49.69C19.4456 49.21 19.0556 48.64 18.7556 47.98C18.4756 47.3 18.3356 46.5 18.3356 45.58C18.3356 43.86 18.7856 42.53 19.6856 41.59C20.6056 40.63 21.8456 40.01 23.4056 39.73V37H26.5256V39.61C27.4056 39.67 28.1756 39.79 28.8356 39.97C29.4956 40.15 30.1056 40.36 30.6656 40.6L29.5856 43.93C29.2456 43.77 28.8156 43.61 28.2956 43.45C27.7756 43.29 27.1856 43.17 26.5256 43.09V48.7C27.1456 48.98 27.7656 49.3 28.3856 49.66C29.0256 50 29.5856 50.41 30.0656 50.89C30.5656 51.37 30.9656 51.94 31.2656 52.6C31.5856 53.24 31.7456 54.01 31.7456 54.91C31.7456 56.75 31.2756 58.19 30.3356 59.23C29.4156 60.25 28.1456 60.91 26.5256 61.21V64H23.4056V61.39ZM27.8456 55.36C27.8456 54.72 27.5856 54.2 27.0656 53.8C26.5656 53.38 25.9556 53 25.2356 52.66V58C26.1156 57.9 26.7656 57.62 27.1856 57.16C27.6256 56.7 27.8456 56.1 27.8456 55.36ZM22.2356 45.25C22.2356 45.85 22.4656 46.35 22.9256 46.75C23.4056 47.15 23.9956 47.52 24.6956 47.86V43C23.7556 43.04 23.1056 43.27 22.7456 43.69C22.4056 44.11 22.2356 44.63 22.2356 45.25ZM35.1171 55.87C35.1171 55.17 35.2071 54.55 35.3871 54.01C35.5671 53.45 35.8171 52.95 36.1371 52.51C36.4771 52.05 36.8671 51.64 37.3071 51.28C37.7671 50.92 38.2571 50.59 38.7771 50.29C37.7971 49.67 37.0271 48.96 36.4671 48.16C35.9071 47.34 35.6271 46.33 35.6271 45.13C35.6271 44.35 35.7671 43.62 36.0471 42.94C36.3471 42.26 36.7671 41.67 37.3071 41.17C37.8671 40.67 38.5371 40.28 39.3171 40C40.0971 39.72 40.9771 39.58 41.9571 39.58C42.8571 39.58 43.6771 39.7 44.4171 39.94C45.1571 40.18 45.7871 40.52 46.3071 40.96C46.8471 41.4 47.2571 41.94 47.5371 42.58C47.8371 43.2 47.9871 43.89 47.9871 44.65C47.9871 45.83 47.7171 46.83 47.1771 47.65C46.6571 48.47 45.8871 49.22 44.8671 49.9C46.0671 50.6 46.9671 51.37 47.5671 52.21C48.1871 53.05 48.4971 54.13 48.4971 55.45C48.4971 56.35 48.3271 57.17 47.9871 57.91C47.6671 58.63 47.2071 59.25 46.6071 59.77C46.0071 60.29 45.2871 60.7 44.4471 61C43.6071 61.28 42.6871 61.42 41.6871 61.42C40.6871 61.42 39.7771 61.28 38.9571 61C38.1571 60.74 37.4671 60.37 36.8871 59.89C36.3271 59.41 35.8871 58.83 35.5671 58.15C35.2671 57.47 35.1171 56.71 35.1171 55.87ZM44.7771 55.48C44.7771 55.02 44.6671 54.6 44.4471 54.22C44.2271 53.84 43.9371 53.5 43.5771 53.2C43.2371 52.88 42.8471 52.59 42.4071 52.33C41.9871 52.07 41.5571 51.82 41.1171 51.58C40.1771 52.12 39.5271 52.71 39.1671 53.35C38.8271 53.97 38.6571 54.59 38.6571 55.21C38.6571 56.01 38.9271 56.7 39.4671 57.28C40.0271 57.84 40.7971 58.12 41.7771 58.12C42.6771 58.12 43.3971 57.9 43.9371 57.46C44.4971 57.02 44.7771 56.36 44.7771 55.48ZM39.3471 45.19C39.3471 45.67 39.4371 46.09 39.6171 46.45C39.7971 46.81 40.0371 47.13 40.3371 47.41C40.6571 47.67 41.0071 47.92 41.3871 48.16C41.7871 48.38 42.1971 48.59 42.6171 48.79C43.8171 47.77 44.4171 46.65 44.4171 45.43C44.4171 44.59 44.1671 43.96 43.6671 43.54C43.1871 43.1 42.5971 42.88 41.8971 42.88C41.0171 42.88 40.3671 43.11 39.9471 43.57C39.5471 44.03 39.3471 44.57 39.3471 45.19ZM51.5686 59.02C51.5686 58.32 51.7886 57.77 52.2286 57.37C52.6686 56.95 53.2486 56.74 53.9686 56.74C54.7286 56.74 55.3286 56.95 55.7686 57.37C56.2086 57.77 56.4286 58.32 56.4286 59.02C56.4286 59.72 56.2086 60.28 55.7686 60.7C55.3286 61.12 54.7286 61.33 53.9686 61.33C53.2486 61.33 52.6686 61.12 52.2286 60.7C51.7886 60.28 51.5686 59.72 51.5686 59.02ZM71.9414 45.13C71.9414 46.15 71.7514 47.18 71.3714 48.22C71.0114 49.26 70.5414 50.28 69.9614 51.28C69.4014 52.28 68.7714 53.25 68.0714 54.19C67.3914 55.11 66.7214 55.96 66.0614 56.74L64.4714 57.97V58.12L66.6314 57.7H72.3914V61H59.7614V58.99C60.2414 58.49 60.7814 57.91 61.3814 57.25C61.9814 56.57 62.5814 55.86 63.1814 55.12C63.8014 54.36 64.4014 53.58 64.9814 52.78C65.5614 51.98 66.0814 51.18 66.5414 50.38C67.0014 49.56 67.3614 48.77 67.6214 48.01C67.9014 47.25 68.0414 46.53 68.0414 45.85C68.0414 45.03 67.8014 44.36 67.3214 43.84C66.8614 43.3 66.1214 43.03 65.1014 43.03C64.4614 43.03 63.8014 43.17 63.1214 43.45C62.4614 43.71 61.9014 44.05 61.4414 44.47L59.8814 41.71C60.6614 41.07 61.5414 40.56 62.5214 40.18C63.5214 39.78 64.6914 39.58 66.0314 39.58C66.8914 39.58 67.6814 39.7 68.4014 39.94C69.1214 40.18 69.7414 40.53 70.2614 40.99C70.7814 41.45 71.1914 42.03 71.4914 42.73C71.7914 43.41 71.9414 44.21 71.9414 45.13ZM76.5429 55.87C76.5429 55.17 76.6329 54.55 76.8129 54.01C76.9929 53.45 77.2429 52.95 77.5629 52.51C77.9029 52.05 78.2929 51.64 78.7329 51.28C79.1929 50.92 79.6829 50.59 80.2029 50.29C79.2229 49.67 78.4529 48.96 77.8929 48.16C77.3329 47.34 77.0529 46.33 77.0529 45.13C77.0529 44.35 77.1929 43.62 77.4729 42.94C77.7729 42.26 78.1929 41.67 78.7329 41.17C79.2929 40.67 79.9629 40.28 80.7429 40C81.5229 39.72 82.4029 39.58 83.3829 39.58C84.2829 39.58 85.1029 39.7 85.8429 39.94C86.5829 40.18 87.2129 40.52 87.7329 40.96C88.2729 41.4 88.6829 41.94 88.9629 42.58C89.2629 43.2 89.4129 43.89 89.4129 44.65C89.4129 45.83 89.1429 46.83 88.6029 47.65C88.0829 48.47 87.3129 49.22 86.2929 49.9C87.4929 50.6 88.3929 51.37 88.9929 52.21C89.6129 53.05 89.9229 54.13 89.9229 55.45C89.9229 56.35 89.7529 57.17 89.4129 57.91C89.0929 58.63 88.6329 59.25 88.0329 59.77C87.4329 60.29 86.7129 60.7 85.8729 61C85.0329 61.28 84.1129 61.42 83.1129 61.42C82.1129 61.42 81.2029 61.28 80.3829 61C79.5829 60.74 78.8929 60.37 78.3129 59.89C77.7529 59.41 77.3129 58.83 76.9929 58.15C76.6929 57.47 76.5429 56.71 76.5429 55.87ZM86.2029 55.48C86.2029 55.02 86.0929 54.6 85.8729 54.22C85.6529 53.84 85.3629 53.5 85.0029 53.2C84.6629 52.88 84.2729 52.59 83.8329 52.33C83.4129 52.07 82.9829 51.82 82.5429 51.58C81.6029 52.12 80.9529 52.71 80.5929 53.35C80.2529 53.97 80.0829 54.59 80.0829 55.21C80.0829 56.01 80.3529 56.7 80.8929 57.28C81.4529 57.84 82.2229 58.12 83.2029 58.12C84.1029 58.12 84.8229 57.9 85.3629 57.46C85.9229 57.02 86.2029 56.36 86.2029 55.48ZM80.7729 45.19C80.7729 45.67 80.8629 46.09 81.0429 46.45C81.2229 46.81 81.4629 47.13 81.7629 47.41C82.0829 47.67 82.4329 47.92 82.8129 48.16C83.2129 48.38 83.6229 48.59 84.0429 48.79C85.2429 47.77 85.8429 46.65 85.8429 45.43C85.8429 44.59 85.5929 43.96 85.0929 43.54C84.6129 43.1 84.0229 42.88 83.3229 42.88C82.4429 42.88 81.7929 43.11 81.3729 43.57C80.9729 44.03 80.7729 44.57 80.7729 45.19Z" fill="#A7DC10"/>
<circle cx="54" cy="58" r="53.5" stroke="#A7DC10"/>
<path d="M54 112C83.8234 112 108 87.8234 108 58C108 28.1766 83.8234 4 54 4" stroke="#A7DC10" stroke-width="8"/>
</svg>
