<svg width="65" height="56" viewBox="0 0 65 56" fill="none" xmlns="http://www.w3.org/2000/svg">
<g clip-path="url(#clip0)">
<path d="M48 16V16.0008C48.0013 17.596 47.5252 19.1877 46.5821 20.6612C45.6372 22.1377 44.2444 23.4613 42.4852 24.5177L42 24.809V25.375C42 26.8036 42.2701 28.3106 42.6703 29.5944C42.8047 30.0256 42.9596 30.4505 43.1327 30.8498C40.0767 30.3692 37.2256 28.8113 35.7071 27.2929L35.4142 27H35H33C28.9431 27 25.0914 25.7891 22.2863 23.6853C19.4867 21.5856 18 18.8093 18 16C18 13.1907 19.4867 10.4144 22.2863 8.31472C25.0914 6.21089 28.9431 5 33 5C37.0569 5 40.9086 6.21089 43.7137 8.31472C46.5133 10.4144 48 13.1907 48 16Z" fill="white" stroke="#9F9C9C" stroke-width="2"/>
</g>
<path d="M16.709 44.4492H14.2305V48H13.5039V39.4688H16.2754C17.1855 39.4688 17.8965 39.6895 18.4082 40.1309C18.9199 40.5723 19.1758 41.1895 19.1758 41.9824C19.1758 42.5293 19.0156 43.0117 18.6953 43.4297C18.375 43.8477 17.9453 44.1367 17.4062 44.2969L19.5391 47.9238V48H18.7715L16.709 44.4492ZM14.2305 43.834H16.4395C17.0449 43.834 17.5312 43.6621 17.8984 43.3184C18.2656 42.9746 18.4492 42.5293 18.4492 41.9824C18.4492 41.3809 18.2578 40.9141 17.875 40.582C17.4922 40.25 16.9551 40.084 16.2637 40.084H14.2305V43.834ZM20.5879 44.7363C20.5879 44.127 20.7051 43.5781 20.9395 43.0898C21.1777 42.6016 21.5117 42.2227 21.9414 41.9531C22.375 41.6797 22.8652 41.543 23.4121 41.543C24.2559 41.543 24.9395 41.8398 25.4629 42.4336C25.9863 43.0234 26.248 43.8066 26.248 44.7832V44.9297C26.248 45.543 26.1289 46.0957 25.8906 46.5879C25.6562 47.0762 25.3242 47.4531 24.8945 47.7188C24.4648 47.9844 23.9746 48.1172 23.4238 48.1172C22.584 48.1172 21.9004 47.8223 21.373 47.2324C20.8496 46.6387 20.5879 45.8535 20.5879 44.877V44.7363ZM21.291 44.9297C21.291 45.6875 21.4863 46.3105 21.877 46.7988C22.2715 47.2832 22.7871 47.5254 23.4238 47.5254C24.0566 47.5254 24.5684 47.2832 24.959 46.7988C25.3535 46.3105 25.5508 45.668 25.5508 44.8711V44.7363C25.5508 44.252 25.4609 43.8086 25.2812 43.4062C25.1016 43.0039 24.8496 42.6934 24.5254 42.4746C24.2012 42.252 23.8301 42.1406 23.4121 42.1406C22.7871 42.1406 22.2773 42.3867 21.8828 42.8789C21.4883 43.3672 21.291 44.0078 21.291 44.8008V44.9297ZM32.8047 44.8945C32.8047 45.8828 32.5859 46.668 32.1484 47.25C31.7109 47.8281 31.123 48.1172 30.3848 48.1172C29.502 48.1172 28.834 47.7891 28.3809 47.1328L28.3516 48H27.6953V39H28.3926V42.5801C28.8379 41.8887 29.498 41.543 30.373 41.543C31.123 41.543 31.7148 41.8301 32.1484 42.4043C32.5859 42.9746 32.8047 43.7695 32.8047 44.7891V44.8945ZM32.1016 44.7715C32.1016 43.9355 31.9395 43.291 31.6152 42.8379C31.291 42.3809 30.834 42.1523 30.2441 42.1523C29.7949 42.1523 29.4141 42.2637 29.1016 42.4863C28.7891 42.7051 28.5527 43.0273 28.3926 43.4531V46.3125C28.7441 47.1094 29.3652 47.5078 30.2559 47.5078C30.834 47.5078 31.2852 47.2793 31.6094 46.8223C31.9375 46.3652 32.1016 45.6816 32.1016 44.7715ZM36.8125 48.1172C36.2734 48.1172 35.7852 47.9844 35.3477 47.7188C34.9141 47.4531 34.5762 47.084 34.334 46.6113C34.0918 46.1348 33.9707 45.6016 33.9707 45.0117V44.7598C33.9707 44.1504 34.0879 43.6016 34.3223 43.1133C34.5605 42.625 34.8906 42.2422 35.3125 41.9648C35.7344 41.6836 36.1914 41.543 36.6836 41.543C37.4531 41.543 38.0625 41.8066 38.5117 42.334C38.9648 42.8574 39.1914 43.5742 39.1914 44.4844V44.877H34.668V45.0117C34.668 45.7305 34.873 46.3301 35.2832 46.8105C35.6973 47.2871 36.2168 47.5254 36.8418 47.5254C37.2168 47.5254 37.5469 47.457 37.832 47.3203C38.1211 47.1836 38.3828 46.9648 38.6172 46.6641L39.0566 46.998C38.541 47.7441 37.793 48.1172 36.8125 48.1172ZM36.6836 42.1406C36.1562 42.1406 35.7109 42.334 35.3477 42.7207C34.9883 43.1074 34.7695 43.627 34.6914 44.2793H38.4941V44.2031C38.4746 43.5938 38.3008 43.0977 37.9727 42.7148C37.6445 42.332 37.2148 42.1406 36.6836 42.1406ZM42.9004 47.5254C43.3887 47.5254 43.7969 47.3887 44.125 47.1152C44.457 46.8379 44.6367 46.4805 44.6641 46.043H45.3379C45.3184 46.4297 45.1973 46.7832 44.9746 47.1035C44.752 47.4199 44.4551 47.668 44.084 47.8477C43.7168 48.0273 43.3223 48.1172 42.9004 48.1172C42.0684 48.1172 41.4082 47.8281 40.9199 47.25C40.4355 46.6719 40.1934 45.8945 40.1934 44.918V44.707C40.1934 44.082 40.3027 43.5293 40.5215 43.0488C40.7402 42.5684 41.0527 42.1973 41.459 41.9355C41.8691 41.6738 42.3477 41.543 42.8945 41.543C43.5898 41.543 44.1621 41.75 44.6113 42.1641C45.0645 42.5781 45.3066 43.123 45.3379 43.7988H44.6641C44.6328 43.3027 44.4531 42.9023 44.125 42.5977C43.8008 42.293 43.3906 42.1406 42.8945 42.1406C42.2617 42.1406 41.7695 42.3691 41.418 42.8262C41.0703 43.2832 40.8965 43.9238 40.8965 44.748V44.9531C40.8965 45.7617 41.0703 46.3926 41.418 46.8457C41.7695 47.2988 42.2637 47.5254 42.9004 47.5254ZM46.3574 44.7363C46.3574 44.127 46.4746 43.5781 46.709 43.0898C46.9473 42.6016 47.2812 42.2227 47.7109 41.9531C48.1445 41.6797 48.6348 41.543 49.1816 41.543C50.0254 41.543 50.709 41.8398 51.2324 42.4336C51.7559 43.0234 52.0176 43.8066 52.0176 44.7832V44.9297C52.0176 45.543 51.8984 46.0957 51.6602 46.5879C51.4258 47.0762 51.0938 47.4531 50.6641 47.7188C50.2344 47.9844 49.7441 48.1172 49.1934 48.1172C48.3535 48.1172 47.6699 47.8223 47.1426 47.2324C46.6191 46.6387 46.3574 45.8535 46.3574 44.877V44.7363ZM47.0605 44.9297C47.0605 45.6875 47.2559 46.3105 47.6465 46.7988C48.041 47.2832 48.5566 47.5254 49.1934 47.5254C49.8262 47.5254 50.3379 47.2832 50.7285 46.7988C51.123 46.3105 51.3203 45.668 51.3203 44.8711V44.7363C51.3203 44.252 51.2305 43.8086 51.0508 43.4062C50.8711 43.0039 50.6191 42.6934 50.2949 42.4746C49.9707 42.252 49.5996 42.1406 49.1816 42.1406C48.5566 42.1406 48.0469 42.3867 47.6523 42.8789C47.2578 43.3672 47.0605 44.0078 47.0605 44.8008V44.9297Z" fill="#9F9C9C"/>
<defs>
<clipPath id="clip0">
<rect width="32" height="32" fill="white" transform="translate(17)"/>
</clipPath>
</defs>
</svg>
