<svg width="41" height="56" viewBox="0 0 41 56" fill="none" xmlns="http://www.w3.org/2000/svg">
<g clip-path="url(#clip0)">
<path d="M36 16V16.0008C36.0013 17.596 35.5252 19.1877 34.5821 20.6612C33.6372 22.1377 32.2444 23.4613 30.4852 24.5177L30 24.809V25.375C30 26.8036 30.2701 28.3106 30.6703 29.5944C30.8047 30.0256 30.9596 30.4505 31.1327 30.8498C28.0767 30.3692 25.2256 28.8113 23.7071 27.2929L23.4142 27H23H21C16.9431 27 13.0914 25.7891 10.2863 23.6853C7.4867 21.5856 6 18.8093 6 16C6 13.1907 7.4867 10.4144 10.2863 8.31472C13.0914 6.21089 16.9431 5 21 5C25.0569 5 28.9086 6.21089 31.7137 8.31472C34.5133 10.4144 36 13.1907 36 16Z" fill="white" stroke="#09485F" stroke-width="2"/>
</g>
<path d="M4.70898 44.4492H2.23047V48H1.50391V39.4688H4.27539C5.18555 39.4688 5.89648 39.6895 6.4082 40.1309C6.91992 40.5723 7.17578 41.1895 7.17578 41.9824C7.17578 42.5293 7.01562 43.0117 6.69531 43.4297C6.375 43.8477 5.94531 44.1367 5.40625 44.2969L7.53906 47.9238V48H6.77148L4.70898 44.4492ZM2.23047 43.834H4.43945C5.04492 43.834 5.53125 43.6621 5.89844 43.3184C6.26562 42.9746 6.44922 42.5293 6.44922 41.9824C6.44922 41.3809 6.25781 40.9141 5.875 40.582C5.49219 40.25 4.95508 40.084 4.26367 40.084H2.23047V43.834ZM8.58789 44.7363C8.58789 44.127 8.70508 43.5781 8.93945 43.0898C9.17773 42.6016 9.51172 42.2227 9.94141 41.9531C10.375 41.6797 10.8652 41.543 11.4121 41.543C12.2559 41.543 12.9395 41.8398 13.4629 42.4336C13.9863 43.0234 14.248 43.8066 14.248 44.7832V44.9297C14.248 45.543 14.1289 46.0957 13.8906 46.5879C13.6562 47.0762 13.3242 47.4531 12.8945 47.7188C12.4648 47.9844 11.9746 48.1172 11.4238 48.1172C10.584 48.1172 9.90039 47.8223 9.37305 47.2324C8.84961 46.6387 8.58789 45.8535 8.58789 44.877V44.7363ZM9.29102 44.9297C9.29102 45.6875 9.48633 46.3105 9.87695 46.7988C10.2715 47.2832 10.7871 47.5254 11.4238 47.5254C12.0566 47.5254 12.5684 47.2832 12.959 46.7988C13.3535 46.3105 13.5508 45.668 13.5508 44.8711V44.7363C13.5508 44.252 13.4609 43.8086 13.2812 43.4062C13.1016 43.0039 12.8496 42.6934 12.5254 42.4746C12.2012 42.252 11.8301 42.1406 11.4121 42.1406C10.7871 42.1406 10.2773 42.3867 9.88281 42.8789C9.48828 43.3672 9.29102 44.0078 9.29102 44.8008V44.9297ZM20.8047 44.8945C20.8047 45.8828 20.5859 46.668 20.1484 47.25C19.7109 47.8281 19.123 48.1172 18.3848 48.1172C17.502 48.1172 16.834 47.7891 16.3809 47.1328L16.3516 48H15.6953V39H16.3926V42.5801C16.8379 41.8887 17.498 41.543 18.373 41.543C19.123 41.543 19.7148 41.8301 20.1484 42.4043C20.5859 42.9746 20.8047 43.7695 20.8047 44.7891V44.8945ZM20.1016 44.7715C20.1016 43.9355 19.9395 43.291 19.6152 42.8379C19.291 42.3809 18.834 42.1523 18.2441 42.1523C17.7949 42.1523 17.4141 42.2637 17.1016 42.4863C16.7891 42.7051 16.5527 43.0273 16.3926 43.4531V46.3125C16.7441 47.1094 17.3652 47.5078 18.2559 47.5078C18.834 47.5078 19.2852 47.2793 19.6094 46.8223C19.9375 46.3652 20.1016 45.6816 20.1016 44.7715ZM24.8125 48.1172C24.2734 48.1172 23.7852 47.9844 23.3477 47.7188C22.9141 47.4531 22.5762 47.084 22.334 46.6113C22.0918 46.1348 21.9707 45.6016 21.9707 45.0117V44.7598C21.9707 44.1504 22.0879 43.6016 22.3223 43.1133C22.5605 42.625 22.8906 42.2422 23.3125 41.9648C23.7344 41.6836 24.1914 41.543 24.6836 41.543C25.4531 41.543 26.0625 41.8066 26.5117 42.334C26.9648 42.8574 27.1914 43.5742 27.1914 44.4844V44.877H22.668V45.0117C22.668 45.7305 22.873 46.3301 23.2832 46.8105C23.6973 47.2871 24.2168 47.5254 24.8418 47.5254C25.2168 47.5254 25.5469 47.457 25.832 47.3203C26.1211 47.1836 26.3828 46.9648 26.6172 46.6641L27.0566 46.998C26.541 47.7441 25.793 48.1172 24.8125 48.1172ZM24.6836 42.1406C24.1562 42.1406 23.7109 42.334 23.3477 42.7207C22.9883 43.1074 22.7695 43.627 22.6914 44.2793H26.4941V44.2031C26.4746 43.5938 26.3008 43.0977 25.9727 42.7148C25.6445 42.332 25.2148 42.1406 24.6836 42.1406ZM30.9004 47.5254C31.3887 47.5254 31.7969 47.3887 32.125 47.1152C32.457 46.8379 32.6367 46.4805 32.6641 46.043H33.3379C33.3184 46.4297 33.1973 46.7832 32.9746 47.1035C32.752 47.4199 32.4551 47.668 32.084 47.8477C31.7168 48.0273 31.3223 48.1172 30.9004 48.1172C30.0684 48.1172 29.4082 47.8281 28.9199 47.25C28.4355 46.6719 28.1934 45.8945 28.1934 44.918V44.707C28.1934 44.082 28.3027 43.5293 28.5215 43.0488C28.7402 42.5684 29.0527 42.1973 29.459 41.9355C29.8691 41.6738 30.3477 41.543 30.8945 41.543C31.5898 41.543 32.1621 41.75 32.6113 42.1641C33.0645 42.5781 33.3066 43.123 33.3379 43.7988H32.6641C32.6328 43.3027 32.4531 42.9023 32.125 42.5977C31.8008 42.293 31.3906 42.1406 30.8945 42.1406C30.2617 42.1406 29.7695 42.3691 29.418 42.8262C29.0703 43.2832 28.8965 43.9238 28.8965 44.748V44.9531C28.8965 45.7617 29.0703 46.3926 29.418 46.8457C29.7695 47.2988 30.2637 47.5254 30.9004 47.5254ZM34.3574 44.7363C34.3574 44.127 34.4746 43.5781 34.709 43.0898C34.9473 42.6016 35.2812 42.2227 35.7109 41.9531C36.1445 41.6797 36.6348 41.543 37.1816 41.543C38.0254 41.543 38.709 41.8398 39.2324 42.4336C39.7559 43.0234 40.0176 43.8066 40.0176 44.7832V44.9297C40.0176 45.543 39.8984 46.0957 39.6602 46.5879C39.4258 47.0762 39.0938 47.4531 38.6641 47.7188C38.2344 47.9844 37.7441 48.1172 37.1934 48.1172C36.3535 48.1172 35.6699 47.8223 35.1426 47.2324C34.6191 46.6387 34.3574 45.8535 34.3574 44.877V44.7363ZM35.0605 44.9297C35.0605 45.6875 35.2559 46.3105 35.6465 46.7988C36.041 47.2832 36.5566 47.5254 37.1934 47.5254C37.8262 47.5254 38.3379 47.2832 38.7285 46.7988C39.123 46.3105 39.3203 45.668 39.3203 44.8711V44.7363C39.3203 44.252 39.2305 43.8086 39.0508 43.4062C38.8711 43.0039 38.6191 42.6934 38.2949 42.4746C37.9707 42.252 37.5996 42.1406 37.1816 42.1406C36.5566 42.1406 36.0469 42.3867 35.6523 42.8789C35.2578 43.3672 35.0605 44.0078 35.0605 44.8008V44.9297Z" fill="#09485F"/>
<defs>
<clipPath id="clip0">
<rect width="32" height="32" fill="white" transform="translate(5)"/>
</clipPath>
</defs>
</svg>
