<svg width="34" height="55" viewBox="0 0 34 55" fill="none" xmlns="http://www.w3.org/2000/svg">
<g clip-path="url(#clip0)">
<path d="M27 14V25.3851C27 25.7285 26.9316 26.0685 26.7987 26.3858C26.6658 26.703 26.471 26.9913 26.2255 27.2341C25.9799 27.4769 25.6884 27.6695 25.3676 27.801C25.0467 27.9324 24.7029 28 24.3556 28H9.70381C9.34843 28 8.99653 27.9307 8.66825 27.7961C8.33997 27.6615 8.04174 27.4643 7.79061 27.2156C7.53949 26.9669 7.34041 26.6718 7.20475 26.347C7.06909 26.0222 6.99951 25.6741 7 25.3227V14" stroke="#09485F" stroke-width="2" stroke-miterlimit="10"/>
<path d="M3 15L15.837 1.5382C15.9977 1.36813 16.191 1.23274 16.4052 1.14022C16.6193 1.0477 16.8499 1 17.0829 1C17.3159 1 17.5465 1.0477 17.7607 1.14022C17.9749 1.23274 18.1682 1.36813 18.3288 1.5382L31 15" stroke="#09485F" stroke-width="2" stroke-miterlimit="10"/>
</g>
<path d="M6.7168 44.9023C6.7168 44.4297 6.55078 44.0566 6.21875 43.7832C5.88672 43.5059 5.2793 43.2441 4.39648 42.998C3.51367 42.748 2.86914 42.4766 2.46289 42.1836C1.88477 41.7695 1.5957 41.2266 1.5957 40.5547C1.5957 39.9023 1.86328 39.373 2.39844 38.9668C2.9375 38.5566 3.625 38.3516 4.46094 38.3516C5.02734 38.3516 5.5332 38.4609 5.97852 38.6797C6.42773 38.8984 6.77539 39.2031 7.02148 39.5938C7.26758 39.9844 7.39062 40.4199 7.39062 40.9004H6.66406C6.66406 40.3184 6.46484 39.8516 6.06641 39.5C5.66797 39.1445 5.13281 38.9668 4.46094 38.9668C3.80859 38.9668 3.28906 39.1133 2.90234 39.4062C2.51562 39.6953 2.32227 40.0742 2.32227 40.543C2.32227 40.9766 2.49609 41.3301 2.84375 41.6035C3.19141 41.877 3.74805 42.1191 4.51367 42.3301C5.2793 42.5371 5.85938 42.7539 6.25391 42.9805C6.64844 43.2031 6.94531 43.4707 7.14453 43.7832C7.34375 44.0957 7.44336 44.4648 7.44336 44.8906C7.44336 45.5625 7.17383 46.1016 6.63477 46.5078C6.09961 46.9141 5.39258 47.1172 4.51367 47.1172C3.91211 47.1172 3.35938 47.0098 2.85547 46.7949C2.35547 46.5801 1.97461 46.2793 1.71289 45.8926C1.45508 45.5059 1.32617 45.0625 1.32617 44.5625H2.04688C2.04688 45.1641 2.27148 45.6387 2.7207 45.9863C3.16992 46.334 3.76758 46.5078 4.51367 46.5078C5.17773 46.5078 5.71094 46.3613 6.11328 46.0684C6.51562 45.7754 6.7168 45.3867 6.7168 44.9023ZM9.47656 40.6602L9.5 41.6914C9.73438 41.3086 10.0273 41.0215 10.3789 40.8301C10.7305 40.6387 11.1211 40.543 11.5508 40.543C12.5508 40.543 13.1855 40.9531 13.4551 41.7734C13.6816 41.3789 13.9844 41.0762 14.3633 40.8652C14.7422 40.6504 15.1602 40.543 15.6172 40.543C16.9766 40.543 17.6699 41.2852 17.6973 42.7695V47H16.9941V42.8223C16.9902 42.2559 16.8672 41.8359 16.625 41.5625C16.3867 41.2891 15.9961 41.1523 15.4531 41.1523C14.9492 41.1602 14.5234 41.3242 14.1758 41.6445C13.8281 41.9609 13.6348 42.3477 13.5957 42.8047V47H12.8926V42.7695C12.8887 42.2266 12.7598 41.8223 12.5059 41.5566C12.2559 41.2871 11.8691 41.1523 11.3457 41.1523C10.9043 41.1523 10.5254 41.2793 10.209 41.5332C9.89258 41.7832 9.6582 42.1562 9.50586 42.6523V47H8.80273V40.6602H9.47656ZM23.4805 47C23.4102 46.8008 23.3652 46.5059 23.3457 46.1152C23.0996 46.4355 22.7852 46.6836 22.4023 46.8594C22.0234 47.0312 21.6211 47.1172 21.1953 47.1172C20.5859 47.1172 20.0918 46.9473 19.7129 46.6074C19.3379 46.2676 19.1504 45.8379 19.1504 45.3184C19.1504 44.7012 19.4062 44.2129 19.918 43.8535C20.4336 43.4941 21.1504 43.3145 22.0684 43.3145H23.3398V42.5938C23.3398 42.1406 23.1992 41.7852 22.918 41.5273C22.6406 41.2656 22.2344 41.1348 21.6992 41.1348C21.2109 41.1348 20.8066 41.2598 20.4863 41.5098C20.166 41.7598 20.0059 42.0605 20.0059 42.4121L19.3027 42.4062C19.3027 41.9023 19.5371 41.4668 20.0059 41.0996C20.4746 40.7285 21.0508 40.543 21.7344 40.543C22.4414 40.543 22.998 40.7207 23.4043 41.0762C23.8145 41.4277 24.0254 41.9199 24.0371 42.5527V45.5527C24.0371 46.166 24.1016 46.625 24.2305 46.9297V47H23.4805ZM21.2773 46.4961C21.7461 46.4961 22.1641 46.3828 22.5312 46.1562C22.9023 45.9297 23.1719 45.627 23.3398 45.248V43.8535H22.0859C21.3867 43.8613 20.8398 43.9902 20.4453 44.2402C20.0508 44.4863 19.8535 44.8262 19.8535 45.2598C19.8535 45.6152 19.9844 45.9102 20.2461 46.1445C20.5117 46.3789 20.8555 46.4961 21.2773 46.4961ZM28.8418 41.2578C28.6934 41.2305 28.5352 41.2168 28.3672 41.2168C27.9297 41.2168 27.5586 41.3398 27.2539 41.5859C26.9531 41.8281 26.7383 42.1816 26.6094 42.6465V47H25.9121V40.6602H26.5977L26.6094 41.668C26.9805 40.918 27.5762 40.543 28.3965 40.543C28.5918 40.543 28.7461 40.5684 28.8594 40.6191L28.8418 41.2578ZM31.3379 39.0371V40.6602H32.6504V41.2344H31.3379V45.459C31.3379 45.8105 31.4004 46.0723 31.5254 46.2441C31.6543 46.416 31.8672 46.502 32.1641 46.502C32.2812 46.502 32.4707 46.4824 32.7324 46.4434L32.7617 47.0176C32.5781 47.084 32.3281 47.1172 32.0117 47.1172C31.5312 47.1172 31.1816 46.9785 30.9629 46.7012C30.7441 46.4199 30.6348 46.0078 30.6348 45.4648V41.2344H29.4688V40.6602H30.6348V39.0371H31.3379Z" fill="#09485F"/>
<defs>
<clipPath id="clip0">
<rect width="30" height="30.3931" fill="white" transform="translate(2)"/>
</clipPath>
</defs>
</svg>
