<svg width="32" height="32" viewBox="0 0 32 32" fill="none" xmlns="http://www.w3.org/2000/svg">
<g clip-path="url(#clip0)">
<path d="M31 16V16.0008C31.0013 17.596 30.5252 19.1877 29.5821 20.6612C28.6372 22.1377 27.2444 23.4613 25.4852 24.5177L25 24.809V25.375C25 26.8036 25.2701 28.3106 25.6703 29.5944C25.8047 30.0256 25.9596 30.4505 26.1327 30.8498C23.0767 30.3692 20.2256 28.8113 18.7071 27.2929L18.4142 27H18H16C11.9431 27 8.09139 25.7891 5.28629 23.6853C2.4867 21.5856 1 18.8093 1 16C1 13.1907 2.4867 10.4144 5.28629 8.31472C8.09139 6.21089 11.9431 5 16 5C20.0569 5 23.9086 6.21089 26.7137 8.31472C29.5133 10.4144 31 13.1907 31 16Z" fill="white" stroke="#9F9C9C" stroke-width="2"/>
</g>
<defs>
<clipPath id="clip0">
<rect width="32" height="32" fill="white"/>
</clipPath>
</defs>
</svg>
