<svg width="141" height="64" viewBox="0 0 141 64" fill="none" xmlns="http://www.w3.org/2000/svg">
<path d="M1.82031 53V41.625H5.53906C6.77344 41.625 7.70052 41.8802 8.32031 42.3906C8.94531 42.901 9.25781 43.6562 9.25781 44.6562C9.25781 45.1875 9.10677 45.6589 8.80469 46.0703C8.5026 46.4766 8.09115 46.7917 7.57031 47.0156C8.1849 47.1875 8.66927 47.5156 9.02344 48C9.38281 48.4792 9.5625 49.0521 9.5625 49.7188C9.5625 50.7396 9.23177 51.5417 8.57031 52.125C7.90885 52.7083 6.97396 53 5.76562 53H1.82031ZM3.32031 47.6797V51.7734H5.79688C6.49479 51.7734 7.04427 51.5938 7.44531 51.2344C7.85156 50.8698 8.05469 50.3698 8.05469 49.7344C8.05469 48.3646 7.3099 47.6797 5.82031 47.6797H3.32031ZM3.32031 46.4766H5.58594C6.24219 46.4766 6.76562 46.3125 7.15625 45.9844C7.55208 45.6562 7.75 45.2109 7.75 44.6484C7.75 44.0234 7.56771 43.5703 7.20312 43.2891C6.83854 43.0026 6.28385 42.8594 5.53906 42.8594H3.32031V46.4766ZM15.0703 53.1562C13.9245 53.1562 12.9922 52.7812 12.2734 52.0312C11.5547 51.276 11.1953 50.2682 11.1953 49.0078V48.7422C11.1953 47.9036 11.3542 47.1562 11.6719 46.5C11.9948 45.8385 12.4427 45.3229 13.0156 44.9531C13.5938 44.5781 14.2188 44.3906 14.8906 44.3906C15.9896 44.3906 16.8438 44.7526 17.4531 45.4766C18.0625 46.2005 18.3672 47.237 18.3672 48.5859V49.1875H12.6406C12.6615 50.0208 12.9036 50.6953 13.3672 51.2109C13.8359 51.7214 14.4297 51.9766 15.1484 51.9766C15.6589 51.9766 16.0911 51.8724 16.4453 51.6641C16.7995 51.4557 17.1094 51.1797 17.375 50.8359L18.2578 51.5234C17.5495 52.612 16.487 53.1562 15.0703 53.1562ZM14.8906 45.5781C14.3073 45.5781 13.8177 45.7917 13.4219 46.2188C13.026 46.6406 12.7812 47.2344 12.6875 48H16.9219V47.8906C16.8802 47.1562 16.6823 46.5885 16.3281 46.1875C15.974 45.7812 15.4948 45.5781 14.8906 45.5781ZM21.4062 44.5469L21.4453 45.4844C22.0651 44.7552 22.901 44.3906 23.9531 44.3906C25.1354 44.3906 25.9401 44.8438 26.3672 45.75C26.6484 45.3438 27.013 45.0156 27.4609 44.7656C27.9141 44.5156 28.4479 44.3906 29.0625 44.3906C30.9167 44.3906 31.8594 45.3724 31.8906 47.3359V53H30.4453V47.4219C30.4453 46.8177 30.3073 46.3672 30.0312 46.0703C29.7552 45.7682 29.2917 45.6172 28.6406 45.6172C28.1042 45.6172 27.6589 45.7786 27.3047 46.1016C26.9505 46.4193 26.7448 46.849 26.6875 47.3906V53H25.2344V47.4609C25.2344 46.2318 24.6328 45.6172 23.4297 45.6172C22.4818 45.6172 21.8333 46.0208 21.4844 46.8281V53H20.0391V44.5469H21.4062ZM37.0859 48.7578H33.2734V47.5781H37.0859V48.7578ZM41.2891 51.0391L43.3828 44.5469H44.8594L41.8281 53H40.7266L37.6641 44.5469H39.1406L41.2891 51.0391ZM47.8203 53H46.375V44.5469H47.8203V53ZM46.2578 42.3047C46.2578 42.0703 46.3281 41.8724 46.4688 41.7109C46.6146 41.5495 46.8281 41.4688 47.1094 41.4688C47.3906 41.4688 47.6042 41.5495 47.75 41.7109C47.8958 41.8724 47.9688 42.0703 47.9688 42.3047C47.9688 42.5391 47.8958 42.7344 47.75 42.8906C47.6042 43.0469 47.3906 43.125 47.1094 43.125C46.8281 43.125 46.6146 43.0469 46.4688 42.8906C46.3281 42.7344 46.2578 42.5391 46.2578 42.3047ZM51.5078 44.5469L51.5547 45.6094C52.2005 44.7969 53.0443 44.3906 54.0859 44.3906C55.8724 44.3906 56.7734 45.3984 56.7891 47.4141V53H55.3438V47.4062C55.3385 46.7969 55.1979 46.3464 54.9219 46.0547C54.651 45.763 54.2266 45.6172 53.6484 45.6172C53.1797 45.6172 52.7682 45.7422 52.4141 45.9922C52.0599 46.2422 51.7839 46.5703 51.5859 46.9766V53H50.1406V44.5469H51.5078ZM58.6172 48.7031C58.6172 47.4062 58.9245 46.3646 59.5391 45.5781C60.1536 44.7865 60.9583 44.3906 61.9531 44.3906C62.9427 44.3906 63.7266 44.7292 64.3047 45.4062V41H65.75V53H64.4219L64.3516 52.0938C63.7734 52.8021 62.9688 53.1562 61.9375 53.1562C60.9583 53.1562 60.1589 52.7552 59.5391 51.9531C58.9245 51.151 58.6172 50.1042 58.6172 48.8125V48.7031ZM60.0625 48.8672C60.0625 49.8255 60.2604 50.5755 60.6562 51.1172C61.0521 51.6589 61.599 51.9297 62.2969 51.9297C63.2135 51.9297 63.8828 51.5182 64.3047 50.6953V46.8125C63.8724 46.0156 63.2083 45.6172 62.3125 45.6172C61.6042 45.6172 61.0521 45.8906 60.6562 46.4375C60.2604 46.9844 60.0625 47.7943 60.0625 48.8672ZM67.6172 48.6953C67.6172 47.8672 67.7786 47.1224 68.1016 46.4609C68.4297 45.7995 68.8828 45.2891 69.4609 44.9297C70.0443 44.5703 70.7083 44.3906 71.4531 44.3906C72.6042 44.3906 73.5339 44.7891 74.2422 45.5859C74.9557 46.3828 75.3125 47.4427 75.3125 48.7656V48.8672C75.3125 49.6901 75.1536 50.4297 74.8359 51.0859C74.5234 51.737 74.0729 52.2448 73.4844 52.6094C72.901 52.974 72.2292 53.1562 71.4688 53.1562C70.3229 53.1562 69.3932 52.7578 68.6797 51.9609C67.9714 51.1641 67.6172 50.1094 67.6172 48.7969V48.6953ZM69.0703 48.8672C69.0703 49.8047 69.2865 50.5573 69.7188 51.125C70.1562 51.6927 70.7396 51.9766 71.4688 51.9766C72.2031 51.9766 72.7865 51.6901 73.2188 51.1172C73.651 50.5391 73.8672 49.7318 73.8672 48.6953C73.8672 47.7682 73.6458 47.0182 73.2031 46.4453C72.7656 45.8672 72.1823 45.5781 71.4531 45.5781C70.7396 45.5781 70.1641 45.862 69.7266 46.4297C69.2891 46.9974 69.0703 47.8099 69.0703 48.8672ZM86.3125 53C86.2292 52.8333 86.1615 52.5365 86.1094 52.1094C85.4375 52.8073 84.6354 53.1562 83.7031 53.1562C82.8698 53.1562 82.1849 52.9219 81.6484 52.4531C81.1172 51.9792 80.8516 51.3802 80.8516 50.6562C80.8516 49.776 81.1849 49.0938 81.8516 48.6094C82.5234 48.1198 83.4661 47.875 84.6797 47.875H86.0859V47.2109C86.0859 46.7057 85.9349 46.3047 85.6328 46.0078C85.3307 45.7057 84.8854 45.5547 84.2969 45.5547C83.7812 45.5547 83.349 45.6849 83 45.9453C82.651 46.2057 82.4766 46.5208 82.4766 46.8906H81.0234C81.0234 46.4688 81.1719 46.0625 81.4688 45.6719C81.7708 45.276 82.1771 44.9635 82.6875 44.7344C83.2031 44.5052 83.7682 44.3906 84.3828 44.3906C85.3568 44.3906 86.1198 44.6354 86.6719 45.125C87.224 45.6094 87.5104 46.2786 87.5312 47.1328V51.0234C87.5312 51.7995 87.6302 52.4167 87.8281 52.875V53H86.3125ZM83.9141 51.8984C84.3672 51.8984 84.7969 51.7812 85.2031 51.5469C85.6094 51.3125 85.9036 51.0078 86.0859 50.6328V48.8984H84.9531C83.1823 48.8984 82.2969 49.4167 82.2969 50.4531C82.2969 50.9062 82.4479 51.2604 82.75 51.5156C83.0521 51.7708 83.4401 51.8984 83.9141 51.8984Z" fill="#09485F"/>
<g clip-path="url(#clip0)">
<path d="M128.328 16.6211V30.9576C128.328 31.39 128.239 31.8182 128.065 32.2177C127.891 32.6172 127.636 32.9802 127.315 33.2859C126.994 33.5917 126.613 33.8342 126.193 33.9997C125.774 34.1652 125.324 34.2504 124.87 34.2504H105.708C105.244 34.2504 104.783 34.1631 104.354 33.9936C103.925 33.8242 103.535 33.5757 103.206 33.2626C102.878 32.9495 102.618 32.5778 102.44 32.1688C102.263 31.7598 102.172 31.3215 102.172 30.879V16.6211" stroke="#09485F" stroke-width="2" stroke-miterlimit="10"/>
<path d="M97.6212 17.1113L113.786 1.09607C113.988 0.893742 114.232 0.732662 114.501 0.622598C114.771 0.512534 115.061 0.45578 115.355 0.45578C115.648 0.45578 115.938 0.512534 116.208 0.622598C116.478 0.732662 116.721 0.893742 116.924 1.09607L132.879 17.1113" stroke="#09485F" stroke-width="2" stroke-miterlimit="10"/>
<path d="M114.694 26.7998C115.269 26.4709 115.812 26.0932 116.316 25.6713C117.253 24.8621 118.039 23.9084 118.643 22.8503C119.304 21.7097 119.746 20.4663 119.949 19.1783C120.168 17.8472 120.124 16.4889 119.818 15.1733C119.542 13.8887 118.988 12.6729 118.191 11.6031C117.559 10.7442 116.713 10.0482 115.729 9.57746C115.421 9.44269 115.093 9.35378 114.757 9.31385L114.417 9.27686C114.417 9.27686 114.417 9.38322 114.344 9.58671C114.271 9.79019 114.155 10.0723 114.048 10.3637C113.704 11.0779 113.315 11.7713 112.882 12.4401C111.82 14.1015 111.107 15.9441 110.784 17.8649C110.615 18.9114 110.578 19.9732 110.672 21.0282C110.757 22.0554 110.951 23.0718 111.25 24.0619C111.552 25.1788 111.925 26.2769 112.367 27.3501C112.329 27.2391 113.174 26.1569 113.3 25.9904C115.243 22.8364 116.297 19.2985 115.471 15.6404C116.202 17.4193 116.371 19.3627 115.957 21.2316C115.536 23.0915 114.883 24.897 114.014 26.6101C113.907 26.8368 113.771 27.0726 113.664 27.29C113.999 27.1327 114.349 26.9616 114.694 26.7998Z" fill="#A7DC10"/>
<path d="M110.386 26.7766C110.122 26.3817 109.723 26.0857 109.257 25.939C108.79 25.7923 108.285 25.804 107.826 25.9719C107.168 24.9492 106.739 23.8084 106.565 22.6208C106.39 21.4331 106.474 20.224 106.812 19.0687C107.15 17.9134 107.733 16.8366 108.527 15.9055C109.321 14.9744 110.307 14.2088 111.425 13.6564C111.507 13.2851 111.644 12.9268 111.833 12.5927C110.494 13.1213 109.292 13.9199 108.308 14.9334C107.325 15.9469 106.584 17.1514 106.136 18.4638C105.688 19.7762 105.544 21.1655 105.715 22.5359C105.885 23.9062 106.365 25.2252 107.122 26.402C106.767 26.7256 106.54 27.1562 106.481 27.6208C106.422 28.0853 106.533 28.555 106.796 28.9502L107.02 29.2832L107.642 28.9086L108.307 29.9121L109.006 29.4867L108.341 28.4831L109.138 28.0207L109.808 29.0242L110.507 28.5987L109.837 27.5952L110.609 27.1327L110.386 26.7766Z" fill="#A7DC10" stroke="#A7DC10" stroke-width="0.5" stroke-miterlimit="10"/>
<path d="M113.786 27.2391C113.271 28.4693 112.975 29.1167 113.431 29.8428C114.116 30.9435 115.622 30.9712 115.69 30.9712C118.007 30.9781 120.254 30.2208 122.051 28.828C123.848 27.4353 125.082 25.493 125.545 23.3315C126.007 21.17 125.669 18.9227 124.588 16.9717C123.507 15.0207 121.749 13.4864 119.614 12.6298C119.78 12.9581 119.954 13.2818 120.144 13.5963C120.188 13.6703 120.217 13.7443 120.26 13.8183C122.023 14.7764 123.403 16.263 124.186 18.0462C124.969 19.8295 125.109 21.8091 124.586 23.6766C124.064 25.544 122.906 27.1942 121.295 28.3698C119.684 29.5454 117.71 30.1804 115.68 30.1758C115.68 30.1758 114.573 30.148 114.131 29.4312C113.732 28.793 114.412 27.7201 115.18 26.3373L113.786 27.2391Z" fill="#A7DC10" stroke="#A7DC10" stroke-width="0.5" stroke-miterlimit="10"/>
</g>
<g clip-path="url(#clip1)">
<path d="M111.838 47.1707H107.184V50.4872H112.764V52.8636H104.105V39.5592H112.764V41.9383H107.184V44.7998H111.838V47.1707Z" fill="#A7DC10"/>
<path d="M124.621 48.3779L124.64 48.4324C124.663 49.9513 124.238 51.1013 123.365 51.8825C122.492 52.6638 121.257 53.0553 119.661 53.0571C118.027 53.0571 116.715 52.5539 115.727 51.5473C114.738 50.5408 114.244 49.2255 114.244 47.6013V44.8243C114.244 43.2019 114.72 41.8874 115.672 40.8809C116.625 39.8744 117.888 39.3703 119.461 39.3684C121.138 39.3684 122.434 39.7609 123.349 40.5457C124.264 41.3306 124.714 42.4733 124.702 43.974L124.675 44.0285H121.698C121.698 43.211 121.525 42.6278 121.179 42.2735C120.832 41.9192 120.27 41.7448 119.482 41.7448C119.162 41.7246 118.842 41.7913 118.556 41.938C118.27 42.0846 118.028 42.3059 117.856 42.5787C117.461 43.2506 117.273 44.0255 117.315 44.8052V47.6013C117.273 48.3938 117.484 49.1789 117.918 49.8414C118.116 50.117 118.379 50.3384 118.683 50.4854C118.988 50.6325 119.324 50.7006 119.661 50.6835C120.363 50.6835 120.869 50.5063 121.179 50.152C121.489 49.7978 121.645 49.2073 121.647 48.3807L124.621 48.3779Z" fill="#A7DC10"/>
<path d="M137.338 47.4078C137.364 48.1533 137.24 48.8963 136.974 49.5925C136.708 50.2887 136.305 50.9239 135.79 51.4601C134.759 52.5266 133.411 53.0589 131.748 53.0571C130.085 53.0553 128.732 52.523 127.689 51.4601C127.17 50.9261 126.764 50.2917 126.496 49.5951C126.228 48.8986 126.102 48.1545 126.128 47.4078V45.0151C126.104 44.2698 126.229 43.5273 126.496 42.832C126.764 42.1366 127.168 41.5027 127.684 40.9681C128.721 39.9017 130.074 39.3684 131.743 39.3684C133.411 39.3684 134.764 39.9017 135.801 40.9681C136.314 41.5041 136.715 42.1387 136.979 42.834C137.243 43.5293 137.365 44.2711 137.338 45.0151V47.4078ZM134.281 44.996C134.315 44.1642 134.081 43.3436 133.612 42.6578C133.384 42.3733 133.095 42.1438 132.768 41.9861C132.44 41.8285 132.081 41.7467 131.718 41.7467C131.355 41.7467 130.996 41.8285 130.669 41.9861C130.341 42.1438 130.052 42.3733 129.824 42.6578C129.361 43.3478 129.131 44.1694 129.167 45.0014V47.4132C129.129 48.2512 129.364 49.0787 129.835 49.7705C130.051 50.0687 130.337 50.3084 130.668 50.4681C130.998 50.6279 131.363 50.7028 131.729 50.6862C132.092 50.7039 132.453 50.6293 132.78 50.4692C133.107 50.3092 133.388 50.0689 133.599 49.7705C134.066 49.0771 134.298 48.2504 134.262 47.4132L134.281 44.996Z" fill="#A7DC10"/>
<path d="M102.129 52.9429H93.2291V50.9893L97.1727 46.6222C97.6216 46.1309 98.0123 45.5886 98.337 45.0062C98.554 44.6297 98.6802 44.207 98.7053 43.7722C98.7288 43.3474 98.611 42.9268 98.3705 42.5772C98.2392 42.4228 98.0732 42.3024 97.8863 42.226C97.6994 42.1496 97.4971 42.1195 97.2963 42.1381C97.083 42.1304 96.8714 42.1791 96.6825 42.2794C96.4937 42.3796 96.3341 42.528 96.2196 42.7097C95.9478 43.1458 95.8139 43.655 95.8358 44.1697H92.9226L92.9045 44.1178C92.878 43.5564 92.9684 42.9957 93.1698 42.4718C93.3712 41.9478 93.6792 41.4722 94.074 41.0756C94.8845 40.2443 95.9586 39.8286 97.2963 39.8286C98.701 39.8286 99.7846 40.175 100.547 40.8678C101.309 41.5605 101.691 42.5131 101.691 43.7255C101.704 44.4977 101.483 45.2555 101.057 45.8973C100.348 46.88 99.5732 47.813 98.7388 48.6901L97.1804 50.5736L97.1985 50.6177H102.129V52.9429Z" fill="#09485F"/>
<path d="M69.777 43.991L78.7794 34.5509C78.8923 34.4316 79.0281 34.3367 79.1786 34.2718C79.3291 34.2069 79.491 34.1734 79.6547 34.1734C79.8184 34.1734 79.9804 34.2069 80.1308 34.2718C80.2813 34.3367 80.4171 34.4316 80.5301 34.5509L89.4161 43.991" stroke="#09485F" stroke-width="2" stroke-miterlimit="10"/>
</g>
<defs>
<clipPath id="clip0">
<rect width="35.9574" height="36.4286" fill="white" transform="translate(97.2715)"/>
</clipPath>
<clipPath id="clip1">
<rect width="51" height="18.9429" fill="white" transform="translate(89.5 36.4286)"/>
</clipPath>
</defs>
</svg>
